<svg width="316" height="56" viewBox="0 0 316 56" fill="none" xmlns="http://www.w3.org/2000/svg">
<path d="M18.9558 23.9996H14.5558L13.256 20.0121H6.88102L5.64337 23.9996H1.26837L7.68166 6.07491H12.4691L18.9558 23.9996ZM12.3117 16.9122L10.3491 10.8873C10.2047 10.4373 10.1013 9.89984 10.0391 9.27485H9.9391C9.90071 9.79984 9.79979 10.3207 9.63634 10.8373L7.7242 16.9122H12.3117ZM25.2308 23.9996H21.1933L21.0816 6.07491H25.1191L25.2308 23.9996ZM35.8594 18.5497H29.0219L29.0047 15.7872H35.8422L35.8594 18.5497ZM43.6674 17.8247L43.7058 23.9996H39.6683L39.5566 6.07491H45.8816C50.3983 6.07491 52.6685 7.97904 52.6922 11.7873C52.7034 13.5873 52.0625 15.0456 50.7695 16.1622C49.4847 17.2705 47.759 17.8247 45.5924 17.8247H43.6674ZM43.6134 9.17485L43.6483 14.7622H45.2358C47.3858 14.7622 48.4549 13.8206 48.4432 11.9373C48.4317 10.0957 47.3509 9.17485 45.2009 9.17485H43.6134ZM60.3328 24.312C58.1995 24.312 56.5166 23.7162 55.2842 22.5246C54.06 21.3246 53.4415 19.6996 53.4288 17.6497C53.4156 15.5331 54.0386 13.8789 55.2978 12.6873C56.557 11.4873 58.2658 10.8873 60.4241 10.8873C62.5491 10.8873 64.2195 11.4873 65.4353 12.6873C66.6511 13.8789 67.2651 15.4581 67.2774 17.4247C67.2906 19.5496 66.6761 21.2288 65.4338 22.4621C64.1998 23.6954 62.4995 24.312 60.3328 24.312ZM60.368 13.9122C59.4346 13.9122 58.7116 14.2331 58.199 14.8747C57.6863 15.5164 57.4336 16.4247 57.441 17.5997C57.4563 20.058 58.4556 21.2871 60.4389 21.2871C62.3306 21.2871 63.2686 20.0246 63.2528 17.4997C63.2379 15.1081 62.2763 13.9122 60.368 13.9122ZM88.3386 11.1998L84.7308 23.9996H80.5808L78.6466 16.4997C78.5185 15.9997 78.4442 15.4539 78.4239 14.8622H78.3489C78.2946 15.5122 78.2146 16.0414 78.1088 16.4497L76.1308 23.9996H72.0308L68.3386 11.1998H72.3636L74.1781 19.5496C74.2639 19.9413 74.3293 20.4163 74.3745 20.9746H74.4495C74.4875 20.3913 74.5595 19.8996 74.6653 19.4996L76.8136 11.1998H80.5761L82.6031 19.5496C82.6544 19.758 82.7158 20.2413 82.7871 20.9996H82.8746C82.9133 20.5163 82.977 20.033 83.0656 19.5496L84.6761 11.1998H88.3386ZM101.648 18.7247H93.298C93.4429 20.583 94.6195 21.5121 96.8278 21.5121C98.2362 21.5121 99.4716 21.1788 100.534 20.5121L100.552 23.3621C99.3725 23.9954 97.837 24.312 95.9453 24.312C93.8786 24.312 92.2709 23.7412 91.1221 22.5996C89.9733 21.4496 89.3925 19.8496 89.3797 17.7997C89.3665 15.6747 89.9726 13.9914 91.1982 12.7498C92.4238 11.5081 93.9366 10.8873 95.7366 10.8873C97.6033 10.8873 99.0484 11.4415 100.072 12.5498C101.104 13.6581 101.626 15.1622 101.638 17.0622L101.648 18.7247ZM97.9704 16.2997C97.9589 14.4664 97.2115 13.5498 95.7282 13.5498C95.0949 13.5498 94.5465 13.8123 94.0831 14.3372C93.6281 14.8622 93.353 15.5164 93.2579 16.2997H97.9704ZM112.323 14.7622C111.847 14.5039 111.292 14.3747 110.658 14.3747C109.8 14.3747 109.131 14.6914 108.652 15.3247C108.172 15.9497 107.936 16.8039 107.943 17.8872L107.981 23.9996H104.031L103.951 11.1998H107.901L107.916 13.5748H107.966C108.58 11.8415 109.7 10.9748 111.325 10.9748C111.741 10.9748 112.067 11.0248 112.301 11.1248L112.323 14.7622ZM125.598 18.7247H117.248C117.393 20.583 118.57 21.5121 120.778 21.5121C122.186 21.5121 123.422 21.1788 124.484 20.5121L124.502 23.3621C123.322 23.9954 121.787 24.312 119.895 24.312C117.829 24.312 116.221 23.7412 115.072 22.5996C113.923 21.4496 113.342 19.8496 113.33 17.7997C113.316 15.6747 113.923 13.9914 115.148 12.7498C116.374 11.5081 117.887 10.8873 119.687 10.8873C121.553 10.8873 122.998 11.4415 124.022 12.5498C125.054 13.6581 125.576 15.1622 125.588 17.0622L125.598 18.7247ZM121.92 16.2997C121.909 14.4664 121.162 13.5498 119.678 13.5498C119.045 13.5498 118.497 13.8123 118.033 14.3372C117.578 14.8622 117.303 15.5164 117.208 16.2997H121.92ZM140.506 23.9996H136.556L136.545 22.2371H136.495C135.603 23.6204 134.287 24.312 132.545 24.312C130.945 24.312 129.654 23.7496 128.672 22.6246C127.69 21.4913 127.193 19.9121 127.18 17.8872C127.167 15.7705 127.694 14.0747 128.761 12.7998C129.828 11.5248 131.232 10.8873 132.974 10.8873C134.624 10.8873 135.778 11.479 136.435 12.6623H136.485L136.438 5.04993H140.388L140.506 23.9996ZM136.592 17.7747L136.586 16.8122C136.581 15.9789 136.335 15.2872 135.848 14.7372C135.361 14.1872 134.73 13.9122 133.955 13.9122C133.08 13.9122 132.399 14.2581 131.912 14.9497C131.425 15.633 131.185 16.5747 131.192 17.7747C131.199 18.8997 131.442 19.7663 131.921 20.3746C132.4 20.9829 133.06 21.2871 133.901 21.2871C134.701 21.2871 135.349 20.9663 135.845 20.3246C136.35 19.683 136.599 18.833 136.592 17.7747ZM165.998 22.7996C164.255 23.8079 162.083 24.312 159.483 24.312C156.599 24.312 154.32 23.5162 152.643 21.9246C150.975 20.3246 150.132 18.1247 150.114 15.3247C150.097 12.5081 150.991 10.2123 152.796 8.43737C154.602 6.6624 157.013 5.77492 160.03 5.77492C161.93 5.77492 163.606 6.03741 165.06 6.5624L165.083 10.3498C163.695 9.54984 162.001 9.14985 160.001 9.14985C158.326 9.14985 156.963 9.69567 155.911 10.7873C154.868 11.8706 154.352 13.3206 154.363 15.1372C154.375 16.9789 154.854 18.4038 155.802 19.4121C156.759 20.4205 158.041 20.9246 159.649 20.9246C160.616 20.9246 161.382 20.7871 161.947 20.5121L161.925 17.0122H158.337L158.317 13.7873H165.942L165.998 22.7996ZM177.398 14.7622C176.922 14.5039 176.367 14.3747 175.733 14.3747C174.875 14.3747 174.206 14.6914 173.727 15.3247C173.247 15.9497 173.011 16.8039 173.018 17.8872L173.056 23.9996H169.106L169.026 11.1998H172.976L172.991 13.5748H173.041C173.655 11.8415 174.775 10.9748 176.4 10.9748C176.816 10.9748 177.142 11.0248 177.376 11.1248L177.398 14.7622ZM189.956 23.9996H186.218L186.207 22.1621H186.157C185.307 23.5954 184.041 24.312 182.358 24.312C181.116 24.312 180.135 23.9621 179.414 23.2621C178.701 22.5537 178.341 21.6121 178.334 20.4371C178.318 17.9538 179.78 16.5205 182.719 16.1372L186.191 15.6747C186.183 14.2747 185.42 13.5748 183.903 13.5748C182.378 13.5748 180.931 14.0289 179.562 14.9372L179.543 11.9623C180.092 11.679 180.84 11.429 181.789 11.2123C182.746 10.9956 183.616 10.8873 184.399 10.8873C188.049 10.8873 189.885 12.7081 189.908 16.3497L189.956 23.9996ZM186.211 18.7997L186.206 17.9372L183.882 18.2372C182.6 18.4038 181.962 18.983 181.968 19.9746C181.971 20.4246 182.128 20.7954 182.438 21.0871C182.756 21.3704 183.182 21.5121 183.715 21.5121C184.457 21.5121 185.06 21.2579 185.523 20.7496C185.987 20.233 186.216 19.583 186.211 18.7997ZM205.606 23.9996H201.656L201.645 22.2371H201.595C200.703 23.6204 199.387 24.312 197.645 24.312C196.045 24.312 194.754 23.7496 193.772 22.6246C192.79 21.4913 192.293 19.9121 192.28 17.8872C192.267 15.7705 192.794 14.0747 193.861 12.7998C194.928 11.5248 196.332 10.8873 198.074 10.8873C199.724 10.8873 200.878 11.479 201.535 12.6623H201.585L201.538 5.04993H205.488L205.606 23.9996ZM201.692 17.7747L201.686 16.8122C201.681 15.9789 201.435 15.2872 200.948 14.7372C200.461 14.1872 199.83 13.9122 199.055 13.9122C198.18 13.9122 197.499 14.2581 197.012 14.9497C196.525 15.633 196.285 16.5747 196.292 17.7747C196.299 18.8997 196.542 19.7663 197.021 20.3746C197.5 20.9829 198.16 21.2871 199.001 21.2871C199.801 21.2871 200.449 20.9663 200.945 20.3246C201.45 19.683 201.699 18.833 201.692 17.7747ZM210.838 9.17485C210.172 9.17485 209.625 8.97902 209.197 8.58736C208.77 8.18737 208.554 7.69988 208.551 7.12489C208.547 6.53324 208.756 6.04991 209.179 5.67492C209.602 5.29993 210.146 5.11243 210.813 5.11243C211.488 5.11243 212.035 5.29993 212.454 5.67492C212.881 6.04991 213.097 6.53324 213.101 7.12489C213.104 7.72488 212.895 8.21654 212.472 8.59986C212.058 8.98319 211.513 9.17485 210.838 9.17485ZM212.881 23.9996H208.931L208.851 11.1998H212.801L212.881 23.9996ZM228.568 23.9996H224.631L224.587 16.8872C224.574 14.9039 223.86 13.9122 222.443 13.9122C221.76 13.9122 221.199 14.1747 220.76 14.6997C220.322 15.2247 220.105 15.8914 220.11 16.6997L220.156 23.9996H216.206L216.126 11.1998H220.076L220.089 13.2248H220.139C221.071 11.6665 222.437 10.8873 224.237 10.8873C227.07 10.8873 228.498 12.6456 228.52 16.1622L228.568 23.9996ZM244.247 22.5371C244.262 24.912 243.585 26.7495 242.219 28.0495C240.852 29.3578 238.864 30.0119 236.256 30.0119C234.531 30.0119 233.163 29.7661 232.151 29.2745L232.131 25.9495C233.452 26.7162 234.784 27.0995 236.125 27.0995C237.459 27.0995 238.49 26.7453 239.219 26.037C239.948 25.337 240.308 24.3829 240.301 23.1746L240.294 22.1621H240.244C239.353 23.5954 238.029 24.312 236.27 24.312C234.637 24.312 233.338 23.7371 232.372 22.5871C231.407 21.4371 230.918 19.8955 230.906 17.9622C230.892 15.7955 231.415 14.0747 232.474 12.7998C233.532 11.5248 234.932 10.8873 236.674 10.8873C238.232 10.8873 239.403 11.4873 240.185 12.6873H240.235L240.226 11.1998H244.176L244.247 22.5371ZM240.318 17.8497L240.311 16.8372C240.306 16.0289 240.06 15.3414 239.573 14.7747C239.095 14.1997 238.472 13.9122 237.705 13.9122C236.83 13.9122 236.145 14.2539 235.649 14.9372C235.154 15.6205 234.91 16.583 234.917 17.8247C234.924 18.8913 235.167 19.7371 235.646 20.3621C236.125 20.9788 236.776 21.2871 237.601 21.2871C238.418 21.2871 239.075 20.9746 239.571 20.3496C240.075 19.7163 240.324 18.883 240.318 17.8497ZM271.458 24.287C271.016 24.287 270.595 24.2287 270.194 24.1121C269.802 23.9954 269.426 23.8371 269.066 23.6371C268.715 23.4371 268.38 23.2037 268.062 22.9371C267.743 22.6621 267.442 22.3704 267.156 22.0621C266.85 22.3121 266.48 22.5704 266.049 22.8371C265.617 23.1037 265.127 23.3454 264.578 23.5621C264.038 23.7704 263.439 23.9412 262.781 24.0746C262.124 24.2162 261.42 24.287 260.67 24.287C259.695 24.287 258.79 24.1704 257.955 23.9371C257.129 23.7037 256.414 23.3579 255.812 22.8996C255.209 22.4329 254.734 21.8579 254.388 21.1746C254.051 20.4913 253.879 19.6996 253.873 18.7997C253.869 18.0913 253.99 17.4622 254.237 16.9122C254.492 16.3539 254.822 15.8664 255.228 15.4497C255.633 15.0331 256.094 14.6747 256.608 14.3747C257.123 14.0747 257.647 13.8248 258.179 13.6248C257.919 13.4248 257.655 13.1956 257.387 12.9373C257.127 12.6706 256.892 12.3831 256.682 12.0748C256.471 11.7581 256.298 11.4165 256.163 11.0498C256.035 10.6832 255.97 10.2957 255.968 9.88734C255.964 9.22902 256.093 8.64569 256.357 8.13737C256.62 7.62905 256.989 7.19989 257.461 6.8499C257.943 6.4999 258.516 6.23324 259.181 6.04991C259.847 5.86658 260.58 5.77492 261.38 5.77492C262.146 5.77492 262.847 5.87075 263.482 6.06241C264.124 6.25407 264.676 6.52074 265.137 6.8624C265.597 7.20406 265.954 7.61655 266.207 8.09987C266.46 8.57486 266.588 9.09985 266.592 9.67484C266.597 10.5998 266.323 11.404 265.769 12.0873C265.223 12.7623 264.448 13.3123 263.442 13.7373C263.843 13.9206 264.228 14.1289 264.596 14.3622C264.964 14.5956 265.324 14.8622 265.676 15.1622C266.028 15.4622 266.371 15.8039 266.707 16.1872C267.043 16.5622 267.375 16.9955 267.703 17.4872C268.381 16.6289 268.863 15.7164 269.148 14.7497C269.442 13.7748 269.586 12.7623 269.579 11.7123C269.577 11.3956 269.555 11.0915 269.511 10.7998C269.476 10.5082 269.416 10.2373 269.331 9.98734H272.694C272.787 10.254 272.855 10.5123 272.898 10.7623C272.942 11.0123 272.964 11.3081 272.966 11.6498C272.971 12.4581 272.889 13.2456 272.719 14.0122C272.557 14.7789 272.324 15.5122 272.02 16.2122C271.716 16.9122 271.345 17.5747 270.907 18.1997C270.478 18.8247 270.002 19.408 269.481 19.9496C269.892 20.3746 270.314 20.7038 270.749 20.9371C271.184 21.1621 271.593 21.2746 271.976 21.2746C272.376 21.2746 272.784 21.2329 273.201 21.1496C273.617 21.0579 273.978 20.9329 274.286 20.7746L274.304 23.7496C273.847 23.9329 273.394 24.0662 272.944 24.1496C272.503 24.2412 272.008 24.287 271.458 24.287ZM260.852 21.2996C261.343 21.2996 261.805 21.2538 262.238 21.1621C262.671 21.0621 263.078 20.9329 263.461 20.7746C263.843 20.6163 264.196 20.433 264.52 20.2246C264.852 20.0163 265.155 19.7996 265.428 19.5746C264.999 18.908 264.575 18.3455 264.155 17.8872C263.736 17.4205 263.321 17.0247 262.91 16.6997C262.5 16.3664 262.09 16.0872 261.68 15.8622C261.279 15.6372 260.873 15.4331 260.464 15.2497C260.123 15.4164 259.795 15.6039 259.48 15.8122C259.173 16.0122 258.899 16.2497 258.659 16.5247C258.419 16.7914 258.225 17.0997 258.078 17.4497C257.938 17.7913 257.87 18.1872 257.872 18.6372C257.875 19.0372 257.948 19.3996 258.092 19.7246C258.235 20.0496 258.437 20.3288 258.697 20.5621C258.965 20.7954 259.279 20.9788 259.638 21.1121C260.005 21.2371 260.41 21.2996 260.852 21.2996ZM263.093 9.94984C263.092 9.70817 263.045 9.49151 262.952 9.29985C262.859 9.10819 262.733 8.94986 262.574 8.82486C262.415 8.69153 262.235 8.59153 262.034 8.52486C261.834 8.44987 261.621 8.41237 261.396 8.41237C261.121 8.41237 260.867 8.45403 260.634 8.53736C260.41 8.6207 260.211 8.73319 260.037 8.87486C259.871 9.01652 259.743 9.18735 259.652 9.38735C259.562 9.57901 259.517 9.78734 259.519 10.0123C259.522 10.479 259.67 10.9081 259.964 11.2998C260.258 11.6915 260.623 12.0081 261.058 12.2498C261.332 12.1498 261.59 12.0331 261.83 11.8998C262.08 11.7665 262.295 11.6081 262.477 11.4248C262.668 11.2415 262.817 11.029 262.924 10.7873C263.039 10.5457 263.095 10.2665 263.093 9.94984ZM13.6454 38.3618H7.32039L7.34781 42.7617H13.1603L13.1807 46.0366H7.36822L7.41161 52.999H3.37411L3.2624 35.0743H13.6249L13.6454 38.3618ZM27.7787 47.7241H19.4287C19.5736 49.5824 20.7502 50.5115 22.9586 50.5115C24.3669 50.5115 25.6023 50.1782 26.6648 49.5116L26.6826 52.3615C25.5032 52.9948 23.9677 53.3115 22.076 53.3115C20.0094 53.3115 18.4016 52.7407 17.2529 51.599C16.104 50.449 15.5232 48.8491 15.5104 46.7991C15.4972 44.6742 16.1034 42.9909 17.329 41.7492C18.5546 40.5076 20.0674 39.8867 21.8674 39.8867C23.734 39.8867 25.1791 40.4409 26.2027 41.5492C27.2346 42.6575 27.7565 44.1617 27.7683 46.0616L27.7787 47.7241ZM24.1011 45.2991C24.0897 43.4658 23.3423 42.5492 21.859 42.5492C21.2256 42.5492 20.6773 42.8117 20.2139 43.3367C19.7588 43.8617 19.4837 44.5158 19.3886 45.2991H24.1011ZM41.6287 47.7241H33.2787C33.4236 49.5824 34.6002 50.5115 36.8086 50.5115C38.2169 50.5115 39.4523 50.1782 40.5148 49.5116L40.5326 52.3615C39.3532 52.9948 37.8177 53.3115 35.926 53.3115C33.8594 53.3115 32.2516 52.7407 31.1029 51.599C29.954 50.449 29.3732 48.8491 29.3604 46.7991C29.3472 44.6742 29.9534 42.9909 31.179 41.7492C32.4046 40.5076 33.9174 39.8867 35.7174 39.8867C37.584 39.8867 39.0291 40.4409 40.0527 41.5492C41.0846 42.6575 41.6065 44.1617 41.6183 46.0616L41.6287 47.7241ZM37.9511 45.2991C37.9397 43.4658 37.1923 42.5492 35.709 42.5492C35.0756 42.5492 34.5273 42.8117 34.0639 43.3367C33.6088 43.8617 33.3337 44.5158 33.2386 45.2991H37.9511ZM56.5366 52.999H52.5866L52.5756 51.2365H52.5256C51.6342 52.6198 50.3177 53.3115 48.576 53.3115C46.976 53.3115 45.685 52.749 44.703 51.624C43.721 50.4907 43.2236 48.9116 43.211 46.8866C43.1978 44.77 43.7247 43.0742 44.7918 41.7992C45.8588 40.5242 47.2632 39.8867 49.0049 39.8867C50.6549 39.8867 51.8086 40.4784 52.4659 41.6617H52.5159L52.4685 34.0494H56.4185L56.5366 52.999ZM52.6228 46.7741L52.6168 45.8116C52.6116 44.9783 52.3656 44.2867 51.8789 43.7367C51.3921 43.1867 50.7612 42.9117 49.9862 42.9117C49.1112 42.9117 48.43 43.2575 47.9427 43.9492C47.4553 44.6325 47.2153 45.5741 47.2228 46.7741C47.2298 47.8991 47.4727 48.7657 47.9515 49.3741C48.4303 49.9824 49.0905 50.2865 49.9322 50.2865C50.7322 50.2865 51.3802 49.9657 51.8762 49.3241C52.3805 48.6824 52.6294 47.8324 52.6228 46.7741ZM63.8523 51.5115H63.8023L63.8116 52.999H59.8616L59.7435 34.0494H63.6935L63.7438 42.1242H63.7938C64.7595 40.6326 66.1424 39.8867 67.9424 39.8867C69.5924 39.8867 70.8667 40.4534 71.7655 41.5867C72.6642 42.72 73.1197 44.27 73.1319 46.2366C73.1452 48.3699 72.6351 50.0824 71.6015 51.374C70.5678 52.6657 69.1802 53.3115 67.4385 53.3115C65.8635 53.3115 64.6681 52.7115 63.8523 51.5115ZM63.7062 46.1116L63.7143 47.4241C63.7195 48.2491 63.9612 48.9324 64.4396 49.4741C64.918 50.0157 65.528 50.2865 66.2697 50.2865C67.1697 50.2865 67.8634 49.9407 68.3507 49.2491C68.8463 48.5491 69.0902 47.5616 69.0822 46.2866C69.0757 45.2283 68.8413 44.4033 68.3793 43.8117C67.9256 43.2117 67.2779 42.9117 66.4362 42.9117C65.6445 42.9117 64.9881 43.2075 64.4667 43.7992C63.9538 44.3908 63.7002 45.1616 63.7062 46.1116ZM86.1366 52.999H82.3991L82.3876 51.1615H82.3376C81.4882 52.5948 80.2219 53.3115 78.5385 53.3115C77.2969 53.3115 76.3155 52.9615 75.5945 52.2615C74.8817 51.5532 74.5217 50.6115 74.5144 49.4366C74.4989 46.9533 75.9608 45.52 78.9001 45.1366L82.3722 44.6742C82.3635 43.2742 81.6008 42.5742 80.0841 42.5742C78.5591 42.5742 77.1119 43.0284 75.7426 43.9367L75.7241 40.9617C76.2723 40.6784 77.0207 40.4284 77.9694 40.2117C78.9264 39.9951 79.7965 39.8867 80.5799 39.8867C84.2299 39.8867 86.0662 41.7075 86.0889 45.3491L86.1366 52.999ZM82.3917 47.7991L82.3863 46.9366L80.0632 47.2366C78.7809 47.4033 78.1428 47.9824 78.149 48.9741C78.1518 49.4241 78.3083 49.7949 78.6184 50.0865C78.9369 50.3699 79.3627 50.5115 79.8961 50.5115C80.6377 50.5115 81.2403 50.2574 81.7038 49.7491C82.1673 49.2324 82.3966 48.5824 82.3917 47.7991ZM98.9587 52.5365C98.0703 53.0532 96.7844 53.3115 95.101 53.3115C93.1344 53.3115 91.539 52.7157 90.3149 51.524C89.0908 50.3324 88.4729 48.7949 88.4611 46.9116C88.4476 44.7367 89.0869 43.0242 90.3791 41.7742C91.6796 40.5159 93.4215 39.8867 95.6049 39.8867C97.1132 39.8867 98.2061 40.0867 98.8836 40.4867L98.9045 43.8367C98.0756 43.22 97.1529 42.9117 96.1362 42.9117C95.0029 42.9117 94.105 43.245 93.4424 43.9117C92.7882 44.57 92.4647 45.4825 92.472 46.6491C92.4791 47.7824 92.8013 48.6741 93.4387 49.3241C94.076 49.9657 94.9488 50.2865 96.0572 50.2865C97.0405 50.2865 98.0011 49.9782 98.9389 49.3616L98.9587 52.5365ZM114.387 52.999H109.649L105.522 46.6491H105.472L105.512 52.999H101.562L101.443 34.0494H105.393L105.469 46.1116H105.519L109.294 40.1992H113.982L109.432 46.2116L114.387 52.999Z" fill="white"/>
</svg>
