<svg width="18" height="17" viewBox="0 0 18 17" fill="none" xmlns="http://www.w3.org/2000/svg">
<g clip-path="url(#clip0_4_1066)">
<path d="M17.7019 5.90608L9.26438 1.65608C9.183 1.61516 9.09221 1.59375 9.00001 1.59375C8.90781 1.59375 8.81702 1.61516 8.73563 1.65608L0.298132 5.90608C0.208135 5.95138 0.13287 6.01893 0.0803886 6.10151C0.0279069 6.1841 0.000183105 6.2786 0.000183105 6.37491C0.000183105 6.47123 0.0279069 6.56573 0.0803886 6.64831C0.13287 6.73089 0.208135 6.79844 0.298132 6.84374L2.25001 7.82722V11.0426C2.24942 11.3036 2.35111 11.5555 2.53548 11.7498C3.45657 12.7187 5.52024 14.3437 9.00001 14.3437C10.1538 14.3527 11.299 14.1553 12.375 13.7619V15.9374C12.375 16.0783 12.4343 16.2134 12.5398 16.3131C12.6452 16.4127 12.7883 16.4687 12.9375 16.4687C13.0867 16.4687 13.2298 16.4127 13.3353 16.3131C13.4407 16.2134 13.5 16.0783 13.5 15.9374V13.2486C14.2335 12.8487 14.8964 12.343 15.4645 11.7498C15.6489 11.5555 15.7506 11.3036 15.75 11.0426V7.82722L17.7019 6.84374C17.7919 6.79844 17.8671 6.73089 17.9196 6.64831C17.9721 6.56573 17.9998 6.47123 17.9998 6.37491C17.9998 6.2786 17.9721 6.1841 17.9196 6.10151C17.8671 6.01893 17.7919 5.95138 17.7019 5.90608ZM9.00001 13.2812C5.95759 13.2812 4.16813 11.8773 3.37501 11.0426V8.39366L8.73563 11.0937C8.81702 11.1347 8.90781 11.1561 9.00001 11.1561C9.09221 11.1561 9.183 11.1347 9.26438 11.0937L12.375 9.52722V12.6045C11.4891 12.995 10.3725 13.2812 9.00001 13.2812ZM14.625 11.04C14.2878 11.3933 13.9106 11.7107 13.5 11.9862V8.96011L14.625 8.39366V11.04ZM13.2188 7.89827L13.2033 7.88964L9.26579 5.90608C9.13442 5.84271 8.98195 5.83061 8.84122 5.8724C8.7005 5.91418 8.58279 6.0065 8.51344 6.12947C8.4441 6.25243 8.42868 6.39621 8.4705 6.52981C8.51233 6.66341 8.60805 6.77615 8.73704 6.84374L12.0234 8.49991L9.00001 10.0226L1.75782 6.37491L9.00001 2.72722L16.2422 6.37491L13.2188 7.89827Z" fill="black"/>
</g>
<defs>
<clipPath id="clip0_4_1066">
<rect width="18" height="17" fill="white"/>
</clipPath>
</defs>
</svg>
