<svg width="18" height="18" viewBox="0 0 18 18" fill="none" xmlns="http://www.w3.org/2000/svg">
<path d="M10.144 3.22931C10.1631 3.15792 10.1961 3.091 10.241 3.03236C10.286 2.97372 10.3421 2.92452 10.4061 2.88756C10.4701 2.8506 10.5407 2.82661 10.614 2.81697C10.6872 2.80732 10.7617 2.81221 10.8331 2.83134C11.8758 3.10342 12.8272 3.64855 13.5893 4.41059C14.3513 5.17263 14.8964 6.12403 15.1685 7.16681C15.1877 7.23819 15.1925 7.31263 15.1829 7.3859C15.1733 7.45916 15.1493 7.52981 15.1123 7.5938C15.0753 7.65779 15.0261 7.71387 14.9675 7.75884C14.9089 7.80381 14.8419 7.83678 14.7706 7.85587C14.723 7.86835 14.6741 7.87473 14.625 7.87486C14.5011 7.87485 14.3806 7.83391 14.2823 7.75838C14.184 7.68285 14.1134 7.57698 14.0815 7.4572C13.8596 6.60594 13.4147 5.82926 12.7926 5.20722C12.1706 4.58517 11.3939 4.14027 10.5427 3.91837C10.4712 3.89935 10.4042 3.86644 10.3455 3.8215C10.2868 3.77657 10.2375 3.72049 10.2005 3.6565C10.1634 3.5925 10.1394 3.52183 10.1297 3.44853C10.12 3.37523 10.1249 3.30073 10.144 3.22931ZM9.98016 6.16837C10.9498 6.42712 11.5727 7.05009 11.8315 8.0197C11.8634 8.13948 11.934 8.24535 12.0323 8.32088C12.1306 8.39641 12.2511 8.43735 12.375 8.43736C12.4241 8.43723 12.473 8.43085 12.5206 8.41837C12.5919 8.39928 12.6589 8.36631 12.7175 8.32134C12.7761 8.27637 12.8253 8.22029 12.8623 8.1563C12.8993 8.09231 12.9233 8.02166 12.9329 7.9484C12.9425 7.87513 12.9377 7.80069 12.9185 7.72931C12.5585 6.38212 11.6177 5.44134 10.2706 5.08134C10.1264 5.04283 9.97286 5.06317 9.8437 5.13787C9.71454 5.21257 9.62035 5.33551 9.58184 5.47966C9.54333 5.62381 9.56367 5.77735 9.63837 5.90651C9.71307 6.03567 9.83601 6.12987 9.98016 6.16837ZM15.7416 12.8727C15.6162 13.8254 15.1483 14.7 14.4253 15.333C13.7022 15.9659 12.7735 16.3141 11.8125 16.3124C6.22969 16.3124 1.68751 11.7702 1.68751 6.18736C1.68578 5.22639 2.03393 4.29765 2.66691 3.57461C3.2999 2.85157 4.17444 2.38367 5.12719 2.2583C5.36812 2.22888 5.6121 2.27817 5.82272 2.39881C6.03333 2.51945 6.19928 2.70497 6.29579 2.92767L7.78079 6.2429V6.25134C7.85468 6.42182 7.88519 6.60794 7.86961 6.79308C7.85403 6.97823 7.79283 7.15663 7.69149 7.31236C7.67883 7.33134 7.66548 7.34892 7.65141 7.3665L6.18751 9.10181C6.71415 10.172 7.83352 11.2815 8.91774 11.8095L10.6291 10.3534C10.646 10.3392 10.6636 10.3261 10.6819 10.314C10.8375 10.2102 11.0165 10.1469 11.2027 10.1297C11.389 10.1125 11.5766 10.142 11.7485 10.2156L11.7577 10.2198L15.0701 11.7041C15.2932 11.8002 15.4792 11.966 15.6002 12.1767C15.7212 12.3873 15.7708 12.6315 15.7416 12.8727ZM14.625 12.732H14.6173L11.3126 11.252L9.60047 12.7081C9.58387 12.7222 9.5665 12.7354 9.54844 12.7475C9.38655 12.8555 9.19941 12.9197 9.00531 12.9337C8.81121 12.9478 8.61678 12.9112 8.44102 12.8277C7.12407 12.1913 5.81133 10.8885 5.1743 9.58556C5.08995 9.41108 5.0521 9.21778 5.06441 9.02437C5.07673 8.83096 5.13881 8.64402 5.24462 8.48165C5.25654 8.46259 5.26994 8.44449 5.28469 8.42751L6.75001 6.69009L5.27344 3.3854C5.27317 3.3826 5.27317 3.37977 5.27344 3.37697C4.59159 3.46591 3.96555 3.80036 3.51255 4.31769C3.05955 4.83501 2.81066 5.49973 2.81251 6.18736C2.81511 8.57351 3.76416 10.8612 5.45142 12.5484C7.13869 14.2357 9.42636 15.1848 11.8125 15.1874C12.4997 15.1897 13.1642 14.9417 13.6819 14.4897C14.1995 14.0377 14.5348 13.4126 14.625 12.7313V12.732Z" fill="black"/>
</svg>
