<svg width="100" height="86" viewBox="0 0 100 86" fill="none" xmlns="http://www.w3.org/2000/svg">
<g clip-path="url(#clip0_4_558)">
<g filter="url(#filter0_d_4_558)">
<path d="M20.6672 2.70703C20.4562 3.28669 20.4841 3.92643 20.7448 4.4855C21.0055 5.04457 21.4776 5.47718 22.0573 5.68816C22.637 5.89914 23.2767 5.87121 23.8358 5.61051C24.3948 5.34981 24.8275 4.8777 25.0384 4.29803C25.2494 3.71837 25.2215 3.07863 24.9608 2.51956C24.7001 1.96049 24.228 1.52788 23.6483 1.3169C23.0686 1.10592 22.4289 1.13385 21.8698 1.39455C21.3108 1.65525 20.8782 2.12736 20.6672 2.70703ZM75.3709 80.622C75.1599 81.2017 75.1878 81.8414 75.4485 82.4005C75.7092 82.9595 76.1813 83.3921 76.761 83.6031C77.3407 83.8141 77.9804 83.7862 78.5395 83.5255C79.0985 83.2648 79.5311 82.7927 79.7421 82.213C79.9531 81.6333 79.9252 80.9936 79.6645 80.4345C79.4038 79.8755 78.9317 79.4428 78.352 79.2319C77.7723 79.0209 77.1326 79.0488 76.5735 79.3095C76.0145 79.5702 75.5819 80.0423 75.3709 80.622ZM22.4953 3.75292L77.199 81.6679L77.9132 81.1668L23.2095 3.25184L22.4953 3.75292Z" fill="#CF1417"/>
</g>
</g>
<defs>
<filter id="filter0_d_4_558" x="20.5269" y="1.17669" width="59.3555" height="83.4388" filterUnits="userSpaceOnUse" color-interpolation-filters="sRGB">
<feFlood flood-opacity="0" result="BackgroundImageFix"/>
<feColorMatrix in="SourceAlpha" type="matrix" values="0 0 0 0 0 0 0 0 0 0 0 0 0 0 0 0 0 0 127 0" result="hardAlpha"/>
<feOffset dy="0.871429"/>
<feComposite in2="hardAlpha" operator="out"/>
<feColorMatrix type="matrix" values="0 0 0 0 0.952941 0 0 0 0 0.294118 0 0 0 0 0.282353 0 0 0 0.19 0"/>
<feBlend mode="normal" in2="BackgroundImageFix" result="effect1_dropShadow_4_558"/>
<feBlend mode="normal" in="SourceGraphic" in2="effect1_dropShadow_4_558" result="shape"/>
</filter>
<clipPath id="clip0_4_558">
<rect width="83.6571" height="61" fill="white" transform="translate(20.8793) scale(1.00077) rotate(20)"/>
</clipPath>
</defs>
</svg>
