<svg width="290" height="269" viewBox="0 0 290 269" fill="none" xmlns="http://www.w3.org/2000/svg">
<g clip-path="url(#clip0_4_1039)">
<path d="M185.185 60.4046C186.165 57.5119 186.909 54.9212 187.415 52.6333C187.61 52.0579 188.021 51.6394 188.647 51.376C189.274 51.1127 190.023 51.0053 190.896 51.053C192.629 51.1852 194.45 51.5752 196.36 52.2222C198.826 53.0573 200.579 54.2614 201.618 55.8325C202.681 57.3926 202.833 59.2932 202.072 61.5371C201.312 63.7809 199.794 65.2722 197.518 66.0091C195.242 66.747 192.798 66.6735 190.183 65.7879C188.848 65.3355 187.542 64.583 186.265 63.5303C185.872 64.3884 185.416 65.5787 184.902 67.0994L184.468 68.4714C184.317 68.9165 184.151 69.3762 183.968 69.8525C183.851 69.9426 183.714 70.0024 183.568 70.0269C183.438 70.0452 183.342 70.0544 183.28 70.0535C183.209 70.0802 183.131 70.0862 183.057 70.0709C182.988 70.0638 182.92 70.0509 182.853 70.0324C182.729 70.0324 182.594 70.0067 182.445 69.9562L181.972 69.7965C182.406 68.3924 182.812 67.1352 183.189 66.0229L185.185 60.4046ZM186.888 61.5086C187.935 62.876 189.403 63.88 191.294 64.5206C193.192 65.1428 194.985 65.0987 196.672 64.3893C198.365 63.6607 199.499 62.4529 200.071 60.7652C200.642 59.0785 200.402 57.5908 199.349 56.3051C198.297 55.0176 196.834 54.0567 194.962 53.4226C193.107 52.7939 191.322 52.6645 189.605 53.0344C189.289 54.2705 188.383 57.0953 186.888 61.5086ZM210.724 69.1193C211.073 68.6999 211.618 68.0373 212.36 67.1306C213.12 66.2312 213.702 65.5493 214.106 65.0868C214.618 64.4914 215.138 63.9028 215.665 63.3211C216.313 62.631 216.817 62.1501 217.178 61.8803C217.58 61.5651 218 61.2725 218.435 61.0039C219.249 60.4936 220.092 60.3862 220.963 60.6827C221.13 60.7377 221.355 60.8662 221.639 61.0663C220.796 61.2351 219.485 62.2382 217.706 64.0746C215.925 65.91 214.201 67.8583 212.531 69.9177C210.88 71.9835 209.247 73.818 207.629 75.4194C206.036 77.0089 204.943 77.7027 204.35 77.5026C204.084 77.4062 203.839 77.2598 203.628 77.0713C204.237 76.4308 205.137 75.3919 206.327 73.9547C207.541 72.5057 208.534 71.4062 209.306 70.6546C207.664 67.0177 206.5 63.9259 205.813 61.3783C205.145 58.8362 204.995 57.0191 205.366 55.9243C205.429 55.7389 205.593 55.6196 205.861 55.5645C206.133 55.4911 206.408 55.5021 206.686 55.5966C206.965 55.6912 207.153 55.9298 207.249 56.3143C207.346 56.6997 207.422 57.2724 207.473 58.0341C207.55 58.783 207.651 59.6447 207.776 60.6166C207.926 61.5774 208.248 62.8237 208.742 64.3554C209.236 65.8871 209.897 67.4756 210.724 69.1193ZM238.18 76.1582C236.904 79.9227 234.812 82.4079 231.902 83.6128C232.16 84.1956 232.386 84.6866 232.582 85.083C232.655 85.2941 232.88 85.5768 233.256 85.9319C233.638 86.2678 233.881 86.556 233.985 86.7992C234.09 87.0405 234.091 87.3103 233.991 87.6068C233.736 87.6242 233.452 87.5792 233.137 87.4728C232.821 87.3654 232.418 87.0947 231.925 86.6588C231.431 86.2228 231.078 85.741 230.864 85.2143L230.349 84.0781C228.496 84.4838 226.484 84.3195 224.315 83.5844C221.626 82.6731 219.777 81.1157 218.766 78.9132C217.762 76.6923 217.677 74.3484 218.512 71.8825C219.104 70.1223 220.016 68.4865 221.202 67.0571C222.41 65.6264 223.852 64.5747 225.526 63.902C227.226 63.2174 228.91 63.1577 230.579 63.7231C233.287 64.6408 235.442 66.1771 237.048 68.3328C237.829 69.3836 238.328 70.5959 238.544 71.9715C238.785 73.3353 238.664 74.7302 238.18 76.1582ZM230.625 80.6991L231.213 82.0766C233.33 81.0781 234.861 79.1784 235.81 76.3784C236.759 73.5794 236.69 71.2502 235.603 69.3946C234.535 67.5435 232.721 66.1853 230.163 65.3181C228.994 64.9225 227.74 65.0244 226.4 65.6246C225.066 66.2064 223.888 67.0893 222.868 68.2722C221.853 69.4377 221.144 70.6133 220.742 71.7999C220.339 72.9875 220.112 74.0575 220.058 75.0101C220.022 75.97 220.136 76.9295 220.396 77.8541C220.664 78.7719 221.196 79.6125 221.99 80.3779C222.792 81.1249 223.907 81.7407 225.334 82.2243C226.78 82.7144 228.207 82.8355 229.613 82.5887C228.547 80.4293 227.934 79.1564 227.775 78.7728C227.615 78.3834 227.535 77.9658 227.54 77.5449C227.794 77.4659 228.041 77.4669 228.282 77.5485C229.08 77.8193 229.861 78.8701 230.625 80.6991ZM248.185 79.3317C248.162 78.848 247.96 78.4075 247.578 78.0102C247.197 77.6109 246.662 77.2962 245.976 77.0631C245.29 76.8309 244.572 76.8153 243.822 77.0153C243.091 77.2227 242.609 77.6688 242.376 78.3552C242.144 79.0417 242.236 79.6822 242.655 80.2788C243.097 80.8633 243.683 81.392 244.411 81.8664C245.158 82.3464 245.898 82.8456 246.632 83.3623C247.373 83.8625 247.931 84.4746 248.304 85.2005C248.703 85.9145 248.758 86.6982 248.469 87.5508C248.048 88.7934 247.208 89.5634 245.95 89.8607C244.71 90.1635 243.368 90.0709 241.921 89.5808C241.068 89.2917 240.025 88.6796 238.791 87.7453C237.576 86.8166 237.079 86.0283 237.299 85.3785C237.462 84.8967 237.951 84.7939 238.767 85.0702C239.009 85.1528 239.274 85.407 239.562 85.8356C240.454 87.1094 241.52 87.9564 242.763 88.3777C243.431 88.6034 244.043 88.6869 244.6 88.6282C245.635 88.5034 246.313 87.9674 246.633 87.0222C246.828 86.4477 246.697 85.886 246.242 85.3391C245.805 84.7985 245.213 84.2883 244.466 83.8074C243.726 83.3252 242.995 82.8296 242.273 82.3207C241.565 81.8332 240.988 81.1797 240.592 80.4173C240.23 79.6538 240.197 78.837 240.493 77.9652C240.876 76.8336 241.697 76.0894 242.956 75.7296C244.214 75.3708 245.594 75.4451 247.096 75.9545C248.116 76.3004 248.943 76.8795 249.576 77.6945C250.235 78.4956 250.395 79.3978 250.055 80.399C249.829 81.0662 249.336 81.2708 248.576 81.0139C248.26 80.9074 248.067 80.7789 247.992 80.6302C247.938 80.488 247.948 80.2742 248.023 79.9897C248.124 79.6933 248.178 79.4739 248.185 79.3317Z" fill="white"/>
<g opacity="0.8">
<g filter="url(#filter0_d_4_1039)">
<path d="M92.7101 358.508L239.019 330.021C247.032 328.461 252.264 320.699 250.704 312.686L224.094 176.015C223.723 174.11 222.98 172.296 221.908 170.677C220.836 169.059 219.456 167.667 217.846 166.582L155.771 124.74C154.162 123.655 152.354 122.897 150.451 122.511C148.549 122.125 146.589 122.117 144.683 122.488L50.3334 140.858C42.3198 142.418 37.0879 150.179 38.6489 158.193L75.3752 346.822C76.9354 354.836 84.6965 360.068 92.7101 358.508Z" fill="white"/>
</g>
<g filter="url(#filter1_d_4_1039)">
<path d="M176.68 179.009L216.581 171.239C218.185 170.927 219.847 171.265 221.201 172.178C222.556 173.091 223.492 174.504 223.805 176.108C223.428 174.171 222.673 172.328 221.583 170.683C220.494 169.038 219.091 167.624 217.455 166.521L155.627 124.843C152.321 122.615 148.266 121.791 144.352 122.552C145.956 122.24 147.617 122.578 148.972 123.491C150.327 124.404 151.263 125.817 151.575 127.421L159.344 167.323C160.904 175.337 168.665 180.569 176.68 179.009Z" fill="url(#paint0_linear_4_1039)"/>
<path d="M216.54 171.023L176.638 178.792C168.743 180.33 161.098 175.176 159.561 167.281L151.791 127.379C151.57 126.243 151.045 125.188 150.271 124.328C149.496 123.468 148.503 122.835 147.396 122.497C150.266 122.53 153.089 123.397 155.504 125.026L217.332 166.704C219.728 168.319 221.599 170.6 222.715 173.265C221.986 172.366 221.026 171.683 219.938 171.288C218.85 170.893 217.676 170.801 216.54 171.023Z" stroke="url(#paint1_linear_4_1039)" stroke-width="0.440506"/>
</g>
<path d="M95.8963 161.157L63.0962 167.543C61.8022 167.795 60.9574 169.049 61.2094 170.343L62.3498 176.2C62.6017 177.494 63.855 178.338 65.149 178.086L97.9491 171.7C99.2431 171.448 100.088 170.195 99.8359 168.901L98.6955 163.044C98.4435 161.75 97.1903 160.905 95.8963 161.157Z" fill="url(#paint2_linear_4_1039)"/>
<path opacity="0.9" d="M66.1219 195.576C66.0009 194.955 66.1318 194.311 66.4856 193.786C66.8394 193.261 67.3873 192.898 68.0087 192.777L141.811 178.408C142.432 178.287 143.076 178.418 143.601 178.772C144.126 179.125 144.489 179.673 144.61 180.294L145.75 186.152C145.81 186.46 145.809 186.776 145.746 187.084C145.684 187.391 145.562 187.683 145.386 187.943C145.211 188.203 144.986 188.426 144.725 188.599C144.464 188.772 144.171 188.891 143.863 188.951L70.0616 203.32C69.754 203.38 69.4375 203.379 69.1302 203.317C68.823 203.254 68.5311 203.132 68.2711 202.957C68.0112 202.781 67.7883 202.557 67.6153 202.295C67.4422 202.034 67.3224 201.741 67.2626 201.433L66.1219 195.576Z" fill="url(#paint3_linear_4_1039)"/>
<path opacity="0.8" d="M71.0353 220.81C70.9753 220.503 70.9765 220.186 71.0389 219.879C71.1013 219.572 71.2235 219.28 71.3988 219.02C71.574 218.76 71.7987 218.537 72.0601 218.364C72.3215 218.191 72.6144 218.071 72.9222 218.011L157.74 201.497C158.048 201.437 158.364 201.438 158.671 201.5C158.978 201.563 159.27 201.685 159.53 201.86C159.79 202.035 160.013 202.26 160.186 202.522C160.359 202.783 160.479 203.076 160.539 203.384L161.647 209.074C161.768 209.696 161.638 210.34 161.284 210.865C160.93 211.39 160.382 211.752 159.761 211.873L74.9421 228.388C74.6344 228.448 74.3179 228.447 74.0107 228.384C73.7034 228.322 73.4115 228.2 73.1516 228.024C72.8916 227.849 72.6688 227.624 72.4957 227.363C72.3227 227.102 72.2028 226.809 72.143 226.501L71.0353 220.81Z" fill="url(#paint4_linear_4_1039)"/>
<path opacity="0.8" d="M75.9158 245.878C75.7949 245.256 75.9257 244.612 76.2795 244.087C76.6334 243.563 77.1813 243.2 77.8026 243.079L121.112 234.647C121.419 234.587 121.736 234.588 122.043 234.65C122.35 234.713 122.642 234.835 122.902 235.01C123.162 235.185 123.385 235.41 123.558 235.671C123.731 235.933 123.851 236.226 123.911 236.533L125.019 242.224C125.079 242.532 125.077 242.848 125.015 243.156C124.953 243.463 124.83 243.755 124.655 244.015C124.48 244.275 124.255 244.498 123.994 244.671C123.732 244.844 123.439 244.964 123.132 245.023L79.8225 253.456C79.2012 253.577 78.5572 253.446 78.0323 253.093C77.5073 252.739 77.1445 252.191 77.0235 251.569L75.9158 245.878Z" fill="url(#paint5_linear_4_1039)"/>
<path opacity="0.8" d="M80.7962 270.945C80.6753 270.324 80.8061 269.68 81.16 269.155C81.5138 268.63 82.0617 268.267 82.6831 268.146L140.67 256.856C140.978 256.796 141.294 256.797 141.601 256.86C141.909 256.922 142.201 257.044 142.46 257.219C142.72 257.394 142.943 257.619 143.116 257.88C143.289 258.142 143.409 258.434 143.469 258.742L144.61 264.6C144.731 265.221 144.6 265.865 144.246 266.39C143.892 266.915 143.344 267.278 142.723 267.399L84.736 278.689C84.4283 278.749 84.1118 278.748 83.8046 278.685C83.4974 278.623 83.2055 278.501 82.9455 278.325C82.6856 278.15 82.4627 277.925 82.2897 277.664C82.1166 277.403 81.9968 277.11 81.937 276.802L80.7962 270.945Z" fill="url(#paint6_linear_4_1039)"/>
</g>
</g>
<defs>
<filter id="filter0_d_4_1039" x="0.185246" y="107.433" width="288.982" height="312.944" filterUnits="userSpaceOnUse" color-interpolation-filters="sRGB">
<feFlood flood-opacity="0" result="BackgroundImageFix"/>
<feColorMatrix in="SourceAlpha" type="matrix" values="0 0 0 0 0 0 0 0 0 0 0 0 0 0 0 0 0 0 127 0" result="hardAlpha"/>
<feOffset dy="23.4056"/>
<feGaussianBlur stdDeviation="19.0941"/>
<feComposite in2="hardAlpha" operator="out"/>
<feColorMatrix type="matrix" values="0 0 0 0 0 0 0 0 0 0 0 0 0 0 0 0 0 0 0.27 0"/>
<feBlend mode="normal" in2="BackgroundImageFix" result="effect1_dropShadow_4_1039"/>
<feBlend mode="normal" in="SourceGraphic" in2="effect1_dropShadow_4_1039" result="shape"/>
</filter>
<filter id="filter1_d_4_1039" x="120.33" y="114.267" width="112.715" height="90.2702" filterUnits="userSpaceOnUse" color-interpolation-filters="sRGB">
<feFlood flood-opacity="0" result="BackgroundImageFix"/>
<feColorMatrix in="SourceAlpha" type="matrix" values="0 0 0 0 0 0 0 0 0 0 0 0 0 0 0 0 0 0 127 0" result="hardAlpha"/>
<feOffset dx="-7.39133" dy="8.62291"/>
<feGaussianBlur stdDeviation="8.31547"/>
<feComposite in2="hardAlpha" operator="out"/>
<feColorMatrix type="matrix" values="0 0 0 0 0 0 0 0 0 0 0 0 0 0 0 0 0 0 0.25 0"/>
<feBlend mode="normal" in2="BackgroundImageFix" result="effect1_dropShadow_4_1039"/>
<feBlend mode="normal" in="SourceGraphic" in2="effect1_dropShadow_4_1039" result="shape"/>
</filter>
<linearGradient id="paint0_linear_4_1039" x1="188.525" y1="143.059" x2="162.724" y2="181.336" gradientUnits="userSpaceOnUse">
<stop stop-color="#FDFAFA"/>
<stop offset="1" stop-color="#EBEBEB"/>
</linearGradient>
<linearGradient id="paint1_linear_4_1039" x1="177.604" y1="116.078" x2="190.553" y2="182.583" gradientUnits="userSpaceOnUse">
<stop/>
<stop offset="1" stop-color="#666666" stop-opacity="0.12"/>
</linearGradient>
<linearGradient id="paint2_linear_4_1039" x1="98.9196" y1="164.195" x2="76.4155" y2="189.214" gradientUnits="userSpaceOnUse">
<stop stop-color="#F34B48"/>
<stop offset="0.54" stop-color="#FC7E5D"/>
<stop offset="1" stop-color="#FFDF91"/>
</linearGradient>
<linearGradient id="paint3_linear_4_1039" x1="144.834" y1="181.446" x2="127.65" y2="225.431" gradientUnits="userSpaceOnUse">
<stop stop-color="#F34B48"/>
<stop offset="0.54" stop-color="#FC7E5D"/>
<stop offset="1" stop-color="#FFDF91"/>
</linearGradient>
<linearGradient id="paint4_linear_4_1039" x1="160.753" y1="204.479" x2="146.112" y2="250.482" gradientUnits="userSpaceOnUse">
<stop stop-color="#F34B48"/>
<stop offset="0.54" stop-color="#FC7E5D"/>
<stop offset="1" stop-color="#FFDF91"/>
</linearGradient>
<linearGradient id="paint5_linear_4_1039" x1="124.124" y1="237.629" x2="102.28" y2="269.361" gradientUnits="userSpaceOnUse">
<stop stop-color="#F34B48"/>
<stop offset="0.54" stop-color="#FC7E5D"/>
<stop offset="1" stop-color="#FFDF91"/>
</linearGradient>
<linearGradient id="paint6_linear_4_1039" x1="143.693" y1="259.894" x2="123.533" y2="298.769" gradientUnits="userSpaceOnUse">
<stop stop-color="#F34B48"/>
<stop offset="0.54" stop-color="#FC7E5D"/>
<stop offset="1" stop-color="#FFDF91"/>
</linearGradient>
<clipPath id="clip0_4_1039">
<rect width="290" height="268.892" fill="white"/>
</clipPath>
</defs>
</svg>
