<svg width="48" height="48" viewBox="0 0 48 48" fill="none" xmlns="http://www.w3.org/2000/svg">
<g clip-path="url(#clip0_4_803)">
<path d="M46.8048 22.8047C46.1448 10.2103 35.3992 0.534969 22.8048 1.19501C10.2105 1.85505 0.535109 12.6007 1.19515 25.195C1.85519 37.7894 12.6008 47.4647 25.1951 46.8047C37.7895 46.1447 47.4649 35.3991 46.8048 22.8047Z" fill="#EEEEEE"/>
<path d="M26.3069 14.7462L20.7476 15.0376C20.4232 15.0546 20.1624 15.178 19.9662 15.4089C19.7689 15.6397 19.6792 15.926 19.6971 16.2675C19.7151 16.6101 19.8342 16.8854 20.0544 17.0934C20.2738 17.3024 20.5461 17.3989 20.8704 17.3819L21.1257 22.253C21.1487 22.6919 21.0655 23.1008 20.8769 23.4776L17.4271 30.1222C17.2167 30.5489 17.1248 31.007 17.1504 31.4956C17.2108 32.2018 17.4733 32.7877 17.9398 33.2531C18.4273 33.693 19.0077 33.9076 19.6799 33.8967L30.4519 33.3322C31.1216 33.2727 31.6764 32.9987 32.1152 32.5102C32.5305 31.9986 32.7303 31.3885 32.7165 30.6798C32.6909 30.1912 32.5517 29.7453 32.2979 29.3429L28.2079 23.0934C27.9566 22.7396 27.8199 22.3423 27.7969 21.9034L27.5416 17.0323C27.866 17.0153 28.1267 16.8909 28.323 16.66C28.5203 16.4302 28.61 16.1439 28.592 15.8014C28.5741 15.4598 28.455 15.1845 28.2347 14.9755C28.0154 14.7665 27.7431 14.671 27.4188 14.688L26.3069 14.7462ZM23.3495 22.1365L23.0942 17.2654L25.3179 17.1489L25.5732 22.02C25.6192 22.8987 25.882 23.7051 26.3616 24.4392L27.6853 26.4259L21.7439 26.7372L22.8182 24.6249C23.2184 23.8447 23.3955 23.0153 23.3495 22.1365Z" fill="#16A34A"/>
</g>
<defs>
<clipPath id="clip0_4_803">
<rect width="45" height="45" fill="white" transform="translate(0 2.39016) scale(1.01494) rotate(-3)"/>
</clipPath>
</defs>
</svg>
