<svg width="335" height="158" viewBox="0 0 335 158" fill="none" xmlns="http://www.w3.org/2000/svg">
<g clip-path="url(#clip0_4_905)">
<path d="M326.69 1.02588H8.31011C4.00742 1.02588 0.519409 4.51389 0.519409 8.81658V149.049C0.519409 153.352 4.00742 156.84 8.31011 156.84H326.69C330.993 156.84 334.481 153.352 334.481 149.049V8.81658C334.481 4.51389 330.993 1.02588 326.69 1.02588Z" fill="white"/>
<path d="M268 26.9946H132.961C125.79 26.9946 119.977 32.808 119.977 39.9791C119.977 47.1503 125.79 52.9636 132.961 52.9636H268C275.171 52.9636 280.984 47.1503 280.984 39.9791C280.984 32.808 275.171 26.9946 268 26.9946Z" fill="url(#paint0_linear_4_905)" fill-opacity="0.15"/>
<path d="M130.982 43.8744V37.512H135.036V38.2391H131.773V40.2751H134.491V41.0022H131.773V43.1473H135.154V43.8744H130.982ZM135.441 43.8744L137.205 41.4931L135.559 39.239H136.45L137.677 40.9568L138.922 39.239H139.768L138.114 41.4931L139.886 43.8744H138.995L137.641 42.0111L136.287 43.8744H135.441ZM142.752 39.1844C144.033 39.1844 144.978 40.0479 144.978 41.5567C144.978 42.9746 144.033 43.929 142.752 43.929C141.97 43.929 141.443 43.6108 141.161 43.1655V45.6922H140.416V39.239H141.061L141.161 39.9843C141.339 39.7296 141.578 39.5231 141.855 39.3835C142.133 39.2439 142.441 39.1755 142.752 39.1844ZM142.679 43.2654C143.597 43.2654 144.215 42.5656 144.215 41.5567C144.215 40.5478 143.597 39.8479 142.679 39.8479C141.77 39.8479 141.152 40.5478 141.152 41.5385C141.152 42.5565 141.77 43.2654 142.679 43.2654ZM145.829 43.8744V37.512H146.574V43.8744H145.829ZM151.695 43.1927H151.932V43.8744H151.523C150.905 43.8744 150.695 43.6108 150.686 43.1564C150.396 43.5745 149.932 43.929 149.132 43.929C148.114 43.929 147.423 43.42 147.423 42.5747C147.423 41.6476 148.069 41.1295 149.287 41.1295H150.65V40.8114C150.65 40.2115 150.223 39.8479 149.496 39.8479C148.841 39.8479 148.405 40.157 148.314 40.6296H147.569C147.678 39.7207 148.414 39.1844 149.532 39.1844C150.714 39.1844 151.395 39.7752 151.395 40.8568V42.8837C151.395 43.1291 151.486 43.1927 151.695 43.1927ZM150.65 41.9839V41.7566H149.214C148.55 41.7566 148.178 42.0021 148.178 42.5292C148.178 42.9837 148.569 43.2927 149.187 43.2927C150.114 43.2927 150.65 42.7565 150.65 41.9839ZM152.886 38.4573C152.822 38.4593 152.759 38.4482 152.699 38.4247C152.64 38.4011 152.586 38.3657 152.541 38.3206C152.496 38.2755 152.46 38.2216 152.437 38.1622C152.413 38.1029 152.402 38.0394 152.404 37.9756C152.402 37.9118 152.413 37.8482 152.437 37.7889C152.46 37.7296 152.496 37.6757 152.541 37.6305C152.586 37.5854 152.64 37.55 152.699 37.5265C152.759 37.503 152.822 37.4919 152.886 37.4938C152.95 37.4919 153.013 37.503 153.073 37.5265C153.132 37.55 153.186 37.5854 153.231 37.6305C153.276 37.6757 153.312 37.7296 153.335 37.7889C153.359 37.8482 153.37 37.9118 153.368 37.9756C153.37 38.0394 153.359 38.1029 153.335 38.1622C153.312 38.2216 153.276 38.2755 153.231 38.3206C153.186 38.3657 153.132 38.4011 153.073 38.4247C153.013 38.4482 152.95 38.4593 152.886 38.4573ZM152.504 43.8744V39.239H153.25V43.8744H152.504ZM157.531 43.8744H156.758V37.512H157.485L160.903 42.4202V37.512H161.675V43.8744H160.948L157.531 38.9663V43.8744ZM164.937 43.929C163.546 43.929 162.637 42.9746 162.637 41.5567C162.637 40.1479 163.528 39.1844 164.837 39.1844C166.146 39.1844 167 40.0115 167.036 41.384C167.036 41.484 167.027 41.593 167.018 41.7021H163.419V41.7657C163.446 42.6474 164.001 43.2654 164.882 43.2654C165.537 43.2654 166.046 42.9201 166.2 42.3202H166.955C166.773 43.2473 166.009 43.929 164.937 43.929ZM163.464 41.084H166.237C166.164 40.2842 165.619 39.8388 164.846 39.8388C164.164 39.8388 163.537 40.3297 163.464 41.084ZM168.8 43.8744L167.3 39.239H168.082L169.236 43.0109L170.454 39.239H171.145L172.299 43.0109L173.508 39.239H174.262L172.717 43.8744H171.899L170.781 40.4296L169.618 43.8744H168.8ZM175.271 42.6656V39.9206H174.435V39.239H175.271V37.9392H176.017V39.239H177.216V39.9206H176.017V42.6565C176.017 43.0473 176.153 43.1927 176.553 43.1927H177.289V43.8744H176.48C175.589 43.8744 175.271 43.4836 175.271 42.6656ZM179.955 43.929C178.6 43.929 177.655 42.9655 177.655 41.5567C177.655 40.1479 178.6 39.1844 179.955 39.1844C181.309 39.1844 182.254 40.1479 182.254 41.5567C182.254 42.9655 181.309 43.929 179.955 43.929ZM179.955 43.2654C180.873 43.2654 181.491 42.5474 181.491 41.5567C181.491 40.566 180.873 39.8479 179.955 39.8479C179.037 39.8479 178.419 40.566 178.419 41.5567C178.419 42.5474 179.037 43.2654 179.955 43.2654ZM185.381 39.1844C186.426 39.1844 187.253 39.757 187.253 41.2931V43.8744H186.508V41.3385C186.508 40.3751 186.063 39.8661 185.254 39.8661C184.381 39.8661 183.854 40.5114 183.854 41.5567V43.8744H183.109V39.239H183.754L183.854 39.8661C184.127 39.5116 184.599 39.1844 185.381 39.1844ZM189.176 37.4847C189.044 37.9736 188.88 38.4534 188.686 38.9208C188.589 39.1636 188.492 39.3935 188.395 39.6116H187.804C187.847 39.4428 187.89 39.261 187.931 39.0663C187.98 38.8715 188.022 38.678 188.058 38.4846C188.101 38.2846 188.138 38.0911 188.167 37.9028C188.204 37.7146 188.235 37.5419 188.258 37.3848H189.113L189.176 37.4847ZM189.602 42.3474H190.366C190.393 42.8928 190.875 43.2927 191.647 43.2927C192.302 43.2927 192.765 43.011 192.765 42.5838C192.765 42.0021 192.256 41.9566 191.565 41.8748C190.529 41.7476 189.702 41.5385 189.702 40.5751C189.702 39.7298 190.475 39.1753 191.52 39.1844C192.574 39.1935 193.338 39.6843 193.411 40.6478H192.647C192.593 40.1751 192.156 39.8207 191.52 39.8207C190.875 39.8207 190.438 40.0933 190.438 40.5205C190.438 41.0295 190.929 41.0931 191.602 41.1749C192.656 41.3022 193.501 41.5022 193.501 42.5292C193.501 43.3927 192.674 43.929 191.647 43.929C190.448 43.929 189.62 43.3654 189.602 42.3474ZM199.825 40.566C200.407 40.675 201.016 41.1386 201.016 42.1111C201.016 43.1927 200.107 43.929 198.725 43.929C197.344 43.929 196.453 43.1746 196.453 41.9112H197.207C197.216 42.7474 197.871 43.2473 198.771 43.2473C199.598 43.2473 200.234 42.7837 200.234 42.0566C200.234 41.3931 199.689 40.9659 198.698 40.9659H198.153V40.3024H198.652C199.598 40.3024 200.07 39.8297 200.07 39.1844C200.07 38.5391 199.489 38.1392 198.725 38.1392C197.925 38.1392 197.344 38.6209 197.335 39.348H196.58C196.589 38.2301 197.462 37.4575 198.716 37.4575C200.025 37.4575 200.852 38.1392 200.852 39.139C200.852 39.9388 200.434 40.4024 199.825 40.566ZM204.036 39.239H204.245V39.9661H203.872C202.9 39.9661 202.636 40.775 202.636 41.5112V43.8744H201.891V39.239H202.536L202.636 39.9388C202.854 39.5843 203.209 39.239 204.036 39.239ZM208.279 39.9479V37.512H209.024V43.8744H208.379L208.279 43.1291C208.101 43.3838 207.862 43.5902 207.585 43.7299C207.307 43.8695 206.999 43.9379 206.689 43.929C205.407 43.929 204.462 43.0655 204.462 41.5567C204.462 40.1388 205.407 39.1844 206.689 39.1844C207.47 39.1844 207.997 39.5025 208.279 39.9479ZM206.761 43.2654C207.67 43.2654 208.288 42.5656 208.288 41.5749C208.288 40.5569 207.67 39.8479 206.761 39.8479C205.843 39.8479 205.225 40.5478 205.225 41.5567C205.225 42.5656 205.843 43.2654 206.761 43.2654ZM216.218 43.8744H212.528V37.512H213.318V43.1473H216.218V43.8744ZM220.91 43.1927H221.147V43.8744H220.738C220.12 43.8744 219.911 43.6108 219.902 43.1564C219.611 43.5745 219.147 43.929 218.347 43.929C217.329 43.929 216.639 43.42 216.639 42.5747C216.639 41.6476 217.284 41.1295 218.502 41.1295H219.865V40.8114C219.865 40.2115 219.438 39.8479 218.711 39.8479C218.056 39.8479 217.62 40.157 217.529 40.6296H216.784C216.893 39.7207 217.629 39.1844 218.747 39.1844C219.929 39.1844 220.611 39.7752 220.611 40.8568V42.8837C220.611 43.1291 220.701 43.1927 220.91 43.1927ZM219.865 41.9839V41.7566H218.429C217.766 41.7566 217.393 42.0021 217.393 42.5292C217.393 42.9837 217.784 43.2927 218.402 43.2927C219.329 43.2927 219.865 42.7565 219.865 41.9839ZM222.659 43.8744L221.16 39.239H221.941L223.096 43.0109L224.314 39.239H225.004L226.159 43.0109L227.368 39.239H228.122L226.577 43.8744H225.759L224.641 40.4296L223.477 43.8744H222.659ZM233.221 43.929C231.867 43.929 230.921 42.9655 230.921 41.5567C230.921 40.1479 231.867 39.1844 233.221 39.1844C234.575 39.1844 235.521 40.1479 235.521 41.5567C235.521 42.9655 234.575 43.929 233.221 43.929ZM233.221 43.2654C234.139 43.2654 234.757 42.5474 234.757 41.5567C234.757 40.566 234.139 39.8479 233.221 39.8479C232.303 39.8479 231.685 40.566 231.685 41.5567C231.685 42.5474 232.303 43.2654 233.221 43.2654ZM235.831 39.9206V39.239H236.667V38.7209C236.667 37.9028 237.013 37.512 237.876 37.512H238.721V38.1937H237.921C237.549 38.1937 237.412 38.3482 237.412 38.7027V39.239H238.721V39.9206H237.412V43.8744H236.667V39.9206H235.831ZM246.811 39.1844C247.774 39.1844 248.565 39.7389 248.565 41.2022V43.8744H247.82V41.2477C247.82 40.3387 247.42 39.8661 246.72 39.8661C245.947 39.8661 245.475 40.4478 245.475 41.3931V43.8744H244.729V41.2477C244.729 40.3387 244.32 39.8661 243.611 39.8661C242.848 39.8661 242.384 40.5023 242.384 41.4294V43.8744H241.639V39.239H242.284L242.384 39.8752C242.533 39.6549 242.735 39.4759 242.972 39.3551C243.209 39.2343 243.473 39.1756 243.738 39.1844C244.384 39.1844 244.938 39.4753 245.202 40.0661C245.484 39.5662 245.984 39.1844 246.811 39.1844ZM251.603 43.929C250.249 43.929 249.304 42.9655 249.304 41.5567C249.304 40.1479 250.249 39.1844 251.603 39.1844C252.957 39.1844 253.903 40.1479 253.903 41.5567C253.903 42.9655 252.957 43.929 251.603 43.929ZM251.603 43.2654C252.521 43.2654 253.139 42.5474 253.139 41.5567C253.139 40.566 252.521 39.8479 251.603 39.8479C250.685 39.8479 250.067 40.566 250.067 41.5567C250.067 42.5474 250.685 43.2654 251.603 43.2654ZM255.049 42.6656V39.9206H254.213V39.239H255.049V37.9392H255.795V39.239H256.994V39.9206H255.795V42.6565C255.795 43.0473 255.931 43.1927 256.331 43.1927H257.067V43.8744H256.258C255.367 43.8744 255.049 43.4836 255.049 42.6656ZM258.094 38.4573C258.03 38.4593 257.967 38.4482 257.907 38.4247C257.848 38.4011 257.794 38.3657 257.749 38.3206C257.704 38.2755 257.669 38.2216 257.645 38.1622C257.622 38.1029 257.61 38.0394 257.612 37.9756C257.61 37.9118 257.622 37.8482 257.645 37.7889C257.669 37.7296 257.704 37.6757 257.749 37.6305C257.794 37.5854 257.848 37.55 257.907 37.5265C257.967 37.503 258.03 37.4919 258.094 37.4938C258.158 37.4919 258.221 37.503 258.281 37.5265C258.34 37.55 258.394 37.5854 258.439 37.6305C258.484 37.6757 258.52 37.7296 258.543 37.7889C258.567 37.8482 258.578 37.9118 258.576 37.9756C258.578 38.0394 258.567 38.1029 258.543 38.1622C258.52 38.2216 258.484 38.2755 258.439 38.3206C258.394 38.3657 258.34 38.4011 258.281 38.4247C258.221 38.4482 258.158 38.4593 258.094 38.4573ZM257.712 43.8744V39.239H258.458V43.8744H257.712ZM261.616 43.929C260.261 43.929 259.316 42.9655 259.316 41.5567C259.316 40.1479 260.261 39.1844 261.616 39.1844C262.97 39.1844 263.915 40.1479 263.915 41.5567C263.915 42.9655 262.97 43.929 261.616 43.929ZM261.616 43.2654C262.534 43.2654 263.152 42.5474 263.152 41.5567C263.152 40.566 262.534 39.8479 261.616 39.8479C260.698 39.8479 260.079 40.566 260.079 41.5567C260.079 42.5474 260.698 43.2654 261.616 43.2654ZM267.042 39.1844C268.087 39.1844 268.914 39.757 268.914 41.2931V43.8744H268.169V41.3385C268.169 40.3751 267.723 39.8661 266.915 39.8661C266.042 39.8661 265.515 40.5114 265.515 41.5567V43.8744H264.769V39.239H265.415L265.515 39.8661C265.787 39.5116 266.26 39.1844 267.042 39.1844Z" fill="#222222"/>
<path d="M298.773 30.2407H298.514C293.135 30.2407 288.775 34.6007 288.775 39.9791C288.775 45.3574 293.135 49.7175 298.514 49.7175H298.773C304.152 49.7175 308.512 45.3574 308.512 39.9791C308.512 34.6007 304.152 30.2407 298.773 30.2407Z" fill="url(#paint1_linear_4_905)"/>
<path d="M298.773 29.8516H298.514C292.92 29.8516 288.386 34.386 288.386 39.9795C288.386 45.573 292.92 50.1074 298.514 50.1074H298.773C304.367 50.1074 308.901 45.573 308.901 39.9795C308.901 34.386 304.367 29.8516 298.773 29.8516Z" stroke="white" stroke-opacity="0.3" stroke-width="0.77907"/>
<mask id="mask0_4_905" style="mask-type:luminance" maskUnits="userSpaceOnUse" x="293" y="35" width="11" height="10">
<path d="M293.969 35.3047H303.318V44.6535H293.969V35.3047Z" fill="white"/>
</mask>
<g mask="url(#mask0_4_905)">
<path d="M298.643 39.2003C299.057 39.2003 299.453 39.0361 299.745 38.7439C300.037 38.4517 300.202 38.0554 300.202 37.6421C300.202 37.2289 300.037 36.8326 299.745 36.5404C299.453 36.2481 299.057 36.084 298.643 36.084C298.23 36.084 297.834 36.2481 297.542 36.5404C297.249 36.8326 297.085 37.2289 297.085 37.6421C297.085 38.0554 297.249 38.4517 297.542 38.7439C297.834 39.0361 298.23 39.2003 298.643 39.2003ZM301.76 42.1218C301.76 43.0891 301.76 43.8747 298.643 43.8747C295.527 43.8747 295.527 43.0891 295.527 42.1218C295.527 41.1531 296.922 40.3689 298.643 40.3689C300.364 40.3689 301.76 41.1531 301.76 42.1218Z" fill="white"/>
</g>
<path d="M36.4864 78.9326H36.2267C30.8484 78.9326 26.4883 83.2926 26.4883 88.671C26.4883 94.0493 30.8484 98.4094 36.2267 98.4094H36.4864C41.8648 98.4094 46.2248 94.0493 46.2248 88.671C46.2248 83.2926 41.8648 78.9326 36.4864 78.9326Z" fill="url(#paint2_linear_4_905)"/>
<path d="M36.4864 78.543H36.2267C30.6332 78.543 26.0988 83.0774 26.0988 88.6709C26.0988 94.2644 30.6332 98.7988 36.2267 98.7988H36.4864C42.0799 98.7988 46.6143 94.2644 46.6143 88.6709C46.6143 83.0774 42.0799 78.543 36.4864 78.543Z" stroke="white" stroke-opacity="0.3" stroke-width="0.77907"/>
<path d="M36.3086 86.4805L36.9968 88.2256L38.7419 88.9138L36.9968 89.602L36.3086 91.3484L35.6191 89.6032L33.8727 88.9151L35.6191 88.2269L36.3086 86.4805Z" fill="white"/>
<path d="M36.3086 86.2364C36.4072 86.2364 36.4981 86.2975 36.5345 86.3909L37.1837 88.0387L38.8328 88.6879C38.878 88.706 38.9168 88.7373 38.9441 88.7777C38.9714 88.8181 38.986 88.8657 38.986 88.9145C38.986 88.9632 38.9714 89.0109 38.9441 89.0513C38.9168 89.0916 38.878 89.1229 38.8328 89.1411L37.1837 89.7903L36.5345 91.4393C36.5169 91.4851 36.4858 91.5245 36.4453 91.5522C36.4049 91.58 36.357 91.5948 36.3079 91.5948C36.2589 91.5948 36.211 91.58 36.1705 91.5522C36.1301 91.5245 36.099 91.4851 36.0813 91.4393L35.4321 89.7903L33.7831 89.1411C33.7491 89.1276 33.7187 89.1067 33.6939 89.0798C33.6692 89.0529 33.6509 89.0208 33.6403 88.9859C33.6296 88.9509 33.6271 88.9141 33.6327 88.878C33.6383 88.8419 33.652 88.8076 33.6727 88.7775C33.7001 88.7371 33.739 88.7059 33.7844 88.6879L35.4321 88.0387L36.0813 86.3896C36.0997 86.3444 36.1311 86.3057 36.1716 86.2784C36.212 86.2511 36.2597 86.2365 36.3086 86.2364ZM36.3086 87.144L35.8463 88.3139C35.834 88.3451 35.8154 88.3733 35.7917 88.397C35.7681 88.4207 35.7398 88.4392 35.7087 88.4516L34.5375 88.9138L35.7087 89.3761C35.7398 89.3884 35.7681 89.407 35.7917 89.4307C35.8154 89.4543 35.834 89.4826 35.8463 89.5137L36.3073 90.6849L36.7708 89.5137C36.783 89.4827 36.8014 89.4545 36.8248 89.4309C36.8483 89.4072 36.8763 89.3886 36.9072 89.3761L38.0784 88.9138L36.9072 88.4516C36.8764 88.4392 36.8485 88.4207 36.8251 88.3973C36.8017 88.3739 36.7832 88.346 36.7708 88.3152L36.3086 87.144ZM34.1168 85.7495L34.4271 86.413L35.0893 86.7233L34.4271 87.0337L34.1168 87.6959L33.8078 87.0337L33.1429 86.7233L33.8065 86.4143L34.1168 85.7495Z" fill="white"/>
<path d="M54.6336 89.3203V82.9579H58.5873V83.685H55.4243V85.8118H58.0407V86.539H55.423V89.3203H54.631H54.6336ZM61.1154 89.3748C59.7624 89.3748 58.8172 88.4113 58.8172 87.0025C58.8172 85.5937 59.7611 84.6303 61.1154 84.6303C62.471 84.6303 63.4163 85.5937 63.4163 87.0025C63.4163 88.4113 62.4697 89.3748 61.1154 89.3748ZM61.1154 88.7113C62.0347 88.7113 62.6528 87.9932 62.6528 87.0025C62.6528 86.0118 62.0334 85.2938 61.1154 85.2938C60.1987 85.2938 59.5807 86.0118 59.5807 87.0025C59.5807 87.9932 60.1974 88.7113 61.1154 88.7113ZM66.4157 84.6848H66.6234V85.4119H66.2521C65.2783 85.4119 65.016 86.2209 65.016 86.9571V89.3203H64.2707V84.6848H64.916L65.016 85.3847C65.2341 85.0302 65.5873 84.6848 66.4157 84.6848ZM71.7848 89.3748C70.3954 89.3748 69.4865 88.4204 69.4865 87.0025C69.4865 85.5937 70.376 84.6303 71.6848 84.6303C72.9936 84.6303 73.848 85.4574 73.8844 86.8298C73.8844 86.9298 73.8753 87.0389 73.8662 87.148H70.2669V87.2116C70.2942 88.0932 70.8486 88.7113 71.7302 88.7113C72.3847 88.7113 72.8937 88.3659 73.0482 87.766H73.8026C73.6208 88.6931 72.8573 89.3748 71.7848 89.3748ZM70.3123 86.5299H73.0845C73.0118 85.73 72.4665 85.2847 71.6952 85.2847C71.0122 85.2847 70.3851 85.7755 70.3123 86.5299ZM75.8048 89.3203L74.0675 84.6848H74.8673L76.267 88.475L77.6577 84.6848H78.4393L76.7033 89.3203H75.8048ZM80.9272 89.3748C79.5378 89.3748 78.6289 88.4204 78.6289 87.0025C78.6289 85.5937 79.5184 84.6303 80.8272 84.6303C82.136 84.6303 82.9904 85.4574 83.0268 86.8298C83.0268 86.9298 83.0177 87.0389 83.0086 87.148H79.4093V87.2116C79.4366 88.0932 79.991 88.7113 80.8726 88.7113C81.5271 88.7113 82.036 88.3659 82.1906 87.766H82.945C82.7632 88.6931 81.9997 89.3748 80.9272 89.3748ZM79.4547 86.5299H82.2269C82.1542 85.73 81.6089 85.2847 80.8376 85.2847C80.1546 85.2847 79.5274 85.7755 79.4547 86.5299ZM86.0223 84.6848H86.2313V85.4119H85.8587C84.8861 85.4119 84.6226 86.2209 84.6226 86.9571V89.3203H83.8772V84.6848H84.5226L84.6226 85.3847C84.8407 85.0302 85.1952 84.6848 86.0223 84.6848ZM88.2582 89.3475L86.4508 84.6848H87.2428L88.6685 88.3841L90.0501 84.6848H90.8421L88.7049 90.1019C88.414 90.8472 88.2413 91.1381 87.5882 91.1381H86.6962V90.4564H87.3597C87.7882 90.4564 87.8596 90.3473 88.0323 89.9111L88.2582 89.3475ZM97.8732 88.6386H98.1096V89.3203H97.7005C97.0825 89.3203 96.8734 89.0567 96.8643 88.6022C96.5735 89.0203 96.1112 89.3748 95.3101 89.3748C94.2921 89.3748 93.6013 88.8658 93.6013 88.0205C93.6013 87.0934 94.2467 86.5753 95.4646 86.5753H96.828V86.2572C96.828 85.6573 96.4008 85.2938 95.6737 85.2938C95.0192 85.2938 94.583 85.6028 94.4921 86.0754H93.7481C93.8571 85.1665 94.5933 84.6303 95.7113 84.6303C96.8929 84.6303 97.5746 85.2211 97.5746 86.3027V88.3295C97.5746 88.575 97.6642 88.6386 97.8732 88.6386ZM96.828 87.4297V87.2025H95.3919C94.7297 87.2025 94.3557 87.4479 94.3557 87.9751C94.3557 88.4295 94.7466 88.7386 95.3646 88.7386C96.2917 88.7386 96.828 88.2023 96.828 87.4297ZM100.71 89.3748C99.3574 89.3748 98.4666 88.4568 98.4666 87.0116C98.4666 85.5937 99.3846 84.6303 100.73 84.6303C101.866 84.6303 102.584 85.2665 102.775 86.2845H101.993C101.857 85.6664 101.402 85.2938 100.721 85.2938C99.83 85.2938 99.2301 86.0027 99.2301 87.0116C99.2301 88.0205 99.83 88.7113 100.721 88.7113C101.383 88.7113 101.837 88.3295 101.984 87.7387H102.775C102.593 88.7386 101.839 89.3748 100.71 89.3748ZM103.937 88.1114V85.3665H103.101V84.6848H103.937V83.385H104.682V84.6848H105.882V85.3665H104.682V88.1023C104.682 88.4931 104.819 88.6386 105.219 88.6386H105.955V89.3203H105.146C104.255 89.3203 103.937 88.9294 103.937 88.1114ZM106.982 83.9031C106.918 83.9049 106.855 83.8937 106.796 83.8701C106.736 83.8465 106.683 83.8111 106.638 83.766C106.593 83.7208 106.557 83.667 106.534 83.6078C106.511 83.5485 106.499 83.4851 106.501 83.4214C106.499 83.3577 106.511 83.2943 106.534 83.235C106.557 83.1758 106.593 83.122 106.638 83.0768C106.683 83.0317 106.736 82.9963 106.796 82.9727C106.855 82.9491 106.918 82.9379 106.982 82.9397C107.046 82.9377 107.109 82.9488 107.169 82.9723C107.228 82.9958 107.282 83.0312 107.327 83.0764C107.372 83.1215 107.407 83.1754 107.431 83.2347C107.454 83.2941 107.466 83.3576 107.464 83.4214C107.466 83.4851 107.454 83.5485 107.431 83.6078C107.408 83.667 107.372 83.7208 107.327 83.766C107.282 83.8111 107.229 83.8465 107.169 83.8701C107.11 83.8937 107.046 83.9049 106.982 83.9031ZM106.6 89.3203V84.6848H107.345V89.3203H106.6ZM110.503 89.3748C109.149 89.3748 108.204 88.4113 108.204 87.0025C108.204 85.5937 109.149 84.6303 110.502 84.6303C111.858 84.6303 112.803 85.5937 112.803 87.0025C112.803 88.4113 111.858 89.3748 110.503 89.3748ZM110.503 88.7113C111.421 88.7113 112.039 87.9932 112.039 87.0025C112.039 86.0118 111.421 85.2938 110.503 85.2938C109.585 85.2938 108.967 86.0118 108.967 87.0025C108.967 87.9932 109.585 88.7113 110.503 88.7113ZM115.929 84.6303C116.975 84.6303 117.802 85.2029 117.802 86.7389V89.3203H117.057V86.7844C117.057 85.8209 116.611 85.312 115.802 85.312C114.93 85.312 114.403 85.9573 114.403 87.0025V89.3203H113.657V84.6848H114.303L114.403 85.312C114.675 84.9575 115.148 84.6303 115.929 84.6303ZM119.089 88.3659C119.534 88.3659 119.807 88.7931 119.807 89.293C119.807 90.0656 119.325 90.5291 118.525 90.5473V90.1201C119.107 90.111 119.289 89.702 119.289 89.393C119.289 89.3475 119.289 89.3112 119.279 89.2748C119.193 89.348 119.083 89.3868 118.97 89.3839C118.698 89.3839 118.489 89.2203 118.489 88.8931C118.489 88.5931 118.707 88.3659 119.089 88.3659ZM123.349 88.1114V85.3665H122.513V84.6848H123.349V83.385H124.094V84.6848H125.294V85.3665H124.094V88.1023C124.094 88.4931 124.23 88.6386 124.63 88.6386H125.367V89.3203H124.558C123.667 89.3203 123.349 88.9294 123.349 88.1114ZM128.286 84.6303C129.32 84.6303 130.166 85.2029 130.166 86.7389V89.3203H129.422V86.7844C129.422 85.8209 128.957 85.312 128.157 85.312C127.294 85.312 126.757 85.9573 126.757 87.0025V89.3203H126.013V82.9579H126.757V85.4483C127.03 85.012 127.504 84.6303 128.286 84.6303ZM133.199 89.3748C131.808 89.3748 130.899 88.4204 130.899 87.0025C130.899 85.5937 131.79 84.6303 133.099 84.6303C134.408 84.6303 135.262 85.4574 135.298 86.8298C135.298 86.9298 135.289 87.0389 135.28 87.148H131.681V87.2116C131.708 88.0932 132.263 88.7113 133.144 88.7113C133.799 88.7113 134.308 88.3659 134.462 87.766H135.217C135.035 88.6931 134.271 89.3748 133.199 89.3748ZM131.726 86.5299H134.499C134.426 85.73 133.881 85.2847 133.108 85.2847C132.426 85.2847 131.799 85.7755 131.726 86.5299ZM138.294 84.6848H138.503V85.4119H138.13C137.158 85.4119 136.894 86.2209 136.894 86.9571V89.3203H136.149V84.6848H136.794L136.894 85.3847C137.112 85.0302 137.467 84.6848 138.294 84.6848ZM141.019 89.3748C139.629 89.3748 138.72 88.4204 138.72 87.0025C138.72 85.5937 139.611 84.6303 140.919 84.6303C142.228 84.6303 143.083 85.4574 143.119 86.8298C143.119 86.9298 143.11 87.0389 143.101 87.148H139.502V87.2116C139.529 88.0932 140.083 88.7113 140.965 88.7113C141.619 88.7113 142.128 88.3659 142.283 87.766H143.037C142.855 88.6931 142.092 89.3748 141.019 89.3748ZM139.547 86.5299H142.319C142.246 85.73 141.701 85.2847 140.929 85.2847C140.247 85.2847 139.62 85.7755 139.547 86.5299ZM146.73 83.9031C146.666 83.9051 146.603 83.894 146.543 83.8705C146.484 83.847 146.43 83.8116 146.385 83.7664C146.34 83.7213 146.304 83.6674 146.281 83.6081C146.257 83.5487 146.246 83.4852 146.248 83.4214C146.246 83.3576 146.257 83.2941 146.281 83.2347C146.304 83.1754 146.34 83.1215 146.385 83.0764C146.43 83.0312 146.484 82.9958 146.543 82.9723C146.603 82.9488 146.666 82.9377 146.73 82.9397C146.794 82.9377 146.857 82.9488 146.917 82.9723C146.976 82.9958 147.03 83.0312 147.075 83.0764C147.12 83.1215 147.156 83.1754 147.179 83.2347C147.203 83.2941 147.214 83.3576 147.212 83.4214C147.214 83.4852 147.203 83.5487 147.179 83.6081C147.156 83.6674 147.12 83.7213 147.075 83.7664C147.03 83.8116 146.976 83.847 146.917 83.8705C146.857 83.894 146.794 83.9051 146.73 83.9031ZM146.348 89.3203V84.6848H147.094V89.3203H146.348ZM147.923 87.7933H148.687C148.714 88.3386 149.196 88.7386 149.968 88.7386C150.623 88.7386 151.086 88.4568 151.086 88.0296C151.086 87.4479 150.577 87.4025 149.887 87.3206C148.85 87.1934 148.023 86.9844 148.023 86.0209C148.023 85.1756 148.796 84.6212 149.841 84.6303C150.895 84.6394 151.659 85.1302 151.732 86.0936H150.968C150.914 85.621 150.477 85.2665 149.841 85.2665C149.196 85.2665 148.759 85.5392 148.759 85.9664C148.759 86.4754 149.25 86.539 149.923 86.6208C150.977 86.748 151.823 86.948 151.823 87.9751C151.823 88.8385 150.995 89.3748 149.968 89.3748C148.769 89.3748 147.941 88.8113 147.923 87.7933ZM159.128 88.6386H159.364V89.3203H158.955C158.337 89.3203 158.128 89.0567 158.119 88.6022C157.828 89.0203 157.364 89.3748 156.564 89.3748C155.546 89.3748 154.856 88.8658 154.856 88.0205C154.856 87.0934 155.501 86.5753 156.719 86.5753H158.082V86.2572C158.082 85.6573 157.655 85.2938 156.928 85.2938C156.274 85.2938 155.837 85.6028 155.746 86.0754H155.001C155.11 85.1665 155.846 84.6303 156.964 84.6303C158.146 84.6303 158.828 85.2211 158.828 86.3027V88.3295C158.828 88.575 158.919 88.6386 159.128 88.6386ZM158.082 87.4297V87.2025H156.646C155.983 87.2025 155.61 87.4479 155.61 87.9751C155.61 88.4295 156.001 88.7386 156.619 88.7386C157.546 88.7386 158.082 88.2023 158.082 87.4297ZM162.209 84.6303C163.254 84.6303 164.081 85.2029 164.081 86.7389V89.3203H163.336V86.7844C163.336 85.8209 162.891 85.312 162.082 85.312C161.209 85.312 160.682 85.9573 160.682 87.0025V89.3203H159.937V84.6848H160.582L160.682 85.312C160.955 84.9575 161.427 84.6303 162.209 84.6303ZM169.546 89.3748C168.156 89.3748 167.247 88.4204 167.247 87.0025C167.247 85.5937 168.138 84.6303 169.446 84.6303C170.755 84.6303 171.61 85.4574 171.646 86.8298C171.646 86.9298 171.637 87.0389 171.628 87.148H168.028V87.2116C168.056 88.0932 168.61 88.7113 169.492 88.7113C170.146 88.7113 170.655 88.3659 170.81 87.766H171.564C171.382 88.6931 170.619 89.3748 169.546 89.3748ZM168.074 86.5299H170.846C170.773 85.73 170.228 85.2847 169.455 85.2847C168.774 85.2847 168.147 85.7755 168.074 86.5299ZM176.15 85.3937L176.25 84.6848H176.896V91.1381H176.15V88.575C175.972 88.8297 175.734 89.0361 175.456 89.1757C175.178 89.3153 174.87 89.3837 174.56 89.3748C173.278 89.3748 172.333 88.5113 172.333 87.0025C172.333 85.5846 173.278 84.6303 174.56 84.6303C175.341 84.6303 175.869 84.9484 176.15 85.3937ZM174.632 88.7113C175.541 88.7113 176.159 88.0114 176.159 87.0207C176.159 86.0027 175.541 85.2938 174.632 85.2938C173.714 85.2938 173.096 85.9936 173.096 87.0025C173.096 88.0114 173.714 88.7113 174.632 88.7113ZM181.156 87.0025V84.6848H181.901V89.3203H181.256L181.156 88.7022C180.883 89.0476 180.438 89.3748 179.674 89.3748C178.656 89.3748 177.847 88.8022 177.847 87.2661V84.6848H178.593V87.2207C178.593 88.1841 179.029 88.6931 179.802 88.6931C180.647 88.6931 181.156 88.0478 181.156 87.0025ZM187.017 88.6386H187.253V89.3203H186.844C186.226 89.3203 186.017 89.0567 186.008 88.6022C185.717 89.0203 185.254 89.3748 184.454 89.3748C183.436 89.3748 182.745 88.8658 182.745 88.0205C182.745 87.0934 183.39 86.5753 184.608 86.5753H185.972V86.2572C185.972 85.6573 185.545 85.2938 184.817 85.2938C184.163 85.2938 183.727 85.6028 183.636 86.0754H182.891C183 85.1665 183.736 84.6303 184.854 84.6303C186.035 84.6303 186.717 85.2211 186.717 86.3027V88.3295C186.717 88.575 186.808 88.6386 187.017 88.6386ZM185.972 87.4297V87.2025H184.536C183.872 87.2025 183.499 87.4479 183.499 87.9751C183.499 88.4295 183.89 88.7386 184.508 88.7386C185.435 88.7386 185.972 88.2023 185.972 87.4297ZM187.826 89.3203V82.9579H188.571V89.3203H187.826ZM196.07 88.6386H196.306V89.3203H195.897C195.279 89.3203 195.07 89.0567 195.061 88.6022C194.77 89.0203 194.307 89.3748 193.507 89.3748C192.489 89.3748 191.798 88.8658 191.798 88.0205C191.798 87.0934 192.443 86.5753 193.661 86.5753H195.025V86.2572C195.025 85.6573 194.597 85.2938 193.87 85.2938C193.216 85.2938 192.78 85.6028 192.689 86.0754H191.943C192.052 85.1665 192.789 84.6303 193.907 84.6303C195.088 84.6303 195.77 85.2211 195.77 86.3027V88.3295C195.77 88.575 195.861 88.6386 196.07 88.6386ZM195.025 87.4297V87.2025H193.588C192.925 87.2025 192.552 87.4479 192.552 87.9751C192.552 88.4295 192.943 88.7386 193.561 88.7386C194.488 88.7386 195.025 88.2023 195.025 87.4297ZM199.152 84.6303C200.198 84.6303 201.025 85.2029 201.025 86.7389V89.3203H200.279V86.7844C200.279 85.8209 199.834 85.312 199.025 85.312C198.153 85.312 197.625 85.9573 197.625 87.0025V89.3203H196.88V84.6848H197.525L197.625 85.312C197.898 84.9575 198.371 84.6303 199.152 84.6303ZM205.574 85.3937V82.9579H206.32V89.3203H205.674L205.574 88.575C205.396 88.8297 205.158 89.0361 204.88 89.1757C204.602 89.3153 204.294 89.3837 203.984 89.3748C202.702 89.3748 201.757 88.5113 201.757 87.0025C201.757 85.5846 202.702 84.6303 203.984 84.6303C204.766 84.6303 205.293 84.9484 205.574 85.3937ZM204.057 88.7113C204.965 88.7113 205.584 88.0114 205.584 87.0207C205.584 86.0027 204.965 85.2938 204.057 85.2938C203.139 85.2938 202.52 85.9936 202.52 87.0025C202.52 88.0114 203.139 88.7113 204.057 88.7113ZM211.85 89.3748C210.496 89.3748 209.55 88.4113 209.55 87.0025C209.55 85.5937 210.496 84.6303 211.85 84.6303C213.204 84.6303 214.149 85.5937 214.149 87.0025C214.149 88.4113 213.204 89.3748 211.85 89.3748ZM211.85 88.7113C212.768 88.7113 213.386 87.9932 213.386 87.0025C213.386 86.0118 212.768 85.2938 211.85 85.2938C210.932 85.2938 210.314 86.0118 210.314 87.0025C210.314 87.9932 210.932 88.7113 211.85 88.7113ZM217.341 84.6303C218.623 84.6303 219.568 85.4937 219.568 87.0025C219.568 88.4204 218.623 89.3748 217.341 89.3748C216.559 89.3748 216.032 89.0567 215.75 88.6113V91.1381H215.005V84.6848H215.65L215.75 85.4301C215.928 85.1754 216.167 84.969 216.445 84.8294C216.722 84.6897 217.03 84.6213 217.341 84.6303ZM217.268 88.7113C218.186 88.7113 218.804 88.0114 218.804 87.0025C218.804 85.9936 218.186 85.2938 217.268 85.2938C216.359 85.2938 215.741 85.9936 215.741 86.9843C215.741 88.0023 216.359 88.7113 217.268 88.7113ZM222.756 84.6303C224.037 84.6303 224.982 85.4937 224.982 87.0025C224.982 88.4204 224.037 89.3748 222.756 89.3748C221.974 89.3748 221.447 89.0567 221.165 88.6113V91.1381H220.42V84.6848H221.065L221.165 85.4301C221.343 85.1754 221.582 84.969 221.859 84.8294C222.137 84.6897 222.445 84.6213 222.756 84.6303ZM222.683 88.7113C223.601 88.7113 224.219 88.0114 224.219 87.0025C224.219 85.9936 223.601 85.2938 222.683 85.2938C221.774 85.2938 221.156 85.9936 221.156 86.9843C221.156 88.0023 221.774 88.7113 222.683 88.7113ZM227.969 89.3748C226.615 89.3748 225.669 88.4113 225.669 87.0025C225.669 85.5937 226.615 84.6303 227.969 84.6303C229.323 84.6303 230.268 85.5937 230.268 87.0025C230.268 88.4113 229.323 89.3748 227.969 89.3748ZM227.969 88.7113C228.887 88.7113 229.505 87.9932 229.505 87.0025C229.505 86.0118 228.887 85.2938 227.969 85.2938C227.051 85.2938 226.433 86.0118 226.433 87.0025C226.433 87.9932 227.051 88.7113 227.969 88.7113ZM230.915 87.7933H231.678C231.706 88.3386 232.187 88.7386 232.96 88.7386C233.614 88.7386 234.078 88.4568 234.078 88.0296C234.078 87.4479 233.569 87.4025 232.878 87.3206C231.842 87.1934 231.015 86.9844 231.015 86.0209C231.015 85.1756 231.788 84.6212 232.833 84.6303C233.887 84.6394 234.651 85.1302 234.723 86.0936H233.96C233.905 85.621 233.469 85.2665 232.833 85.2665C232.187 85.2665 231.751 85.5392 231.751 85.9664C231.751 86.4754 232.242 86.539 232.915 86.6208C233.969 86.748 234.814 86.948 234.814 87.9751C234.814 88.8385 233.987 89.3748 232.96 89.3748C231.76 89.3748 230.933 88.8113 230.915 87.7933ZM236.023 83.9031C235.959 83.9051 235.896 83.894 235.836 83.8705C235.777 83.847 235.723 83.8116 235.678 83.7664C235.633 83.7213 235.598 83.6674 235.574 83.6081C235.55 83.5487 235.539 83.4852 235.541 83.4214C235.539 83.3576 235.55 83.2941 235.574 83.2347C235.598 83.1754 235.633 83.1215 235.678 83.0764C235.723 83.0312 235.777 82.9958 235.836 82.9723C235.896 82.9488 235.959 82.9377 236.023 82.9397C236.087 82.9377 236.15 82.9488 236.21 82.9723C236.269 82.9958 236.323 83.0312 236.368 83.0764C236.413 83.1215 236.449 83.1754 236.472 83.2347C236.496 83.2941 236.507 83.3576 236.505 83.4214C236.507 83.4852 236.496 83.5487 236.472 83.6081C236.449 83.6674 236.413 83.7213 236.368 83.7664C236.323 83.8116 236.269 83.847 236.21 83.8705C236.15 83.894 236.087 83.9051 236.023 83.9031ZM235.641 89.3203V84.6848H236.387V89.3203H235.641ZM237.754 88.1114V85.3665H236.918V84.6848H237.754V83.385H238.499V84.6848H239.699V85.3665H238.499V88.1023C238.499 88.4931 238.636 88.6386 239.035 88.6386H239.772V89.3203H238.963C238.072 89.3203 237.754 88.9294 237.754 88.1114ZM242.437 89.3748C241.047 89.3748 240.138 88.4204 240.138 87.0025C240.138 85.5937 241.029 84.6303 242.337 84.6303C243.646 84.6303 244.501 85.4574 244.537 86.8298C244.537 86.9298 244.528 87.0389 244.519 87.148H240.92V87.2116C240.947 88.0932 241.501 88.7113 242.383 88.7113C243.037 88.7113 243.546 88.3659 243.701 87.766H244.455C244.273 88.6931 243.51 89.3748 242.437 89.3748ZM240.965 86.5299H243.737C243.664 85.73 243.119 85.2847 242.347 85.2847C241.665 85.2847 241.038 85.7755 240.965 86.5299ZM249.911 84.6848H250.12V85.4119H249.748C248.775 85.4119 248.512 86.2209 248.512 86.9571V89.3203H247.766V84.6848H248.412L248.512 85.3847C248.73 85.0302 249.084 84.6848 249.911 84.6848ZM252.637 89.3748C251.246 89.3748 250.337 88.4204 250.337 87.0025C250.337 85.5937 251.228 84.6303 252.537 84.6303C253.846 84.6303 254.7 85.4574 254.736 86.8298C254.736 86.9298 254.727 87.0389 254.718 87.148H251.119V87.2116C251.146 88.0932 251.701 88.7113 252.582 88.7113C253.237 88.7113 253.746 88.3659 253.9 87.766H254.655C254.473 88.6931 253.709 89.3748 252.637 89.3748ZM251.164 86.5299H253.936C253.864 85.73 253.318 85.2847 252.546 85.2847C251.864 85.2847 251.237 85.7755 251.164 86.5299ZM259.686 88.6386H259.922V89.3203H259.513C258.895 89.3203 258.686 89.0567 258.677 88.6022C258.386 89.0203 257.923 89.3748 257.123 89.3748C256.105 89.3748 255.414 88.8658 255.414 88.0205C255.414 87.0934 256.059 86.5753 257.277 86.5753H258.641V86.2572C258.641 85.6573 258.214 85.2938 257.486 85.2938C256.832 85.2938 256.396 85.6028 256.305 86.0754H255.56C255.669 85.1665 256.405 84.6303 257.523 84.6303C258.704 84.6303 259.386 85.2211 259.386 86.3027V88.3295C259.386 88.575 259.477 88.6386 259.686 88.6386ZM258.641 87.4297V87.2025H257.205C256.541 87.2025 256.169 87.4479 256.169 87.9751C256.169 88.4295 256.559 88.7386 257.177 88.7386C258.105 88.7386 258.641 88.2023 258.641 87.4297ZM262.523 89.3748C261.169 89.3748 260.278 88.4568 260.278 87.0116C260.278 85.5937 261.196 84.6303 262.541 84.6303C263.677 84.6303 264.395 85.2665 264.586 86.2845H263.805C263.668 85.6664 263.214 85.2938 262.532 85.2938C261.641 85.2938 261.042 86.0027 261.042 87.0116C261.042 88.0205 261.641 88.7113 262.532 88.7113C263.196 88.7113 263.65 88.3295 263.796 87.7387H264.586C264.405 88.7386 263.65 89.3748 262.523 89.3748ZM265.748 88.1114V85.3665H264.912V84.6848H265.748V83.385H266.494V84.6848H267.694V85.3665H266.494V88.1023C266.494 88.4931 266.63 88.6386 267.03 88.6386H267.766V89.3203H266.957C266.067 89.3203 265.748 88.9294 265.748 88.1114ZM268.793 83.9031C268.73 83.9051 268.666 83.894 268.607 83.8705C268.547 83.847 268.493 83.8116 268.448 83.7664C268.403 83.7213 268.368 83.6674 268.344 83.6081C268.321 83.5487 268.31 83.4852 268.312 83.4214C268.31 83.3576 268.321 83.2941 268.344 83.2347C268.368 83.1754 268.403 83.1215 268.448 83.0764C268.493 83.0312 268.547 82.9958 268.607 82.9723C268.666 82.9488 268.73 82.9377 268.793 82.9397C268.857 82.9377 268.921 82.9488 268.98 82.9723C269.039 82.9958 269.093 83.0312 269.138 83.0764C269.184 83.1215 269.219 83.1754 269.242 83.2347C269.266 83.2941 269.277 83.3576 269.275 83.4214C269.277 83.4852 269.266 83.5487 269.242 83.6081C269.219 83.6674 269.184 83.7213 269.138 83.7664C269.093 83.8116 269.039 83.847 268.98 83.8705C268.921 83.894 268.857 83.9051 268.793 83.9031ZM268.412 89.3203V84.6848H269.157V89.3203H268.412ZM272.315 89.3748C270.96 89.3748 270.015 88.4113 270.015 87.0025C270.015 85.5937 270.96 84.6303 272.315 84.6303C273.669 84.6303 274.614 85.5937 274.614 87.0025C274.614 88.4113 273.669 89.3748 272.315 89.3748ZM272.315 88.7113C273.233 88.7113 273.851 87.9932 273.851 87.0025C273.851 86.0118 273.233 85.2938 272.315 85.2938C271.397 85.2938 270.779 86.0118 270.779 87.0025C270.779 87.9932 271.397 88.7113 272.315 88.7113ZM277.741 84.6303C278.786 84.6303 279.613 85.2029 279.613 86.7389V89.3203H278.868V86.7844C278.868 85.8209 278.423 85.312 277.614 85.312C276.741 85.312 276.214 85.9573 276.214 87.0025V89.3203H275.469V84.6848H276.114L276.214 85.312C276.487 84.9575 276.959 84.6303 277.741 84.6303ZM280.473 88.8658C280.473 88.5568 280.691 88.3568 280.991 88.3568C281.291 88.3568 281.509 88.5568 281.509 88.8658C281.509 89.1748 281.291 89.3748 280.991 89.3748C280.691 89.3748 280.473 89.1748 280.473 88.8658ZM54.1973 109.654V108.927H59.1145V109.654H57.05V115.289H56.2605V109.654H54.196H54.1973ZM62.0789 110.599C63.1137 110.599 63.959 111.172 63.959 112.708V115.289H63.2137V112.753C63.2137 111.79 62.7502 111.281 61.9503 111.281C61.0869 111.281 60.5506 111.926 60.5506 112.972V115.289H59.8053V108.927H60.5506V111.417C60.8233 110.981 61.2959 110.599 62.0776 110.599H62.0789ZM65.2912 109.872C65.2274 109.874 65.1639 109.863 65.1046 109.839C65.0452 109.816 64.9913 109.781 64.9462 109.735C64.9011 109.69 64.8657 109.636 64.8421 109.577C64.8186 109.518 64.8075 109.454 64.8095 109.39C64.8075 109.327 64.8186 109.263 64.842 109.204C64.8655 109.145 64.9008 109.091 64.9458 109.046C64.9907 109.001 65.0445 108.965 65.1037 108.942C65.1629 108.918 65.2263 108.907 65.2899 108.909C65.3538 108.907 65.4175 108.917 65.477 108.941C65.5365 108.964 65.5906 109 65.6358 109.045C65.6811 109.09 65.7166 109.144 65.7402 109.203C65.7638 109.263 65.775 109.326 65.773 109.39C65.7749 109.454 65.7638 109.518 65.7403 109.577C65.7168 109.636 65.6814 109.69 65.6363 109.735C65.5911 109.781 65.5372 109.816 65.4779 109.839C65.4186 109.863 65.355 109.874 65.2912 109.872ZM64.9095 115.289V110.654H65.6548V115.289H64.9095ZM66.4845 113.762H67.248C67.2753 114.308 67.757 114.708 68.5296 114.708C69.184 114.708 69.6475 114.426 69.6475 113.999C69.6475 113.417 69.1385 113.371 68.4478 113.29C67.4116 113.162 66.5845 112.953 66.5845 111.99C66.5845 111.145 67.3571 110.59 68.4023 110.599C69.4567 110.608 70.2202 111.099 70.2929 112.063H69.5294C69.4748 111.59 69.0386 111.235 68.4023 111.235C67.757 111.235 67.3207 111.508 67.3207 111.935C67.3207 112.444 67.8115 112.508 68.4841 112.59C69.5385 112.717 70.3838 112.917 70.3838 113.944C70.3838 114.808 69.5566 115.344 68.5296 115.344C67.3298 115.344 66.504 114.78 66.4845 113.762ZM78.7614 110.599C79.7248 110.599 80.5156 111.154 80.5156 112.617V115.289H79.7703V112.662C79.7703 111.754 79.3703 111.281 78.6705 111.281C77.8979 111.281 77.4253 111.863 77.4253 112.808V115.289H76.6799V112.662C76.6799 111.754 76.2709 111.281 75.5633 111.281C74.7985 111.281 74.3349 111.917 74.3349 112.844V115.289H73.5896V110.654H74.235L74.3349 111.29C74.4838 111.07 74.6861 110.891 74.923 110.77C75.1598 110.649 75.4235 110.59 75.6892 110.599C76.3346 110.599 76.889 110.89 77.1526 111.481C77.4343 110.981 77.9329 110.599 78.7614 110.599ZM83.5552 115.344C82.1646 115.344 81.2557 114.389 81.2557 112.972C81.2557 111.563 82.1464 110.599 83.4553 110.599C84.7641 110.599 85.6185 111.426 85.6548 112.799C85.6548 112.899 85.6457 113.008 85.6367 113.117H82.036V113.181C82.062 114.062 82.6177 114.68 83.4994 114.68C84.1538 114.68 84.6628 114.335 84.8173 113.735H85.5704C85.3886 114.662 84.6277 115.344 83.5552 115.344ZM82.0828 112.499H84.855C84.7823 111.699 84.2369 111.254 83.4643 111.254C82.7827 111.254 82.1555 111.744 82.0828 112.499ZM90.6045 114.608H90.8408V115.289H90.4318C89.8138 115.289 89.6047 115.026 89.5956 114.571C89.3048 114.989 88.8412 115.344 88.0414 115.344C87.0234 115.344 86.3326 114.835 86.3326 113.99C86.3326 113.062 86.9779 112.544 88.1959 112.544H89.5593V112.226C89.5593 111.626 89.1308 111.263 88.4036 111.263C87.7505 111.263 87.313 111.572 87.2221 112.044H86.478C86.5871 111.136 87.322 110.599 88.4413 110.599C89.6229 110.599 90.3046 111.19 90.3046 112.272V114.299C90.3046 114.544 90.3968 114.608 90.6045 114.608ZM89.5593 113.399V113.171H88.1232C87.4597 113.171 87.087 113.417 87.087 113.944C87.087 114.399 87.4765 114.708 88.0959 114.708C89.023 114.708 89.5593 114.171 89.5593 113.399ZM93.6857 110.599C94.731 110.599 95.5581 111.172 95.5581 112.708V115.289H94.8128V112.753C94.8128 111.79 94.3674 111.281 93.5585 111.281C92.6859 111.281 92.1588 111.926 92.1588 112.972V115.289H91.4134V110.654H92.0588L92.1588 111.281C92.4314 110.926 92.9041 110.599 93.6857 110.599ZM96.3177 113.762H97.0812C97.1071 114.308 97.5902 114.708 98.3627 114.708C99.0172 114.708 99.4794 114.426 99.4794 113.999C99.4794 113.417 98.9717 113.371 98.2809 113.29C97.2448 113.162 96.4177 112.953 96.4177 111.99C96.4177 111.145 97.1902 110.59 98.2355 110.599C99.2898 110.608 100.053 111.099 100.126 112.063H99.3626C99.308 111.59 98.8717 111.235 98.2355 111.235C97.5902 111.235 97.1539 111.508 97.1539 111.935C97.1539 112.444 97.6447 112.508 98.3173 112.59C99.3716 112.717 100.217 112.917 100.217 113.944C100.217 114.808 99.3898 115.344 98.3627 115.344C97.163 115.344 96.3359 114.78 96.3177 113.762ZM103.768 114.08V111.335H102.932V110.654H103.768V109.354H104.514V110.654H105.713V111.335H104.514V114.071C104.514 114.462 104.65 114.608 105.05 114.608H105.786V115.289H104.977C104.086 115.289 103.768 114.898 103.768 114.08ZM108.704 110.599C109.74 110.599 110.586 111.172 110.586 112.708V115.289H109.84V112.753C109.84 111.79 109.376 111.281 108.576 111.281C107.713 111.281 107.177 111.926 107.177 112.972V115.289H106.431V108.927H107.177V111.417C107.449 110.981 107.922 110.599 108.704 110.599ZM115.635 114.608H115.871V115.289H115.462C114.844 115.289 114.635 115.026 114.626 114.571C114.335 114.989 113.873 115.344 113.072 115.344C112.054 115.344 111.363 114.835 111.363 113.99C111.363 113.062 112.008 112.544 113.226 112.544H114.589V112.226C114.589 111.626 114.162 111.263 113.435 111.263C112.781 111.263 112.344 111.572 112.254 112.044H111.508C111.617 111.136 112.354 110.599 113.472 110.599C114.653 110.599 115.335 111.19 115.335 112.272V114.299C115.335 114.544 115.426 114.608 115.635 114.608ZM114.589 113.399V113.171H113.153C112.491 113.171 112.117 113.417 112.117 113.944C112.117 114.399 112.508 114.708 113.126 114.708C114.053 114.708 114.589 114.171 114.589 113.399ZM116.789 114.08V111.335H115.953V110.654H116.789V109.354H117.534V110.654H118.734V111.335H117.534V114.071C117.534 114.462 117.671 114.608 118.071 114.608H118.807V115.289H117.998C117.107 115.289 116.789 114.898 116.789 114.08ZM122.896 115.289L121.396 110.654H122.178L123.332 114.426L124.55 110.654H125.241L126.395 114.426L127.603 110.654H128.358L126.813 115.289H125.995L124.877 111.844L123.714 115.289H122.896ZM131.214 110.599C132.25 110.599 133.095 111.172 133.095 112.708V115.289H132.35V112.753C132.35 111.79 131.886 111.281 131.086 111.281C130.223 111.281 129.687 111.926 129.687 112.972V115.289H128.941V108.927H129.687V111.417C129.959 110.981 130.432 110.599 131.214 110.599ZM136.128 115.344C134.738 115.344 133.829 114.389 133.829 112.972C133.829 111.563 134.719 110.599 136.028 110.599C137.337 110.599 138.191 111.426 138.228 112.799C138.228 112.899 138.219 113.008 138.21 113.117H134.61V113.181C134.638 114.062 135.192 114.68 136.074 114.68C136.728 114.68 137.237 114.335 137.392 113.735H138.146C137.964 114.662 137.201 115.344 136.128 115.344ZM134.656 112.499H137.428C137.355 111.699 136.81 111.254 136.037 111.254C135.356 111.254 134.728 111.744 134.656 112.499ZM141.351 110.599C142.396 110.599 143.223 111.172 143.223 112.708V115.289H142.478V112.753C142.478 111.79 142.032 111.281 141.223 111.281C140.351 111.281 139.824 111.926 139.824 112.972V115.289H139.078V110.654H139.724L139.824 111.281C140.096 110.926 140.569 110.599 141.351 110.599ZM146.256 115.344C144.865 115.344 143.957 114.389 143.957 112.972C143.957 111.563 144.847 110.599 146.156 110.599C147.465 110.599 148.319 111.426 148.356 112.799C148.356 112.899 148.347 113.008 148.337 113.117H144.738V113.181C144.765 114.062 145.32 114.68 146.202 114.68C146.856 114.68 147.365 114.335 147.519 113.735H148.274C148.092 114.662 147.329 115.344 146.256 115.344ZM144.784 112.499H147.556C147.483 111.699 146.938 111.254 146.165 111.254C145.483 111.254 144.856 111.744 144.784 112.499ZM150.275 115.289L148.539 110.654H149.339L150.738 114.444L152.129 110.654H152.911L151.175 115.289H150.275ZM155.398 115.344C154.008 115.344 153.099 114.389 153.099 112.972C153.099 111.563 153.99 110.599 155.298 110.599C156.607 110.599 157.462 111.426 157.498 112.799C157.498 112.899 157.489 113.008 157.48 113.117H153.881V113.181C153.908 114.062 154.462 114.68 155.344 114.68C155.998 114.68 156.507 114.335 156.662 113.735H157.416C157.234 114.662 156.471 115.344 155.398 115.344ZM153.926 112.499H156.698C156.625 111.699 156.08 111.254 155.308 111.254C154.626 111.254 153.999 111.744 153.926 112.499ZM160.494 110.654H160.703V111.381H160.33C159.357 111.381 159.094 112.19 159.094 112.926V115.289H158.349V110.654H158.994L159.094 111.354C159.312 110.999 159.666 110.654 160.494 110.654ZM167.826 114.608H168.062V115.289H167.653C167.035 115.289 166.826 115.026 166.817 114.571C166.526 114.989 166.063 115.344 165.263 115.344C164.245 115.344 163.554 114.835 163.554 113.99C163.554 113.062 164.199 112.544 165.417 112.544H166.781V112.226C166.781 111.626 166.353 111.263 165.626 111.263C164.972 111.263 164.536 111.572 164.445 112.044H163.699C163.809 111.136 164.545 110.599 165.663 110.599C166.844 110.599 167.526 111.19 167.526 112.272V114.299C167.526 114.544 167.617 114.608 167.826 114.608ZM166.781 113.399V113.171H165.345C164.681 113.171 164.308 113.417 164.308 113.944C164.308 114.399 164.699 114.708 165.317 114.708C166.244 114.708 166.781 114.171 166.781 113.399ZM170.908 110.599C171.954 110.599 172.781 111.172 172.781 112.708V115.289H172.035V112.753C172.035 111.79 171.59 111.281 170.781 111.281C169.909 111.281 169.381 111.926 169.381 112.972V115.289H168.636V110.654H169.281L169.381 111.281C169.654 110.926 170.127 110.599 170.908 110.599ZM178.246 115.344C176.892 115.344 175.946 114.38 175.946 112.972C175.946 111.563 176.892 110.599 178.246 110.599C179.6 110.599 180.546 111.563 180.546 112.972C180.546 114.38 179.6 115.344 178.246 115.344ZM178.246 114.68C179.164 114.68 179.782 113.962 179.782 112.972C179.782 111.981 179.164 111.263 178.246 111.263C177.328 111.263 176.71 111.981 176.71 112.972C176.71 113.962 177.328 114.68 178.246 114.68ZM183.736 110.599C185.017 110.599 185.963 111.463 185.963 112.972C185.963 114.389 185.017 115.344 183.736 115.344C182.954 115.344 182.427 115.026 182.145 114.58L182.045 115.289H181.4V108.927H182.145V111.399C182.323 111.144 182.562 110.938 182.84 110.798C183.117 110.659 183.425 110.59 183.736 110.599ZM183.663 114.68C184.581 114.68 185.199 113.98 185.199 112.972C185.199 111.963 184.581 111.263 183.663 111.263C182.754 111.263 182.136 111.963 182.136 112.953C182.136 113.971 182.754 114.68 183.663 114.68ZM187.242 109.872C187.178 109.874 187.114 109.863 187.055 109.839C186.996 109.816 186.942 109.781 186.897 109.735C186.851 109.69 186.816 109.636 186.793 109.577C186.769 109.518 186.758 109.454 186.76 109.39C186.758 109.327 186.769 109.263 186.793 109.204C186.816 109.144 186.851 109.09 186.897 109.045C186.942 109 186.996 108.965 187.055 108.941C187.114 108.918 187.178 108.907 187.242 108.909C187.305 108.907 187.369 108.918 187.428 108.941C187.488 108.965 187.542 109 187.587 109.045C187.632 109.09 187.667 109.144 187.691 109.204C187.714 109.263 187.725 109.327 187.723 109.39C187.725 109.454 187.714 109.518 187.691 109.577C187.667 109.636 187.632 109.69 187.587 109.735C187.542 109.781 187.488 109.816 187.428 109.839C187.369 109.863 187.305 109.874 187.242 109.872ZM185.778 117.107V116.425H186.36C186.733 116.425 186.869 116.271 186.869 115.916V110.654H187.614V115.898C187.614 116.716 187.269 117.107 186.405 117.107H185.778ZM190.77 115.344C189.379 115.344 188.47 114.389 188.47 112.972C188.47 111.563 189.361 110.599 190.67 110.599C191.978 110.599 192.833 111.426 192.869 112.799C192.869 112.899 192.86 113.008 192.851 113.117H189.252V113.181C189.279 114.062 189.833 114.68 190.715 114.68C191.369 114.68 191.878 114.335 192.033 113.735H192.787C192.606 114.662 191.842 115.344 190.77 115.344ZM189.297 112.499H192.069C191.997 111.699 191.451 111.254 190.679 111.254C189.997 111.254 189.37 111.744 189.297 112.499ZM195.801 115.344C194.447 115.344 193.556 114.426 193.556 112.981C193.556 111.563 194.474 110.599 195.819 110.599C196.955 110.599 197.673 111.235 197.864 112.253H197.083C196.946 111.635 196.492 111.263 195.81 111.263C194.919 111.263 194.319 111.972 194.319 112.981C194.319 113.99 194.919 114.68 195.81 114.68C196.474 114.68 196.928 114.299 197.073 113.708H197.864C197.682 114.708 196.928 115.344 195.801 115.344ZM199.026 114.08V111.335H198.19V110.654H199.026V109.354H199.772V110.654H200.971V111.335H199.772V114.071C199.772 114.462 199.908 114.608 200.308 114.608H201.044V115.289H200.235C199.344 115.289 199.026 114.898 199.026 114.08ZM206.205 115.344C204.815 115.344 203.906 114.389 203.906 112.972C203.906 111.563 204.797 110.599 206.105 110.599C207.414 110.599 208.269 111.426 208.305 112.799C208.305 112.899 208.296 113.008 208.287 113.117H204.688V113.181C204.715 114.062 205.269 114.68 206.151 114.68C206.805 114.68 207.314 114.335 207.469 113.735H208.223C208.042 114.662 207.278 115.344 206.205 115.344ZM204.733 112.499H207.505C207.433 111.699 206.887 111.254 206.115 111.254C205.433 111.254 204.806 111.744 204.733 112.499ZM208.469 115.289L210.232 112.908L208.587 110.654H209.478L210.705 112.372L211.95 110.654H212.795L211.141 112.908L212.913 115.289H212.023L210.668 113.426L209.314 115.289H208.469ZM215.383 115.344C213.992 115.344 213.083 114.389 213.083 112.972C213.083 111.563 213.974 110.599 215.283 110.599C216.592 110.599 217.446 111.426 217.483 112.799C217.483 112.899 217.473 113.008 217.464 113.117H213.865V113.181C213.892 114.062 214.447 114.68 215.328 114.68C215.983 114.68 216.492 114.335 216.646 113.735H217.401C217.219 114.662 216.455 115.344 215.383 115.344ZM213.91 112.499H216.683C216.61 111.699 216.065 111.254 215.292 111.254C214.61 111.254 213.983 111.744 213.91 112.499ZM220.478 110.654H220.687V111.381H220.314C219.342 111.381 219.078 112.19 219.078 112.926V115.289H218.333V110.654H218.978L219.078 111.354C219.296 110.999 219.651 110.654 220.478 110.654ZM221.83 114.08V111.335H220.994V110.654H221.83V109.354H222.575V110.654H223.775V111.335H222.575V114.071C222.575 114.462 222.711 114.608 223.111 114.608H223.848V115.289H223.039C222.148 115.289 221.83 114.898 221.83 114.08ZM224.302 113.762H225.065C225.093 114.308 225.574 114.708 226.347 114.708C227.001 114.708 227.465 114.426 227.465 113.999C227.465 113.417 226.956 113.371 226.265 113.29C225.229 113.162 224.402 112.953 224.402 111.99C224.402 111.145 225.175 110.59 226.22 110.599C227.274 110.608 228.038 111.099 228.11 112.063H227.347C227.292 111.59 226.856 111.235 226.22 111.235C225.574 111.235 225.138 111.508 225.138 111.935C225.138 112.444 225.629 112.508 226.302 112.59C227.356 112.717 228.201 112.917 228.201 113.944C228.201 114.808 227.374 115.344 226.347 115.344C225.147 115.344 224.32 114.78 224.302 113.762ZM235.506 114.608H235.743V115.289H235.334C234.716 115.289 234.507 115.026 234.497 114.571C234.207 114.989 233.743 115.344 232.943 115.344C231.925 115.344 231.234 114.835 231.234 113.99C231.234 113.062 231.88 112.544 233.098 112.544H234.461V112.226C234.461 111.626 234.034 111.263 233.307 111.263C232.652 111.263 232.216 111.572 232.125 112.044H231.38C231.489 111.136 232.225 110.599 233.343 110.599C234.525 110.599 235.206 111.19 235.206 112.272V114.299C235.206 114.544 235.297 114.608 235.506 114.608ZM234.461 113.399V113.171H233.025C232.361 113.171 231.989 113.417 231.989 113.944C231.989 114.399 232.38 114.708 232.998 114.708C233.925 114.708 234.461 114.171 234.461 113.399ZM238.204 111.335V110.654H239.041V110.136C239.041 109.318 239.386 108.927 240.25 108.927H241.095V109.609H240.295C239.922 109.609 239.786 109.763 239.786 110.118V110.654H241.095V111.335H239.786V115.289H239.041V111.335H238.204ZM243.555 115.344C242.201 115.344 241.256 114.38 241.256 112.972C241.256 111.563 242.201 110.599 243.555 110.599C244.91 110.599 245.855 111.563 245.855 112.972C245.855 114.38 244.91 115.344 243.555 115.344ZM243.555 114.68C244.473 114.68 245.091 113.962 245.091 112.972C245.091 111.981 244.473 111.263 243.555 111.263C242.637 111.263 242.019 111.981 242.019 112.972C242.019 113.962 242.637 114.68 243.555 114.68ZM248.856 110.654H249.065V111.381H248.692C247.72 111.381 247.456 112.19 247.456 112.926V115.289H246.711V110.654H247.356L247.456 111.354C247.674 110.999 248.029 110.654 248.856 110.654ZM251.525 115.344C250.171 115.344 249.28 114.426 249.28 112.981C249.28 111.563 250.198 110.599 251.543 110.599C252.68 110.599 253.398 111.235 253.589 112.253H252.807C252.671 111.635 252.216 111.263 251.534 111.263C250.644 111.263 250.044 111.972 250.044 112.981C250.044 113.99 250.644 114.68 251.534 114.68C252.198 114.68 252.652 114.299 252.798 113.708H253.589C253.407 114.708 252.652 115.344 251.525 115.344ZM256.541 115.344C255.151 115.344 254.242 114.389 254.242 112.972C254.242 111.563 255.132 110.599 256.441 110.599C257.75 110.599 258.604 111.426 258.641 112.799C258.641 112.899 258.632 113.008 258.623 113.117H255.023V113.181C255.051 114.062 255.605 114.68 256.487 114.68C257.141 114.68 257.65 114.335 257.805 113.735H258.559C258.377 114.662 257.614 115.344 256.541 115.344ZM255.069 112.499H257.841C257.768 111.699 257.223 111.254 256.45 111.254C255.769 111.254 255.141 111.744 255.069 112.499ZM264.006 115.344C262.652 115.344 261.706 114.38 261.706 112.972C261.706 111.563 262.652 110.599 264.006 110.599C265.36 110.599 266.306 111.563 266.306 112.972C266.306 114.38 265.36 115.344 264.006 115.344ZM264.006 114.68C264.924 114.68 265.542 113.962 265.542 112.972C265.542 111.981 264.924 111.263 264.006 111.263C263.088 111.263 262.47 111.981 262.47 112.972C262.47 113.962 263.088 114.68 264.006 114.68ZM269.433 110.599C270.479 110.599 271.306 111.172 271.306 112.708V115.289H270.561V112.753C270.561 111.79 270.115 111.281 269.306 111.281C268.434 111.281 267.907 111.926 267.907 112.972V115.289H267.161V110.654H267.807L267.907 111.281C268.179 110.926 268.652 110.599 269.433 110.599ZM278.733 114.608H278.969V115.289H278.56C277.942 115.289 277.733 115.026 277.724 114.571C277.433 114.989 276.97 115.344 276.17 115.344C275.152 115.344 274.461 114.835 274.461 113.99C274.461 113.062 275.106 112.544 276.324 112.544H277.688V112.226C277.688 111.626 277.261 111.263 276.533 111.263C275.879 111.263 275.443 111.572 275.352 112.044H274.607C274.716 111.136 275.452 110.599 276.57 110.599C277.751 110.599 278.433 111.19 278.433 112.272V114.299C278.433 114.544 278.524 114.608 278.733 114.608ZM277.688 113.399V113.171H276.252C275.588 113.171 275.215 113.417 275.215 113.944C275.215 114.399 275.606 114.708 276.224 114.708C277.151 114.708 277.688 114.171 277.688 113.399ZM281.815 110.599C282.861 110.599 283.688 111.172 283.688 112.708V115.289H282.943V112.753C282.943 111.79 282.497 111.281 281.688 111.281C280.816 111.281 280.289 111.926 280.289 112.972V115.289H279.543V110.654H280.189L280.289 111.281C280.561 110.926 281.034 110.599 281.815 110.599ZM286.721 115.344C285.367 115.344 284.421 114.38 284.421 112.972C284.421 111.563 285.367 110.599 286.721 110.599C288.075 110.599 289.021 111.563 289.021 112.972C289.021 114.38 288.075 115.344 286.721 115.344ZM286.721 114.68C287.639 114.68 288.257 113.962 288.257 112.972C288.257 111.981 287.639 111.263 286.721 111.263C285.803 111.263 285.185 111.981 285.185 112.972C285.185 113.962 285.803 114.68 286.721 114.68ZM290.167 114.08V111.335H289.331V110.654H290.167V109.354H290.912V110.654H292.112V111.335H290.912V114.071C290.912 114.462 291.049 114.608 291.449 114.608H292.185V115.289H291.376C290.485 115.289 290.167 114.898 290.167 114.08ZM295.103 110.599C296.139 110.599 296.984 111.172 296.984 112.708V115.289H296.239V112.753C296.239 111.79 295.775 111.281 294.975 111.281C294.112 111.281 293.576 111.926 293.576 112.972V115.289H292.83V108.927H293.576V111.417C293.848 110.981 294.321 110.599 295.103 110.599ZM300.017 115.344C298.627 115.344 297.718 114.389 297.718 112.972C297.718 111.563 298.608 110.599 299.917 110.599C301.226 110.599 302.08 111.426 302.117 112.799C302.117 112.899 302.108 113.008 302.099 113.117H298.499V113.181C298.527 114.062 299.081 114.68 299.963 114.68C300.617 114.68 301.126 114.335 301.281 113.735H302.035C301.853 114.662 301.09 115.344 300.017 115.344ZM298.545 112.499H301.317C301.244 111.699 300.699 111.254 299.926 111.254C299.245 111.254 298.617 111.744 298.545 112.499ZM305.112 110.654H305.321V111.381H304.949C303.976 111.381 303.713 112.19 303.713 112.926V115.289H302.967V110.654H303.613L303.713 111.354C303.931 110.999 304.285 110.654 305.112 110.654ZM56.6604 128.328C55.3062 128.328 54.3609 127.365 54.3609 125.956C54.3609 124.547 55.3062 123.584 56.6591 123.584C58.0147 123.584 58.96 124.547 58.96 125.956C58.96 127.365 58.0147 128.328 56.6604 128.328ZM56.6604 127.665C57.5784 127.665 58.1965 126.947 58.1965 125.956C58.1965 124.965 57.5784 124.247 56.6604 124.247C55.7424 124.247 55.1244 124.965 55.1244 125.956C55.1244 126.947 55.7424 127.665 56.6604 127.665ZM62.1503 123.584C63.4319 123.584 64.3771 124.447 64.3771 125.956C64.3771 127.374 63.4319 128.328 62.1503 128.328C61.3686 128.328 60.8415 128.01 60.5597 127.565L60.4597 128.274H59.8144V121.911H60.5597V124.384C60.7378 124.129 60.9763 123.922 61.254 123.783C61.5316 123.643 61.8396 123.575 62.1503 123.584ZM62.0776 127.665C62.9956 127.665 63.6136 126.965 63.6136 125.956C63.6136 124.947 62.9956 124.247 62.0776 124.247C61.1687 124.247 60.5506 124.947 60.5506 125.938C60.5506 126.956 61.1687 127.665 62.0776 127.665ZM65.6561 122.857C65.5923 122.859 65.5288 122.847 65.4694 122.824C65.4101 122.8 65.3562 122.765 65.3111 122.72C65.2659 122.675 65.2305 122.621 65.207 122.562C65.1835 122.502 65.1724 122.439 65.1744 122.375C65.1724 122.311 65.1835 122.248 65.207 122.188C65.2305 122.129 65.2659 122.075 65.3111 122.03C65.3562 121.985 65.4101 121.949 65.4694 121.926C65.5288 121.902 65.5923 121.891 65.6561 121.893C65.7199 121.891 65.7834 121.902 65.8428 121.926C65.9021 121.949 65.956 121.985 66.0011 122.03C66.0463 122.075 66.0817 122.129 66.1052 122.188C66.1287 122.248 66.1398 122.311 66.1378 122.375C66.1398 122.439 66.1287 122.502 66.1052 122.562C66.0817 122.621 66.0463 122.675 66.0011 122.72C65.956 122.765 65.9021 122.8 65.8428 122.824C65.7834 122.847 65.7199 122.859 65.6561 122.857ZM64.1927 130.092V129.41H64.7745C65.1471 129.41 65.2834 129.255 65.2834 128.901V123.638H66.0288V128.883C66.0288 129.701 65.6834 130.092 64.8199 130.092H64.1927ZM69.184 128.328C67.7947 128.328 66.8857 127.374 66.8857 125.956C66.8857 124.547 67.7752 123.584 69.084 123.584C70.3928 123.584 71.2472 124.411 71.2836 125.783C71.2836 125.883 71.2745 125.992 71.2654 126.101H67.6661V126.165C67.6934 127.047 68.2478 127.665 69.1295 127.665C69.7839 127.665 70.2929 127.319 70.4474 126.72H71.2018C71.02 127.647 70.2565 128.328 69.184 128.328ZM67.7115 125.483H70.4837C70.411 124.684 69.8657 124.238 69.0944 124.238C68.4114 124.238 67.7843 124.729 67.7115 125.483ZM74.2168 128.328C72.8612 128.328 71.9705 127.41 71.9705 125.965C71.9705 124.547 72.8885 123.584 74.2337 123.584C75.3698 123.584 76.0878 124.22 76.2787 125.238H75.4971C75.3607 124.62 74.9063 124.247 74.2246 124.247C73.3338 124.247 72.7339 124.956 72.7339 125.965C72.7339 126.974 73.3338 127.665 74.2246 127.665C74.8881 127.665 75.3425 127.283 75.488 126.692H76.28C76.0982 127.692 75.3438 128.328 74.2168 128.328ZM77.4421 127.065V124.32H76.6059V123.638H77.4421V122.339H78.1874V123.638H79.3872V124.32H78.1874V127.056C78.1874 127.447 78.3238 127.592 78.7237 127.592H79.4599V128.274H78.651C77.7603 128.274 77.4421 127.883 77.4421 127.065ZM80.4766 127.319C80.922 127.319 81.1947 127.747 81.1947 128.246C81.1947 129.019 80.7142 129.483 79.9131 129.501V129.074C80.4948 129.065 80.6766 128.655 80.6766 128.346C80.6766 128.301 80.6766 128.265 80.6675 128.228C80.5814 128.301 80.4714 128.34 80.3584 128.337C80.0858 128.337 79.878 128.174 79.878 127.847C79.878 127.547 80.0949 127.319 80.4766 127.319ZM84.7381 127.065V124.32H83.9019V123.638H84.7381V122.339H85.4834V123.638H86.6832V124.32H85.4834V127.056C85.4834 127.447 85.6198 127.592 86.0197 127.592H86.7559V128.274H85.947C85.0562 128.274 84.7381 127.883 84.7381 127.065ZM89.6735 123.584C90.7097 123.584 91.5563 124.156 91.5563 125.692V128.274H90.8097V125.738C90.8097 124.774 90.3461 124.265 89.5463 124.265C88.6828 124.265 88.1465 124.911 88.1465 125.956V128.274H87.4012V121.911H88.1465V124.402C88.4192 123.965 88.8919 123.584 89.6735 123.584ZM94.5882 128.328C93.1975 128.328 92.2886 127.374 92.2886 125.956C92.2886 124.547 93.1793 123.584 94.4882 123.584C95.797 123.584 96.6514 124.411 96.6877 125.783C96.6877 125.883 96.6787 125.992 96.6696 126.101H93.0703V126.165C93.0962 127.047 93.652 127.665 94.5336 127.665C95.188 127.665 95.697 127.319 95.8515 126.72H96.6047C96.4229 127.647 95.6607 128.328 94.5882 128.328ZM93.1157 125.483H95.8879C95.8152 124.684 95.2698 124.238 94.4973 124.238C93.8156 124.238 93.1884 124.729 93.1157 125.483ZM99.7248 126.747H100.49C100.516 127.292 100.999 127.692 101.771 127.692C102.426 127.692 102.888 127.41 102.888 126.983C102.888 126.401 102.38 126.356 101.689 126.274C100.653 126.147 99.8261 125.938 99.8261 124.974C99.8261 124.129 100.599 123.575 101.644 123.584C102.698 123.593 103.462 124.084 103.534 125.047H102.771C102.716 124.574 102.28 124.22 101.644 124.22C100.999 124.22 100.562 124.493 100.562 124.92C100.562 125.429 101.053 125.492 101.726 125.574C102.78 125.702 103.625 125.901 103.625 126.929C103.625 127.792 102.798 128.328 101.771 128.328C100.571 128.328 99.743 127.765 99.7248 126.747ZM106.588 128.328C105.198 128.328 104.289 127.374 104.289 125.956C104.289 124.547 105.18 123.584 106.488 123.584C107.797 123.584 108.652 124.411 108.688 125.783C108.688 125.883 108.679 125.992 108.67 126.101H105.071V126.165C105.098 127.047 105.652 127.665 106.534 127.665C107.188 127.665 107.697 127.319 107.852 126.72H108.606C108.424 127.647 107.661 128.328 106.588 128.328ZM105.116 125.483H107.888C107.815 124.684 107.27 124.238 106.498 124.238C105.816 124.238 105.189 124.729 105.116 125.483ZM111.62 128.328C110.266 128.328 109.375 127.41 109.375 125.965C109.375 124.547 110.293 123.584 111.638 123.584C112.774 123.584 113.492 124.22 113.683 125.238H112.901C112.765 124.62 112.311 124.247 111.629 124.247C110.738 124.247 110.138 124.956 110.138 125.965C110.138 126.974 110.738 127.665 111.629 127.665C112.293 127.665 112.747 127.283 112.892 126.692H113.683C113.501 127.692 112.747 128.328 111.62 128.328ZM116.636 128.328C115.282 128.328 114.338 127.365 114.338 125.956C114.338 124.547 115.282 123.584 116.636 123.584C117.99 123.584 118.935 124.547 118.935 125.956C118.935 127.365 117.989 128.328 116.636 128.328ZM116.636 127.665C117.554 127.665 118.172 126.947 118.172 125.956C118.172 124.965 117.554 124.247 116.636 124.247C115.718 124.247 115.1 124.965 115.1 125.956C115.1 126.947 115.718 127.665 116.636 127.665ZM122.063 123.584C123.107 123.584 123.934 124.156 123.934 125.692V128.274H123.19V125.738C123.19 124.774 122.744 124.265 121.936 124.265C121.064 124.265 120.535 124.911 120.535 125.956V128.274H119.791V123.638H120.435L120.536 124.265C120.809 123.911 121.28 123.584 122.062 123.584H122.063ZM128.485 124.347V121.911H129.231V128.274H128.585L128.485 127.528C128.307 127.783 128.069 127.99 127.791 128.129C127.514 128.269 127.206 128.337 126.895 128.328C125.613 128.328 124.668 127.465 124.668 125.956C124.668 124.538 125.613 123.584 126.895 123.584C127.677 123.584 128.204 123.902 128.485 124.347ZM126.968 127.665C127.877 127.665 128.495 126.965 128.495 125.974C128.495 124.956 127.877 124.247 126.968 124.247C126.05 124.247 125.432 124.947 125.432 125.956C125.432 126.965 126.05 127.665 126.968 127.665ZM134.761 128.328C133.407 128.328 132.461 127.365 132.461 125.956C132.461 124.547 133.407 123.584 134.761 123.584C136.115 123.584 137.06 124.547 137.06 125.956C137.06 127.365 136.115 128.328 134.761 128.328ZM134.761 127.665C135.679 127.665 136.297 126.947 136.297 125.956C136.297 124.965 135.679 124.247 134.761 124.247C133.843 124.247 133.225 124.965 133.225 125.956C133.225 126.947 133.843 127.665 134.761 127.665ZM140.251 123.584C141.532 123.584 142.478 124.447 142.478 125.956C142.478 127.374 141.532 128.328 140.251 128.328C139.469 128.328 138.942 128.01 138.66 127.565L138.56 128.274H137.915V121.911H138.66V124.384C138.838 124.129 139.077 123.922 139.354 123.783C139.632 123.643 139.94 123.575 140.251 123.584ZM140.178 127.665C141.096 127.665 141.714 126.965 141.714 125.956C141.714 124.947 141.096 124.247 140.178 124.247C139.269 124.247 138.651 124.947 138.651 125.938C138.651 126.956 139.269 127.665 140.178 127.665ZM143.757 122.857C143.693 122.859 143.629 122.847 143.57 122.824C143.511 122.8 143.457 122.765 143.412 122.72C143.366 122.675 143.331 122.621 143.307 122.562C143.284 122.502 143.273 122.439 143.275 122.375C143.273 122.311 143.284 122.248 143.307 122.188C143.331 122.129 143.366 122.075 143.412 122.03C143.457 121.985 143.511 121.949 143.57 121.926C143.629 121.902 143.693 121.891 143.757 121.893C143.82 121.891 143.884 121.902 143.943 121.926C144.003 121.949 144.056 121.985 144.102 122.03C144.147 122.075 144.182 122.129 144.206 122.188C144.229 122.248 144.24 122.311 144.238 122.375C144.24 122.439 144.229 122.502 144.206 122.562C144.182 122.621 144.147 122.675 144.102 122.72C144.056 122.765 144.003 122.8 143.943 122.824C143.884 122.847 143.82 122.859 143.757 122.857ZM142.293 130.092V129.41H142.875C143.248 129.41 143.384 129.255 143.384 128.901V123.638H144.129V128.883C144.129 129.701 143.784 130.092 142.92 130.092H142.293ZM147.286 128.328C145.895 128.328 144.986 127.374 144.986 125.956C144.986 124.547 145.877 123.584 147.186 123.584C148.495 123.584 149.349 124.411 149.385 125.783C149.385 125.883 149.376 125.992 149.367 126.101H145.768V126.165C145.795 127.047 146.35 127.665 147.231 127.665C147.886 127.665 148.395 127.319 148.549 126.72H149.304C149.122 127.647 148.358 128.328 147.286 128.328ZM145.813 125.483H148.585C148.513 124.684 147.967 124.238 147.195 124.238C146.513 124.238 145.886 124.729 145.813 125.483ZM152.317 128.328C150.963 128.328 150.072 127.41 150.072 125.965C150.072 124.547 150.99 123.584 152.335 123.584C153.472 123.584 154.19 124.22 154.38 125.238H153.599C153.462 124.62 153.008 124.247 152.326 124.247C151.436 124.247 150.836 124.956 150.836 125.965C150.836 126.974 151.436 127.665 152.326 127.665C152.99 127.665 153.444 127.283 153.59 126.692H154.38C154.199 127.692 153.444 128.328 152.317 128.328ZM155.543 127.065V124.32H154.706V123.638H155.543V122.339H156.288V123.638H157.488V124.32H156.288V127.056C156.288 127.447 156.424 127.592 156.824 127.592H157.56V128.274H156.751C155.861 128.274 155.543 127.883 155.543 127.065ZM162.72 128.328C161.33 128.328 160.421 127.374 160.421 125.956C160.421 124.547 161.312 123.584 162.62 123.584C163.929 123.584 164.784 124.411 164.82 125.783C164.82 125.883 164.811 125.992 164.802 126.101H161.203V126.165C161.23 127.047 161.784 127.665 162.666 127.665C163.32 127.665 163.829 127.319 163.984 126.72H164.738C164.556 127.647 163.793 128.328 162.72 128.328ZM161.248 125.483H164.02C163.947 124.684 163.402 124.238 162.63 124.238C161.948 124.238 161.321 124.729 161.248 125.483ZM164.985 128.274L166.748 125.892L165.103 123.638H165.994L167.221 125.356L168.466 123.638H169.311L167.657 125.892L169.429 128.274H168.539L167.184 126.41L165.83 128.274H164.985ZM171.899 128.328C170.509 128.328 169.6 127.374 169.6 125.956C169.6 124.547 170.49 123.584 171.799 123.584C173.108 123.584 173.962 124.411 173.999 125.783C173.999 125.883 173.99 125.992 173.981 126.101H170.381V126.165C170.409 127.047 170.963 127.665 171.845 127.665C172.499 127.665 173.008 127.319 173.163 126.72H173.917C173.735 127.647 172.972 128.328 171.899 128.328ZM170.427 125.483H173.199C173.126 124.684 172.581 124.238 171.808 124.238C171.127 124.238 170.499 124.729 170.427 125.483ZM176.994 123.638H177.203V124.365H176.831C175.858 124.365 175.595 125.174 175.595 125.911V128.274H174.849V123.638H175.495L175.595 124.338C175.813 123.984 176.167 123.638 176.994 123.638ZM178.346 127.065V124.32H177.51V123.638H178.346V122.339H179.091V123.638H180.291V124.32H179.091V127.056C179.091 127.447 179.228 127.592 179.628 127.592H180.364V128.274H179.555C178.664 128.274 178.346 127.883 178.346 127.065ZM180.818 126.747H181.582C181.609 127.292 182.091 127.692 182.863 127.692C183.518 127.692 183.981 127.41 183.981 126.983C183.981 126.401 183.472 126.356 182.781 126.274C181.745 126.147 180.918 125.938 180.918 124.974C180.918 124.129 181.691 123.575 182.736 123.584C183.79 123.593 184.554 124.084 184.627 125.047H183.863C183.809 124.574 183.372 124.22 182.736 124.22C182.091 124.22 181.654 124.493 181.654 124.92C181.654 125.429 182.145 125.492 182.818 125.574C183.872 125.702 184.717 125.901 184.717 126.929C184.717 127.792 183.89 128.328 182.863 128.328C181.663 128.328 180.836 127.765 180.818 126.747ZM192.023 127.592H192.259V128.274H191.85C191.232 128.274 191.023 128.01 191.014 127.556C190.723 127.974 190.259 128.328 189.459 128.328C188.441 128.328 187.751 127.819 187.751 126.974C187.751 126.047 188.396 125.529 189.614 125.529H190.977V125.211C190.977 124.611 190.55 124.247 189.823 124.247C189.169 124.247 188.732 124.556 188.641 125.029H187.896C188.005 124.12 188.741 123.584 189.859 123.584C191.041 123.584 191.723 124.175 191.723 125.256V127.283C191.723 127.528 191.813 127.592 192.023 127.592ZM190.977 126.383V126.156H189.541C188.878 126.156 188.505 126.401 188.505 126.929C188.505 127.383 188.896 127.692 189.514 127.692C190.441 127.692 190.977 127.156 190.977 126.383ZM195.104 123.584C196.149 123.584 196.976 124.156 196.976 125.692V128.274H196.231V125.738C196.231 124.774 195.785 124.265 194.976 124.265C194.104 124.265 193.577 124.911 193.577 125.956V128.274H192.831V123.638H193.477L193.577 124.265C193.849 123.911 194.322 123.584 195.104 123.584ZM202.441 128.328C201.051 128.328 200.142 127.374 200.142 125.956C200.142 124.547 201.032 123.584 202.341 123.584C203.65 123.584 204.505 124.411 204.541 125.783C204.541 125.883 204.532 125.992 204.523 126.101H200.923V126.165C200.951 127.047 201.505 127.665 202.387 127.665C203.041 127.665 203.55 127.319 203.705 126.72H204.459C204.277 127.647 203.514 128.328 202.441 128.328ZM200.969 125.483H203.741C203.668 124.684 203.123 124.238 202.35 124.238C201.669 124.238 201.042 124.729 200.969 125.483ZM209.045 124.347L209.145 123.638H209.791V130.092H209.045V127.528C208.867 127.783 208.629 127.99 208.351 128.129C208.073 128.269 207.765 128.337 207.455 128.328C206.173 128.328 205.228 127.465 205.228 125.956C205.228 124.538 206.173 123.584 207.455 123.584C208.236 123.584 208.763 123.902 209.045 124.347ZM207.527 127.665C208.436 127.665 209.054 126.965 209.054 125.974C209.054 124.956 208.436 124.247 207.527 124.247C206.609 124.247 205.991 124.947 205.991 125.956C205.991 126.965 206.609 127.665 207.527 127.665ZM214.051 125.956V123.638H214.796V128.274H214.151L214.051 127.656C213.778 128.001 213.333 128.328 212.569 128.328C211.551 128.328 210.742 127.756 210.742 126.22V123.638H211.488V126.174C211.488 127.138 211.924 127.647 212.696 127.647C213.542 127.647 214.051 127.001 214.051 125.956ZM219.912 127.592H220.148V128.274H219.739C219.121 128.274 218.912 128.01 218.903 127.556C218.612 127.974 218.149 128.328 217.349 128.328C216.331 128.328 215.64 127.819 215.64 126.974C215.64 126.047 216.285 125.529 217.503 125.529H218.867V125.211C218.867 124.611 218.439 124.247 217.712 124.247C217.058 124.247 216.622 124.556 216.531 125.029H215.785C215.895 124.12 216.631 123.584 217.749 123.584C218.93 123.584 219.612 124.175 219.612 125.256V127.283C219.612 127.528 219.703 127.592 219.912 127.592ZM218.867 126.383V126.156H217.431C216.767 126.156 216.394 126.401 216.394 126.929C216.394 127.383 216.785 127.692 217.403 127.692C218.33 127.692 218.867 127.156 218.867 126.383ZM220.721 128.274V121.911H221.466V128.274H220.721ZM224.375 124.32V123.638H225.211V123.12C225.211 122.302 225.556 121.911 226.42 121.911H227.265V122.593H226.465C226.093 122.593 225.956 122.748 225.956 123.102V123.638H227.265V124.32H225.956V128.274H225.211V124.32H224.375ZM229.727 128.328C228.373 128.328 227.427 127.365 227.427 125.956C227.427 124.547 228.373 123.584 229.727 123.584C231.081 123.584 232.026 124.547 232.026 125.956C232.026 127.365 231.081 128.328 229.727 128.328ZM229.727 127.665C230.645 127.665 231.263 126.947 231.263 125.956C231.263 124.965 230.645 124.247 229.727 124.247C228.809 124.247 228.191 124.965 228.191 125.956C228.191 126.947 228.809 127.665 229.727 127.665ZM235.026 123.638H235.235V124.365H234.862C233.89 124.365 233.626 125.174 233.626 125.911V128.274H232.881V123.638H233.526L233.626 124.338C233.844 123.984 234.199 123.638 235.026 123.638ZM237.697 128.328C236.342 128.328 235.452 127.41 235.452 125.965C235.452 124.547 236.37 123.584 237.715 123.584C238.851 123.584 239.569 124.22 239.76 125.238H238.978C238.842 124.62 238.388 124.247 237.706 124.247C236.815 124.247 236.215 124.956 236.215 125.965C236.215 126.974 236.815 127.665 237.706 127.665C238.369 127.665 238.824 127.283 238.969 126.692H239.76C239.578 127.692 238.824 128.328 237.697 128.328ZM242.713 128.328C241.322 128.328 240.413 127.374 240.413 125.956C240.413 124.547 241.304 123.584 242.613 123.584C243.922 123.584 244.776 124.411 244.812 125.783C244.812 125.883 244.803 125.992 244.794 126.101H241.195V126.165C241.222 127.047 241.777 127.665 242.658 127.665C243.313 127.665 243.822 127.319 243.976 126.72H244.73C244.549 127.647 243.785 128.328 242.713 128.328ZM241.24 125.483H244.012C243.94 124.684 243.394 124.238 242.622 124.238C241.94 124.238 241.313 124.729 241.24 125.483ZM248.423 122.857C248.359 122.859 248.296 122.847 248.237 122.824C248.177 122.8 248.123 122.765 248.078 122.72C248.033 122.675 247.998 122.621 247.974 122.562C247.951 122.502 247.94 122.439 247.942 122.375C247.94 122.311 247.951 122.248 247.974 122.188C247.998 122.129 248.033 122.075 248.078 122.03C248.123 121.985 248.177 121.949 248.237 121.926C248.296 121.902 248.359 121.891 248.423 121.893C248.487 121.891 248.551 121.902 248.61 121.926C248.669 121.949 248.723 121.985 248.768 122.03C248.813 122.075 248.849 122.129 248.872 122.188C248.896 122.248 248.907 122.311 248.905 122.375C248.907 122.439 248.896 122.502 248.872 122.562C248.849 122.621 248.813 122.675 248.768 122.72C248.723 122.765 248.669 122.8 248.61 122.824C248.551 122.847 248.487 122.859 248.423 122.857ZM248.042 128.274V123.638H248.787V128.274H248.042ZM252.08 123.584C253.125 123.584 253.952 124.156 253.952 125.692V128.274H253.207V125.738C253.207 124.774 252.761 124.265 251.952 124.265C251.08 124.265 250.553 124.911 250.553 125.956V128.274H249.807V123.638H250.453L250.553 124.265C250.825 123.911 251.298 123.584 252.08 123.584ZM257.627 127.065V124.32H256.79V123.638H257.627V122.339H258.372V123.638H259.572V124.32H258.372V127.056C258.372 127.447 258.508 127.592 258.908 127.592H259.644V128.274H258.836C257.945 128.274 257.627 127.883 257.627 127.065ZM262.563 123.584C263.6 123.584 264.445 124.156 264.445 125.692V128.274H263.7V125.738C263.7 124.774 263.236 124.265 262.436 124.265C261.573 124.265 261.036 124.911 261.036 125.956V128.274H260.291V121.911H261.036V124.402C261.309 123.965 261.782 123.584 262.563 123.584ZM267.477 128.328C266.086 128.328 265.177 127.374 265.177 125.956C265.177 124.547 266.068 123.584 267.377 123.584C268.686 123.584 269.54 124.411 269.576 125.783C269.576 125.883 269.567 125.992 269.558 126.101H265.959V126.165C265.986 127.047 266.541 127.665 267.422 127.665C268.077 127.665 268.586 127.319 268.74 126.72H269.495C269.313 127.647 268.549 128.328 267.477 128.328ZM266.004 125.483H268.776C268.704 124.684 268.158 124.238 267.386 124.238C266.704 124.238 266.077 124.729 266.004 125.483ZM274.942 128.328C273.587 128.328 272.642 127.365 272.642 125.956C272.642 124.547 273.587 123.584 274.942 123.584C276.296 123.584 277.241 124.547 277.241 125.956C277.241 127.365 276.296 128.328 274.942 128.328ZM274.942 127.665C275.86 127.665 276.478 126.947 276.478 125.956C276.478 124.965 275.86 124.247 274.942 124.247C274.024 124.247 273.405 124.965 273.405 125.956C273.405 126.947 274.024 127.665 274.942 127.665ZM280.431 123.584C281.713 123.584 282.658 124.447 282.658 125.956C282.658 127.374 281.713 128.328 280.431 128.328C279.65 128.328 279.123 128.01 278.841 127.565V130.092H278.095V123.638H278.741L278.841 124.384C279.019 124.129 279.257 123.922 279.535 123.783C279.813 123.643 280.121 123.575 280.431 123.584ZM280.359 127.665C281.277 127.665 281.895 126.965 281.895 125.956C281.895 124.947 281.277 124.247 280.359 124.247C279.45 124.247 278.832 124.947 278.832 125.938C278.832 126.956 279.45 127.665 280.359 127.665ZM285.846 123.584C287.127 123.584 288.073 124.447 288.073 125.956C288.073 127.374 287.127 128.328 285.846 128.328C285.064 128.328 284.537 128.01 284.255 127.565V130.092H283.51V123.638H284.155L284.255 124.384C284.433 124.129 284.672 123.922 284.95 123.783C285.227 123.643 285.535 123.575 285.846 123.584ZM285.773 127.665C286.691 127.665 287.309 126.965 287.309 125.956C287.309 124.947 286.691 124.247 285.773 124.247C284.864 124.247 284.246 124.947 284.246 125.938C284.246 126.956 284.864 127.665 285.773 127.665ZM291.06 128.328C289.706 128.328 288.761 127.365 288.761 125.956C288.761 124.547 289.706 123.584 291.06 123.584C292.415 123.584 293.36 124.547 293.36 125.956C293.36 127.365 292.415 128.328 291.06 128.328ZM291.06 127.665C291.978 127.665 292.597 126.947 292.597 125.956C292.597 124.965 291.978 124.247 291.06 124.247C290.142 124.247 289.524 124.965 289.524 125.956C289.524 126.947 290.142 127.665 291.06 127.665ZM294.007 126.747H294.77C294.797 127.292 295.279 127.692 296.052 127.692C296.706 127.692 297.17 127.41 297.17 126.983C297.17 126.401 296.661 126.356 295.97 126.274C294.934 126.147 294.107 125.938 294.107 124.974C294.107 124.129 294.879 123.575 295.924 123.584C296.979 123.593 297.742 124.084 297.815 125.047H297.052C296.997 124.574 296.561 124.22 295.924 124.22C295.279 124.22 294.843 124.493 294.843 124.92C294.843 125.429 295.334 125.492 296.006 125.574C297.061 125.702 297.906 125.901 297.906 126.929C297.906 127.792 297.079 128.328 296.052 128.328C294.852 128.328 294.025 127.765 294.007 126.747ZM299.115 122.857C299.051 122.859 298.987 122.847 298.928 122.824C298.869 122.8 298.815 122.765 298.77 122.72C298.725 122.675 298.689 122.621 298.666 122.562C298.642 122.502 298.631 122.439 298.633 122.375C298.631 122.311 298.642 122.248 298.666 122.188C298.689 122.129 298.725 122.075 298.77 122.03C298.815 121.985 298.869 121.949 298.928 121.926C298.987 121.902 299.051 121.891 299.115 121.893C299.179 121.891 299.242 121.902 299.301 121.926C299.361 121.949 299.415 121.985 299.46 122.03C299.505 122.075 299.54 122.129 299.564 122.188C299.587 122.248 299.598 122.311 299.596 122.375C299.598 122.439 299.587 122.502 299.564 122.562C299.54 122.621 299.505 122.675 299.46 122.72C299.415 122.765 299.361 122.8 299.301 122.824C299.242 122.847 299.179 122.859 299.115 122.857ZM298.733 128.274V123.638H299.478V128.274H298.733ZM300.844 127.065V124.32H300.008V123.638H300.844V122.339H301.59V123.638H302.789V124.32H301.59V127.056C301.59 127.447 301.726 127.592 302.126 127.592H302.862V128.274H302.053C301.162 128.274 300.844 127.883 300.844 127.065ZM305.529 128.328C304.138 128.328 303.23 127.374 303.23 125.956C303.23 124.547 304.12 123.584 305.429 123.584C306.738 123.584 307.592 124.411 307.629 125.783C307.629 125.883 307.62 125.992 307.611 126.101H304.011V126.165C304.038 127.047 304.593 127.665 305.475 127.665C306.129 127.665 306.638 127.319 306.792 126.72H307.547C307.365 127.647 306.602 128.328 305.529 128.328ZM304.057 125.483H306.829C306.756 124.684 306.211 124.238 305.438 124.238C304.757 124.238 304.129 124.729 304.057 125.483ZM58.1783 137.332V134.896H58.9236V141.258H58.2783L58.1783 140.513C58.0003 140.768 57.7617 140.974 57.484 141.114C57.2064 141.253 56.8984 141.322 56.5877 141.313C55.3062 141.313 54.3609 140.449 54.3609 138.941C54.3609 137.523 55.3062 136.568 56.5877 136.568C57.3694 136.568 57.8966 136.886 58.1783 137.332ZM56.6591 140.649C57.5681 140.649 58.1874 139.949 58.1874 138.959C58.1874 137.941 57.5694 137.232 56.6604 137.232C55.7424 137.232 55.1244 137.932 55.1244 138.941C55.1244 139.949 55.7411 140.649 56.6591 140.649ZM60.3208 135.841C60.257 135.843 60.1934 135.832 60.1341 135.808C60.0748 135.785 60.0209 135.75 59.9757 135.704C59.9306 135.659 59.8952 135.605 59.8717 135.546C59.8482 135.487 59.8371 135.423 59.839 135.359C59.8371 135.296 59.8481 135.232 59.8716 135.173C59.895 135.114 59.9303 135.06 59.9753 135.015C60.0203 134.97 60.074 134.934 60.1332 134.911C60.1924 134.887 60.2558 134.876 60.3195 134.878C60.3834 134.875 60.447 134.886 60.5065 134.91C60.566 134.933 60.6201 134.969 60.6654 135.014C60.7106 135.059 60.7462 135.113 60.7698 135.172C60.7933 135.232 60.8045 135.295 60.8025 135.359C60.8045 135.423 60.7934 135.487 60.7699 135.546C60.7464 135.605 60.7109 135.659 60.6658 135.704C60.6207 135.75 60.5668 135.785 60.5074 135.808C60.4481 135.832 60.3846 135.843 60.3208 135.841ZM59.939 141.258V136.623H60.6843V141.258H59.939ZM63.85 136.623H64.059V137.35H63.6864C62.7138 137.35 62.4502 138.159 62.4502 138.895V141.258H61.7049V136.623H62.3503L62.4502 137.323C62.6684 136.968 63.0228 136.623 63.85 136.623ZM66.5754 141.313C65.1848 141.313 64.2758 140.358 64.2758 138.941C64.2758 137.532 65.1666 136.568 66.4754 136.568C67.7843 136.568 68.6386 137.395 68.675 138.768C68.675 138.868 68.6659 138.977 68.6568 139.086H65.0575V139.15C65.0835 140.031 65.6392 140.649 66.5209 140.649C67.1753 140.649 67.6843 140.304 67.8388 139.704H68.5919C68.4101 140.631 67.6479 141.313 66.5754 141.313ZM65.103 138.468H67.8752C67.8024 137.668 67.2571 137.223 66.4845 137.223C65.8028 137.223 65.1757 137.713 65.103 138.468ZM71.6069 141.313C70.2526 141.313 69.3606 140.395 69.3606 138.95C69.3606 137.532 70.2799 136.568 71.6251 136.568C72.7612 136.568 73.4793 137.204 73.6701 138.222H72.8885C72.7521 137.604 72.2977 137.232 71.616 137.232C70.7252 137.232 70.1254 137.941 70.1254 138.95C70.1254 139.958 70.7252 140.649 71.616 140.649C72.2782 140.649 72.7327 140.268 72.8794 139.677H73.6701C73.4883 140.677 72.7352 141.313 71.6069 141.313ZM74.8322 140.049V137.304H73.996V136.623H74.8322V135.323H75.5776V136.623H76.7773V137.304H75.5776V140.04C75.5776 140.431 75.7139 140.577 76.1138 140.577H76.85V141.258H76.0411C75.1504 141.258 74.8322 140.867 74.8322 140.049ZM77.8771 135.841C77.8134 135.843 77.75 135.832 77.6908 135.808C77.6317 135.785 77.5779 135.749 77.5329 135.704C77.4879 135.659 77.4526 135.605 77.4292 135.546C77.4058 135.486 77.3947 135.423 77.3967 135.359C77.3947 135.296 77.4058 135.232 77.4292 135.173C77.4526 135.114 77.4879 135.06 77.5329 135.015C77.5779 134.97 77.6317 134.934 77.6908 134.911C77.75 134.887 77.8134 134.876 77.8771 134.878C77.9409 134.876 78.0044 134.887 78.0638 134.91C78.1231 134.934 78.177 134.969 78.2222 135.014C78.2673 135.059 78.3027 135.113 78.3262 135.173C78.3497 135.232 78.3608 135.296 78.3588 135.359C78.3608 135.423 78.3497 135.486 78.3263 135.546C78.3029 135.605 78.2676 135.659 78.2226 135.704C78.1776 135.749 78.1239 135.785 78.0647 135.808C78.0055 135.832 77.9408 135.843 77.8771 135.841ZM77.4954 141.258V136.623H78.2407V141.258H77.4954ZM81.3985 141.313C80.0442 141.313 79.099 140.349 79.099 138.941C79.099 137.532 80.0442 136.568 81.3972 136.568C82.7528 136.568 83.6981 137.532 83.6981 138.941C83.6981 140.349 82.7528 141.313 81.3985 141.313ZM81.3985 140.649C82.3165 140.649 82.9346 139.931 82.9346 138.941C82.9346 137.95 82.3165 137.232 81.3985 137.232C80.4805 137.232 79.8624 137.95 79.8624 138.941C79.8624 139.931 80.4805 140.649 81.3985 140.649ZM86.8247 136.568C87.87 136.568 88.6971 137.141 88.6971 138.677V141.258H87.9518V138.722C87.9518 137.759 87.5064 137.25 86.6975 137.25C85.8249 137.25 85.2978 137.895 85.2978 138.941V141.258H84.5524V136.623H85.1978L85.2978 137.25C85.5704 136.895 86.0431 136.568 86.8247 136.568ZM89.5567 140.804C89.5567 140.495 89.7748 140.295 90.0747 140.295C90.3734 140.295 90.5928 140.495 90.5928 140.804C90.5928 141.113 90.3747 141.313 90.0735 141.313C89.7748 141.313 89.5567 141.113 89.5567 140.804Z" fill="#222222"/>
</g>
<defs>
<linearGradient id="paint0_linear_4_905" x1="280.984" y1="35.6008" x2="226.413" y2="110.873" gradientUnits="userSpaceOnUse">
<stop stop-color="#F34B48"/>
<stop offset="0.54" stop-color="#FC7E5D"/>
<stop offset="1" stop-color="white"/>
</linearGradient>
<linearGradient id="paint1_linear_4_905" x1="308.512" y1="36.6953" x2="287.694" y2="41.1685" gradientUnits="userSpaceOnUse">
<stop stop-color="#F34B48"/>
</linearGradient>
<linearGradient id="paint2_linear_4_905" x1="46.2248" y1="85.3872" x2="25.4067" y2="89.8604" gradientUnits="userSpaceOnUse">
<stop stop-color="#F34B48"/>
<stop offset="0.54" stop-color="#FC7E5D"/>
<stop offset="1" stop-color="#FFDF91"/>
</linearGradient>
<clipPath id="clip0_4_905">
<rect width="335" height="157.112" fill="white"/>
</clipPath>
</defs>
</svg>
