<svg width="18" height="12" viewBox="0 0 18 12" fill="none" xmlns="http://www.w3.org/2000/svg">
<path d="M15.023 3.10969L12.2105 1.23469C12.1582 1.19987 12.0961 1.17227 12.0279 1.15345C11.9596 1.13463 11.8864 1.12496 11.8125 1.125H6.1875C5.88913 1.125 5.60298 1.20402 5.392 1.34467C5.18103 1.48532 5.0625 1.67609 5.0625 1.875V2.625H3.9375C3.63913 2.625 3.35298 2.70402 3.142 2.84467C2.93103 2.98532 2.8125 3.17609 2.8125 3.375V10.125C2.8125 10.3239 2.93103 10.5147 3.142 10.6553C3.35298 10.796 3.63913 10.875 3.9375 10.875H11.8125C12.1109 10.875 12.397 10.796 12.608 10.6553C12.819 10.5147 12.9375 10.3239 12.9375 10.125V9.375H14.0625C14.3609 9.375 14.647 9.29598 14.858 9.15533C15.069 9.01468 15.1875 8.82391 15.1875 8.625V3.375C15.1876 3.32574 15.1731 3.27695 15.1448 3.23143C15.1166 3.18591 15.0752 3.14454 15.023 3.10969ZM11.8125 10.125H3.9375V3.375H9.32977L11.8125 5.03016V10.125ZM14.0625 8.625H12.9375V4.875C12.9376 4.82574 12.9231 4.77695 12.8948 4.73143C12.8666 4.68591 12.8252 4.64454 12.773 4.60969L9.96047 2.73469C9.90819 2.69987 9.84614 2.67227 9.77785 2.65345C9.70957 2.63463 9.63639 2.62496 9.5625 2.625H6.1875V1.875H11.5798L14.0625 3.53016V8.625ZM10.125 7.125C10.125 7.22446 10.0657 7.31984 9.96025 7.39017C9.85476 7.46049 9.71168 7.5 9.5625 7.5H6.1875C6.03832 7.5 5.89524 7.46049 5.78975 7.39017C5.68426 7.31984 5.625 7.22446 5.625 7.125C5.625 7.02554 5.68426 6.93016 5.78975 6.85983C5.89524 6.78951 6.03832 6.75 6.1875 6.75H9.5625C9.71168 6.75 9.85476 6.78951 9.96025 6.85983C10.0657 6.93016 10.125 7.02554 10.125 7.125ZM10.125 8.625C10.125 8.72446 10.0657 8.81984 9.96025 8.89017C9.85476 8.96049 9.71168 9 9.5625 9H6.1875C6.03832 9 5.89524 8.96049 5.78975 8.89017C5.68426 8.81984 5.625 8.72446 5.625 8.625C5.625 8.52554 5.68426 8.43016 5.78975 8.35983C5.89524 8.28951 6.03832 8.25 6.1875 8.25H9.5625C9.71168 8.25 9.85476 8.28951 9.96025 8.35983C10.0657 8.43016 10.125 8.52554 10.125 8.625Z" fill="black"/>
</svg>
