<svg width="1033" height="335" viewBox="0 0 1033 335" fill="none" xmlns="http://www.w3.org/2000/svg">
<g clip-path="url(#clip0_4_1150)">
<mask id="mask0_4_1150" style="mask-type:luminance" maskUnits="userSpaceOnUse" x="0" y="0" width="351" height="335">
<path d="M0 0H350.902V335H0V0Z" fill="white"/>
</mask>
<g mask="url(#mask0_4_1150)">
<mask id="mask1_4_1150" style="mask-type:alpha" maskUnits="userSpaceOnUse" x="-33" y="17" width="391" height="259">
<mask id="mask2_4_1150" style="mask-type:alpha" maskUnits="userSpaceOnUse" x="-57" y="17" width="415" height="356">
<path d="M228.535 19.7996L222.209 19.1347C117.399 8.11843 -0.949311 77.8302 -42.1278 174.84C-83.3062 271.85 -31.7219 359.423 73.0891 370.439L79.415 371.104C184.226 382.121 302.574 312.409 343.752 215.399C384.931 118.389 333.346 30.8158 228.535 19.7996Z" fill="#D9D9D9"/>
</mask>
<g mask="url(#mask2_4_1150)">
<path d="M75.9612 -12.5464L390.148 20.4765L282.035 275.172L-32.1511 242.15L75.9612 -12.5464Z" fill="url(#paint0_linear_4_1150)"/>
</g>
</mask>
<g mask="url(#mask1_4_1150)">
<path d="M35.1622 -0.994241L281.742 -7.1875L314.82 35.5356L322.557 56.2261L370.453 79.6093L348.482 100.236L342.305 119.975L145.992 214.023L-65.9081 237.114L35.1622 -0.994241Z" fill="url(#paint1_linear_4_1150)"/>
</g>
<mask id="mask3_4_1150" style="mask-type:alpha" maskUnits="userSpaceOnUse" x="2" y="104" width="292" height="219">
<mask id="mask4_4_1150" style="mask-type:alpha" maskUnits="userSpaceOnUse" x="2" y="89" width="292" height="247">
<path d="M10.173 203.487L8.75736 207.513C-14.6984 274.225 28.3844 331.564 104.985 335.582C181.587 339.6 262.699 288.777 286.155 222.065L287.57 218.039C311.026 151.327 267.943 93.9885 191.342 89.9701C114.741 85.9518 33.6288 136.775 10.173 203.487Z" fill="#D9D9D9"/>
</mask>
<g mask="url(#mask4_4_1150)">
<path d="M-37.784 304.172L32.5282 104.193L386.076 122.74L315.764 322.719L-37.784 304.172Z" fill="url(#paint2_linear_4_1150)"/>
</g>
</mask>
<g mask="url(#mask3_4_1150)">
<path d="M-35.6775 328.203L-6.87918 178.33L32.7706 148.629L50.8352 139.325L76.6312 104.796L90.5592 113.729L105.929 113.168L125.941 135.952L163.047 182.746L306.061 105.746L519.466 217.396L-35.6775 328.203Z" fill="url(#paint3_linear_4_1150)"/>
</g>
<path d="M95.2046 141.334L139.623 215.92C140.127 216.767 141.469 216.902 142.615 216.22L315.182 113.485" stroke="white" stroke-width="63.6076" stroke-linecap="round"/>
</g>
<path d="M615.886 176.067C615.886 234.244 577.194 276.607 521.559 276.607C465.922 276.607 427.231 234.244 427.231 176.067C427.231 117.888 465.922 75.5254 521.559 75.5254C577.194 75.5254 615.886 117.888 615.886 176.067ZM452.367 176.067C452.367 221.536 480.325 254.014 521.559 254.014C562.792 254.014 590.751 221.536 590.751 176.067C590.751 130.597 562.792 98.1188 521.559 98.1188C480.325 98.1188 452.367 130.597 452.367 176.067ZM703.839 130.88H710.336V153.473H698.756C668.537 153.473 660.348 178.608 660.348 201.484V274.913H637.189V130.88H657.24L660.348 152.626C667.125 141.612 678.14 130.88 703.839 130.88ZM724.048 274.913V130.88H747.207V274.913H724.048ZM766.64 152.061V130.88H881.302V148.39L793.753 253.732H884.974V274.913H762.969V257.403L850.236 152.061H766.64ZM971.129 129.185C1003.61 129.185 1029.31 146.978 1029.31 194.706V274.913H1006.15V196.118C1006.15 166.182 992.31 150.366 967.175 150.366C940.063 150.366 923.683 170.418 923.683 202.896V274.913H900.525V130.88H920.576L923.683 150.366C932.156 139.352 946.841 129.185 971.129 129.185Z" fill="white"/>
<path d="M711.661 130.88V129.555H703.839C690.8 129.555 681.376 132.279 674.319 136.484C668.508 139.946 664.373 144.37 661.163 148.964L658.553 130.692L658.39 129.555H635.864V276.238H661.673V201.484C661.673 190.166 663.705 178.453 669.337 169.613C674.913 160.861 684.088 154.798 698.756 154.798H711.661V130.88ZM722.723 274.913V276.238H748.532V129.555H722.723V274.913ZM765.315 152.061V153.386H847.418L761.949 256.558L761.644 256.926V276.238H886.299V252.406H796.577L882.321 149.237L882.628 148.868V129.555H765.315V152.061ZM1029.31 276.238H1030.63V194.706C1030.63 170.61 1024.14 153.844 1013.33 143.107C1002.52 132.374 987.599 127.86 971.129 127.86C948.115 127.86 933.467 136.853 924.525 147.233L921.885 130.671L921.707 129.555H899.199V276.238H925.008V202.896C925.008 186.865 929.052 174.063 936.284 165.296C943.492 156.558 953.973 151.691 967.175 151.691C979.452 151.691 988.789 155.543 995.082 162.879C1001.4 170.249 1004.82 181.331 1004.82 196.118V276.238H1029.31ZM521.559 277.932C578.015 277.932 617.211 234.886 617.211 176.067C617.211 117.248 578.015 74.2002 521.559 74.2002C465.103 74.2002 425.906 117.248 425.906 176.067C425.906 234.886 465.103 277.932 521.559 277.932ZM521.559 252.688C501.313 252.688 484.38 244.726 472.495 231.216C460.597 217.693 453.692 198.533 453.692 176.067C453.692 153.599 460.597 134.441 472.495 120.917C484.38 107.408 501.313 99.4439 521.559 99.4439C541.804 99.4439 558.737 107.408 570.623 120.917C582.52 134.441 589.426 153.599 589.426 176.067C589.426 198.533 582.52 217.693 570.623 231.216C558.737 244.726 541.804 252.688 521.559 252.688Z" stroke="white" stroke-opacity="0.12" stroke-width="2.65032"/>
<path d="M711.004 90.1955C726.905 91.9638 735.74 100.797 737.507 116.7C739.274 100.798 748.108 91.9627 764.01 90.1965C748.108 88.4293 739.274 79.5953 737.507 63.6934C735.74 79.5953 726.905 88.4282 711.004 90.1955Z" fill="url(#paint4_linear_4_1150)"/>
</g>
<defs>
<linearGradient id="paint0_linear_4_1150" x1="309.046" y1="88.3112" x2="84.7149" y2="39.6986" gradientUnits="userSpaceOnUse">
<stop stop-color="#EFF3F7"/>
<stop offset="1" stop-color="#EFF3F7"/>
</linearGradient>
<linearGradient id="paint1_linear_4_1150" x1="307.933" y1="76.1671" x2="58.7607" y2="24.6566" gradientUnits="userSpaceOnUse">
<stop stop-color="#EFF3F7"/>
<stop offset="1" stop-color="#EFF3F7"/>
</linearGradient>
<linearGradient id="paint2_linear_4_1150" x1="122.791" y1="141.388" x2="128.461" y2="285.303" gradientUnits="userSpaceOnUse">
<stop stop-color="#EFF3F7"/>
<stop offset="1" stop-color="#EFF3F7"/>
</linearGradient>
<linearGradient id="paint3_linear_4_1150" x1="20.3767" y1="204.501" x2="212.71" y2="312.76" gradientUnits="userSpaceOnUse">
<stop stop-color="#EFF3F7"/>
<stop offset="1" stop-color="#EFF3F7"/>
</linearGradient>
<linearGradient id="paint4_linear_4_1150" x1="764.01" y1="81.2597" x2="708.035" y2="93.1278" gradientUnits="userSpaceOnUse">
<stop stop-color="#F34B48"/>
<stop offset="0.54" stop-color="#FC7E5D"/>
<stop offset="1" stop-color="#FFDF91"/>
</linearGradient>
<clipPath id="clip0_4_1150">
<rect width="1032.56" height="335" fill="white"/>
</clipPath>
</defs>
</svg>
