<svg width="18" height="12" viewBox="0 0 18 12" fill="none" xmlns="http://www.w3.org/2000/svg">
<g clip-path="url(#clip0_4_726)">
<path d="M13.8923 6.04969L10.2656 5.15625L8.92968 2.73656C8.85056 2.59328 8.70743 2.46962 8.51959 2.38227C8.33174 2.29493 8.10823 2.24809 7.87921 2.24809C7.65019 2.24809 7.42667 2.29493 7.23883 2.38227C7.05099 2.46962 6.90785 2.59328 6.82874 2.73656L5.48436 5.15625L1.85483 6.04687C1.63991 6.09962 1.45442 6.19504 1.3234 6.32027C1.19238 6.4455 1.12213 6.59451 1.12213 6.74719C1.12213 6.89987 1.19238 7.04888 1.3234 7.17411C1.45442 7.29934 1.63991 7.39476 1.85483 7.4475L5.48436 8.34375L6.8203 10.7634C6.89942 10.9067 7.04255 11.0304 7.23039 11.1177C7.41824 11.2051 7.64175 11.2519 7.87077 11.2519C8.09979 11.2519 8.32331 11.2051 8.51115 11.1177C8.69899 11.0304 8.84213 10.9067 8.92124 10.7634L10.2656 8.34375L13.8951 7.45312C14.1101 7.40038 14.2956 7.30496 14.4266 7.17973C14.5576 7.0545 14.6278 6.90549 14.6278 6.75281C14.6278 6.60013 14.5576 6.45112 14.4266 6.32589C14.2956 6.20066 14.1101 6.10524 13.8951 6.0525L13.8923 6.04969ZM9.6328 7.69781C9.55645 7.71657 9.48711 7.74615 9.42957 7.78451C9.37203 7.82287 9.32766 7.8691 9.29952 7.92L7.87499 10.493L6.45327 7.92187C6.42518 7.87044 6.38053 7.82372 6.32247 7.78501C6.2644 7.74631 6.19433 7.71654 6.11718 7.69781L2.26054 6.75L6.11718 5.80219C6.19433 5.78346 6.2644 5.75369 6.32247 5.71498C6.38053 5.67628 6.42518 5.62956 6.45327 5.57812L7.87499 3.00703L9.29671 5.57812C9.32485 5.62903 9.36922 5.67525 9.42676 5.71361C9.4843 5.75197 9.55364 5.78155 9.62999 5.80031L13.4894 6.75L9.6328 7.69781ZM10.125 1.875C10.125 1.77554 10.1843 1.68016 10.2897 1.60983C10.3952 1.53951 10.5383 1.5 10.6875 1.5H11.8125V0.75C11.8125 0.650544 11.8718 0.555161 11.9772 0.484835C12.0827 0.414509 12.2258 0.375 12.375 0.375C12.5242 0.375 12.6672 0.414509 12.7727 0.484835C12.8782 0.555161 12.9375 0.650544 12.9375 0.75V1.5H14.0625C14.2117 1.5 14.3547 1.53951 14.4602 1.60983C14.5657 1.68016 14.625 1.77554 14.625 1.875C14.625 1.97446 14.5657 2.06984 14.4602 2.14016C14.3547 2.21049 14.2117 2.25 14.0625 2.25H12.9375V3C12.9375 3.09946 12.8782 3.19484 12.7727 3.26516C12.6672 3.33549 12.5242 3.375 12.375 3.375C12.2258 3.375 12.0827 3.33549 11.9772 3.26516C11.8718 3.19484 11.8125 3.09946 11.8125 3V2.25H10.6875C10.5383 2.25 10.3952 2.21049 10.2897 2.14016C10.1843 2.06984 10.125 1.97446 10.125 1.875ZM17.4375 4.125C17.4375 4.22446 17.3782 4.31984 17.2727 4.39016C17.1672 4.46049 17.0242 4.5 16.875 4.5H16.3125V4.875C16.3125 4.97446 16.2532 5.06984 16.1477 5.14016C16.0422 5.21049 15.8992 5.25 15.75 5.25C15.6008 5.25 15.4577 5.21049 15.3522 5.14016C15.2468 5.06984 15.1875 4.97446 15.1875 4.875V4.5H14.625C14.4758 4.5 14.3327 4.46049 14.2272 4.39016C14.1218 4.31984 14.0625 4.22446 14.0625 4.125C14.0625 4.02554 14.1218 3.93016 14.2272 3.85983C14.3327 3.78951 14.4758 3.75 14.625 3.75H15.1875V3.375C15.1875 3.27554 15.2468 3.18016 15.3522 3.10983C15.4577 3.03951 15.6008 3 15.75 3C15.8992 3 16.0422 3.03951 16.1477 3.10983C16.2532 3.18016 16.3125 3.27554 16.3125 3.375V3.75H16.875C17.0242 3.75 17.1672 3.78951 17.2727 3.85983C17.3782 3.93016 17.4375 4.02554 17.4375 4.125Z" fill="black"/>
</g>
<defs>
<clipPath id="clip0_4_726">
<rect width="18" height="12" fill="white"/>
</clipPath>
</defs>
</svg>
