<svg width="48" height="48" viewBox="0 0 48 48" fill="none" xmlns="http://www.w3.org/2000/svg">
<g clip-path="url(#clip0_4_772)">
<path d="M46.8049 25.1949C47.4649 12.6003 37.7899 1.85522 25.1951 1.19515C12.6004 0.535088 1.8552 10.21 1.19514 22.8046C0.535084 35.3992 10.2101 46.1443 22.8049 46.8043C35.3996 47.4644 46.1448 37.7895 46.8049 25.1949Z" fill="#EAB308" fill-opacity="0.15"/>
<mask id="mask0_4_772" style="mask-type:luminance" maskUnits="userSpaceOnUse" x="13" y="11" width="22" height="26">
<path d="M34.7607 12.584L14.4906 11.5217L13.2386 35.4114L33.5087 36.4737L34.7607 12.584Z" fill="white"/>
</mask>
<g mask="url(#mask0_4_772)">
<path d="M16.9311 10.8454C15.9793 10.8267 15.1721 11.0807 14.5093 11.6075C13.8465 12.1341 13.4754 12.8165 13.3963 13.6546L12.4573 31.5718C12.4484 32.4136 12.7461 33.131 13.3502 33.7241C13.9543 34.3172 14.7305 34.6543 15.6791 34.7352L29.1926 35.4434C30.1443 35.4621 30.9516 35.208 31.6144 34.6813C32.2772 34.1546 32.6481 33.4722 32.7274 32.6342L33.6664 14.7169C33.6751 13.8751 33.3776 13.1577 32.7735 12.5646C32.1694 11.9715 31.3931 11.6345 30.4446 11.5536L16.9311 10.8454ZM18.4638 13.9202L28.5989 14.4513C29.0915 14.4771 29.4889 14.6383 29.7909 14.9348C30.093 15.2314 30.2326 15.5974 30.2098 16.0329L30.1316 17.526C30.1087 17.9615 29.9316 18.311 29.6002 18.5742C29.2688 18.8377 28.8568 18.9564 28.3641 18.9306L18.229 18.3994C17.7364 18.3736 17.339 18.2125 17.037 17.9158C16.7349 17.6194 16.5953 17.2533 16.6181 16.8178L16.6963 15.3247C16.7192 14.8892 16.8963 14.5398 17.2277 14.2764C17.5591 14.0131 17.9711 13.8943 18.4638 13.9202ZM19.7618 21.4742C19.7389 21.9097 19.5618 22.2591 19.2304 22.5225C18.899 22.7858 18.487 22.9046 17.9943 22.8787C17.5016 22.8529 17.1043 22.6917 16.8022 22.3952C16.5002 22.0987 16.3605 21.7326 16.3833 21.2971C16.4062 20.8616 16.5833 20.5122 16.9147 20.2489C17.2461 19.9855 17.6581 19.8667 18.1508 19.8925C18.6435 19.9184 19.0408 20.0795 19.3429 20.3762C19.6449 20.6727 19.7846 21.0387 19.7618 21.4742ZM17.7595 27.3581C17.2669 27.3323 16.8695 27.1711 16.5675 26.8746C16.2654 26.578 16.1258 26.212 16.1486 25.7765C16.1714 25.341 16.3486 24.9915 16.68 24.7282C17.0113 24.4649 17.4234 24.3461 17.916 24.3719C18.4087 24.3978 18.8061 24.5589 19.1081 24.8555C19.4102 25.152 19.5498 25.5181 19.527 25.9536C19.5042 26.3891 19.327 26.7384 18.9956 27.0019C18.6642 27.2652 18.2522 27.384 17.7595 27.3581ZM15.9138 30.2558C15.9367 29.8203 16.1138 29.4709 16.4452 29.2075C16.7766 28.9442 17.1886 28.8254 17.6813 28.8512L22.7488 29.1168C23.2415 29.1426 23.6388 29.3038 23.9409 29.6003C24.2429 29.897 24.3826 30.2629 24.3598 30.6984C24.337 31.1339 24.1598 31.4834 23.8284 31.7467C23.497 32.0101 23.085 32.1288 22.5923 32.103L17.5248 31.8374C17.0321 31.8116 16.6348 31.6504 16.3327 31.3539C16.0307 31.0574 15.891 30.6913 15.9138 30.2558ZM23.0618 23.1443C22.5692 23.1185 22.1718 22.9573 21.8698 22.6608C21.5677 22.3643 21.428 21.9982 21.4509 21.5627C21.4737 21.1272 21.6508 20.7778 21.9822 20.5145C22.3136 20.2511 22.7257 20.1323 23.2183 20.1581C23.711 20.1839 24.1083 20.3451 24.4104 20.6417C24.7124 20.9383 24.8521 21.3042 24.8293 21.7397C24.8065 22.1752 24.6293 22.5247 24.2979 22.788C23.9665 23.0514 23.5545 23.1701 23.0618 23.1443ZM24.5945 26.2191C24.5717 26.6546 24.3946 27.004 24.0632 27.2674C23.7318 27.5308 23.3197 27.6495 22.8271 27.6237C22.3344 27.5979 21.937 27.4367 21.635 27.1402C21.333 26.8436 21.1933 26.4776 21.2161 26.0421C21.2389 25.6066 21.4161 25.2571 21.7475 24.9938C22.0789 24.7305 22.4909 24.6117 22.9836 24.6375C23.4762 24.6633 23.8736 24.8245 24.1756 25.121C24.4777 25.4176 24.6174 25.7836 24.5945 26.2191ZM28.1294 23.4099C27.6367 23.3841 27.2393 23.2229 26.9373 22.9264C26.6352 22.6298 26.4956 22.2638 26.5184 21.8283C26.5412 21.3928 26.7184 21.0434 27.0498 20.7801C27.3812 20.5166 27.7932 20.3979 28.2859 20.4237C28.7785 20.4495 29.1759 20.6107 29.4779 20.9073C29.78 21.2039 29.9196 21.5698 29.8968 22.0053C29.874 22.4408 29.6968 22.7903 29.3654 23.0536C29.034 23.317 28.622 23.4357 28.1294 23.4099ZM29.6621 26.4847C29.6392 26.9202 29.4621 27.2696 29.1307 27.533C28.7993 27.7963 28.3873 27.9151 27.8946 27.8893C27.4019 27.8635 27.0046 27.7023 26.7025 27.4058C26.4005 27.1091 26.2608 26.7432 26.2836 26.3077C26.3065 25.8722 26.4836 25.5227 26.815 25.2594C27.1464 24.996 27.5584 24.8773 28.0511 24.9031C28.5438 24.9289 28.9411 25.0901 29.2432 25.3866C29.5452 25.6831 29.6849 26.0492 29.6621 26.4847ZM27.6599 32.3686C27.1672 32.3428 26.7698 32.1816 26.4678 31.8851C26.1657 31.5885 26.0261 31.2225 26.0489 30.787C26.0717 30.3514 26.2489 30.0021 26.5803 29.7387C26.9117 29.4753 27.3237 29.3566 27.8163 29.3824C28.309 29.4082 28.7064 29.5694 29.0084 29.8659C29.3105 30.1625 29.4501 30.5285 29.4273 30.964C29.4045 31.3995 29.2273 31.749 28.8959 32.0123C28.5645 32.2756 28.1525 32.3944 27.6599 32.3686Z" fill="#EAB308"/>
</g>
</g>
<defs>
<clipPath id="clip0_4_772">
<rect width="45.0019" height="45.0014" fill="white" transform="translate(2.39028) scale(1.0149) rotate(3)"/>
</clipPath>
</defs>
</svg>
