<svg width="272" height="152" viewBox="0 0 272 152" fill="none" xmlns="http://www.w3.org/2000/svg">
<g clip-path="url(#clip0_4_590)">
<g filter="url(#filter0_dd_4_590)">
<path d="M50.0364 23.7019C50.0364 18.8815 53.944 14.9746 58.7636 14.9746H213.236C218.056 14.9746 221.964 18.8815 221.964 23.7019V43.3382C221.964 48.1579 218.056 52.0655 213.236 52.0655H58.7636C53.944 52.0655 50.0364 48.1579 50.0364 43.3382V23.7019Z" fill="white"/>
<path d="M58.7636 15.3381H213.236C217.855 15.3381 221.6 19.0829 221.6 23.7018V43.3381C221.6 47.957 217.855 51.7018 213.236 51.7018H58.7636C54.1447 51.7018 50.4 47.957 50.4 43.3381V23.7018C50.4 19.0829 54.1447 15.3381 58.7636 15.3381Z" stroke="#FFDF91" stroke-opacity="0.41" stroke-width="0.727273"/>
<g filter="url(#filter1_ii_4_590)">
<path d="M82.9855 20.8625H61.7418C60.097 20.8625 58.7636 22.1959 58.7636 23.8407V43.1978C58.7636 44.8426 60.097 46.176 61.7418 46.176H82.9855C84.6303 46.176 85.9636 44.8426 85.9636 43.1978V23.8407C85.9636 22.1959 84.6303 20.8625 82.9855 20.8625Z" fill="white"/>
<path d="M65.4662 40.2212H79.2611C79.8342 40.2212 80.192 39.603 79.9091 39.1041L73.0073 27.1928C72.9423 27.0795 72.8486 26.9853 72.7356 26.9198C72.6226 26.8543 72.4943 26.8198 72.3636 26.8198C72.233 26.8198 72.1047 26.8543 71.9917 26.9198C71.8787 26.9853 71.785 27.0795 71.72 27.1928L64.8182 39.1041C64.7532 39.2176 64.7192 39.3461 64.7195 39.4768C64.7198 39.6076 64.7545 39.736 64.82 39.8491C64.8856 39.9622 64.9797 40.0562 65.093 40.1215C65.2063 40.1868 65.3354 40.2212 65.4662 40.2212ZM73.112 37.9877H71.6233V36.499H73.112V37.9877ZM72.3673 35.0096C71.9578 35.0096 71.6233 34.675 71.6233 34.2656V32.7761C71.6233 32.3666 71.9578 32.0321 72.3673 32.0321C72.7767 32.0321 73.112 32.3666 73.112 32.7761V34.2656C73.112 34.675 72.7767 35.0096 72.3673 35.0096Z" fill="url(#paint0_linear_4_590)"/>
</g>
<path d="M99.0633 26.4567V27.3381H94.8916C94.8916 27.0676 94.9353 26.8145 95.0051 26.5876C95.0749 26.3607 95.1534 26.1687 95.2407 26.0116C95.328 25.8545 95.4676 25.6887 95.6422 25.5229C95.8167 25.357 95.9825 25.2174 96.1222 25.1127C96.2618 25.008 96.4625 24.8683 96.7156 24.6938C96.7331 24.685 96.8116 24.6327 96.9687 24.528C97.1258 24.4232 97.2218 24.3621 97.2567 24.336C97.2916 24.3098 97.3702 24.2487 97.4924 24.1527C97.6145 24.0567 97.6931 23.9781 97.728 23.917L97.8851 23.6814C97.9549 23.5854 97.9985 23.4894 98.0247 23.3847C98.0422 23.28 98.0596 23.1752 98.0596 23.053C98.0596 22.7389 97.9636 22.4858 97.7891 22.3025C97.6145 22.1192 97.3702 22.0232 97.0735 22.0232C96.8989 22.0232 96.7418 22.0581 96.6196 22.1105C96.4887 22.1629 96.384 22.2327 96.3142 22.32C96.2444 22.4072 96.1833 22.5207 96.1396 22.6603C96.0873 22.8 96.0611 22.9221 96.0436 23.0443C96.0251 23.1861 96.0164 23.329 96.0175 23.472H95.0487V23.3149C95.0487 22.6603 95.232 22.1367 95.5985 21.7527C95.9651 21.3687 96.4713 21.168 97.0996 21.168C97.6931 21.168 98.1644 21.3425 98.5309 21.6741C98.8887 22.0058 99.072 22.4509 99.072 23.0007C99.072 23.2276 99.0371 23.437 98.9673 23.629C98.9108 23.7974 98.8346 23.9585 98.7404 24.109C98.6291 24.2712 98.4938 24.4155 98.3389 24.5367C98.2019 24.6569 98.0592 24.7705 97.9113 24.877C97.8153 24.9469 97.6407 25.0603 97.3964 25.2261C96.6633 25.6974 96.2269 26.1076 96.0873 26.4567H99.0633ZM107.729 24.013V27.3381H107.031L106.865 26.5963C106.368 27.1898 105.722 27.4865 104.928 27.4865C104.055 27.4865 103.34 27.1898 102.799 26.5963C102.257 26.0029 101.987 25.2349 101.987 24.2749C101.987 23.341 102.257 22.5643 102.807 21.936C103.348 21.3076 104.09 20.9934 105.024 20.9934C105.696 20.9934 106.281 21.1854 106.787 21.5607C107.293 21.9447 107.581 22.4596 107.651 23.1054H106.595C106.525 22.7389 106.351 22.4421 106.071 22.2327C105.792 22.0232 105.434 21.9098 105.015 21.9098C104.413 21.9098 103.942 22.1192 103.601 22.5381C103.252 22.957 103.087 23.533 103.087 24.2574C103.087 24.9905 103.252 25.5665 103.601 25.9854C103.951 26.4043 104.431 26.605 105.05 26.605C105.591 26.605 106.001 26.4392 106.298 26.0989C106.595 25.7672 106.743 25.3483 106.743 24.8509H105.068V24.013H107.729ZM111.14 22.7476V23.6989C111.024 23.6857 110.907 23.677 110.791 23.6727C109.918 23.6727 109.49 24.24 109.49 25.357V27.3381H108.504V22.8349H109.438V23.7338C109.752 23.0705 110.258 22.7301 110.948 22.7301L111.14 22.7476ZM111.441 24.2225C111.546 23.2101 112.201 22.6952 113.414 22.6952C113.972 22.6952 114.426 22.8087 114.758 23.0269C115.089 23.2538 115.264 23.5941 115.264 24.0567V26.3432C115.264 26.4741 115.273 26.5614 115.308 26.605C115.343 26.6574 115.404 26.6749 115.5 26.6749C115.569 26.6749 115.639 26.6749 115.727 26.6574V27.3556C115.465 27.4254 115.255 27.4516 115.081 27.4516C114.653 27.4516 114.409 27.277 114.348 26.9105C113.964 27.277 113.44 27.4516 112.768 27.4516C112.297 27.4516 111.93 27.3381 111.66 27.0938C111.38 26.8494 111.249 26.5265 111.249 26.1076C111.249 25.9854 111.258 25.8632 111.293 25.7498C111.319 25.645 111.354 25.549 111.389 25.4618C111.431 25.3726 111.494 25.2948 111.572 25.2349C111.66 25.165 111.729 25.1127 111.782 25.0603C111.834 25.0167 111.93 24.973 112.052 24.9294C112.175 24.8945 112.271 24.8596 112.332 24.8421C112.393 24.8247 112.497 24.7985 112.655 24.7723C112.803 24.7549 112.899 24.7374 112.951 24.7287C113.004 24.72 113.108 24.7025 113.265 24.685C113.615 24.6414 113.859 24.6065 113.99 24.5716C114.112 24.5367 114.199 24.493 114.252 24.4232C114.287 24.3796 114.313 24.2749 114.313 24.1003C114.313 23.6465 113.999 23.4196 113.388 23.4196C113.056 23.4196 112.82 23.4807 112.672 23.6029C112.515 23.725 112.419 23.9345 112.384 24.2225H111.441ZM114.304 25.0778C114.225 25.1214 114.138 25.1563 114.042 25.1912C113.963 25.2189 113.881 25.2393 113.798 25.2523C113.737 25.261 113.641 25.2698 113.51 25.2872C113.379 25.3047 113.292 25.3221 113.257 25.3221C113.135 25.3396 113.039 25.357 112.969 25.3745C112.899 25.392 112.812 25.4094 112.707 25.4443C112.619 25.4694 112.539 25.5142 112.471 25.5752C112.411 25.6316 112.364 25.7 112.332 25.776C112.288 25.8686 112.267 25.9703 112.271 26.0727C112.271 26.2909 112.34 26.4567 112.48 26.5701C112.62 26.6923 112.82 26.7447 113.082 26.7447C113.519 26.7447 113.859 26.6312 114.103 26.3869C114.234 26.256 114.304 25.9941 114.304 25.6101V25.0778ZM117.111 22.8349V23.472C117.478 22.9658 117.949 22.7127 118.525 22.7127C118.822 22.7127 119.075 22.7825 119.293 22.9134C119.511 23.053 119.677 23.2363 119.782 23.4807C120.14 22.9745 120.628 22.7127 121.239 22.7127C121.658 22.7127 122.016 22.8436 122.295 23.0967C122.575 23.3498 122.714 23.6989 122.714 24.144V27.3381H121.719V24.5716C121.719 24.2574 121.658 24.0043 121.553 23.821C121.44 23.6465 121.231 23.5505 120.916 23.5505C120.593 23.5505 120.349 23.6552 120.183 23.856C120.009 24.0567 119.93 24.336 119.93 24.6938V27.3381H118.935V24.5192C118.935 24.205 118.883 23.9607 118.787 23.7949C118.691 23.6378 118.49 23.5505 118.193 23.5505C117.853 23.5505 117.6 23.664 117.425 23.8821C117.251 24.1003 117.164 24.3883 117.164 24.7461V27.3381H116.169V22.8349H117.111ZM124.53 22.8349V23.472C124.897 22.9658 125.368 22.7127 125.944 22.7127C126.241 22.7127 126.494 22.7825 126.712 22.9134C126.93 23.053 127.096 23.2363 127.201 23.4807C127.559 22.9745 128.047 22.7127 128.658 22.7127C129.077 22.7127 129.435 22.8436 129.714 23.0967C129.993 23.3498 130.133 23.6989 130.133 24.144V27.3381H129.138V24.5716C129.138 24.2574 129.077 24.0043 128.972 23.821C128.859 23.6465 128.649 23.5505 128.335 23.5505C128.012 23.5505 127.768 23.6552 127.602 23.856C127.428 24.0567 127.349 24.336 127.349 24.6938V27.3381H126.354V24.5192C126.354 24.205 126.302 23.9607 126.206 23.7949C126.11 23.6378 125.909 23.5505 125.612 23.5505C125.272 23.5505 125.019 23.664 124.844 23.8821C124.67 24.1003 124.583 24.3883 124.583 24.7461V27.3381H123.588V22.8349H124.53ZM130.955 24.2225C131.06 23.2101 131.714 22.6952 132.927 22.6952C133.486 22.6952 133.94 22.8087 134.271 23.0269C134.603 23.2538 134.777 23.5941 134.777 24.0567V26.3432C134.777 26.4741 134.786 26.5614 134.821 26.605C134.856 26.6574 134.917 26.6749 135.013 26.6749C135.083 26.6749 135.153 26.6749 135.24 26.6574V27.3556C134.978 27.4254 134.769 27.4516 134.594 27.4516C134.167 27.4516 133.922 27.277 133.861 26.9105C133.477 27.277 132.953 27.4516 132.281 27.4516C131.81 27.4516 131.444 27.3381 131.173 27.0938C130.894 26.8494 130.763 26.5265 130.763 26.1076C130.763 25.9854 130.772 25.8632 130.807 25.7498C130.833 25.645 130.868 25.549 130.903 25.4618C130.945 25.3726 131.008 25.2948 131.086 25.2349C131.173 25.165 131.243 25.1127 131.295 25.0603C131.348 25.0167 131.444 24.973 131.566 24.9294C131.688 24.8945 131.784 24.8596 131.845 24.8421C131.906 24.8247 132.011 24.7985 132.168 24.7723C132.316 24.7549 132.412 24.7374 132.465 24.7287C132.517 24.72 132.622 24.7025 132.779 24.685C133.128 24.6414 133.372 24.6065 133.503 24.5716C133.625 24.5367 133.713 24.493 133.765 24.4232C133.8 24.3796 133.826 24.2749 133.826 24.1003C133.826 23.6465 133.512 23.4196 132.901 23.4196C132.569 23.4196 132.334 23.4807 132.185 23.6029C132.028 23.725 131.932 23.9345 131.897 24.2225H130.955ZM133.817 25.0778C133.739 25.1214 133.652 25.1563 133.556 25.1912C133.476 25.2189 133.394 25.2393 133.311 25.2523C133.25 25.261 133.154 25.2698 133.023 25.2872C132.892 25.3047 132.805 25.3221 132.77 25.3221C132.648 25.3396 132.552 25.357 132.482 25.3745C132.412 25.392 132.325 25.4094 132.22 25.4443C132.133 25.4694 132.052 25.5142 131.985 25.5752C131.925 25.6316 131.877 25.7 131.845 25.776C131.801 25.8686 131.781 25.9703 131.784 26.0727C131.784 26.2909 131.854 26.4567 131.993 26.5701C132.133 26.6923 132.334 26.7447 132.596 26.7447C133.032 26.7447 133.372 26.6312 133.617 26.3869C133.748 26.256 133.817 25.9941 133.817 25.6101V25.0778ZM138.222 22.7476V23.6989C138.106 23.6857 137.989 23.677 137.873 23.6727C137 23.6727 136.572 24.24 136.572 25.357V27.3381H135.586V22.8349H136.52V23.7338C136.834 23.0705 137.34 22.7301 138.03 22.7301L138.222 22.7476ZM141.772 22.8349V23.472C142.139 22.9658 142.61 22.7127 143.186 22.7127C143.483 22.7127 143.736 22.7825 143.954 22.9134C144.172 23.053 144.338 23.2363 144.443 23.4807C144.801 22.9745 145.289 22.7127 145.9 22.7127C146.319 22.7127 146.677 22.8436 146.956 23.0967C147.236 23.3498 147.375 23.6989 147.375 24.144V27.3381H146.38V24.5716C146.38 24.2574 146.319 24.0043 146.215 23.821C146.101 23.6465 145.892 23.5505 145.577 23.5505C145.255 23.5505 145.01 23.6552 144.844 23.856C144.67 24.0567 144.591 24.336 144.591 24.6938V27.3381H143.596V24.5192C143.596 24.205 143.544 23.9607 143.448 23.7949C143.352 23.6378 143.151 23.5505 142.855 23.5505C142.514 23.5505 142.261 23.664 142.087 23.8821C141.912 24.1003 141.825 24.3883 141.825 24.7461V27.3381H140.83V22.8349H141.772ZM149.262 21.0981V22.0756H148.267V21.0981H149.262ZM149.262 22.8349V27.3381H148.267V22.8349H149.262ZM153.74 24.144H152.789C152.728 23.6727 152.405 23.4283 151.812 23.4283C151.55 23.4283 151.358 23.4807 151.218 23.568C151.153 23.6087 151.1 23.6654 151.063 23.7327C151.027 23.7999 151.008 23.8754 151.009 23.952C151.009 24.0043 151.009 24.0567 151.017 24.0916C151.026 24.1352 151.044 24.1701 151.07 24.205C151.091 24.2329 151.114 24.2592 151.14 24.2836C151.157 24.3098 151.201 24.336 151.253 24.3534L151.375 24.4145C151.41 24.432 151.463 24.4494 151.541 24.4669C151.611 24.4843 151.672 24.5018 151.716 24.5105C151.759 24.528 151.829 24.5454 151.934 24.5629C152.03 24.5803 152.108 24.5978 152.161 24.6065C152.388 24.6589 152.545 24.7025 152.649 24.7287C152.754 24.7549 152.903 24.8072 153.095 24.8858C153.287 24.9643 153.435 25.0429 153.531 25.1301C153.618 25.2174 153.705 25.3309 153.784 25.4792C153.863 25.6276 153.906 25.7934 153.906 25.9854C153.906 26.4392 153.723 26.8058 153.374 27.0676C153.016 27.3381 152.536 27.469 151.943 27.469C151.297 27.469 150.808 27.3381 150.468 27.0676C150.119 26.8058 149.935 26.413 149.918 25.8981H150.869C150.921 26.4654 151.279 26.7447 151.96 26.7447C152.248 26.7447 152.484 26.6923 152.658 26.5701C152.833 26.448 152.929 26.2909 152.929 26.0901C152.93 26.0009 152.905 25.9132 152.859 25.837C152.805 25.7617 152.733 25.7016 152.649 25.6625C152.557 25.6164 152.461 25.5784 152.361 25.549C152.243 25.5134 152.124 25.4814 152.004 25.453L151.951 25.4443C151.934 25.4443 151.925 25.4356 151.908 25.4356C151.89 25.4356 151.873 25.4269 151.855 25.4181C151.209 25.261 150.808 25.1389 150.633 25.0516C150.215 24.8596 150.014 24.528 150.014 24.0654C150.014 23.6465 150.171 23.3149 150.503 23.0705C150.825 22.8261 151.279 22.704 151.855 22.704C152.405 22.704 152.859 22.8261 153.208 23.0618C153.557 23.3061 153.74 23.664 153.74 24.144ZM156.721 22.8349V23.5592H155.814V25.933C155.814 26.0727 155.814 26.1774 155.823 26.2298C155.826 26.2941 155.844 26.3568 155.875 26.413C155.886 26.4457 155.906 26.4748 155.932 26.4977C155.958 26.5206 155.989 26.5365 156.023 26.544C156.093 26.5701 156.198 26.5789 156.329 26.5789C156.486 26.5789 156.617 26.5789 156.721 26.5614V27.3469C156.498 27.3727 156.274 27.3844 156.049 27.3818C155.875 27.3818 155.718 27.373 155.587 27.3469C155.477 27.325 155.368 27.2928 155.264 27.2509C155.174 27.2188 155.097 27.1573 155.046 27.0763C154.985 26.989 154.941 26.9192 154.906 26.8669C154.871 26.8145 154.854 26.7098 154.836 26.5701C154.819 26.4305 154.819 26.3258 154.819 26.256V23.5592H154.068V22.8349H154.819V21.4821H155.814V22.8349H156.721ZM157.21 24.2225C157.315 23.2101 157.969 22.6952 159.183 22.6952C159.741 22.6952 160.195 22.8087 160.527 23.0269C160.858 23.2538 161.033 23.5941 161.033 24.0567V26.3432C161.033 26.4741 161.041 26.5614 161.076 26.605C161.111 26.6574 161.172 26.6749 161.268 26.6749C161.338 26.6749 161.408 26.6749 161.495 26.6574V27.3556C161.233 27.4254 161.024 27.4516 160.849 27.4516C160.422 27.4516 160.177 27.277 160.116 26.9105C159.732 27.277 159.209 27.4516 158.537 27.4516C158.065 27.4516 157.699 27.3381 157.428 27.0938C157.149 26.8494 157.018 26.5265 157.018 26.1076C157.018 25.9854 157.027 25.8632 157.062 25.7498C157.088 25.645 157.123 25.549 157.158 25.4618C157.2 25.3726 157.263 25.2948 157.341 25.2349C157.428 25.165 157.498 25.1127 157.551 25.0603C157.603 25.0167 157.699 24.973 157.821 24.9294C157.943 24.8945 158.039 24.8596 158.1 24.8421C158.161 24.8247 158.266 24.7985 158.423 24.7723C158.572 24.7549 158.668 24.7374 158.72 24.7287C158.772 24.72 158.877 24.7025 159.034 24.685C159.383 24.6414 159.628 24.6065 159.759 24.5716C159.881 24.5367 159.968 24.493 160.02 24.4232C160.055 24.3796 160.081 24.2749 160.081 24.1003C160.081 23.6465 159.767 23.4196 159.156 23.4196C158.825 23.4196 158.589 23.4807 158.441 23.6029C158.284 23.725 158.188 23.9345 158.153 24.2225H157.21ZM160.073 25.0778C159.994 25.1214 159.907 25.1563 159.811 25.1912C159.731 25.2189 159.65 25.2393 159.567 25.2523C159.505 25.261 159.409 25.2698 159.279 25.2872C159.148 25.3047 159.06 25.3221 159.025 25.3221C158.903 25.3396 158.807 25.357 158.737 25.3745C158.668 25.392 158.58 25.4094 158.476 25.4443C158.388 25.4694 158.308 25.5142 158.24 25.5752C158.18 25.6316 158.132 25.7 158.1 25.776C158.057 25.8686 158.036 25.9703 158.039 26.0727C158.039 26.2909 158.109 26.4567 158.249 26.5701C158.388 26.6923 158.589 26.7447 158.851 26.7447C159.287 26.7447 159.628 26.6312 159.872 26.3869C160.003 26.256 160.073 25.9941 160.073 25.6101V25.0778ZM165.926 22.8349L164.198 24.4843L166.083 27.3381H164.87L163.5 25.165L162.906 25.7236V27.3381H161.937V21.1243H162.906V24.624L164.704 22.8349H165.926ZM170.473 25.933C170.36 26.4218 170.116 26.8058 169.749 27.0763C169.383 27.3556 168.937 27.4865 168.431 27.4865C167.751 27.4865 167.209 27.2683 166.808 26.832C166.407 26.3956 166.215 25.8283 166.215 25.1389C166.215 24.4407 166.415 23.856 166.825 23.3934C167.236 22.9396 167.759 22.704 168.396 22.704C169.051 22.704 169.575 22.9309 169.959 23.3847C170.343 23.8385 170.535 24.4494 170.535 25.2261V25.3309H167.209C167.218 25.7847 167.332 26.1425 167.55 26.3869C167.759 26.6312 168.065 26.7534 168.449 26.7534C168.719 26.7534 168.937 26.6923 169.112 26.5614C169.287 26.4305 169.417 26.221 169.522 25.933H170.473ZM169.54 24.6676C169.505 24.2923 169.391 23.9956 169.182 23.7774C169.08 23.6693 168.957 23.5839 168.82 23.5268C168.683 23.4696 168.536 23.442 168.388 23.4458C168.056 23.4458 167.794 23.5505 167.593 23.76C167.393 23.9694 167.271 24.2749 167.227 24.6676H169.54ZM174.686 24.144H173.735C173.673 23.6727 173.351 23.4283 172.757 23.4283C172.495 23.4283 172.303 23.4807 172.164 23.568C172.099 23.6087 172.046 23.6654 172.009 23.7327C171.972 23.7999 171.953 23.8754 171.954 23.952C171.954 24.0043 171.954 24.0567 171.963 24.0916C171.972 24.1352 171.989 24.1701 172.015 24.205C172.037 24.2329 172.06 24.2592 172.085 24.2836C172.103 24.3098 172.146 24.336 172.199 24.3534L172.321 24.4145C172.356 24.432 172.408 24.4494 172.487 24.4669C172.556 24.4843 172.617 24.5018 172.661 24.5105C172.705 24.528 172.775 24.5454 172.879 24.5629C172.975 24.5803 173.054 24.5978 173.106 24.6065C173.333 24.6589 173.49 24.7025 173.595 24.7287C173.7 24.7549 173.848 24.8072 174.04 24.8858C174.232 24.9643 174.38 25.0429 174.476 25.1301C174.564 25.2174 174.651 25.3309 174.729 25.4792C174.808 25.6276 174.852 25.7934 174.852 25.9854C174.852 26.4392 174.668 26.8058 174.319 27.0676C173.961 27.3381 173.481 27.469 172.888 27.469C172.242 27.469 171.753 27.3381 171.413 27.0676C171.064 26.8058 170.881 26.413 170.863 25.8981H171.815C171.867 26.4654 172.225 26.7447 172.905 26.7447C173.193 26.7447 173.429 26.6923 173.604 26.5701C173.778 26.448 173.874 26.2909 173.874 26.0901C173.875 26.0009 173.851 25.9132 173.804 25.837C173.751 25.7617 173.679 25.7016 173.595 25.6625C173.502 25.6164 173.406 25.5784 173.307 25.549C173.189 25.5134 173.069 25.4814 172.949 25.453L172.897 25.4443C172.879 25.4443 172.871 25.4356 172.853 25.4356C172.836 25.4356 172.818 25.4269 172.801 25.4181C172.155 25.261 171.753 25.1389 171.579 25.0516C171.16 24.8596 170.959 24.528 170.959 24.0654C170.959 23.6465 171.116 23.3149 171.448 23.0705C171.771 22.8261 172.225 22.704 172.801 22.704C173.351 22.704 173.804 22.8261 174.153 23.0618C174.503 23.3061 174.686 23.664 174.686 24.144Z" fill="#222222"/>
<path d="M121.964 32.4292H102.327C98.1098 32.4292 94.6909 35.8481 94.6909 40.0656C94.6909 44.283 98.1098 47.7019 102.327 47.7019H121.964C126.181 47.7019 129.6 44.283 129.6 40.0656C129.6 35.8481 126.181 32.4292 121.964 32.4292Z" fill="#F34B48" fill-opacity="0.06"/>
<path d="M105.32 39.542L105.4 38.902H105.916V42.4293C105.916 43.4983 105.349 44.1093 104.076 44.1093C103.131 44.1093 102.469 43.6656 102.375 42.8511H102.985C103.087 43.3165 103.502 43.5783 104.12 43.5783C104.898 43.5783 105.32 43.2147 105.32 42.4074V41.9711C105.073 42.3929 104.673 42.6547 104.047 42.6547C103.022 42.6547 102.265 41.9638 102.265 40.7565C102.265 39.622 103.022 38.8583 104.047 38.8583C104.673 38.8583 105.087 39.1274 105.32 39.542ZM104.105 42.1238C104.833 42.1238 105.327 41.5638 105.327 40.7711C105.327 39.9565 104.833 39.3893 104.105 39.3893C103.371 39.3893 102.876 39.9493 102.876 40.7565C102.876 41.5638 103.371 42.1238 104.105 42.1238ZM108.445 38.902H108.612V39.4838H108.314C107.536 39.4838 107.325 40.1311 107.325 40.7202V42.6111H106.729V38.902H107.245L107.325 39.462C107.5 39.1783 107.783 38.902 108.445 38.902ZM112.281 42.0656H112.471V42.6111H112.143C111.649 42.6111 111.481 42.4002 111.474 42.0365C111.241 42.3711 110.871 42.6547 110.231 42.6547C109.416 42.6547 108.863 42.2474 108.863 41.5711C108.863 40.8293 109.38 40.4147 110.354 40.4147H111.445V40.1602C111.445 39.6802 111.103 39.3893 110.521 39.3893C109.998 39.3893 109.649 39.6365 109.576 40.0147H108.98C109.067 39.2874 109.656 38.8583 110.551 38.8583C111.496 38.8583 112.041 39.3311 112.041 40.1965V41.8183C112.041 42.0147 112.114 42.0656 112.281 42.0656ZM111.445 41.0983V40.9165H110.296C109.765 40.9165 109.467 41.1129 109.467 41.5347C109.467 41.8983 109.78 42.1456 110.274 42.1456C111.016 42.1456 111.445 41.7165 111.445 41.0983ZM115.81 39.4693V37.5202H116.407V42.6111H115.89L115.81 42.0147C115.563 42.3565 115.163 42.6547 114.537 42.6547C113.512 42.6547 112.756 41.9638 112.756 40.7565C112.756 39.622 113.512 38.8583 114.537 38.8583C115.163 38.8583 115.585 39.1129 115.81 39.4693ZM114.596 42.1238C115.323 42.1238 115.817 41.5638 115.817 40.7711C115.817 39.9565 115.323 39.3893 114.596 39.3893C113.861 39.3893 113.367 39.9493 113.367 40.7565C113.367 41.5638 113.861 42.1238 114.596 42.1238ZM117.524 38.2765C117.306 38.2765 117.139 38.1165 117.139 37.8911C117.139 37.6656 117.306 37.5056 117.524 37.5056C117.743 37.5056 117.91 37.6656 117.91 37.8911C117.91 38.1165 117.743 38.2765 117.524 38.2765ZM117.219 42.6111V38.902H117.815V42.6111H117.219ZM120.45 38.8583C121.287 38.8583 121.948 39.3165 121.948 40.5456V42.6111H121.352V40.582C121.352 39.8111 120.996 39.4038 120.348 39.4038C119.65 39.4038 119.228 39.9202 119.228 40.7565V42.6111H118.632V38.902H119.148L119.228 39.4038C119.447 39.1202 119.825 38.8583 120.45 38.8583Z" fill="#CF1417"/>
<path d="M182.327 32.4292H143.055C138.837 32.4292 135.418 35.8481 135.418 40.0656C135.418 44.283 138.837 47.7019 143.055 47.7019H182.327C186.545 47.7019 189.964 44.283 189.964 40.0656C189.964 35.8481 186.545 32.4292 182.327 32.4292Z" fill="#F34B48" fill-opacity="0.06"/>
<path d="M143.356 42.6111V37.5202H143.988V39.7311H146.621V37.5202H147.254V42.6111H146.621V40.3129H143.988V42.6111H143.356ZM151.435 42.0656H151.624V42.6111H151.297C150.802 42.6111 150.635 42.4002 150.628 42.0365C150.395 42.3711 150.024 42.6547 149.384 42.6547C148.569 42.6547 148.017 42.2474 148.017 41.5711C148.017 40.8293 148.533 40.4147 149.508 40.4147H150.599V40.1602C150.599 39.6802 150.257 39.3893 149.675 39.3893C149.151 39.3893 148.802 39.6365 148.729 40.0147H148.133C148.22 39.2874 148.809 38.8583 149.704 38.8583C150.649 38.8583 151.195 39.3311 151.195 40.1965V41.8183C151.195 42.0147 151.268 42.0656 151.435 42.0656ZM150.599 41.0983V40.9165H149.449C148.919 40.9165 148.62 41.1129 148.62 41.5347C148.62 41.8983 148.933 42.1456 149.428 42.1456C150.169 42.1456 150.599 41.7165 150.599 41.0983ZM152.082 42.6111V37.5202H152.679V42.6111H152.082ZM153.496 42.6111V37.5202H154.092V42.6111H153.496ZM157.505 40.7565V38.902H158.102V42.6111H157.585L157.505 42.1165C157.287 42.3929 156.931 42.6547 156.32 42.6547C155.505 42.6547 154.858 42.1965 154.858 40.9674V38.902H155.455V40.9311C155.455 41.702 155.804 42.1093 156.422 42.1093C157.098 42.1093 157.505 41.5929 157.505 40.7565ZM160.58 42.6547C159.497 42.6547 158.784 41.9202 158.784 40.7638C158.784 39.6293 159.519 38.8583 160.595 38.8583C161.504 38.8583 162.079 39.3674 162.231 40.182H161.606C161.497 39.6874 161.133 39.3893 160.588 39.3893C159.875 39.3893 159.395 39.9565 159.395 40.7638C159.395 41.5711 159.875 42.1238 160.588 42.1238C161.119 42.1238 161.482 41.8183 161.599 41.3456H162.231C162.086 42.1456 161.482 42.6547 160.58 42.6547ZM163.191 38.2765C162.972 38.2765 162.805 38.1165 162.805 37.8911C162.805 37.6656 162.972 37.5056 163.191 37.5056C163.409 37.5056 163.576 37.6656 163.576 37.8911C163.576 38.1165 163.409 38.2765 163.191 38.2765ZM162.885 42.6111V38.902H163.481V42.6111H162.885ZM166.116 38.8583C166.953 38.8583 167.615 39.3165 167.615 40.5456V42.6111H167.018V40.582C167.018 39.8111 166.662 39.4038 166.015 39.4038C165.316 39.4038 164.895 39.9202 164.895 40.7565V42.6111H164.298V38.902H164.815L164.895 39.4038C165.113 39.1202 165.491 38.8583 166.116 38.8583ZM171.655 42.0656H171.844V42.6111H171.517C171.023 42.6111 170.855 42.4002 170.848 42.0365C170.615 42.3711 170.244 42.6547 169.604 42.6547C168.79 42.6547 168.237 42.2474 168.237 41.5711C168.237 40.8293 168.753 40.4147 169.728 40.4147H170.819V40.1602C170.819 39.6802 170.477 39.3893 169.895 39.3893C169.372 39.3893 169.023 39.6365 168.95 40.0147H168.353C168.441 39.2874 169.03 38.8583 169.924 38.8583C170.87 38.8583 171.415 39.3311 171.415 40.1965V41.8183C171.415 42.0147 171.488 42.0656 171.655 42.0656ZM170.819 41.0983V40.9165H169.67C169.139 40.9165 168.841 41.1129 168.841 41.5347C168.841 41.8983 169.153 42.1456 169.648 42.1456C170.39 42.1456 170.819 41.7165 170.819 41.0983ZM172.579 41.6438V39.4474H171.91V38.902H172.579V37.862H173.175V38.902H174.135V39.4474H173.175V41.6365C173.175 41.9493 173.284 42.0656 173.604 42.0656H174.193V42.6111H173.546C172.833 42.6111 172.579 42.2983 172.579 41.6438ZM176.327 42.6547C175.244 42.6547 174.487 41.8838 174.487 40.7565C174.487 39.6293 175.244 38.8583 176.327 38.8583C177.411 38.8583 178.167 39.6293 178.167 40.7565C178.167 41.8838 177.411 42.6547 176.327 42.6547ZM176.327 42.1238C177.062 42.1238 177.556 41.5493 177.556 40.7565C177.556 39.9638 177.062 39.3893 176.327 39.3893C175.593 39.3893 175.098 39.9638 175.098 40.7565C175.098 41.5493 175.593 42.1238 176.327 42.1238ZM180.669 38.8583C181.505 38.8583 182.167 39.3165 182.167 40.5456V42.6111H181.571V40.582C181.571 39.8111 181.215 39.4038 180.567 39.4038C179.869 39.4038 179.447 39.9202 179.447 40.7565V42.6111H178.851V38.902H179.367L179.447 39.4038C179.665 39.1202 180.044 38.8583 180.669 38.8583Z" fill="#CF1417"/>
</g>
</g>
<defs>
<filter id="filter0_dd_4_590" x="0.581818" y="0.429155" width="270.836" height="150.545" filterUnits="userSpaceOnUse" color-interpolation-filters="sRGB">
<feFlood flood-opacity="0" result="BackgroundImageFix"/>
<feColorMatrix in="SourceAlpha" type="matrix" values="0 0 0 0 0 0 0 0 0 0 0 0 0 0 0 0 0 0 127 0" result="hardAlpha"/>
<feOffset dy="12.3636"/>
<feGaussianBlur stdDeviation="13.4545"/>
<feColorMatrix type="matrix" values="0 0 0 0 0.901961 0 0 0 0 0.27451 0 0 0 0 0.0980392 0 0 0 0.1 0"/>
<feBlend mode="normal" in2="BackgroundImageFix" result="effect1_dropShadow_4_590"/>
<feColorMatrix in="SourceAlpha" type="matrix" values="0 0 0 0 0 0 0 0 0 0 0 0 0 0 0 0 0 0 127 0" result="hardAlpha"/>
<feOffset dy="49.4545"/>
<feGaussianBlur stdDeviation="24.7273"/>
<feColorMatrix type="matrix" values="0 0 0 0 0.952941 0 0 0 0 0.294118 0 0 0 0 0.282353 0 0 0 0.01 0"/>
<feBlend mode="normal" in2="effect1_dropShadow_4_590" result="effect2_dropShadow_4_590"/>
<feBlend mode="normal" in="SourceGraphic" in2="effect2_dropShadow_4_590" result="shape"/>
</filter>
<filter id="filter1_ii_4_590" x="55.7862" y="17.8851" width="31.6662" height="31.2684" filterUnits="userSpaceOnUse" color-interpolation-filters="sRGB">
<feFlood flood-opacity="0" result="BackgroundImageFix"/>
<feBlend mode="normal" in="SourceGraphic" in2="BackgroundImageFix" result="shape"/>
<feColorMatrix in="SourceAlpha" type="matrix" values="0 0 0 0 0 0 0 0 0 0 0 0 0 0 0 0 0 0 127 0" result="hardAlpha"/>
<feOffset dx="1.48873" dy="2.97818"/>
<feGaussianBlur stdDeviation="1.48873"/>
<feComposite in2="hardAlpha" operator="arithmetic" k2="-1" k3="1"/>
<feColorMatrix type="matrix" values="0 0 0 0 0.8125 0 0 0 0 0.08125 0 0 0 0 0.0934375 0 0 0 0.28 0"/>
<feBlend mode="normal" in2="shape" result="effect1_innerShadow_4_590"/>
<feColorMatrix in="SourceAlpha" type="matrix" values="0 0 0 0 0 0 0 0 0 0 0 0 0 0 0 0 0 0 127 0" result="hardAlpha"/>
<feOffset dx="-2.97818" dy="-2.97818"/>
<feGaussianBlur stdDeviation="1.48873"/>
<feComposite in2="hardAlpha" operator="arithmetic" k2="-1" k3="1"/>
<feColorMatrix type="matrix" values="0 0 0 0 0.8125 0 0 0 0 0.08125 0 0 0 0 0.0934375 0 0 0 0.25 0"/>
<feBlend mode="normal" in2="effect1_innerShadow_4_590" result="effect2_innerShadow_4_590"/>
</filter>
<linearGradient id="paint0_linear_4_590" x1="80.008" y1="31.2605" x2="64.0698" y2="35.115" gradientUnits="userSpaceOnUse">
<stop stop-color="#F34B48"/>
</linearGradient>
<clipPath id="clip0_4_590">
<rect width="272" height="151.273" fill="white"/>
</clipPath>
</defs>
</svg>
