<svg width="330" height="942" viewBox="0 0 330 942" fill="none" xmlns="http://www.w3.org/2000/svg">
<g filter="url(#filter0_ddd_4_928)">
<rect x="41.1571" y="21.5089" width="247.102" height="70.4092" rx="35.19" fill="white"/>
<path d="M88.1765 45.6141H66.1674C65.6368 45.6141 65.1278 45.8249 64.7526 46.2001C64.3774 46.5754 64.1666 47.0843 64.1666 47.6149V65.6224C64.1666 66.153 64.3774 66.662 64.7526 67.0372C65.1278 67.4124 65.6368 67.6232 66.1674 67.6232H88.1765C88.7072 67.6232 89.2161 67.4124 89.5913 67.0372C89.9666 66.662 90.1774 66.153 90.1774 65.6224V47.6149C90.1774 47.0843 89.9666 46.5754 89.5913 46.2001C89.2161 45.8249 88.7072 45.6141 88.1765 45.6141ZM88.1765 55.6182H82.174V47.6149H88.1765V55.6182ZM66.1674 47.6149H80.1732V65.6224H66.1674V47.6149ZM88.1765 65.6224H82.174V57.6191H88.1765V65.6224ZM83.6747 51.6166C83.6747 51.3198 83.7627 51.0297 83.9276 50.7829C84.0925 50.5361 84.3268 50.3438 84.601 50.2302C84.8752 50.1166 85.177 50.0869 85.468 50.1448C85.7591 50.2027 86.0265 50.3456 86.2364 50.5555C86.4463 50.7654 86.5892 51.0327 86.6471 51.3238C86.705 51.6149 86.6753 51.9167 86.5617 52.1909C86.4481 52.4651 86.2558 52.6994 86.009 52.8643C85.7622 53.0292 85.4721 53.1172 85.1753 53.1172C84.7773 53.1172 84.3956 52.9591 84.1142 52.6777C83.8328 52.3963 83.6747 52.0146 83.6747 51.6166ZM86.6759 61.6207C86.6759 61.9175 86.5879 62.2077 86.423 62.4544C86.2581 62.7012 86.0238 62.8936 85.7496 63.0071C85.4753 63.1207 85.1736 63.1504 84.8825 63.0925C84.5914 63.0346 84.3241 62.8917 84.1142 62.6818C83.9043 62.472 83.7614 62.2046 83.7035 61.9135C83.6456 61.6224 83.6753 61.3207 83.7889 61.0465C83.9025 60.7723 84.0948 60.5379 84.3416 60.373C84.5884 60.2081 84.8785 60.1201 85.1753 60.1201C85.5733 60.1201 85.955 60.2782 86.2364 60.5596C86.5178 60.8411 86.6759 61.2227 86.6759 61.6207ZM78.1411 61.3706C77.8174 60.1619 77.0498 59.1197 75.9915 58.4519C76.5535 57.8932 76.937 57.1803 77.0933 56.4034C77.2497 55.6265 77.1718 54.8206 76.8696 54.0881C76.5675 53.3555 76.0546 52.7291 75.396 52.2883C74.7374 51.8476 73.9628 51.6123 73.1703 51.6123C72.3779 51.6123 71.6032 51.8476 70.9446 52.2883C70.2861 52.7291 69.7732 53.3555 69.471 54.0881C69.1688 54.8206 69.091 55.6265 69.2473 56.4034C69.4036 57.1803 69.7871 57.8932 70.3492 58.4519C69.2915 59.1204 68.5241 60.1623 68.1995 61.3706C68.1332 61.6277 68.1717 61.9005 68.3065 62.1292C68.4414 62.3578 68.6615 62.5236 68.9186 62.5899C69.1756 62.6562 69.4485 62.6177 69.6771 62.4829C69.9058 62.348 70.0715 62.1279 70.1378 61.8708C70.4679 60.5891 71.771 59.6199 73.1703 59.6199C74.5696 59.6199 75.8739 60.5866 76.2028 61.8708C76.2692 62.1279 76.4349 62.348 76.6635 62.4829C76.8922 62.6177 77.165 62.6562 77.4221 62.5899C77.6791 62.5236 77.8993 62.3578 78.0341 62.1292C78.169 61.9005 78.2075 61.6277 78.1411 61.3706ZM71.1695 55.6182C71.1695 55.2225 71.2868 54.8357 71.5067 54.5066C71.7265 54.1776 72.039 53.9212 72.4046 53.7697C72.7702 53.6183 73.1725 53.5787 73.5607 53.6559C73.9488 53.7331 74.3053 53.9236 74.5851 54.2035C74.8649 54.4833 75.0555 54.8398 75.1327 55.2279C75.2099 55.616 75.1703 56.0183 75.0188 56.3839C74.8674 56.7495 74.611 57.062 74.2819 57.2819C73.9529 57.5017 73.566 57.6191 73.1703 57.6191C72.6397 57.6191 72.1307 57.4083 71.7555 57.033C71.3803 56.6578 71.1695 56.1489 71.1695 55.6182Z" fill="black"/>
<path d="M102.558 52.1168V40.7521H106.8C108.102 40.7521 109.116 41.0669 109.842 41.6965C110.567 42.3154 110.93 43.1798 110.93 44.2896C110.93 45.0259 110.765 45.6661 110.434 46.2104C110.103 46.7439 109.628 47.1547 109.009 47.4429C108.401 47.7203 107.665 47.859 106.8 47.859H104.287V52.1168H102.558ZM104.287 46.2904H106.752C107.531 46.2904 108.123 46.125 108.529 45.7942C108.934 45.4527 109.137 44.9512 109.137 44.2896C109.137 43.6386 108.934 43.1531 108.529 42.833C108.123 42.5022 107.531 42.3367 106.752 42.3367H104.287V46.2904ZM115.794 52.3089C114.962 52.3089 114.242 52.1275 113.634 51.7647C113.036 51.4018 112.572 50.8843 112.241 50.212C111.921 49.5397 111.761 48.7554 111.761 47.859C111.761 46.9627 111.921 46.1837 112.241 45.5221C112.572 44.8498 113.036 44.3322 113.634 43.9694C114.231 43.5959 114.935 43.4092 115.746 43.4092C116.515 43.4092 117.192 43.5906 117.779 43.9534C118.366 44.3056 118.82 44.8178 119.14 45.4901C119.471 46.1623 119.636 46.9733 119.636 47.9231V48.3552H113.522C113.564 49.1876 113.783 49.8118 114.178 50.228C114.583 50.6442 115.128 50.8523 115.81 50.8523C116.312 50.8523 116.728 50.7349 117.059 50.5001C117.39 50.2654 117.619 49.9506 117.747 49.5557L119.508 49.6678C119.284 50.4574 118.841 51.0977 118.179 51.5886C117.529 52.0688 116.734 52.3089 115.794 52.3089ZM113.522 47.0747H117.843C117.79 46.3171 117.571 45.7568 117.187 45.394C116.814 45.0312 116.333 44.8498 115.746 44.8498C115.138 44.8498 114.637 45.0419 114.242 45.426C113.858 45.7995 113.618 46.3491 113.522 47.0747ZM121.195 52.1168V43.6013H122.748L122.812 45.8582L122.668 45.8102C122.785 45.0419 123.02 44.4816 123.372 44.1295C123.735 43.7773 124.22 43.6013 124.829 43.6013H125.645V45.1219H124.829C124.402 45.1219 124.044 45.1913 123.756 45.33C123.468 45.4687 123.249 45.6821 123.1 45.9703C122.961 46.2584 122.892 46.6319 122.892 47.0907V52.1168H121.195ZM129.975 52.3089C129.175 52.3089 128.497 52.1862 127.942 51.9407C127.398 51.6953 126.977 51.3592 126.678 50.9323C126.379 50.4948 126.208 49.9933 126.166 49.4277L127.91 49.3477C127.996 49.8172 128.198 50.1907 128.518 50.4681C128.839 50.7456 129.324 50.8843 129.975 50.8843C130.509 50.8843 130.93 50.7989 131.24 50.6282C131.549 50.4574 131.704 50.1853 131.704 49.8118C131.704 49.6091 131.65 49.4384 131.544 49.2996C131.448 49.1502 131.256 49.0275 130.968 48.9315C130.679 48.8248 130.253 48.7234 129.687 48.6274C128.844 48.4673 128.182 48.2805 127.702 48.0671C127.222 47.8537 126.88 47.5816 126.678 47.2508C126.475 46.92 126.374 46.5198 126.374 46.0503C126.374 45.2713 126.662 44.6364 127.238 44.1455C127.825 43.6546 128.668 43.4092 129.767 43.4092C130.503 43.4092 131.122 43.5372 131.624 43.7934C132.125 44.0388 132.515 44.3749 132.792 44.8018C133.08 45.2179 133.262 45.6875 133.336 46.2104L131.592 46.3064C131.538 46.0076 131.432 45.7515 131.272 45.5381C131.122 45.314 130.919 45.1432 130.663 45.0259C130.407 44.8978 130.103 44.8338 129.751 44.8338C129.207 44.8338 128.801 44.9405 128.534 45.1539C128.268 45.3673 128.134 45.6448 128.134 45.9863C128.134 46.2424 128.193 46.4505 128.31 46.6105C128.438 46.7706 128.641 46.904 128.919 47.0107C129.196 47.1067 129.564 47.1921 130.023 47.2668C130.909 47.4162 131.602 47.6029 132.104 47.827C132.606 48.0404 132.958 48.3072 133.16 48.6274C133.363 48.9475 133.465 49.337 133.465 49.7958C133.465 50.3294 133.315 50.7829 133.016 51.1564C132.718 51.5299 132.307 51.818 131.784 52.0208C131.261 52.2128 130.658 52.3089 129.975 52.3089ZM138.527 52.3089C137.716 52.3089 137.006 52.1275 136.398 51.7647C135.79 51.4018 135.32 50.8843 134.99 50.212C134.659 49.5397 134.493 48.7554 134.493 47.859C134.493 46.952 134.659 46.1677 134.99 45.5061C135.32 44.8445 135.79 44.3322 136.398 43.9694C137.006 43.5959 137.716 43.4092 138.527 43.4092C139.338 43.4092 140.048 43.5959 140.656 43.9694C141.264 44.3322 141.734 44.8445 142.064 45.5061C142.395 46.1677 142.561 46.952 142.561 47.859C142.561 48.7554 142.395 49.5397 142.064 50.212C141.734 50.8843 141.264 51.4018 140.656 51.7647C140.048 52.1275 139.338 52.3089 138.527 52.3089ZM138.527 50.8363C139.253 50.8363 139.813 50.5748 140.208 50.0519C140.603 49.5184 140.8 48.7874 140.8 47.859C140.8 46.9307 140.603 46.205 140.208 45.6821C139.813 45.1486 139.253 44.8818 138.527 44.8818C137.812 44.8818 137.252 45.1486 136.846 45.6821C136.451 46.205 136.254 46.9307 136.254 47.859C136.254 48.7874 136.451 49.5184 136.846 50.0519C137.252 50.5748 137.812 50.8363 138.527 50.8363ZM144.115 52.1168V43.6013H145.668L145.732 45.8742L145.524 45.7622C145.62 45.2073 145.801 44.7591 146.068 44.4176C146.335 44.0761 146.66 43.8254 147.045 43.6653C147.429 43.4946 147.845 43.4092 148.293 43.4092C148.933 43.4092 149.462 43.5533 149.878 43.8414C150.305 44.1188 150.625 44.503 150.838 44.9938C151.062 45.474 151.174 46.0236 151.174 46.6425V52.1168H149.478V47.1547C149.478 46.6532 149.424 46.2317 149.317 45.8902C149.211 45.5487 149.035 45.2873 148.789 45.1059C148.544 44.9245 148.224 44.8338 147.829 44.8338C147.231 44.8338 146.746 45.0312 146.372 45.426C145.999 45.8209 145.812 46.3971 145.812 47.1547V52.1168H144.115ZM155.625 52.3089C154.74 52.3089 154.03 52.1061 153.496 51.7006C152.974 51.2951 152.712 50.7242 152.712 49.9879C152.712 49.2516 152.931 48.6807 153.368 48.2752C153.817 47.859 154.505 47.5602 155.433 47.3788L158.362 46.8186C158.362 46.157 158.208 45.6661 157.898 45.346C157.589 45.0152 157.13 44.8498 156.522 44.8498C155.977 44.8498 155.551 44.9725 155.241 45.2179C154.932 45.4527 154.718 45.8049 154.601 46.2744L152.856 46.1623C153.016 45.3086 153.411 44.6364 154.041 44.1455C154.681 43.6546 155.508 43.4092 156.522 43.4092C157.674 43.4092 158.549 43.7187 159.147 44.3376C159.755 44.9458 160.059 45.8049 160.059 46.9146V50.228C160.059 50.4308 160.091 50.5748 160.155 50.6602C160.23 50.7349 160.347 50.7722 160.507 50.7722H160.811V52.1168C160.758 52.1275 160.673 52.1381 160.555 52.1488C160.438 52.1595 160.315 52.1648 160.187 52.1648C159.824 52.1648 159.51 52.1061 159.243 51.9887C158.987 51.8714 158.795 51.6793 158.667 51.4125C158.539 51.1351 158.475 50.7669 158.475 50.3081L158.651 50.3881C158.565 50.7616 158.378 51.0924 158.09 51.3805C157.813 51.6686 157.455 51.898 157.018 52.0688C156.591 52.2288 156.127 52.3089 155.625 52.3089ZM155.897 50.9643C156.41 50.9643 156.847 50.8683 157.21 50.6762C157.573 50.4735 157.856 50.196 158.058 49.8439C158.261 49.4917 158.362 49.0915 158.362 48.6434V48.0991L155.865 48.5793C155.353 48.6754 154.99 48.8301 154.777 49.0435C154.574 49.2463 154.473 49.5077 154.473 49.8279C154.473 50.1907 154.596 50.4735 154.841 50.6762C155.097 50.8683 155.449 50.9643 155.897 50.9643ZM163.831 52.1168C163.276 52.1168 162.828 51.9727 162.487 51.6846C162.145 51.3965 161.975 50.9376 161.975 50.3081V40.7521H163.671V50.148C163.671 50.3401 163.719 50.4841 163.815 50.5802C163.922 50.6762 164.071 50.7242 164.264 50.7242H164.936V52.1168H163.831ZM166.207 52.1168V43.6013H167.904V52.1168H166.207ZM166.175 42.3688V40.6721H167.936V42.3688H166.175ZM169.854 52.1168V50.5962L174.992 44.9938H170.014V43.6013H176.945V45.1219L171.759 50.7242H177.073V52.1168H169.854ZM182.038 52.3089C181.206 52.3089 180.486 52.1275 179.877 51.7647C179.28 51.4018 178.815 50.8843 178.485 50.212C178.165 49.5397 178.004 48.7554 178.004 47.859C178.004 46.9627 178.165 46.1837 178.485 45.5221C178.815 44.8498 179.28 44.3322 179.877 43.9694C180.475 43.5959 181.179 43.4092 181.99 43.4092C182.758 43.4092 183.436 43.5906 184.023 43.9534C184.61 44.3056 185.063 44.8178 185.384 45.4901C185.714 46.1623 185.88 46.9733 185.88 47.9231V48.3552H179.765C179.808 49.1876 180.027 49.8118 180.421 50.228C180.827 50.6442 181.371 50.8523 182.054 50.8523C182.556 50.8523 182.972 50.7349 183.303 50.5001C183.633 50.2654 183.863 49.9506 183.991 49.5557L185.752 49.6678C185.528 50.4574 185.085 51.0977 184.423 51.5886C183.772 52.0688 182.977 52.3089 182.038 52.3089ZM179.765 47.0747H184.087C184.034 46.3171 183.815 45.7568 183.431 45.394C183.057 45.0312 182.577 44.8498 181.99 44.8498C181.382 44.8498 180.88 45.0419 180.486 45.426C180.101 45.7995 179.861 46.3491 179.765 47.0747ZM190.464 52.3089C189.739 52.3089 189.104 52.1275 188.559 51.7647C188.026 51.4018 187.615 50.8896 187.327 50.228C187.049 49.5557 186.911 48.7661 186.911 47.859C186.911 46.952 187.055 46.1677 187.343 45.5061C187.631 44.8338 188.042 44.3162 188.575 43.9534C189.109 43.5906 189.739 43.4092 190.464 43.4092C191.051 43.4092 191.574 43.5319 192.033 43.7773C192.492 44.0228 192.838 44.3643 193.073 44.8018V40.7521H194.77V52.1168H193.185L193.137 50.8363C192.902 51.2951 192.545 51.6579 192.065 51.9247C191.595 52.1808 191.062 52.3089 190.464 52.3089ZM190.912 50.8363C191.371 50.8363 191.761 50.7189 192.081 50.4841C192.401 50.2494 192.646 49.9079 192.817 49.4597C192.988 49.0115 193.073 48.478 193.073 47.859C193.073 47.2188 192.988 46.6799 192.817 46.2424C192.646 45.7942 192.401 45.458 192.081 45.2339C191.761 44.9992 191.371 44.8818 190.912 44.8818C190.229 44.8818 189.685 45.1486 189.28 45.6821C188.874 46.205 188.671 46.9307 188.671 47.859C188.671 48.7767 188.874 49.5024 189.28 50.0359C189.685 50.5695 190.229 50.8363 190.912 50.8363ZM200.925 52.1168V40.7521H202.654V51.4765L201.742 50.5321H208.192V52.1168H200.925ZM212.848 52.3089C212.016 52.3089 211.296 52.1275 210.688 51.7647C210.09 51.4018 209.626 50.8843 209.295 50.212C208.975 49.5397 208.815 48.7554 208.815 47.859C208.815 46.9627 208.975 46.1837 209.295 45.5221C209.626 44.8498 210.09 44.3322 210.688 43.9694C211.285 43.5959 211.989 43.4092 212.8 43.4092C213.569 43.4092 214.246 43.5906 214.833 43.9534C215.42 44.3056 215.874 44.8178 216.194 45.4901C216.525 46.1623 216.69 46.9733 216.69 47.9231V48.3552H210.575C210.618 49.1876 210.837 49.8118 211.232 50.228C211.637 50.6442 212.181 50.8523 212.864 50.8523C213.366 50.8523 213.782 50.7349 214.113 50.5001C214.444 50.2654 214.673 49.9506 214.801 49.5557L216.562 49.6678C216.338 50.4574 215.895 51.0977 215.233 51.5886C214.582 52.0688 213.787 52.3089 212.848 52.3089ZM210.575 47.0747H214.897C214.844 46.3171 214.625 45.7568 214.241 45.394C213.868 45.0312 213.387 44.8498 212.8 44.8498C212.192 44.8498 211.691 45.0419 211.296 45.426C210.912 45.7995 210.672 46.3491 210.575 47.0747ZM220.806 52.3089C219.92 52.3089 219.211 52.1061 218.677 51.7006C218.154 51.2951 217.893 50.7242 217.893 49.9879C217.893 49.2516 218.112 48.6807 218.549 48.2752C218.997 47.859 219.686 47.5602 220.614 47.3788L223.543 46.8186C223.543 46.157 223.388 45.6661 223.079 45.346C222.77 45.0152 222.311 44.8498 221.702 44.8498C221.158 44.8498 220.731 44.9725 220.422 45.2179C220.112 45.4527 219.899 45.8049 219.782 46.2744L218.037 46.1623C218.197 45.3086 218.592 44.6364 219.221 44.1455C219.862 43.6546 220.689 43.4092 221.702 43.4092C222.855 43.4092 223.73 43.7187 224.328 44.3376C224.936 44.9458 225.24 45.8049 225.24 46.9146V50.228C225.24 50.4308 225.272 50.5748 225.336 50.6602C225.411 50.7349 225.528 50.7722 225.688 50.7722H225.992V52.1168C225.939 52.1275 225.854 52.1381 225.736 52.1488C225.619 52.1595 225.496 52.1648 225.368 52.1648C225.005 52.1648 224.69 52.1061 224.424 51.9887C224.167 51.8714 223.975 51.6793 223.847 51.4125C223.719 51.1351 223.655 50.7669 223.655 50.3081L223.831 50.3881C223.746 50.7616 223.559 51.0924 223.271 51.3805C222.994 51.6686 222.636 51.898 222.199 52.0688C221.772 52.2288 221.308 52.3089 220.806 52.3089ZM221.078 50.9643C221.59 50.9643 222.028 50.8683 222.391 50.6762C222.754 50.4735 223.036 50.196 223.239 49.8439C223.442 49.4917 223.543 49.0915 223.543 48.6434V48.0991L221.046 48.5793C220.534 48.6754 220.171 48.8301 219.958 49.0435C219.755 49.2463 219.654 49.5077 219.654 49.8279C219.654 50.1907 219.776 50.4735 220.022 50.6762C220.278 50.8683 220.63 50.9643 221.078 50.9643ZM227.265 52.1168V43.6013H228.817L228.881 45.8582L228.737 45.8102C228.855 45.0419 229.09 44.4816 229.442 44.1295C229.804 43.7773 230.29 43.6013 230.898 43.6013H231.715V45.1219H230.898C230.471 45.1219 230.114 45.1913 229.826 45.33C229.538 45.4687 229.319 45.6821 229.17 45.9703C229.031 46.2584 228.961 46.6319 228.961 47.0907V52.1168H227.265ZM232.826 52.1168V43.6013H234.378L234.442 45.8742L234.234 45.7622C234.33 45.2073 234.512 44.7591 234.779 44.4176C235.045 44.0761 235.371 43.8254 235.755 43.6653C236.139 43.4946 236.555 43.4092 237.004 43.4092C237.644 43.4092 238.172 43.5533 238.588 43.8414C239.015 44.1188 239.335 44.503 239.549 44.9938C239.773 45.474 239.885 46.0236 239.885 46.6425V52.1168H238.188V47.1547C238.188 46.6532 238.135 46.2317 238.028 45.8902C237.921 45.5487 237.745 45.2873 237.5 45.1059C237.254 44.9245 236.934 44.8338 236.539 44.8338C235.942 44.8338 235.456 45.0312 235.083 45.426C234.709 45.8209 234.523 46.3971 234.523 47.1547V52.1168H232.826ZM241.966 52.1168V43.6013H243.663V52.1168H241.966ZM241.934 42.3688V40.6721H243.695V42.3688H241.934ZM246.043 52.1168V43.6013H247.595L247.659 45.8742L247.451 45.7622C247.547 45.2073 247.729 44.7591 247.995 44.4176C248.262 44.0761 248.588 43.8254 248.972 43.6653C249.356 43.4946 249.772 43.4092 250.22 43.4092C250.861 43.4092 251.389 43.5533 251.805 43.8414C252.232 44.1188 252.552 44.503 252.765 44.9938C252.989 45.474 253.101 46.0236 253.101 46.6425V52.1168H251.405V47.1547C251.405 46.6532 251.351 46.2317 251.245 45.8902C251.138 45.5487 250.962 45.2873 250.716 45.1059C250.471 44.9245 250.151 44.8338 249.756 44.8338C249.159 44.8338 248.673 45.0312 248.299 45.426C247.926 45.8209 247.739 46.3971 247.739 47.1547V52.1168H246.043ZM258.577 54.7099C257.905 54.7099 257.313 54.6085 256.801 54.4057C256.288 54.203 255.867 53.9149 255.536 53.5414C255.205 53.1786 254.981 52.7517 254.864 52.2609L256.625 52.1488C256.742 52.501 256.945 52.7784 257.233 52.9812C257.532 53.1946 257.98 53.3013 258.577 53.3013C259.282 53.3013 259.821 53.1519 260.194 52.8531C260.578 52.5543 260.77 52.1008 260.77 51.4925V50.26C260.568 50.6975 260.242 51.0444 259.794 51.3005C259.346 51.5566 258.844 51.6846 258.289 51.6846C257.574 51.6846 256.939 51.5085 256.384 51.1564C255.83 50.8043 255.397 50.3187 255.088 49.6998C254.778 49.0809 254.624 48.3659 254.624 47.5549C254.624 46.7332 254.773 46.0129 255.072 45.394C255.381 44.7751 255.808 44.2896 256.352 43.9374C256.907 43.5853 257.532 43.4092 258.225 43.4092C258.833 43.4092 259.367 43.5479 259.826 43.8254C260.295 44.1028 260.632 44.4763 260.834 44.9458V43.6013H262.467V51.4445C262.467 52.1488 262.307 52.7411 261.987 53.2213C261.677 53.7121 261.229 54.0803 260.642 54.3257C260.066 54.5818 259.378 54.7099 258.577 54.7099ZM258.561 50.244C259.223 50.244 259.751 50.0039 260.146 49.5237C260.552 49.0435 260.76 48.3819 260.77 47.5389C260.781 46.984 260.696 46.5091 260.514 46.1143C260.333 45.7088 260.071 45.3994 259.73 45.1859C259.399 44.9618 259.01 44.8498 258.561 44.8498C257.868 44.8498 257.329 45.0952 256.945 45.5861C256.571 46.0663 256.384 46.7172 256.384 47.5389C256.384 48.3712 256.577 49.0329 256.961 49.5237C257.356 50.0039 257.889 50.244 258.561 50.244ZM102.558 71.1247V59.76H106.8C108.102 59.76 109.116 60.0748 109.842 60.7044C110.567 61.3233 110.93 62.1876 110.93 63.2974C110.93 64.0337 110.765 64.674 110.434 65.2182C110.103 65.7518 109.628 66.1626 109.009 66.4507C108.401 66.7282 107.665 66.8669 106.8 66.8669H104.287V71.1247H102.558ZM104.287 65.2983H106.752C107.531 65.2983 108.123 65.1329 108.529 64.8021C108.934 64.4606 109.137 63.959 109.137 63.2974C109.137 62.6465 108.934 62.161 108.529 61.8408C108.123 61.51 107.531 61.3446 106.752 61.3446H104.287V65.2983ZM114.768 71.3168C113.882 71.3168 113.172 71.114 112.639 70.7085C112.116 70.303 111.855 69.7321 111.855 68.9958C111.855 68.2595 112.073 67.6886 112.511 67.2831C112.959 66.8669 113.647 66.5681 114.576 66.3867L117.505 65.8265C117.505 65.1649 117.35 64.674 117.041 64.3539C116.731 64.0231 116.272 63.8577 115.664 63.8577C115.12 63.8577 114.693 63.9804 114.384 64.2258C114.074 64.4606 113.861 64.8127 113.743 65.2823L111.999 65.1702C112.159 64.3165 112.554 63.6442 113.183 63.1534C113.823 62.6625 114.65 62.4171 115.664 62.4171C116.817 62.4171 117.692 62.7265 118.289 63.3454C118.898 63.9537 119.202 64.8127 119.202 65.9225V69.2359C119.202 69.4386 119.234 69.5827 119.298 69.6681C119.372 69.7428 119.49 69.7801 119.65 69.7801H119.954V71.1247C119.901 71.1353 119.815 71.146 119.698 71.1567C119.58 71.1674 119.458 71.1727 119.33 71.1727C118.967 71.1727 118.652 71.114 118.385 70.9966C118.129 70.8792 117.937 70.6872 117.809 70.4204C117.681 70.1429 117.617 69.7748 117.617 69.3159L117.793 69.396C117.708 69.7694 117.521 70.1002 117.233 70.3884C116.955 70.6765 116.598 70.9059 116.16 71.0767C115.734 71.2367 115.269 71.3168 114.768 71.3168ZM115.04 69.9722C115.552 69.9722 115.99 69.8762 116.352 69.6841C116.715 69.4813 116.998 69.2039 117.201 68.8517C117.404 68.4996 117.505 68.0994 117.505 67.6512V67.107L115.008 67.5872C114.496 67.6832 114.133 67.838 113.919 68.0514C113.717 68.2541 113.615 68.5156 113.615 68.8357C113.615 69.1985 113.738 69.4813 113.983 69.6841C114.24 69.8762 114.592 69.9722 115.04 69.9722ZM124.054 71.1247C123.243 71.1247 122.646 70.9379 122.261 70.5644C121.877 70.191 121.685 69.6094 121.685 68.8197V60.6083H123.382V68.6917C123.382 69.0865 123.467 69.3586 123.638 69.508C123.809 69.6574 124.07 69.7321 124.422 69.7321H125.639V71.1247H124.054ZM120.389 64.0017V62.6091H125.639V64.0017H120.389ZM127.1 71.1247V59.76H128.797V64.5299L128.589 64.4979C128.685 64.0177 128.861 63.6282 129.117 63.3294C129.373 63.02 129.688 62.7906 130.061 62.6412C130.435 62.4918 130.846 62.4171 131.294 62.4171C131.913 62.4171 132.436 62.5558 132.863 62.8332C133.289 63.1 133.61 63.4788 133.823 63.9697C134.047 64.4606 134.159 65.0208 134.159 65.6504V71.1247H132.462V66.0986C132.462 65.3303 132.329 64.7647 132.062 64.4019C131.806 64.0284 131.401 63.8417 130.846 63.8417C130.227 63.8417 129.731 64.0391 129.357 64.4339C128.984 64.8181 128.797 65.3836 128.797 66.1306V71.1247H127.1ZM139.491 71.3168C138.691 71.3168 138.013 71.194 137.458 70.9486C136.914 70.7032 136.492 70.367 136.194 69.9402C135.895 69.5027 135.724 69.0011 135.681 68.4356L137.426 68.3555C137.511 68.8251 137.714 69.1985 138.034 69.476C138.354 69.7534 138.84 69.8922 139.491 69.8922C140.024 69.8922 140.446 69.8068 140.755 69.6361C141.065 69.4653 141.22 69.1932 141.22 68.8197C141.22 68.617 141.166 68.4462 141.06 68.3075C140.964 68.1581 140.771 68.0354 140.483 67.9394C140.195 67.8326 139.768 67.7313 139.203 67.6352C138.36 67.4752 137.698 67.2884 137.218 67.075C136.738 66.8616 136.396 66.5895 136.194 66.2587C135.991 65.9279 135.889 65.5277 135.889 65.0582C135.889 64.2792 136.178 63.6442 136.754 63.1534C137.341 62.6625 138.184 62.4171 139.283 62.4171C140.019 62.4171 140.638 62.5451 141.14 62.8012C141.641 63.0467 142.031 63.3828 142.308 63.8096C142.596 64.2258 142.778 64.6953 142.852 65.2182L141.108 65.3143C141.054 65.0155 140.948 64.7594 140.787 64.5459C140.638 64.3219 140.435 64.1511 140.179 64.0337C139.923 63.9057 139.619 63.8417 139.267 63.8417C138.723 63.8417 138.317 63.9484 138.05 64.1618C137.784 64.3752 137.65 64.6527 137.65 64.9941C137.65 65.2502 137.709 65.4583 137.826 65.6184C137.954 65.7785 138.157 65.9118 138.434 66.0186C138.712 66.1146 139.08 66.2 139.539 66.2747C140.425 66.4241 141.118 66.6108 141.62 66.8349C142.121 67.0483 142.473 67.3151 142.676 67.6352C142.879 67.9554 142.98 68.3449 142.98 68.8037C142.98 69.3373 142.831 69.7908 142.532 70.1643C142.233 70.5378 141.823 70.8259 141.3 71.0286C140.777 71.2207 140.174 71.3168 139.491 71.3168Z" fill="#222222"/>
</g>
<g filter="url(#filter1_ddd_4_928)">
<rect x="48.16" y="101.922" width="233.097" height="52.0215" rx="26" fill="white"/>
<path d="M90.1774 126.682H87.1762C86.9108 126.682 86.6564 126.616 86.4688 126.499C86.2812 126.382 86.1758 126.223 86.1758 126.057C86.1758 125.891 86.2812 125.732 86.4688 125.615C86.6564 125.498 86.9108 125.432 87.1762 125.432H90.1774C90.4427 125.432 90.6972 125.498 90.8848 125.615C91.0724 125.732 91.1778 125.891 91.1778 126.057C91.1778 126.223 91.0724 126.382 90.8848 126.499C90.6972 126.616 90.4427 126.682 90.1774 126.682ZM81.1737 125.432H80.1733V124.807C80.1733 124.641 80.0679 124.482 79.8803 124.364C79.6926 124.247 79.4382 124.181 79.1729 124.181C78.9075 124.181 78.6531 124.247 78.4655 124.364C78.2778 124.482 78.1724 124.641 78.1724 124.807V125.432H77.172C76.9067 125.432 76.6522 125.498 76.4646 125.615C76.277 125.732 76.1716 125.891 76.1716 126.057C76.1716 126.223 76.277 126.382 76.4646 126.499C76.6522 126.616 76.9067 126.682 77.172 126.682H78.1724V127.308C78.1724 127.473 78.2778 127.632 78.4655 127.75C78.6531 127.867 78.9075 127.933 79.1729 127.933C79.4382 127.933 79.6926 127.867 79.8803 127.75C80.0679 127.632 80.1733 127.473 80.1733 127.308V126.682H81.1737C81.439 126.682 81.6935 126.616 81.8811 126.499C82.0687 126.382 82.1741 126.223 82.1741 126.057C82.1741 125.891 82.0687 125.732 81.8811 125.615C81.6935 125.498 81.439 125.432 81.1737 125.432ZM98.3658 133.611C97.9888 133.948 97.4984 134.228 96.9292 134.434C96.3599 134.639 95.7256 134.764 95.0709 134.8C94.4161 134.836 93.7567 134.782 93.139 134.641C92.5213 134.501 91.9603 134.277 91.4955 133.987C91.4804 133.978 91.4654 133.968 91.4517 133.958L86.4859 130.434H81.859L76.8982 133.958L76.8544 133.987C76.0093 134.514 74.8644 134.81 73.6706 134.811C73.0133 134.811 72.3641 134.72 71.7686 134.547C71.173 134.373 70.6455 134.12 70.2231 133.805C69.8008 133.491 69.4938 133.122 69.3237 132.725C69.1536 132.328 69.1246 131.913 69.2387 131.509C69.2381 131.505 69.2381 131.501 69.2387 131.498L71.2858 124.925C71.5905 123.841 72.4967 122.859 73.8451 122.151C75.1935 121.444 76.8979 121.055 78.6589 121.055H89.6772C91.4328 121.057 93.132 121.443 94.4798 122.146C95.8276 122.849 96.7388 123.825 97.0553 124.904V124.918L99.1024 131.497C99.103 131.5 99.103 131.504 99.1024 131.508C99.2083 131.871 99.1978 132.244 99.0713 132.606C98.9449 132.967 98.7051 133.308 98.3658 133.611ZM89.6772 129.183C91.1365 129.183 92.536 128.821 93.5679 128.176C94.5998 127.531 95.1795 126.657 95.1795 125.744C95.1795 124.832 94.5998 123.958 93.5679 123.313C92.536 122.668 91.1365 122.306 89.6772 122.306H78.6589C77.367 122.306 76.117 122.592 75.1286 123.112C74.1403 123.632 73.477 124.353 73.2554 125.148V125.158L71.2071 131.731C71.1165 132.056 71.1936 132.392 71.4274 132.688C71.6611 132.985 72.0393 133.228 72.5077 133.382C72.9761 133.536 73.5105 133.593 74.0341 133.545C74.5576 133.497 75.0433 133.346 75.4213 133.115L80.6635 129.395C80.7573 129.329 80.8728 129.275 81.0021 129.239C81.1315 129.202 81.2718 129.183 81.4138 129.183H89.6772ZM97.1428 131.731L96.0498 128.213C95.3776 128.892 94.4396 129.452 93.3244 129.84C92.2093 130.229 90.9539 130.433 89.6772 130.434H89.152L92.9285 133.115C93.2133 133.289 93.5596 133.417 93.9392 133.49C94.3187 133.563 94.7206 133.579 95.112 133.537C95.7638 133.465 96.3435 133.234 96.7239 132.896C97.1044 132.557 97.2546 132.138 97.1415 131.731H97.1428Z" fill="black"/>
<path d="M114.027 133.191C112.949 133.191 112.026 132.94 111.258 132.439C110.49 131.927 109.903 131.228 109.497 130.342C109.092 129.445 108.889 128.421 108.889 127.269C108.889 126.127 109.092 125.108 109.497 124.211C109.914 123.315 110.511 122.611 111.29 122.098C112.069 121.576 113.003 121.314 114.091 121.314C115.02 121.314 115.804 121.48 116.444 121.81C117.095 122.141 117.607 122.595 117.981 123.171C118.365 123.747 118.632 124.403 118.781 125.14L116.972 125.236C116.844 124.542 116.556 123.982 116.108 123.555C115.66 123.118 114.988 122.899 114.091 122.899C113.302 122.899 112.656 123.096 112.154 123.491C111.653 123.886 111.279 124.414 111.034 125.076C110.799 125.737 110.682 126.468 110.682 127.269C110.682 128.101 110.799 128.843 111.034 129.494C111.279 130.144 111.653 130.662 112.154 131.046C112.667 131.42 113.318 131.606 114.107 131.606C114.726 131.606 115.26 131.473 115.708 131.206C116.156 130.939 116.503 130.577 116.748 130.118C117.004 129.659 117.143 129.152 117.165 128.597H114.123V127.141H118.813V132.935H117.629L117.517 130.374L117.741 130.566C117.623 131.078 117.383 131.532 117.02 131.927C116.658 132.321 116.215 132.631 115.692 132.855C115.18 133.079 114.625 133.191 114.027 133.191ZM123.052 133.127C122.167 133.127 121.457 132.924 120.924 132.519C120.401 132.113 120.139 131.542 120.139 130.806C120.139 130.07 120.358 129.499 120.796 129.093C121.244 128.677 121.932 128.378 122.86 128.197L125.79 127.637C125.79 126.975 125.635 126.484 125.325 126.164C125.016 125.833 124.557 125.668 123.949 125.668C123.405 125.668 122.978 125.791 122.668 126.036C122.359 126.271 122.145 126.623 122.028 127.093L120.283 126.98C120.443 126.127 120.838 125.455 121.468 124.964C122.108 124.473 122.935 124.227 123.949 124.227C125.101 124.227 125.976 124.537 126.574 125.156C127.182 125.764 127.486 126.623 127.486 127.733V131.046C127.486 131.249 127.518 131.393 127.582 131.478C127.657 131.553 127.774 131.59 127.935 131.59H128.239V132.935C128.185 132.946 128.1 132.956 127.983 132.967C127.865 132.978 127.742 132.983 127.614 132.983C127.252 132.983 126.937 132.924 126.67 132.807C126.414 132.69 126.222 132.497 126.094 132.231C125.966 131.953 125.902 131.585 125.902 131.126L126.078 131.206C125.992 131.58 125.806 131.911 125.517 132.199C125.24 132.487 124.883 132.716 124.445 132.887C124.018 133.047 123.554 133.127 123.052 133.127ZM123.325 131.782C123.837 131.782 124.274 131.686 124.637 131.494C125 131.292 125.283 131.014 125.485 130.662C125.688 130.31 125.79 129.91 125.79 129.462V128.917L123.293 129.397C122.78 129.494 122.418 129.648 122.204 129.862C122.001 130.064 121.9 130.326 121.9 130.646C121.9 131.009 122.023 131.292 122.268 131.494C122.524 131.686 122.876 131.782 123.325 131.782ZM129.511 132.935V124.419H131.064L131.112 126.532L130.92 126.468C131.016 125.999 131.181 125.599 131.416 125.268C131.661 124.937 131.96 124.681 132.312 124.499C132.664 124.318 133.049 124.227 133.465 124.227C134.19 124.227 134.783 124.435 135.242 124.852C135.7 125.257 135.989 125.817 136.106 126.532H135.834C135.93 126.031 136.09 125.615 136.314 125.284C136.549 124.942 136.848 124.681 137.21 124.499C137.573 124.318 137.984 124.227 138.443 124.227C139.04 124.227 139.547 124.355 139.963 124.611C140.39 124.857 140.71 125.22 140.924 125.7C141.148 126.18 141.26 126.767 141.26 127.461V132.935H139.563V127.877C139.563 127.141 139.43 126.586 139.163 126.212C138.896 125.839 138.491 125.652 137.947 125.652C137.595 125.652 137.285 125.743 137.018 125.924C136.751 126.105 136.543 126.367 136.394 126.708C136.255 127.05 136.186 127.461 136.186 127.941V132.935H134.569V127.941C134.569 127.215 134.447 126.655 134.201 126.26C133.966 125.855 133.561 125.652 132.985 125.652C132.622 125.652 132.307 125.743 132.04 125.924C131.784 126.105 131.581 126.372 131.432 126.724C131.283 127.066 131.208 127.471 131.208 127.941V132.935H129.511ZM143.357 132.935V124.419H145.054V132.935H143.357ZM143.325 123.187V121.49H145.086V123.187H143.325ZM147.641 132.935V123.875C147.641 123.171 147.838 122.611 148.233 122.194C148.628 121.778 149.247 121.57 150.09 121.57H151.594V122.963H150.314C149.983 122.963 149.738 123.054 149.578 123.235C149.418 123.406 149.337 123.651 149.337 123.971V132.935H147.641ZM146.456 125.908V124.531H151.466V125.908H146.456ZM153.131 132.935V124.419H154.828V132.935H153.131ZM153.115 123.187V121.49H154.876V123.187H153.115ZM160.439 133.127C159.606 133.127 158.886 132.946 158.278 132.583C157.68 132.22 157.216 131.702 156.885 131.03C156.565 130.358 156.405 129.574 156.405 128.677C156.405 127.781 156.565 127.002 156.885 126.34C157.216 125.668 157.68 125.15 158.278 124.788C158.875 124.414 159.58 124.227 160.391 124.227C161.159 124.227 161.836 124.409 162.423 124.772C163.01 125.124 163.464 125.636 163.784 126.308C164.115 126.98 164.28 127.791 164.28 128.741V129.173H158.166C158.208 130.006 158.427 130.63 158.822 131.046C159.227 131.462 159.772 131.67 160.455 131.67C160.956 131.67 161.372 131.553 161.703 131.318C162.034 131.084 162.263 130.769 162.391 130.374L164.152 130.486C163.928 131.276 163.485 131.916 162.824 132.407C162.173 132.887 161.378 133.127 160.439 133.127ZM158.166 127.893H162.487C162.434 127.135 162.215 126.575 161.831 126.212C161.458 125.849 160.977 125.668 160.391 125.668C159.782 125.668 159.281 125.86 158.886 126.244C158.502 126.618 158.262 127.167 158.166 127.893ZM168.865 133.127C168.139 133.127 167.504 132.946 166.96 132.583C166.426 132.22 166.015 131.708 165.727 131.046C165.45 130.374 165.311 129.584 165.311 128.677C165.311 127.77 165.455 126.986 165.743 126.324C166.031 125.652 166.442 125.134 166.976 124.772C167.509 124.409 168.139 124.227 168.865 124.227C169.451 124.227 169.974 124.35 170.433 124.595C170.892 124.841 171.239 125.182 171.474 125.62V121.57H173.17V132.935H171.586L171.538 131.654C171.303 132.113 170.945 132.476 170.465 132.743C169.996 132.999 169.462 133.127 168.865 133.127ZM169.313 131.654C169.772 131.654 170.161 131.537 170.481 131.302C170.801 131.067 171.047 130.726 171.218 130.278C171.388 129.83 171.474 129.296 171.474 128.677C171.474 128.037 171.388 127.498 171.218 127.061C171.047 126.612 170.801 126.276 170.481 126.052C170.161 125.817 169.772 125.7 169.313 125.7C168.63 125.7 168.086 125.967 167.68 126.5C167.275 127.023 167.072 127.749 167.072 128.677C167.072 129.595 167.275 130.321 167.68 130.854C168.086 131.388 168.63 131.654 169.313 131.654ZM183.84 133.191C182.815 133.191 181.914 132.956 181.135 132.487C180.356 132.007 179.747 131.324 179.31 130.438C178.872 129.552 178.654 128.496 178.654 127.269C178.654 126.052 178.867 125.001 179.294 124.115C179.731 123.219 180.34 122.531 181.119 122.05C181.898 121.56 182.81 121.314 183.856 121.314C185.264 121.314 186.358 121.666 187.137 122.371C187.916 123.075 188.423 124.051 188.658 125.3L186.849 125.396C186.7 124.617 186.379 124.009 185.889 123.571C185.398 123.123 184.72 122.899 183.856 122.899C183.162 122.899 182.559 123.075 182.047 123.427C181.545 123.779 181.151 124.281 180.863 124.932C180.585 125.583 180.446 126.362 180.446 127.269C180.446 128.176 180.585 128.955 180.863 129.606C181.151 130.256 181.551 130.753 182.063 131.094C182.575 131.436 183.168 131.606 183.84 131.606C184.757 131.606 185.467 131.366 185.969 130.886C186.481 130.395 186.801 129.723 186.929 128.869L188.738 128.965C188.599 129.83 188.322 130.577 187.905 131.206C187.489 131.836 186.94 132.327 186.257 132.679C185.574 133.02 184.768 133.191 183.84 133.191ZM190.354 132.935V121.57H192.051V126.34L191.842 126.308C191.939 125.828 192.115 125.439 192.371 125.14C192.627 124.83 192.942 124.601 193.315 124.451C193.689 124.302 194.099 124.227 194.548 124.227C195.167 124.227 195.689 124.366 196.116 124.644C196.543 124.91 196.863 125.289 197.077 125.78C197.301 126.271 197.413 126.831 197.413 127.461V132.935H195.716V127.909C195.716 127.141 195.583 126.575 195.316 126.212C195.06 125.839 194.654 125.652 194.099 125.652C193.48 125.652 192.984 125.849 192.611 126.244C192.237 126.628 192.051 127.194 192.051 127.941V132.935H190.354ZM201.864 133.127C200.978 133.127 200.269 132.924 199.735 132.519C199.212 132.113 198.951 131.542 198.951 130.806C198.951 130.07 199.169 129.499 199.607 129.093C200.055 128.677 200.743 128.378 201.672 128.197L204.601 127.637C204.601 126.975 204.446 126.484 204.137 126.164C203.827 125.833 203.368 125.668 202.76 125.668C202.216 125.668 201.789 125.791 201.48 126.036C201.17 126.271 200.957 126.623 200.839 127.093L199.095 126.98C199.255 126.127 199.65 125.455 200.279 124.964C200.919 124.473 201.746 124.227 202.76 124.227C203.913 124.227 204.788 124.537 205.385 125.156C205.994 125.764 206.298 126.623 206.298 127.733V131.046C206.298 131.249 206.33 131.393 206.394 131.478C206.468 131.553 206.586 131.59 206.746 131.59H207.05V132.935C206.997 132.946 206.911 132.956 206.794 132.967C206.677 132.978 206.554 132.983 206.426 132.983C206.063 132.983 205.748 132.924 205.481 132.807C205.225 132.69 205.033 132.497 204.905 132.231C204.777 131.953 204.713 131.585 204.713 131.126L204.889 131.206C204.804 131.58 204.617 131.911 204.329 132.199C204.051 132.487 203.694 132.716 203.256 132.887C202.83 133.047 202.365 133.127 201.864 133.127ZM202.136 131.782C202.648 131.782 203.086 131.686 203.449 131.494C203.811 131.292 204.094 131.014 204.297 130.662C204.5 130.31 204.601 129.91 204.601 129.462V128.917L202.104 129.397C201.592 129.494 201.229 129.648 201.016 129.862C200.813 130.064 200.711 130.326 200.711 130.646C200.711 131.009 200.834 131.292 201.08 131.494C201.336 131.686 201.688 131.782 202.136 131.782ZM210.07 132.935C209.515 132.935 209.067 132.791 208.725 132.503C208.384 132.215 208.213 131.756 208.213 131.126V121.57H209.91V130.966C209.91 131.158 209.958 131.302 210.054 131.398C210.161 131.494 210.31 131.542 210.502 131.542H211.174V132.935H210.07ZM214.271 132.935C213.716 132.935 213.268 132.791 212.926 132.503C212.585 132.215 212.414 131.756 212.414 131.126V121.57H214.111V130.966C214.111 131.158 214.159 131.302 214.255 131.398C214.362 131.494 214.511 131.542 214.703 131.542H215.375V132.935H214.271ZM220.168 133.127C219.335 133.127 218.615 132.946 218.007 132.583C217.409 132.22 216.945 131.702 216.614 131.03C216.294 130.358 216.134 129.574 216.134 128.677C216.134 127.781 216.294 127.002 216.614 126.34C216.945 125.668 217.409 125.15 218.007 124.788C218.604 124.414 219.309 124.227 220.12 124.227C220.888 124.227 221.566 124.409 222.153 124.772C222.739 125.124 223.193 125.636 223.513 126.308C223.844 126.98 224.009 127.791 224.009 128.741V129.173H217.895C217.937 130.006 218.156 130.63 218.551 131.046C218.957 131.462 219.501 131.67 220.184 131.67C220.685 131.67 221.101 131.553 221.432 131.318C221.763 131.084 221.992 130.769 222.121 130.374L223.881 130.486C223.657 131.276 223.214 131.916 222.553 132.407C221.902 132.887 221.107 133.127 220.168 133.127ZM217.895 127.893H222.217C222.163 127.135 221.944 126.575 221.56 126.212C221.187 125.849 220.707 125.668 220.12 125.668C219.511 125.668 219.01 125.86 218.615 126.244C218.231 126.618 217.991 127.167 217.895 127.893ZM225.568 132.935V124.419H227.121L227.185 126.692L226.977 126.58C227.073 126.025 227.254 125.577 227.521 125.236C227.788 124.894 228.113 124.644 228.498 124.483C228.882 124.313 229.298 124.227 229.746 124.227C230.386 124.227 230.915 124.371 231.331 124.66C231.758 124.937 232.078 125.321 232.291 125.812C232.515 126.292 232.627 126.842 232.627 127.461V132.935H230.931V127.973C230.931 127.471 230.877 127.05 230.771 126.708C230.664 126.367 230.488 126.105 230.242 125.924C229.997 125.743 229.677 125.652 229.282 125.652C228.684 125.652 228.199 125.849 227.825 126.244C227.452 126.639 227.265 127.215 227.265 127.973V132.935H225.568ZM238.103 135.528C237.431 135.528 236.839 135.427 236.327 135.224C235.814 135.021 235.393 134.733 235.062 134.36C234.731 133.997 234.507 133.57 234.39 133.079L236.15 132.967C236.268 133.319 236.471 133.597 236.759 133.799C237.057 134.013 237.506 134.119 238.103 134.119C238.808 134.119 239.346 133.97 239.72 133.671C240.104 133.372 240.296 132.919 240.296 132.311V131.078C240.093 131.516 239.768 131.862 239.32 132.119C238.872 132.375 238.37 132.503 237.815 132.503C237.1 132.503 236.465 132.327 235.91 131.975C235.355 131.622 234.923 131.137 234.614 130.518C234.304 129.899 234.15 129.184 234.15 128.373C234.15 127.551 234.299 126.831 234.598 126.212C234.907 125.593 235.334 125.108 235.878 124.756C236.433 124.403 237.057 124.227 237.751 124.227C238.359 124.227 238.893 124.366 239.352 124.644C239.821 124.921 240.157 125.294 240.36 125.764V124.419H241.993V132.263C241.993 132.967 241.833 133.559 241.513 134.039C241.203 134.53 240.755 134.898 240.168 135.144C239.592 135.4 238.904 135.528 238.103 135.528ZM238.087 131.062C238.749 131.062 239.277 130.822 239.672 130.342C240.077 129.862 240.285 129.2 240.296 128.357C240.307 127.802 240.221 127.327 240.04 126.932C239.859 126.527 239.597 126.217 239.256 126.004C238.925 125.78 238.535 125.668 238.087 125.668C237.394 125.668 236.855 125.913 236.471 126.404C236.097 126.884 235.91 127.535 235.91 128.357C235.91 129.189 236.102 129.851 236.487 130.342C236.881 130.822 237.415 131.062 238.087 131.062ZM247.59 133.127C246.757 133.127 246.037 132.946 245.429 132.583C244.831 132.22 244.367 131.702 244.036 131.03C243.716 130.358 243.556 129.574 243.556 128.677C243.556 127.781 243.716 127.002 244.036 126.34C244.367 125.668 244.831 125.15 245.429 124.788C246.026 124.414 246.731 124.227 247.542 124.227C248.31 124.227 248.988 124.409 249.575 124.772C250.161 125.124 250.615 125.636 250.935 126.308C251.266 126.98 251.431 127.791 251.431 128.741V129.173H245.317C245.359 130.006 245.578 130.63 245.973 131.046C246.379 131.462 246.923 131.67 247.606 131.67C248.107 131.67 248.523 131.553 248.854 131.318C249.185 131.084 249.414 130.769 249.542 130.374L251.303 130.486C251.079 131.276 250.636 131.916 249.975 132.407C249.324 132.887 248.529 133.127 247.59 133.127ZM245.317 127.893H249.639C249.585 127.135 249.366 126.575 248.982 126.212C248.609 125.849 248.129 125.668 247.542 125.668C246.933 125.668 246.432 125.86 246.037 126.244C245.653 126.618 245.413 127.167 245.317 127.893ZM256.272 133.127C255.471 133.127 254.794 133.004 254.239 132.759C253.695 132.513 253.273 132.177 252.974 131.75C252.676 131.313 252.505 130.811 252.462 130.246L254.207 130.166C254.292 130.635 254.495 131.009 254.815 131.286C255.135 131.564 255.621 131.702 256.272 131.702C256.805 131.702 257.227 131.617 257.536 131.446C257.846 131.276 258 131.003 258 130.63C258 130.427 257.947 130.256 257.84 130.118C257.744 129.968 257.552 129.846 257.264 129.75C256.976 129.643 256.549 129.542 255.984 129.445C255.141 129.285 254.479 129.099 253.999 128.885C253.519 128.672 253.177 128.4 252.974 128.069C252.772 127.738 252.67 127.338 252.67 126.868C252.67 126.089 252.958 125.455 253.535 124.964C254.122 124.473 254.965 124.227 256.064 124.227C256.8 124.227 257.419 124.355 257.92 124.611C258.422 124.857 258.811 125.193 259.089 125.62C259.377 126.036 259.558 126.506 259.633 127.028L257.888 127.125C257.835 126.826 257.728 126.57 257.568 126.356C257.419 126.132 257.216 125.961 256.96 125.844C256.704 125.716 256.4 125.652 256.048 125.652C255.503 125.652 255.098 125.759 254.831 125.972C254.564 126.185 254.431 126.463 254.431 126.804C254.431 127.061 254.49 127.269 254.607 127.429C254.735 127.589 254.938 127.722 255.215 127.829C255.493 127.925 255.861 128.01 256.32 128.085C257.205 128.234 257.899 128.421 258.401 128.645C258.902 128.859 259.254 129.125 259.457 129.445C259.66 129.766 259.761 130.155 259.761 130.614C259.761 131.148 259.612 131.601 259.313 131.975C259.014 132.348 258.603 132.636 258.081 132.839C257.558 133.031 256.955 133.127 256.272 133.127Z" fill="#222222"/>
</g>
<g filter="url(#filter2_ddd_4_928)">
<rect x="31.6531" y="163.948" width="266.11" height="70.4092" rx="35.19" fill="white"/>
<path d="M80.6734 198.052H79.6305C79.3904 195.225 78.1584 192.574 76.1523 190.568C74.1462 188.562 71.4953 187.33 68.6685 187.09V186.047C68.6685 185.781 68.5631 185.527 68.3754 185.339C68.1878 185.152 67.9334 185.046 67.668 185.046C67.4027 185.046 67.1483 185.152 66.9606 185.339C66.773 185.527 66.6676 185.781 66.6676 186.047V187.09C63.8408 187.33 61.1899 188.562 59.1838 190.568C57.1777 192.574 55.9457 195.225 55.7056 198.052H54.6627C54.3973 198.052 54.1429 198.157 53.9553 198.345C53.7676 198.532 53.6622 198.787 53.6622 199.052C53.6622 199.317 53.7676 199.572 53.9553 199.76C54.1429 199.947 54.3973 200.053 54.6627 200.053H55.7056C55.9457 202.879 57.1777 205.53 59.1838 207.536C61.1899 209.543 63.8408 210.775 66.6676 211.015V212.058C66.6676 212.323 66.773 212.577 66.9606 212.765C67.1483 212.953 67.4027 213.058 67.668 213.058C67.9334 213.058 68.1878 212.953 68.3754 212.765C68.5631 212.577 68.6685 212.323 68.6685 212.058V211.015C71.4953 210.775 74.1462 209.543 76.1523 207.536C78.1584 205.53 79.3904 202.879 79.6305 200.053H80.6734C80.9388 200.053 81.1932 199.947 81.3808 199.76C81.5684 199.572 81.6738 199.317 81.6738 199.052C81.6738 198.787 81.5684 198.532 81.3808 198.345C81.1932 198.157 80.9388 198.052 80.6734 198.052ZM68.6685 209.006V208.056C68.6685 207.791 68.5631 207.536 68.3754 207.348C68.1878 207.161 67.9334 207.055 67.668 207.055C67.4027 207.055 67.1483 207.161 66.9606 207.348C66.773 207.536 66.6676 207.791 66.6676 208.056V209.006C64.3728 208.772 62.2289 207.754 60.5978 206.122C58.9666 204.491 57.9481 202.347 57.7139 200.053H58.6643C58.9296 200.053 59.1841 199.947 59.3717 199.76C59.5593 199.572 59.6647 199.317 59.6647 199.052C59.6647 198.787 59.5593 198.532 59.3717 198.345C59.1841 198.157 58.9296 198.052 58.6643 198.052H57.7139C57.9481 195.757 58.9666 193.613 60.5978 191.982C62.2289 190.351 64.3728 189.332 66.6676 189.098V190.048C66.6676 190.314 66.773 190.568 66.9606 190.756C67.1483 190.943 67.4027 191.049 67.668 191.049C67.9334 191.049 68.1878 190.943 68.3754 190.756C68.5631 190.568 68.6685 190.314 68.6685 190.048V189.098C70.9633 189.332 73.1072 190.351 74.7383 191.982C76.3694 193.613 77.388 195.757 77.6222 198.052H76.6718C76.4064 198.052 76.152 198.157 75.9644 198.345C75.7768 198.532 75.6714 198.787 75.6714 199.052C75.6714 199.317 75.7768 199.572 75.9644 199.76C76.152 199.947 76.4064 200.053 76.6718 200.053H77.6222C77.388 202.347 76.3694 204.491 74.7383 206.122C73.1072 207.754 70.9633 208.772 68.6685 209.006ZM67.668 194.05C66.6787 194.05 65.7116 194.343 64.889 194.893C64.0665 195.443 63.4253 196.224 63.0467 197.138C62.6681 198.052 62.5691 199.058 62.7621 200.028C62.9551 200.998 63.4315 201.89 64.131 202.589C64.8306 203.289 65.7219 203.765 66.6922 203.958C67.6625 204.151 68.6682 204.052 69.5823 203.673C70.4963 203.295 71.2775 202.654 71.8271 201.831C72.3767 201.009 72.6701 200.041 72.6701 199.052C72.6701 197.726 72.1431 196.453 71.205 195.515C70.267 194.577 68.9947 194.05 67.668 194.05ZM67.668 202.053C67.0745 202.053 66.4942 201.877 66.0006 201.548C65.5071 201.218 65.1224 200.749 64.8953 200.201C64.6681 199.652 64.6087 199.049 64.7245 198.467C64.8403 197.884 65.1261 197.35 65.5458 196.93C65.9656 196.51 66.5003 196.224 67.0825 196.109C67.6647 195.993 68.2682 196.052 68.8166 196.279C69.365 196.507 69.8337 196.891 70.1635 197.385C70.4933 197.878 70.6693 198.459 70.6693 199.052C70.6693 199.848 70.3531 200.612 69.7902 201.174C69.2274 201.737 68.464 202.053 67.668 202.053Z" fill="black"/>
<path d="M97.5204 194.806C96.4426 194.806 95.5196 194.556 94.7513 194.054C93.9829 193.542 93.396 192.843 92.9905 191.957C92.585 191.061 92.3823 190.036 92.3823 188.884C92.3823 187.742 92.585 186.723 92.9905 185.827C93.4067 184.93 94.0043 184.226 94.7833 183.714C95.5623 183.191 96.496 182.929 97.5844 182.929C98.5128 182.929 99.2971 183.095 99.9374 183.426C100.588 183.756 101.101 184.21 101.474 184.786C101.858 185.362 102.125 186.019 102.274 186.755L100.466 186.851C100.338 186.157 100.049 185.597 99.6013 185.17C99.1531 184.733 98.4808 184.514 97.5844 184.514C96.7948 184.514 96.1492 184.712 95.6476 185.106C95.1461 185.501 94.7726 186.029 94.5272 186.691C94.2924 187.353 94.175 188.084 94.175 188.884C94.175 189.716 94.2924 190.458 94.5272 191.109C94.7726 191.76 95.1461 192.277 95.6476 192.662C96.1598 193.035 96.8108 193.222 97.6004 193.222C98.2194 193.222 98.7529 193.088 99.2011 192.822C99.6493 192.555 99.9961 192.192 100.242 191.733C100.498 191.274 100.636 190.767 100.658 190.213H97.6164V188.756H102.306V194.55H101.122L101.01 191.989L101.234 192.181C101.117 192.694 100.876 193.147 100.514 193.542C100.151 193.937 99.708 194.246 99.1851 194.47C98.6729 194.694 98.118 194.806 97.5204 194.806ZM107.791 194.742C106.98 194.742 106.271 194.561 105.662 194.198C105.054 193.835 104.584 193.318 104.254 192.646C103.923 191.973 103.757 191.189 103.757 190.293C103.757 189.385 103.923 188.601 104.254 187.94C104.584 187.278 105.054 186.766 105.662 186.403C106.271 186.029 106.98 185.843 107.791 185.843C108.602 185.843 109.312 186.029 109.92 186.403C110.528 186.766 110.998 187.278 111.329 187.94C111.659 188.601 111.825 189.385 111.825 190.293C111.825 191.189 111.659 191.973 111.329 192.646C110.998 193.318 110.528 193.835 109.92 194.198C109.312 194.561 108.602 194.742 107.791 194.742ZM107.791 193.27C108.517 193.27 109.077 193.008 109.472 192.485C109.867 191.952 110.064 191.221 110.064 190.293C110.064 189.364 109.867 188.639 109.472 188.116C109.077 187.582 108.517 187.315 107.791 187.315C107.076 187.315 106.516 187.582 106.11 188.116C105.716 188.639 105.518 189.364 105.518 190.293C105.518 191.221 105.716 191.952 106.11 192.485C106.516 193.008 107.076 193.27 107.791 193.27ZM115.936 194.742C115.051 194.742 114.341 194.54 113.808 194.134C113.285 193.729 113.023 193.158 113.023 192.421C113.023 191.685 113.242 191.114 113.679 190.709C114.128 190.293 114.816 189.994 115.744 189.812L118.674 189.252C118.674 188.59 118.519 188.1 118.209 187.779C117.9 187.449 117.441 187.283 116.833 187.283C116.289 187.283 115.862 187.406 115.552 187.651C115.243 187.886 115.029 188.238 114.912 188.708L113.167 188.596C113.327 187.742 113.722 187.07 114.352 186.579C114.992 186.088 115.819 185.843 116.833 185.843C117.985 185.843 118.86 186.152 119.458 186.771C120.066 187.379 120.37 188.238 120.37 189.348V192.662C120.37 192.864 120.402 193.008 120.466 193.094C120.541 193.168 120.658 193.206 120.818 193.206H121.123V194.55C121.069 194.561 120.984 194.572 120.866 194.582C120.749 194.593 120.626 194.598 120.498 194.598C120.135 194.598 119.821 194.54 119.554 194.422C119.298 194.305 119.106 194.113 118.978 193.846C118.85 193.569 118.786 193.2 118.786 192.742L118.962 192.822C118.876 193.195 118.69 193.526 118.401 193.814C118.124 194.102 117.766 194.332 117.329 194.502C116.902 194.662 116.438 194.742 115.936 194.742ZM116.209 193.398C116.721 193.398 117.158 193.302 117.521 193.11C117.884 192.907 118.167 192.63 118.369 192.277C118.572 191.925 118.674 191.525 118.674 191.077V190.533L116.177 191.013C115.664 191.109 115.301 191.264 115.088 191.477C114.885 191.68 114.784 191.941 114.784 192.261C114.784 192.624 114.907 192.907 115.152 193.11C115.408 193.302 115.76 193.398 116.209 193.398ZM124.142 194.55C123.588 194.55 123.139 194.406 122.798 194.118C122.456 193.83 122.286 193.371 122.286 192.742V183.186H123.982V192.581C123.982 192.774 124.03 192.918 124.126 193.014C124.233 193.11 124.383 193.158 124.575 193.158H125.247V194.55H124.142ZM126.115 190.629V189.14H131.477V190.629H126.115ZM137.447 194.806C136.54 194.806 135.75 194.641 135.078 194.31C134.416 193.979 133.894 193.521 133.509 192.934C133.125 192.347 132.901 191.664 132.837 190.885L134.614 190.773C134.689 191.306 134.843 191.76 135.078 192.133C135.313 192.496 135.628 192.774 136.022 192.966C136.428 193.147 136.914 193.238 137.479 193.238C137.97 193.238 138.386 193.179 138.728 193.062C139.08 192.934 139.347 192.747 139.528 192.501C139.709 192.256 139.8 191.957 139.8 191.605C139.8 191.285 139.72 191.002 139.56 190.757C139.411 190.501 139.117 190.271 138.68 190.068C138.253 189.855 137.623 189.647 136.791 189.444C135.884 189.22 135.158 188.975 134.614 188.708C134.07 188.441 133.675 188.11 133.429 187.715C133.195 187.31 133.077 186.814 133.077 186.227C133.077 185.576 133.232 185.005 133.541 184.514C133.862 184.013 134.315 183.623 134.902 183.346C135.489 183.068 136.193 182.929 137.015 182.929C137.879 182.929 138.616 183.09 139.224 183.41C139.843 183.73 140.328 184.167 140.68 184.722C141.043 185.277 141.267 185.912 141.353 186.627L139.576 186.723C139.523 186.286 139.389 185.901 139.176 185.571C138.962 185.229 138.674 184.968 138.311 184.786C137.949 184.594 137.506 184.498 136.983 184.498C136.321 184.498 135.798 184.653 135.414 184.962C135.041 185.261 134.854 185.661 134.854 186.163C134.854 186.483 134.929 186.755 135.078 186.979C135.238 187.193 135.516 187.379 135.91 187.539C136.316 187.699 136.887 187.87 137.623 188.052C138.605 188.276 139.384 188.553 139.96 188.884C140.547 189.204 140.963 189.583 141.209 190.02C141.454 190.458 141.577 190.954 141.577 191.509C141.577 192.181 141.401 192.768 141.049 193.27C140.707 193.761 140.227 194.139 139.608 194.406C138.989 194.673 138.269 194.806 137.447 194.806ZM147.179 194.742C146.347 194.742 145.627 194.561 145.018 194.198C144.421 193.835 143.957 193.318 143.626 192.646C143.306 191.973 143.146 191.189 143.146 190.293C143.146 189.396 143.306 188.617 143.626 187.956C143.957 187.283 144.421 186.766 145.018 186.403C145.616 186.029 146.32 185.843 147.131 185.843C147.9 185.843 148.577 186.024 149.164 186.387C149.751 186.739 150.205 187.251 150.525 187.924C150.856 188.596 151.021 189.407 151.021 190.357V190.789H144.906C144.949 191.621 145.168 192.245 145.563 192.662C145.968 193.078 146.512 193.286 147.195 193.286C147.697 193.286 148.113 193.168 148.444 192.934C148.775 192.699 149.004 192.384 149.132 191.989L150.893 192.101C150.669 192.891 150.226 193.531 149.564 194.022C148.913 194.502 148.118 194.742 147.179 194.742ZM144.906 189.508H149.228C149.175 188.751 148.956 188.19 148.572 187.828C148.198 187.465 147.718 187.283 147.131 187.283C146.523 187.283 146.022 187.475 145.627 187.86C145.243 188.233 145.002 188.783 144.906 189.508ZM155.533 194.55C154.722 194.55 154.124 194.364 153.74 193.99C153.356 193.617 153.164 193.035 153.164 192.245V184.034H154.861V192.117C154.861 192.512 154.946 192.784 155.117 192.934C155.287 193.083 155.549 193.158 155.901 193.158H157.117V194.55H155.533ZM151.867 187.427V186.035H157.117V187.427H151.867ZM160.703 194.55C159.892 194.55 159.294 194.364 158.91 193.99C158.526 193.617 158.334 193.035 158.334 192.245V184.034H160.031V192.117C160.031 192.512 160.116 192.784 160.287 192.934C160.458 193.083 160.719 193.158 161.071 193.158H162.288V194.55H160.703ZM157.037 187.427V186.035H162.288V187.427H157.037ZM163.737 194.55V186.035H165.434V194.55H163.737ZM163.705 184.802V183.106H165.466V184.802H163.705ZM167.813 194.55V186.035H169.366L169.43 188.308L169.222 188.196C169.318 187.641 169.499 187.193 169.766 186.851C170.033 186.51 170.358 186.259 170.742 186.099C171.127 185.928 171.543 185.843 171.991 185.843C172.631 185.843 173.159 185.987 173.576 186.275C174.002 186.552 174.323 186.936 174.536 187.427C174.76 187.908 174.872 188.457 174.872 189.076V194.55H173.175V189.588C173.175 189.087 173.122 188.665 173.015 188.324C172.909 187.982 172.733 187.721 172.487 187.539C172.242 187.358 171.922 187.267 171.527 187.267C170.929 187.267 170.444 187.465 170.07 187.86C169.697 188.254 169.51 188.831 169.51 189.588V194.55H167.813ZM180.348 197.143C179.676 197.143 179.084 197.042 178.571 196.839C178.059 196.636 177.638 196.348 177.307 195.975C176.976 195.612 176.752 195.185 176.635 194.694L178.395 194.582C178.513 194.934 178.715 195.212 179.004 195.415C179.302 195.628 179.751 195.735 180.348 195.735C181.052 195.735 181.591 195.585 181.965 195.287C182.349 194.988 182.541 194.534 182.541 193.926V192.694C182.338 193.131 182.013 193.478 181.565 193.734C181.116 193.99 180.615 194.118 180.06 194.118C179.345 194.118 178.71 193.942 178.155 193.59C177.6 193.238 177.168 192.752 176.859 192.133C176.549 191.514 176.394 190.799 176.394 189.988C176.394 189.167 176.544 188.446 176.843 187.828C177.152 187.209 177.579 186.723 178.123 186.371C178.678 186.019 179.302 185.843 179.996 185.843C180.604 185.843 181.138 185.981 181.597 186.259C182.066 186.536 182.402 186.91 182.605 187.379V186.035H184.238V193.878C184.238 194.582 184.078 195.175 183.757 195.655C183.448 196.146 183 196.514 182.413 196.759C181.837 197.015 181.148 197.143 180.348 197.143ZM180.332 192.678C180.994 192.678 181.522 192.437 181.917 191.957C182.322 191.477 182.53 190.815 182.541 189.972C182.552 189.418 182.466 188.943 182.285 188.548C182.103 188.142 181.842 187.833 181.501 187.619C181.17 187.395 180.78 187.283 180.332 187.283C179.638 187.283 179.1 187.529 178.715 188.02C178.342 188.5 178.155 189.151 178.155 189.972C178.155 190.805 178.347 191.466 178.731 191.957C179.126 192.437 179.66 192.678 180.332 192.678ZM193.339 194.806C192.176 194.806 191.269 194.545 190.618 194.022C189.967 193.489 189.641 192.736 189.641 191.765C189.641 191.274 189.711 190.837 189.849 190.453C189.999 190.068 190.239 189.706 190.57 189.364C190.9 189.012 191.349 188.649 191.914 188.276C191.669 187.966 191.461 187.678 191.29 187.411C191.119 187.134 190.986 186.856 190.89 186.579C190.804 186.291 190.762 185.981 190.762 185.651C190.762 184.808 191.023 184.146 191.546 183.666C192.08 183.175 192.816 182.929 193.755 182.929C194.385 182.929 194.918 183.036 195.356 183.25C195.793 183.452 196.124 183.746 196.348 184.13C196.572 184.503 196.684 184.946 196.684 185.459C196.684 186.088 196.492 186.643 196.108 187.123C195.734 187.603 195.126 188.11 194.283 188.644L196.604 191.589C196.956 191.109 197.132 190.383 197.132 189.412L198.845 189.572C198.824 190.202 198.706 190.81 198.493 191.397C198.29 191.984 198.023 192.469 197.693 192.854L199.117 194.55H197.1L196.572 193.91C196.252 194.177 195.815 194.39 195.26 194.55C194.715 194.721 194.075 194.806 193.339 194.806ZM193.515 193.254C193.995 193.254 194.395 193.2 194.715 193.094C195.036 192.987 195.281 192.848 195.452 192.678L192.875 189.46C192.362 189.812 191.994 190.159 191.77 190.501C191.546 190.831 191.434 191.221 191.434 191.669C191.434 192.149 191.599 192.533 191.93 192.822C192.272 193.11 192.8 193.254 193.515 193.254ZM193.387 187.523C193.75 187.299 194.043 187.091 194.267 186.899C194.491 186.696 194.651 186.488 194.747 186.275C194.843 186.061 194.891 185.832 194.891 185.587C194.891 185.245 194.79 184.984 194.587 184.802C194.395 184.61 194.123 184.514 193.771 184.514C193.387 184.514 193.083 184.616 192.859 184.818C192.645 185.021 192.539 185.309 192.539 185.683C192.539 185.875 192.565 186.067 192.619 186.259C192.672 186.44 192.757 186.632 192.875 186.835C193.003 187.038 193.173 187.267 193.387 187.523ZM93.0546 213.558V202.193H100.45V203.778H94.7833V207.091H100.258V208.628H94.7833V211.974H100.578V213.558H93.0546ZM102.821 213.558V204.498C102.821 203.794 103.018 203.234 103.413 202.818C103.808 202.402 104.427 202.193 105.27 202.193H106.775V203.586H105.494C105.163 203.586 104.918 203.677 104.758 203.858C104.598 204.029 104.518 204.274 104.518 204.594V213.558H102.821ZM101.636 206.531V205.155H106.647V206.531H101.636ZM107.751 213.558V204.498C107.751 203.794 107.948 203.234 108.343 202.818C108.738 202.402 109.357 202.193 110.2 202.193H111.705V203.586H110.424C110.093 203.586 109.848 203.677 109.688 203.858C109.528 204.029 109.448 204.274 109.448 204.594V213.558H107.751ZM106.567 206.531V205.155H111.577V206.531H106.567ZM116.15 213.75C115.339 213.75 114.63 213.569 114.021 213.206C113.413 212.843 112.944 212.326 112.613 211.653C112.282 210.981 112.117 210.197 112.117 209.3C112.117 208.393 112.282 207.609 112.613 206.947C112.944 206.286 113.413 205.774 114.021 205.411C114.63 205.037 115.339 204.851 116.15 204.851C116.961 204.851 117.671 205.037 118.279 205.411C118.887 205.774 119.357 206.286 119.688 206.947C120.019 207.609 120.184 208.393 120.184 209.3C120.184 210.197 120.019 210.981 119.688 211.653C119.357 212.326 118.887 212.843 118.279 213.206C117.671 213.569 116.961 213.75 116.15 213.75ZM116.15 212.278C116.876 212.278 117.436 212.016 117.831 211.493C118.226 210.96 118.423 210.229 118.423 209.3C118.423 208.372 118.226 207.646 117.831 207.124C117.436 206.59 116.876 206.323 116.15 206.323C115.435 206.323 114.875 206.59 114.47 207.124C114.075 207.646 113.877 208.372 113.877 209.3C113.877 210.229 114.075 210.96 114.47 211.493C114.875 212.016 115.435 212.278 116.15 212.278ZM121.739 213.558V205.043H123.291L123.355 207.3L123.211 207.252C123.329 206.483 123.563 205.923 123.915 205.571C124.278 205.219 124.764 205.043 125.372 205.043H126.188V206.563H125.372C124.945 206.563 124.588 206.633 124.3 206.771C124.012 206.91 123.793 207.124 123.643 207.412C123.505 207.7 123.435 208.073 123.435 208.532V213.558H121.739ZM130.44 213.558C129.629 213.558 129.031 213.371 128.647 212.998C128.263 212.624 128.071 212.043 128.071 211.253V203.042H129.768V211.125C129.768 211.52 129.853 211.792 130.024 211.942C130.194 212.091 130.456 212.166 130.808 212.166H132.025V213.558H130.44ZM126.774 206.435V205.043H132.025V206.435H126.774ZM137.488 213.558V202.193H142.018C142.829 202.193 143.528 202.332 144.115 202.61C144.702 202.887 145.155 203.282 145.475 203.794C145.795 204.306 145.955 204.915 145.955 205.619C145.955 206.131 145.838 206.59 145.603 206.995C145.379 207.401 145.075 207.726 144.691 207.972C144.317 208.207 143.917 208.34 143.49 208.372L143.41 208.228C144.125 208.228 144.68 208.393 145.075 208.724C145.47 209.044 145.699 209.551 145.763 210.245L146.068 213.558H144.323L144.051 210.469C144.019 210.01 143.864 209.674 143.586 209.46C143.309 209.236 142.856 209.124 142.226 209.124H139.217V213.558H137.488ZM139.217 207.54H142.05C142.701 207.54 143.213 207.38 143.586 207.059C143.971 206.729 144.163 206.264 144.163 205.667C144.163 205.059 143.971 204.594 143.586 204.274C143.202 203.944 142.642 203.778 141.906 203.778H139.217V207.54ZM151.318 213.75C150.486 213.75 149.765 213.569 149.157 213.206C148.559 212.843 148.095 212.326 147.764 211.653C147.444 210.981 147.284 210.197 147.284 209.3C147.284 208.404 147.444 207.625 147.764 206.963C148.095 206.291 148.559 205.774 149.157 205.411C149.755 205.037 150.459 204.851 151.27 204.851C152.038 204.851 152.716 205.032 153.303 205.395C153.89 205.747 154.343 206.259 154.663 206.931C154.994 207.604 155.16 208.415 155.16 209.364V209.797H149.045C149.088 210.629 149.306 211.253 149.701 211.669C150.107 212.086 150.651 212.294 151.334 212.294C151.835 212.294 152.252 212.176 152.582 211.942C152.913 211.707 153.143 211.392 153.271 210.997L155.031 211.109C154.807 211.899 154.365 212.539 153.703 213.03C153.052 213.51 152.257 213.75 151.318 213.75ZM149.045 208.516H153.367C153.313 207.758 153.095 207.198 152.711 206.835C152.337 206.473 151.857 206.291 151.27 206.291C150.662 206.291 150.16 206.483 149.765 206.867C149.381 207.241 149.141 207.79 149.045 208.516ZM160.224 213.75C159.413 213.75 158.703 213.569 158.095 213.206C157.487 212.843 157.017 212.326 156.687 211.653C156.356 210.981 156.19 210.197 156.19 209.3C156.19 208.404 156.356 207.625 156.687 206.963C157.017 206.291 157.487 205.774 158.095 205.411C158.703 205.037 159.413 204.851 160.224 204.851C160.918 204.851 161.531 204.973 162.065 205.219C162.609 205.453 163.047 205.8 163.377 206.259C163.719 206.718 163.938 207.278 164.034 207.94L162.257 208.036C162.172 207.481 161.948 207.059 161.585 206.771C161.222 206.473 160.768 206.323 160.224 206.323C159.509 206.323 158.949 206.59 158.543 207.124C158.149 207.646 157.951 208.372 157.951 209.3C157.951 210.229 158.149 210.96 158.543 211.493C158.949 212.016 159.509 212.278 160.224 212.278C160.768 212.278 161.222 212.128 161.585 211.829C161.948 211.52 162.172 211.056 162.257 210.437L164.034 210.533C163.938 211.184 163.719 211.749 163.377 212.23C163.047 212.71 162.609 213.083 162.065 213.35C161.531 213.617 160.918 213.75 160.224 213.75ZM168.927 213.75C168.116 213.75 167.406 213.569 166.798 213.206C166.19 212.843 165.72 212.326 165.39 211.653C165.059 210.981 164.893 210.197 164.893 209.3C164.893 208.393 165.059 207.609 165.39 206.947C165.72 206.286 166.19 205.774 166.798 205.411C167.406 205.037 168.116 204.851 168.927 204.851C169.738 204.851 170.448 205.037 171.056 205.411C171.664 205.774 172.134 206.286 172.465 206.947C172.795 207.609 172.961 208.393 172.961 209.3C172.961 210.197 172.795 210.981 172.465 211.653C172.134 212.326 171.664 212.843 171.056 213.206C170.448 213.569 169.738 213.75 168.927 213.75ZM168.927 212.278C169.653 212.278 170.213 212.016 170.608 211.493C171.003 210.96 171.2 210.229 171.2 209.3C171.2 208.372 171.003 207.646 170.608 207.124C170.213 206.59 169.653 206.323 168.927 206.323C168.212 206.323 167.652 206.59 167.246 207.124C166.852 207.646 166.654 208.372 166.654 209.3C166.654 210.229 166.852 210.96 167.246 211.493C167.652 212.016 168.212 212.278 168.927 212.278ZM174.515 213.558V205.043H176.068L176.116 207.156L175.924 207.091C176.02 206.622 176.185 206.222 176.42 205.891C176.666 205.56 176.964 205.304 177.317 205.123C177.669 204.941 178.053 204.851 178.469 204.851C179.195 204.851 179.787 205.059 180.246 205.475C180.705 205.88 180.993 206.441 181.11 207.156H180.838C180.934 206.654 181.094 206.238 181.318 205.907C181.553 205.566 181.852 205.304 182.215 205.123C182.577 204.941 182.988 204.851 183.447 204.851C184.045 204.851 184.552 204.979 184.968 205.235C185.395 205.48 185.715 205.843 185.928 206.323C186.152 206.803 186.264 207.39 186.264 208.084V213.558H184.568V208.5C184.568 207.764 184.434 207.209 184.167 206.835C183.901 206.462 183.495 206.275 182.951 206.275C182.599 206.275 182.289 206.366 182.023 206.547C181.756 206.729 181.548 206.99 181.398 207.332C181.26 207.673 181.19 208.084 181.19 208.564V213.558H179.574V208.564C179.574 207.838 179.451 207.278 179.205 206.883C178.971 206.478 178.565 206.275 177.989 206.275C177.626 206.275 177.311 206.366 177.044 206.547C176.788 206.729 176.586 206.995 176.436 207.348C176.287 207.689 176.212 208.095 176.212 208.564V213.558H174.515ZM188.22 213.558V205.043H189.773L189.821 207.156L189.629 207.091C189.725 206.622 189.89 206.222 190.125 205.891C190.371 205.56 190.669 205.304 191.022 205.123C191.374 204.941 191.758 204.851 192.174 204.851C192.9 204.851 193.492 205.059 193.951 205.475C194.41 205.88 194.698 206.441 194.815 207.156H194.543C194.639 206.654 194.799 206.238 195.023 205.907C195.258 205.566 195.557 205.304 195.92 205.123C196.282 204.941 196.693 204.851 197.152 204.851C197.75 204.851 198.257 204.979 198.673 205.235C199.1 205.48 199.42 205.843 199.633 206.323C199.857 206.803 199.969 207.39 199.969 208.084V213.558H198.273V208.5C198.273 207.764 198.139 207.209 197.872 206.835C197.606 206.462 197.2 206.275 196.656 206.275C196.304 206.275 195.994 206.366 195.728 206.547C195.461 206.729 195.253 206.99 195.103 207.332C194.965 207.673 194.895 208.084 194.895 208.564V213.558H193.279V208.564C193.279 207.838 193.156 207.278 192.91 206.883C192.676 206.478 192.27 206.275 191.694 206.275C191.331 206.275 191.016 206.366 190.75 206.547C190.493 206.729 190.291 206.995 190.141 207.348C189.992 207.689 189.917 208.095 189.917 208.564V213.558H188.22ZM205.54 213.75C204.708 213.75 203.988 213.569 203.379 213.206C202.782 212.843 202.318 212.326 201.987 211.653C201.667 210.981 201.507 210.197 201.507 209.3C201.507 208.404 201.667 207.625 201.987 206.963C202.318 206.291 202.782 205.774 203.379 205.411C203.977 205.037 204.681 204.851 205.492 204.851C206.261 204.851 206.938 205.032 207.525 205.395C208.112 205.747 208.566 206.259 208.886 206.931C209.217 207.604 209.382 208.415 209.382 209.364V209.797H203.267C203.31 210.629 203.529 211.253 203.924 211.669C204.329 212.086 204.873 212.294 205.556 212.294C206.058 212.294 206.474 212.176 206.805 211.942C207.136 211.707 207.365 211.392 207.493 210.997L209.254 211.109C209.03 211.899 208.587 212.539 207.925 213.03C207.274 213.51 206.479 213.75 205.54 213.75ZM203.267 208.516H207.589C207.536 207.758 207.317 207.198 206.933 206.835C206.559 206.473 206.079 206.291 205.492 206.291C204.884 206.291 204.383 206.483 203.988 206.867C203.604 207.241 203.363 207.79 203.267 208.516ZM210.941 213.558V205.043H212.494L212.558 207.316L212.35 207.204C212.446 206.649 212.627 206.2 212.894 205.859C213.161 205.518 213.486 205.267 213.87 205.107C214.254 204.936 214.671 204.851 215.119 204.851C215.759 204.851 216.287 204.995 216.704 205.283C217.13 205.56 217.45 205.944 217.664 206.435C217.888 206.915 218 207.465 218 208.084V213.558H216.303V208.596C216.303 208.095 216.25 207.673 216.143 207.332C216.037 206.99 215.86 206.729 215.615 206.547C215.37 206.366 215.049 206.275 214.655 206.275C214.057 206.275 213.572 206.473 213.198 206.867C212.825 207.262 212.638 207.838 212.638 208.596V213.558H210.941ZM223.076 213.75C222.35 213.75 221.715 213.569 221.171 213.206C220.637 212.843 220.227 212.331 219.938 211.669C219.661 210.997 219.522 210.207 219.522 209.3C219.522 208.393 219.666 207.609 219.954 206.947C220.243 206.275 220.653 205.758 221.187 205.395C221.721 205.032 222.35 204.851 223.076 204.851C223.663 204.851 224.186 204.973 224.644 205.219C225.103 205.464 225.45 205.806 225.685 206.243V202.193H227.382V213.558H225.797L225.749 212.278C225.514 212.736 225.157 213.099 224.676 213.366C224.207 213.622 223.673 213.75 223.076 213.75ZM223.524 212.278C223.983 212.278 224.372 212.16 224.692 211.925C225.013 211.691 225.258 211.349 225.429 210.901C225.599 210.453 225.685 209.919 225.685 209.3C225.685 208.66 225.599 208.121 225.429 207.684C225.258 207.236 225.013 206.899 224.692 206.675C224.372 206.441 223.983 206.323 223.524 206.323C222.841 206.323 222.297 206.59 221.891 207.124C221.486 207.646 221.283 208.372 221.283 209.3C221.283 210.218 221.486 210.944 221.891 211.477C222.297 212.011 222.841 212.278 223.524 212.278ZM231.858 213.75C230.972 213.75 230.262 213.548 229.729 213.142C229.206 212.736 228.944 212.166 228.944 211.429C228.944 210.693 229.163 210.122 229.601 209.717C230.049 209.3 230.737 209.002 231.665 208.82L234.595 208.26C234.595 207.598 234.44 207.108 234.13 206.787C233.821 206.457 233.362 206.291 232.754 206.291C232.21 206.291 231.783 206.414 231.473 206.659C231.164 206.894 230.951 207.246 230.833 207.716L229.088 207.604C229.248 206.75 229.643 206.078 230.273 205.587C230.913 205.096 231.74 204.851 232.754 204.851C233.906 204.851 234.781 205.16 235.379 205.779C235.987 206.387 236.291 207.246 236.291 208.356V211.669C236.291 211.872 236.323 212.016 236.387 212.102C236.462 212.176 236.58 212.214 236.74 212.214H237.044V213.558C236.99 213.569 236.905 213.58 236.788 213.59C236.67 213.601 236.547 213.606 236.419 213.606C236.057 213.606 235.742 213.548 235.475 213.43C235.219 213.313 235.027 213.121 234.899 212.854C234.771 212.576 234.707 212.208 234.707 211.749L234.883 211.829C234.797 212.203 234.611 212.534 234.323 212.822C234.045 213.11 233.688 213.339 233.25 213.51C232.823 213.67 232.359 213.75 231.858 213.75ZM232.13 212.406C232.642 212.406 233.079 212.31 233.442 212.118C233.805 211.915 234.088 211.637 234.291 211.285C234.493 210.933 234.595 210.533 234.595 210.085V209.541L232.098 210.021C231.585 210.117 231.223 210.271 231.009 210.485C230.806 210.688 230.705 210.949 230.705 211.269C230.705 211.632 230.828 211.915 231.073 212.118C231.329 212.31 231.681 212.406 232.13 212.406ZM241.144 213.558C240.333 213.558 239.735 213.371 239.351 212.998C238.967 212.624 238.775 212.043 238.775 211.253V203.042H240.472V211.125C240.472 211.52 240.557 211.792 240.728 211.942C240.898 212.091 241.16 212.166 241.512 212.166H242.729V213.558H241.144ZM237.478 206.435V205.043H242.729V206.435H237.478ZM244.19 213.558V205.043H245.887V213.558H244.19ZM244.158 203.81V202.113H245.919V203.81H244.158ZM251.474 213.75C250.663 213.75 249.954 213.569 249.346 213.206C248.737 212.843 248.268 212.326 247.937 211.653C247.606 210.981 247.441 210.197 247.441 209.3C247.441 208.393 247.606 207.609 247.937 206.947C248.268 206.286 248.737 205.774 249.346 205.411C249.954 205.037 250.663 204.851 251.474 204.851C252.285 204.851 252.995 205.037 253.603 205.411C254.212 205.774 254.681 206.286 255.012 206.947C255.343 207.609 255.508 208.393 255.508 209.3C255.508 210.197 255.343 210.981 255.012 211.653C254.681 212.326 254.212 212.843 253.603 213.206C252.995 213.569 252.285 213.75 251.474 213.75ZM251.474 212.278C252.2 212.278 252.76 212.016 253.155 211.493C253.55 210.96 253.747 210.229 253.747 209.3C253.747 208.372 253.55 207.646 253.155 207.124C252.76 206.59 252.2 206.323 251.474 206.323C250.759 206.323 250.199 206.59 249.794 207.124C249.399 207.646 249.201 208.372 249.201 209.3C249.201 210.229 249.399 210.96 249.794 211.493C250.199 212.016 250.759 212.278 251.474 212.278ZM257.063 213.558V205.043H258.615L258.679 207.316L258.471 207.204C258.567 206.649 258.749 206.2 259.016 205.859C259.282 205.518 259.608 205.267 259.992 205.107C260.376 204.936 260.792 204.851 261.24 204.851C261.881 204.851 262.409 204.995 262.825 205.283C263.252 205.56 263.572 205.944 263.786 206.435C264.01 206.915 264.122 207.465 264.122 208.084V213.558H262.425V208.596C262.425 208.095 262.372 207.673 262.265 207.332C262.158 206.99 261.982 206.729 261.737 206.547C261.491 206.366 261.171 206.275 260.776 206.275C260.179 206.275 259.693 206.473 259.32 206.867C258.946 207.262 258.759 207.838 258.759 208.596V213.558H257.063ZM269.453 213.75C268.653 213.75 267.976 213.628 267.421 213.382C266.876 213.137 266.455 212.801 266.156 212.374C265.857 211.936 265.687 211.435 265.644 210.869L267.389 210.789C267.474 211.259 267.677 211.632 267.997 211.909C268.317 212.187 268.803 212.326 269.453 212.326C269.987 212.326 270.409 212.24 270.718 212.07C271.027 211.899 271.182 211.627 271.182 211.253C271.182 211.05 271.129 210.88 271.022 210.741C270.926 210.592 270.734 210.469 270.446 210.373C270.158 210.266 269.731 210.165 269.165 210.069C268.322 209.909 267.661 209.722 267.181 209.508C266.7 209.295 266.359 209.023 266.156 208.692C265.953 208.361 265.852 207.961 265.852 207.492C265.852 206.713 266.14 206.078 266.716 205.587C267.303 205.096 268.146 204.851 269.245 204.851C269.982 204.851 270.601 204.979 271.102 205.235C271.604 205.48 271.993 205.816 272.271 206.243C272.559 206.659 272.74 207.129 272.815 207.652L271.07 207.748C271.017 207.449 270.91 207.193 270.75 206.979C270.601 206.755 270.398 206.585 270.142 206.467C269.886 206.339 269.582 206.275 269.229 206.275C268.685 206.275 268.28 206.382 268.013 206.595C267.746 206.809 267.613 207.086 267.613 207.428C267.613 207.684 267.671 207.892 267.789 208.052C267.917 208.212 268.12 208.345 268.397 208.452C268.674 208.548 269.043 208.633 269.502 208.708C270.387 208.858 271.081 209.044 271.582 209.268C272.084 209.482 272.436 209.749 272.639 210.069C272.842 210.389 272.943 210.778 272.943 211.237C272.943 211.771 272.794 212.224 272.495 212.598C272.196 212.971 271.785 213.259 271.262 213.462C270.739 213.654 270.136 213.75 269.453 213.75Z" fill="#222222"/>
</g>
<g filter="url(#filter3_ddd_4_928)">
<rect x="41.6723" y="244.361" width="246.072" height="70.4092" rx="35.19" fill="white"/>
</g>
<defs>
<filter id="filter0_ddd_4_928" x="9.64401" y="0" width="310.128" height="133.435" filterUnits="userSpaceOnUse" color-interpolation-filters="sRGB">
<feFlood flood-opacity="0" result="BackgroundImageFix"/>
<feColorMatrix in="SourceAlpha" type="matrix" values="0 0 0 0 0 0 0 0 0 0 0 0 0 0 0 0 0 0 127 0" result="hardAlpha"/>
<feMorphology radius="2.5" operator="erode" in="SourceAlpha" result="effect1_dropShadow_4_928"/>
<feOffset dy="10"/>
<feGaussianBlur stdDeviation="17"/>
<feComposite in2="hardAlpha" operator="out"/>
<feColorMatrix type="matrix" values="0 0 0 0 0 0 0 0 0 0 0 0 0 0 0 0 0 0 0.024 0"/>
<feBlend mode="normal" in2="BackgroundImageFix" result="effect1_dropShadow_4_928"/>
<feColorMatrix in="SourceAlpha" type="matrix" values="0 0 0 0 0 0 0 0 0 0 0 0 0 0 0 0 0 0 127 0" result="hardAlpha"/>
<feMorphology radius="1.66667" operator="erode" in="SourceAlpha" result="effect2_dropShadow_4_928"/>
<feOffset dy="2.28853"/>
<feGaussianBlur stdDeviation="3.89051"/>
<feComposite in2="hardAlpha" operator="out"/>
<feColorMatrix type="matrix" values="0 0 0 0 0 0 0 0 0 0 0 0 0 0 0 0 0 0 0.024 0"/>
<feBlend mode="normal" in2="effect1_dropShadow_4_928" result="effect2_dropShadow_4_928"/>
<feColorMatrix in="SourceAlpha" type="matrix" values="0 0 0 0 0 0 0 0 0 0 0 0 0 0 0 0 0 0 127 0" result="hardAlpha"/>
<feMorphology radius="0.833333" operator="erode" in="SourceAlpha" result="effect3_dropShadow_4_928"/>
<feOffset dy="0.602187"/>
<feGaussianBlur stdDeviation="1.02372"/>
<feComposite in2="hardAlpha" operator="out"/>
<feColorMatrix type="matrix" values="0 0 0 0 0 0 0 0 0 0 0 0 0 0 0 0 0 0 0.03 0"/>
<feBlend mode="normal" in2="effect2_dropShadow_4_928" result="effect3_dropShadow_4_928"/>
<feBlend mode="normal" in="SourceGraphic" in2="effect3_dropShadow_4_928" result="shape"/>
</filter>
<filter id="filter1_ddd_4_928" x="16.6469" y="80.4132" width="296.123" height="115.048" filterUnits="userSpaceOnUse" color-interpolation-filters="sRGB">
<feFlood flood-opacity="0" result="BackgroundImageFix"/>
<feColorMatrix in="SourceAlpha" type="matrix" values="0 0 0 0 0 0 0 0 0 0 0 0 0 0 0 0 0 0 127 0" result="hardAlpha"/>
<feMorphology radius="2.5" operator="erode" in="SourceAlpha" result="effect1_dropShadow_4_928"/>
<feOffset dy="10"/>
<feGaussianBlur stdDeviation="17"/>
<feComposite in2="hardAlpha" operator="out"/>
<feColorMatrix type="matrix" values="0 0 0 0 0 0 0 0 0 0 0 0 0 0 0 0 0 0 0.024 0"/>
<feBlend mode="normal" in2="BackgroundImageFix" result="effect1_dropShadow_4_928"/>
<feColorMatrix in="SourceAlpha" type="matrix" values="0 0 0 0 0 0 0 0 0 0 0 0 0 0 0 0 0 0 127 0" result="hardAlpha"/>
<feMorphology radius="1.66667" operator="erode" in="SourceAlpha" result="effect2_dropShadow_4_928"/>
<feOffset dy="2.28853"/>
<feGaussianBlur stdDeviation="3.89051"/>
<feComposite in2="hardAlpha" operator="out"/>
<feColorMatrix type="matrix" values="0 0 0 0 0 0 0 0 0 0 0 0 0 0 0 0 0 0 0.024 0"/>
<feBlend mode="normal" in2="effect1_dropShadow_4_928" result="effect2_dropShadow_4_928"/>
<feColorMatrix in="SourceAlpha" type="matrix" values="0 0 0 0 0 0 0 0 0 0 0 0 0 0 0 0 0 0 127 0" result="hardAlpha"/>
<feMorphology radius="0.833333" operator="erode" in="SourceAlpha" result="effect3_dropShadow_4_928"/>
<feOffset dy="0.602187"/>
<feGaussianBlur stdDeviation="1.02372"/>
<feComposite in2="hardAlpha" operator="out"/>
<feColorMatrix type="matrix" values="0 0 0 0 0 0 0 0 0 0 0 0 0 0 0 0 0 0 0.03 0"/>
<feBlend mode="normal" in2="effect2_dropShadow_4_928" result="effect3_dropShadow_4_928"/>
<feBlend mode="normal" in="SourceGraphic" in2="effect3_dropShadow_4_928" result="shape"/>
</filter>
<filter id="filter2_ddd_4_928" x="0.140073" y="142.439" width="329.136" height="133.435" filterUnits="userSpaceOnUse" color-interpolation-filters="sRGB">
<feFlood flood-opacity="0" result="BackgroundImageFix"/>
<feColorMatrix in="SourceAlpha" type="matrix" values="0 0 0 0 0 0 0 0 0 0 0 0 0 0 0 0 0 0 127 0" result="hardAlpha"/>
<feMorphology radius="2.5" operator="erode" in="SourceAlpha" result="effect1_dropShadow_4_928"/>
<feOffset dy="10"/>
<feGaussianBlur stdDeviation="17"/>
<feComposite in2="hardAlpha" operator="out"/>
<feColorMatrix type="matrix" values="0 0 0 0 0 0 0 0 0 0 0 0 0 0 0 0 0 0 0.024 0"/>
<feBlend mode="normal" in2="BackgroundImageFix" result="effect1_dropShadow_4_928"/>
<feColorMatrix in="SourceAlpha" type="matrix" values="0 0 0 0 0 0 0 0 0 0 0 0 0 0 0 0 0 0 127 0" result="hardAlpha"/>
<feMorphology radius="1.66667" operator="erode" in="SourceAlpha" result="effect2_dropShadow_4_928"/>
<feOffset dy="2.28853"/>
<feGaussianBlur stdDeviation="3.89051"/>
<feComposite in2="hardAlpha" operator="out"/>
<feColorMatrix type="matrix" values="0 0 0 0 0 0 0 0 0 0 0 0 0 0 0 0 0 0 0.024 0"/>
<feBlend mode="normal" in2="effect1_dropShadow_4_928" result="effect2_dropShadow_4_928"/>
<feColorMatrix in="SourceAlpha" type="matrix" values="0 0 0 0 0 0 0 0 0 0 0 0 0 0 0 0 0 0 127 0" result="hardAlpha"/>
<feMorphology radius="0.833333" operator="erode" in="SourceAlpha" result="effect3_dropShadow_4_928"/>
<feOffset dy="0.602187"/>
<feGaussianBlur stdDeviation="1.02372"/>
<feComposite in2="hardAlpha" operator="out"/>
<feColorMatrix type="matrix" values="0 0 0 0 0 0 0 0 0 0 0 0 0 0 0 0 0 0 0.03 0"/>
<feBlend mode="normal" in2="effect2_dropShadow_4_928" result="effect3_dropShadow_4_928"/>
<feBlend mode="normal" in="SourceGraphic" in2="effect3_dropShadow_4_928" result="shape"/>
</filter>
<filter id="filter3_ddd_4_928" x="10.1592" y="222.852" width="309.098" height="133.435" filterUnits="userSpaceOnUse" color-interpolation-filters="sRGB">
<feFlood flood-opacity="0" result="BackgroundImageFix"/>
<feColorMatrix in="SourceAlpha" type="matrix" values="0 0 0 0 0 0 0 0 0 0 0 0 0 0 0 0 0 0 127 0" result="hardAlpha"/>
<feMorphology radius="2.5" operator="erode" in="SourceAlpha" result="effect1_dropShadow_4_928"/>
<feOffset dy="10"/>
<feGaussianBlur stdDeviation="17"/>
<feComposite in2="hardAlpha" operator="out"/>
<feColorMatrix type="matrix" values="0 0 0 0 0 0 0 0 0 0 0 0 0 0 0 0 0 0 0.024 0"/>
<feBlend mode="normal" in2="BackgroundImageFix" result="effect1_dropShadow_4_928"/>
<feColorMatrix in="SourceAlpha" type="matrix" values="0 0 0 0 0 0 0 0 0 0 0 0 0 0 0 0 0 0 127 0" result="hardAlpha"/>
<feMorphology radius="1.66667" operator="erode" in="SourceAlpha" result="effect2_dropShadow_4_928"/>
<feOffset dy="2.28853"/>
<feGaussianBlur stdDeviation="3.89051"/>
<feComposite in2="hardAlpha" operator="out"/>
<feColorMatrix type="matrix" values="0 0 0 0 0 0 0 0 0 0 0 0 0 0 0 0 0 0 0.024 0"/>
<feBlend mode="normal" in2="effect1_dropShadow_4_928" result="effect2_dropShadow_4_928"/>
<feColorMatrix in="SourceAlpha" type="matrix" values="0 0 0 0 0 0 0 0 0 0 0 0 0 0 0 0 0 0 127 0" result="hardAlpha"/>
<feMorphology radius="0.833333" operator="erode" in="SourceAlpha" result="effect3_dropShadow_4_928"/>
<feOffset dy="0.602187"/>
<feGaussianBlur stdDeviation="1.02372"/>
<feComposite in2="hardAlpha" operator="out"/>
<feColorMatrix type="matrix" values="0 0 0 0 0 0 0 0 0 0 0 0 0 0 0 0 0 0 0.03 0"/>
<feBlend mode="normal" in2="effect2_dropShadow_4_928" result="effect3_dropShadow_4_928"/>
<feBlend mode="normal" in="SourceGraphic" in2="effect3_dropShadow_4_928" result="shape"/>
</filter>
</defs>
</svg>
