<svg width="368" height="668" viewBox="0 0 368 668" fill="none" xmlns="http://www.w3.org/2000/svg">
<g filter="url(#filter0_ddd_4_665)">
<rect x="52.5" y="21.5" width="263" height="52" rx="26" fill="white"/>
<path d="M97.1975 47.5828L90.75 46.0938L88.375 42.0609C88.2344 41.8221 87.9799 41.616 87.646 41.4705C87.312 41.3249 86.9147 41.2468 86.5075 41.2468C86.1004 41.2468 85.703 41.3249 85.3691 41.4705C85.0351 41.616 84.7807 41.8221 84.64 42.0609L82.25 46.0938L75.7975 47.5781C75.4154 47.666 75.0857 47.8251 74.8527 48.0338C74.6198 48.2425 74.4949 48.4908 74.4949 48.7453C74.4949 48.9998 74.6198 49.2481 74.8527 49.4568C75.0857 49.6656 75.4154 49.8246 75.7975 49.9125L82.25 51.4062L84.625 55.4391C84.7657 55.6779 85.0201 55.884 85.3541 56.0295C85.688 56.1751 86.0854 56.2532 86.4925 56.2532C86.8997 56.2532 87.297 56.1751 87.631 56.0295C87.9649 55.884 88.2194 55.6779 88.36 55.4391L90.75 51.4062L97.2025 49.9219C97.5846 49.834 97.9144 49.6749 98.1473 49.4662C98.3802 49.2575 98.5051 49.0092 98.5051 48.7547C98.5051 48.5002 98.3802 48.2519 98.1473 48.0432C97.9144 47.8344 97.5846 47.6754 97.2025 47.5875L97.1975 47.5828ZM89.625 50.3297C89.4893 50.361 89.366 50.4103 89.2637 50.4742C89.1614 50.5381 89.0825 50.6152 89.0325 50.7L86.5 54.9883L83.9725 50.7031C83.9226 50.6174 83.8432 50.5395 83.74 50.475C83.6368 50.4105 83.5122 50.3609 83.375 50.3297L76.5188 48.75L83.375 47.1703C83.5122 47.1391 83.6368 47.0895 83.74 47.025C83.8432 46.9605 83.9226 46.8826 83.9725 46.7969L86.5 42.5117L89.0275 46.7969C89.0775 46.8817 89.1564 46.9588 89.2587 47.0227C89.361 47.0866 89.4843 47.1359 89.62 47.1672L96.4813 48.75L89.625 50.3297ZM90.5 40.625C90.5 40.4592 90.6054 40.3003 90.7929 40.1831C90.9804 40.0658 91.2348 40 91.5 40H93.5V38.75C93.5 38.5842 93.6054 38.4253 93.7929 38.3081C93.9804 38.1908 94.2348 38.125 94.5 38.125C94.7652 38.125 95.0196 38.1908 95.2071 38.3081C95.3947 38.4253 95.5 38.5842 95.5 38.75V40H97.5C97.7652 40 98.0196 40.0658 98.2071 40.1831C98.3947 40.3003 98.5 40.4592 98.5 40.625C98.5 40.7908 98.3947 40.9497 98.2071 41.0669C98.0196 41.1842 97.7652 41.25 97.5 41.25H95.5V42.5C95.5 42.6658 95.3947 42.8247 95.2071 42.9419C95.0196 43.0592 94.7652 43.125 94.5 43.125C94.2348 43.125 93.9804 43.0592 93.7929 42.9419C93.6054 42.8247 93.5 42.6658 93.5 42.5V41.25H91.5C91.2348 41.25 90.9804 41.1842 90.7929 41.0669C90.6054 40.9497 90.5 40.7908 90.5 40.625ZM103.5 44.375C103.5 44.5408 103.395 44.6997 103.207 44.8169C103.02 44.9342 102.765 45 102.5 45H101.5V45.625C101.5 45.7908 101.395 45.9497 101.207 46.0669C101.02 46.1842 100.765 46.25 100.5 46.25C100.235 46.25 99.9804 46.1842 99.7929 46.0669C99.6054 45.9497 99.5 45.7908 99.5 45.625V45H98.5C98.2348 45 97.9804 44.9342 97.7929 44.8169C97.6054 44.6997 97.5 44.5408 97.5 44.375C97.5 44.2092 97.6054 44.0503 97.7929 43.9331C97.9804 43.8158 98.2348 43.75 98.5 43.75H99.5V43.125C99.5 42.9592 99.6054 42.8003 99.7929 42.6831C99.9804 42.5658 100.235 42.5 100.5 42.5C100.765 42.5 101.02 42.5658 101.207 42.6831C101.395 42.8003 101.5 42.9592 101.5 43.125V43.75H102.5C102.765 43.75 103.02 43.8158 103.207 43.9331C103.395 44.0503 103.5 44.2092 103.5 44.375Z" fill="black"/>
<path d="M112.82 52.5L116.916 41.14H119.108L123.204 52.5H121.364L120.324 49.54H115.684L114.66 52.5H112.82ZM116.228 47.972H119.796L118.004 42.788L116.228 47.972ZM124.404 52.5V41.14H126.132V52.5H124.404ZM128.024 48.58V47.092H133.384V48.58H128.024ZM135.255 52.5V41.14H139.495C140.797 41.14 141.81 41.4547 142.535 42.084C143.261 42.7027 143.623 43.5667 143.623 44.676C143.623 45.412 143.458 46.052 143.127 46.596C142.797 47.1293 142.322 47.54 141.703 47.828C141.095 48.1053 140.359 48.244 139.495 48.244H136.983V52.5H135.255ZM136.983 46.676H139.447C140.226 46.676 140.818 46.5107 141.223 46.18C141.629 45.8387 141.831 45.3373 141.831 44.676C141.831 44.0253 141.629 43.54 141.223 43.22C140.818 42.8893 140.226 42.724 139.447 42.724H136.983V46.676ZM148.486 52.692C147.675 52.692 146.966 52.5107 146.358 52.148C145.75 51.7853 145.281 51.268 144.95 50.596C144.619 49.924 144.454 49.14 144.454 48.244C144.454 47.3373 144.619 46.5533 144.95 45.892C145.281 45.2307 145.75 44.7187 146.358 44.356C146.966 43.9827 147.675 43.796 148.486 43.796C149.297 43.796 150.006 43.9827 150.614 44.356C151.222 44.7187 151.691 45.2307 152.022 45.892C152.353 46.5533 152.518 47.3373 152.518 48.244C152.518 49.14 152.353 49.924 152.022 50.596C151.691 51.268 151.222 51.7853 150.614 52.148C150.006 52.5107 149.297 52.692 148.486 52.692ZM148.486 51.22C149.211 51.22 149.771 50.9587 150.166 50.436C150.561 49.9027 150.758 49.172 150.758 48.244C150.758 47.316 150.561 46.5907 150.166 46.068C149.771 45.5347 149.211 45.268 148.486 45.268C147.771 45.268 147.211 45.5347 146.806 46.068C146.411 46.5907 146.214 47.316 146.214 48.244C146.214 49.172 146.411 49.9027 146.806 50.436C147.211 50.9587 147.771 51.22 148.486 51.22ZM155.55 52.5L152.958 43.988H154.734L156.558 50.644L158.43 43.988H160.03L161.902 50.644L163.742 43.988H165.518L162.926 52.5H161.022L159.23 46.42L157.438 52.5H155.55ZM169.978 52.692C169.146 52.692 168.426 52.5107 167.818 52.148C167.221 51.7853 166.757 51.268 166.426 50.596C166.106 49.924 165.946 49.14 165.946 48.244C165.946 47.348 166.106 46.5693 166.426 45.908C166.757 45.236 167.221 44.7187 167.818 44.356C168.416 43.9827 169.12 43.796 169.93 43.796C170.698 43.796 171.376 43.9773 171.962 44.34C172.549 44.692 173.002 45.204 173.322 45.876C173.653 46.548 173.818 47.3587 173.818 48.308V48.74H167.706C167.749 49.572 167.968 50.196 168.362 50.612C168.768 51.028 169.312 51.236 169.994 51.236C170.496 51.236 170.912 51.1187 171.242 50.884C171.573 50.6493 171.802 50.3347 171.93 49.94L173.69 50.052C173.466 50.8413 173.024 51.4813 172.362 51.972C171.712 52.452 170.917 52.692 169.978 52.692ZM167.706 47.46H172.026C171.973 46.7027 171.754 46.1427 171.37 45.78C170.997 45.4173 170.517 45.236 169.93 45.236C169.322 45.236 168.821 45.428 168.426 45.812C168.042 46.1853 167.802 46.7347 167.706 47.46ZM175.377 52.5V43.988H176.929L176.993 46.244L176.849 46.196C176.966 45.428 177.201 44.868 177.553 44.516C177.916 44.164 178.401 43.988 179.009 43.988H179.825V45.508H179.009C178.582 45.508 178.225 45.5773 177.937 45.716C177.649 45.8547 177.43 46.068 177.281 46.356C177.142 46.644 177.073 47.0173 177.073 47.476V52.5H175.377ZM184.377 52.692C183.545 52.692 182.825 52.5107 182.217 52.148C181.62 51.7853 181.156 51.268 180.825 50.596C180.505 49.924 180.345 49.14 180.345 48.244C180.345 47.348 180.505 46.5693 180.825 45.908C181.156 45.236 181.62 44.7187 182.217 44.356C182.814 43.9827 183.518 43.796 184.329 43.796C185.097 43.796 185.774 43.9773 186.361 44.34C186.948 44.692 187.401 45.204 187.721 45.876C188.052 46.548 188.217 47.3587 188.217 48.308V48.74H182.105C182.148 49.572 182.366 50.196 182.761 50.612C183.166 51.028 183.71 51.236 184.393 51.236C184.894 51.236 185.31 51.1187 185.641 50.884C185.972 50.6493 186.201 50.3347 186.329 49.94L188.089 50.052C187.865 50.8413 187.422 51.4813 186.761 51.972C186.11 52.452 185.316 52.692 184.377 52.692ZM182.105 47.46H186.425C186.372 46.7027 186.153 46.1427 185.769 45.78C185.396 45.4173 184.916 45.236 184.329 45.236C183.721 45.236 183.22 45.428 182.825 45.812C182.441 46.1853 182.201 46.7347 182.105 47.46ZM192.8 52.692C192.074 52.692 191.44 52.5107 190.896 52.148C190.362 51.7853 189.952 51.2733 189.664 50.612C189.386 49.94 189.248 49.1507 189.248 48.244C189.248 47.3373 189.392 46.5533 189.68 45.892C189.968 45.22 190.378 44.7027 190.912 44.34C191.445 43.9773 192.074 43.796 192.8 43.796C193.386 43.796 193.909 43.9187 194.368 44.164C194.826 44.4093 195.173 44.7507 195.408 45.188V41.14H197.104V52.5H195.52L195.472 51.22C195.237 51.6787 194.88 52.0413 194.4 52.308C193.93 52.564 193.397 52.692 192.8 52.692ZM193.248 51.22C193.706 51.22 194.096 51.1027 194.416 50.868C194.736 50.6333 194.981 50.292 195.152 49.844C195.322 49.396 195.408 48.8627 195.408 48.244C195.408 47.604 195.322 47.0653 195.152 46.628C194.981 46.18 194.736 45.844 194.416 45.62C194.096 45.3853 193.706 45.268 193.248 45.268C192.565 45.268 192.021 45.5347 191.616 46.068C191.21 46.5907 191.008 47.316 191.008 48.244C191.008 49.1613 191.21 49.8867 191.616 50.42C192.021 50.9533 192.565 51.22 193.248 51.22ZM203.257 52.5V41.14H210.649V42.724H204.985V46.036H210.457V47.572H204.985V50.916H210.777V52.5H203.257ZM212.671 52.5V43.988H214.223L214.287 46.26L214.079 46.148C214.175 45.5933 214.356 45.1453 214.623 44.804C214.889 44.4627 215.215 44.212 215.599 44.052C215.983 43.8813 216.399 43.796 216.847 43.796C217.487 43.796 218.015 43.94 218.431 44.228C218.857 44.5053 219.177 44.8893 219.391 45.38C219.615 45.86 219.727 46.4093 219.727 47.028V52.5H218.031V47.54C218.031 47.0387 217.977 46.6173 217.871 46.276C217.764 45.9347 217.588 45.6733 217.343 45.492C217.097 45.3107 216.777 45.22 216.383 45.22C215.785 45.22 215.3 45.4173 214.927 45.812C214.553 46.2067 214.367 46.7827 214.367 47.54V52.5H212.671ZM225.2 55.092C224.528 55.092 223.936 54.9907 223.424 54.788C222.912 54.5853 222.491 54.2973 222.16 53.924C221.83 53.5613 221.606 53.1347 221.488 52.644L223.248 52.532C223.366 52.884 223.568 53.1613 223.856 53.364C224.155 53.5773 224.603 53.684 225.2 53.684C225.904 53.684 226.443 53.5347 226.816 53.236C227.2 52.9373 227.392 52.484 227.392 51.876V50.644C227.19 51.0813 226.864 51.428 226.416 51.684C225.968 51.94 225.467 52.068 224.912 52.068C224.198 52.068 223.563 51.892 223.008 51.54C222.454 51.188 222.022 50.7027 221.712 50.084C221.403 49.4653 221.248 48.7507 221.248 47.94C221.248 47.1187 221.398 46.3987 221.696 45.78C222.006 45.1613 222.432 44.676 222.976 44.324C223.531 43.972 224.155 43.796 224.848 43.796C225.456 43.796 225.99 43.9347 226.448 44.212C226.918 44.4893 227.254 44.8627 227.456 45.332V43.988H229.088V51.828C229.088 52.532 228.928 53.124 228.608 53.604C228.299 54.0947 227.851 54.4627 227.264 54.708C226.688 54.964 226 55.092 225.2 55.092ZM225.184 50.628C225.846 50.628 226.374 50.388 226.768 49.908C227.174 49.428 227.382 48.7667 227.392 47.924C227.403 47.3693 227.318 46.8947 227.136 46.5C226.955 46.0947 226.694 45.7853 226.352 45.572C226.022 45.348 225.632 45.236 225.184 45.236C224.491 45.236 223.952 45.4813 223.568 45.972C223.195 46.452 223.008 47.1027 223.008 47.924C223.008 48.756 223.2 49.4173 223.584 49.908C223.979 50.388 224.512 50.628 225.184 50.628ZM233.719 52.692C232.834 52.692 232.124 52.4893 231.591 52.084C231.068 51.6787 230.807 51.108 230.807 50.372C230.807 49.636 231.026 49.0653 231.463 48.66C231.911 48.244 232.599 47.9453 233.527 47.764L236.455 47.204C236.455 46.5427 236.3 46.052 235.991 45.732C235.682 45.4013 235.223 45.236 234.615 45.236C234.071 45.236 233.644 45.3587 233.335 45.604C233.026 45.8387 232.812 46.1907 232.695 46.66L230.951 46.548C231.111 45.6947 231.506 45.0227 232.135 44.532C232.775 44.0413 233.602 43.796 234.615 43.796C235.767 43.796 236.642 44.1053 237.239 44.724C237.847 45.332 238.151 46.1907 238.151 47.3V50.612C238.151 50.8147 238.183 50.9587 238.247 51.044C238.322 51.1187 238.439 51.156 238.599 51.156H238.903V52.5C238.85 52.5107 238.764 52.5213 238.647 52.532C238.53 52.5427 238.407 52.548 238.279 52.548C237.916 52.548 237.602 52.4893 237.335 52.372C237.079 52.2547 236.887 52.0627 236.759 51.796C236.631 51.5187 236.567 51.1507 236.567 50.692L236.743 50.772C236.658 51.1453 236.471 51.476 236.183 51.764C235.906 52.052 235.548 52.2813 235.111 52.452C234.684 52.612 234.22 52.692 233.719 52.692ZM233.991 51.348C234.503 51.348 234.94 51.252 235.303 51.06C235.666 50.8573 235.948 50.58 236.151 50.228C236.354 49.876 236.455 49.476 236.455 49.028V48.484L233.959 48.964C233.447 49.06 233.084 49.2147 232.871 49.428C232.668 49.6307 232.567 49.892 232.567 50.212C232.567 50.5747 232.69 50.8573 232.935 51.06C233.191 51.252 233.543 51.348 233.991 51.348ZM243.536 55.092C242.864 55.092 242.272 54.9907 241.76 54.788C241.248 54.5853 240.827 54.2973 240.496 53.924C240.166 53.5613 239.942 53.1347 239.824 52.644L241.584 52.532C241.702 52.884 241.904 53.1613 242.192 53.364C242.491 53.5773 242.939 53.684 243.536 53.684C244.24 53.684 244.779 53.5347 245.152 53.236C245.536 52.9373 245.728 52.484 245.728 51.876V50.644C245.526 51.0813 245.2 51.428 244.752 51.684C244.304 51.94 243.803 52.068 243.248 52.068C242.534 52.068 241.899 51.892 241.344 51.54C240.79 51.188 240.358 50.7027 240.048 50.084C239.739 49.4653 239.584 48.7507 239.584 47.94C239.584 47.1187 239.734 46.3987 240.032 45.78C240.342 45.1613 240.768 44.676 241.312 44.324C241.867 43.972 242.491 43.796 243.184 43.796C243.792 43.796 244.326 43.9347 244.784 44.212C245.254 44.4893 245.59 44.8627 245.792 45.332V43.988H247.424V51.828C247.424 52.532 247.264 53.124 246.944 53.604C246.635 54.0947 246.187 54.4627 245.6 54.708C245.024 54.964 244.336 55.092 243.536 55.092ZM243.52 50.628C244.182 50.628 244.71 50.388 245.104 49.908C245.51 49.428 245.718 48.7667 245.728 47.924C245.739 47.3693 245.654 46.8947 245.472 46.5C245.291 46.0947 245.03 45.7853 244.688 45.572C244.358 45.348 243.968 45.236 243.52 45.236C242.827 45.236 242.288 45.4813 241.904 45.972C241.531 46.452 241.344 47.1027 241.344 47.924C241.344 48.756 241.536 49.4173 241.92 49.908C242.315 50.388 242.848 50.628 243.52 50.628ZM253.019 52.692C252.187 52.692 251.467 52.5107 250.859 52.148C250.262 51.7853 249.798 51.268 249.467 50.596C249.147 49.924 248.987 49.14 248.987 48.244C248.987 47.348 249.147 46.5693 249.467 45.908C249.798 45.236 250.262 44.7187 250.859 44.356C251.456 43.9827 252.16 43.796 252.971 43.796C253.739 43.796 254.416 43.9773 255.003 44.34C255.59 44.692 256.043 45.204 256.363 45.876C256.694 46.548 256.859 47.3587 256.859 48.308V48.74H250.747C250.79 49.572 251.008 50.196 251.403 50.612C251.808 51.028 252.352 51.236 253.035 51.236C253.536 51.236 253.952 51.1187 254.283 50.884C254.614 50.6493 254.843 50.3347 254.971 49.94L256.731 50.052C256.507 50.8413 256.064 51.4813 255.403 51.972C254.752 52.452 253.958 52.692 253.019 52.692ZM250.747 47.46H255.067C255.014 46.7027 254.795 46.1427 254.411 45.78C254.038 45.4173 253.558 45.236 252.971 45.236C252.363 45.236 251.862 45.428 251.467 45.812C251.083 46.1853 250.843 46.7347 250.747 47.46ZM258.417 52.5V43.988H259.969L260.017 46.1L259.825 46.036C259.921 45.5667 260.087 45.1667 260.321 44.836C260.567 44.5053 260.865 44.2493 261.217 44.068C261.569 43.8867 261.953 43.796 262.369 43.796C263.095 43.796 263.687 44.004 264.145 44.42C264.604 44.8253 264.892 45.3853 265.009 46.1H264.737C264.833 45.5987 264.993 45.1827 265.217 44.852C265.452 44.5107 265.751 44.2493 266.113 44.068C266.476 43.8867 266.887 43.796 267.345 43.796C267.943 43.796 268.449 43.924 268.865 44.18C269.292 44.4253 269.612 44.788 269.825 45.268C270.049 45.748 270.161 46.3347 270.161 47.028V52.5H268.465V47.444C268.465 46.708 268.332 46.1533 268.065 45.78C267.799 45.4067 267.393 45.22 266.849 45.22C266.497 45.22 266.188 45.3107 265.921 45.492C265.655 45.6733 265.447 45.9347 265.297 46.276C265.159 46.6173 265.089 47.028 265.089 47.508V52.5H263.473V47.508C263.473 46.7827 263.351 46.2227 263.105 45.828C262.871 45.4227 262.465 45.22 261.889 45.22C261.527 45.22 261.212 45.3107 260.945 45.492C260.689 45.6733 260.487 45.94 260.337 46.292C260.188 46.6333 260.113 47.0387 260.113 47.508V52.5H258.417ZM275.73 52.692C274.898 52.692 274.178 52.5107 273.57 52.148C272.973 51.7853 272.509 51.268 272.178 50.596C271.858 49.924 271.698 49.14 271.698 48.244C271.698 47.348 271.858 46.5693 272.178 45.908C272.509 45.236 272.973 44.7187 273.57 44.356C274.168 43.9827 274.872 43.796 275.682 43.796C276.45 43.796 277.128 43.9773 277.714 44.34C278.301 44.692 278.754 45.204 279.074 45.876C279.405 46.548 279.57 47.3587 279.57 48.308V48.74H273.458C273.501 49.572 273.72 50.196 274.114 50.612C274.52 51.028 275.064 51.236 275.746 51.236C276.248 51.236 276.664 51.1187 276.994 50.884C277.325 50.6493 277.554 50.3347 277.682 49.94L279.442 50.052C279.218 50.8413 278.776 51.4813 278.114 51.972C277.464 52.452 276.669 52.692 275.73 52.692ZM273.458 47.46H277.778C277.725 46.7027 277.506 46.1427 277.122 45.78C276.749 45.4173 276.269 45.236 275.682 45.236C275.074 45.236 274.573 45.428 274.178 45.812C273.794 46.1853 273.554 46.7347 273.458 47.46ZM281.129 52.5V43.988H282.681L282.745 46.26L282.537 46.148C282.633 45.5933 282.814 45.1453 283.081 44.804C283.347 44.4627 283.673 44.212 284.057 44.052C284.441 43.8813 284.857 43.796 285.305 43.796C285.945 43.796 286.473 43.94 286.889 44.228C287.315 44.5053 287.635 44.8893 287.849 45.38C288.073 45.86 288.185 46.4093 288.185 47.028V52.5H286.489V47.54C286.489 47.0387 286.435 46.6173 286.329 46.276C286.222 45.9347 286.046 45.6733 285.801 45.492C285.555 45.3107 285.235 45.22 284.841 45.22C284.243 45.22 283.758 45.4173 283.385 45.812C283.011 46.2067 282.825 46.7827 282.825 47.54V52.5H281.129ZM293.077 52.5C292.266 52.5 291.669 52.3133 291.285 51.94C290.901 51.5667 290.709 50.9853 290.709 50.196V41.988H292.405V50.068C292.405 50.4627 292.49 50.7347 292.661 50.884C292.831 51.0333 293.093 51.108 293.445 51.108H294.661V52.5H293.077ZM289.413 45.38V43.988H294.661V45.38H289.413Z" fill="#222222"/>
</g>
<g filter="url(#filter1_ddd_4_665)">
<rect x="31.5" y="83.5" width="305" height="52" rx="26" fill="white"/>
<g clip-path="url(#clip0_4_665)">
<path d="M83.2075 109.942L80.2075 111.817C80.1146 111.875 80.0043 111.921 79.8829 111.953C79.7615 111.984 79.6314 112 79.5 112C79.3686 112 79.2385 111.984 79.1171 111.953C78.9957 111.921 78.8854 111.875 78.7925 111.817L75.7925 109.942C75.6049 109.825 75.4995 109.666 75.4995 109.5C75.4995 109.334 75.6049 109.175 75.7925 109.058C75.9801 108.941 76.2346 108.875 76.5 108.875C76.7654 108.875 77.0199 108.941 77.2075 109.058L78.5 109.866V109.5C78.5012 108.044 77.7629 106.626 76.3916 105.449C75.0204 104.272 73.0869 103.398 70.8696 102.952C68.6524 102.506 66.2659 102.512 64.0539 102.968C61.842 103.424 59.9187 104.307 58.5613 105.49C58.4064 105.625 58.1724 105.715 57.9105 105.742C57.6487 105.769 57.3805 105.73 57.165 105.633C56.9495 105.536 56.8044 105.39 56.7615 105.226C56.7186 105.062 56.7814 104.895 56.9363 104.76C58.5406 103.362 60.8136 102.318 63.4278 101.78C66.042 101.241 68.8624 101.234 71.4827 101.761C74.1031 102.288 76.3881 103.322 78.0086 104.712C79.6291 106.103 80.5015 107.78 80.5 109.5V109.866L81.7925 109.058C81.9801 108.941 82.2346 108.875 82.5 108.875C82.7654 108.875 83.0199 108.941 83.2075 109.058C83.3951 109.175 83.5006 109.334 83.5006 109.5C83.5006 109.666 83.3951 109.825 83.2075 109.942ZM78.06 114.239C76.4552 115.636 74.1825 116.679 71.5692 117.217C68.9558 117.755 66.1366 117.761 63.5173 117.235C60.898 116.708 58.6137 115.675 56.9933 114.285C55.3729 112.895 54.4999 111.22 54.5 109.5V109.134L53.2075 109.942C53.0199 110.059 52.7654 110.125 52.5 110.125C52.2346 110.125 51.9801 110.059 51.7925 109.942C51.6049 109.825 51.4995 109.666 51.4995 109.5C51.4995 109.334 51.6049 109.175 51.7925 109.058L54.7925 107.183C54.8854 107.125 54.9957 107.079 55.1171 107.047C55.2385 107.016 55.3686 106.999 55.5 106.999C55.6314 106.999 55.7615 107.016 55.8829 107.047C56.0043 107.079 56.1146 107.125 56.2075 107.183L59.2075 109.058C59.3951 109.175 59.5006 109.334 59.5006 109.5C59.5006 109.666 59.3951 109.825 59.2075 109.942C59.0199 110.059 58.7654 110.125 58.5 110.125C58.2346 110.125 57.9801 110.059 57.7925 109.942L56.5 109.134V109.5C56.4976 111.183 57.4873 112.807 59.28 114.063C60.3953 113.053 61.9635 112.272 63.7875 111.817C62.8077 111.335 62.0928 110.674 61.7421 109.926C61.3914 109.178 61.4224 108.38 61.8307 107.643C62.2391 106.907 63.0045 106.268 64.0206 105.816C65.0366 105.364 66.2528 105.121 67.5 105.121C68.7472 105.121 69.9634 105.364 70.9794 105.816C71.9955 106.268 72.7609 106.907 73.1693 107.643C73.5776 108.38 73.6086 109.178 73.2579 109.926C72.9072 110.674 72.1923 111.335 71.2125 111.817C73.0382 112.272 74.6075 113.054 75.7225 114.066C75.9753 113.888 76.2136 113.703 76.4363 113.51C76.5911 113.375 76.8252 113.285 77.087 113.258C77.3489 113.231 77.617 113.27 77.8325 113.367C78.048 113.464 78.1932 113.61 78.2361 113.774C78.279 113.938 78.2161 114.105 78.0613 114.24L78.06 114.239ZM67.5 111.375C68.2911 111.375 69.0645 111.228 69.7223 110.954C70.3801 110.679 70.8928 110.289 71.1955 109.832C71.4983 109.375 71.5775 108.872 71.4231 108.387C71.2688 107.902 70.8878 107.457 70.3284 107.107C69.769 106.758 69.0563 106.519 68.2804 106.423C67.5044 106.327 66.7002 106.376 65.9693 106.565C65.2384 106.755 64.6137 107.075 64.1741 107.486C63.7346 107.897 63.5 108.381 63.5 108.875C63.5 109.538 63.9214 110.174 64.6716 110.643C65.4217 111.112 66.4391 111.375 67.5 111.375ZM67.5 116.375C69.9406 116.373 72.3111 115.865 74.24 114.93C73.5166 114.223 72.52 113.641 71.3421 113.238C70.1642 112.835 68.8429 112.624 67.5 112.624C66.1571 112.624 64.8358 112.835 63.6579 113.238C62.48 113.641 61.4834 114.223 60.76 114.93C62.686 115.868 65.0585 116.377 67.5 116.375Z" fill="black"/>
</g>
<path d="M92.876 114.5V103.14H97.116C98.4173 103.14 99.4307 103.455 100.156 104.084C100.881 104.703 101.244 105.567 101.244 106.676C101.244 107.412 101.079 108.052 100.748 108.596C100.417 109.129 99.9427 109.54 99.324 109.828C98.716 110.105 97.98 110.244 97.116 110.244H94.604V114.5H92.876ZM94.604 108.676H97.068C97.8467 108.676 98.4387 108.511 98.844 108.18C99.2493 107.839 99.452 107.337 99.452 106.676C99.452 106.025 99.2493 105.54 98.844 105.22C98.4387 104.889 97.8467 104.724 97.068 104.724H94.604V108.676ZM106.107 114.692C105.275 114.692 104.555 114.511 103.947 114.148C103.349 113.785 102.885 113.268 102.555 112.596C102.235 111.924 102.075 111.14 102.075 110.244C102.075 109.348 102.235 108.569 102.555 107.908C102.885 107.236 103.349 106.719 103.947 106.356C104.544 105.983 105.248 105.796 106.059 105.796C106.827 105.796 107.504 105.977 108.091 106.34C108.677 106.692 109.131 107.204 109.451 107.876C109.781 108.548 109.947 109.359 109.947 110.308V110.74H103.835C103.877 111.572 104.096 112.196 104.491 112.612C104.896 113.028 105.44 113.236 106.123 113.236C106.624 113.236 107.04 113.119 107.371 112.884C107.701 112.649 107.931 112.335 108.059 111.94L109.819 112.052C109.595 112.841 109.152 113.481 108.491 113.972C107.84 114.452 107.045 114.692 106.107 114.692ZM103.835 109.46H108.155C108.101 108.703 107.883 108.143 107.499 107.78C107.125 107.417 106.645 107.236 106.059 107.236C105.451 107.236 104.949 107.428 104.555 107.812C104.171 108.185 103.931 108.735 103.835 109.46ZM111.505 114.5V105.988H113.057L113.121 108.244L112.977 108.196C113.094 107.428 113.329 106.868 113.681 106.516C114.044 106.164 114.529 105.988 115.137 105.988H115.953V107.508H115.137C114.71 107.508 114.353 107.577 114.065 107.716C113.777 107.855 113.558 108.068 113.409 108.356C113.27 108.644 113.201 109.017 113.201 109.476V114.5H111.505ZM120.281 114.692C119.481 114.692 118.804 114.569 118.249 114.324C117.705 114.079 117.284 113.743 116.985 113.316C116.687 112.879 116.516 112.377 116.473 111.812L118.217 111.732C118.303 112.201 118.505 112.575 118.825 112.852C119.145 113.129 119.631 113.268 120.281 113.268C120.815 113.268 121.236 113.183 121.545 113.012C121.855 112.841 122.009 112.569 122.009 112.196C122.009 111.993 121.956 111.823 121.849 111.684C121.753 111.535 121.561 111.412 121.273 111.316C120.985 111.209 120.559 111.108 119.993 111.012C119.151 110.852 118.489 110.665 118.009 110.452C117.529 110.239 117.188 109.967 116.985 109.636C116.783 109.305 116.681 108.905 116.681 108.436C116.681 107.657 116.969 107.023 117.545 106.532C118.132 106.041 118.975 105.796 120.073 105.796C120.809 105.796 121.428 105.924 121.929 106.18C122.431 106.425 122.82 106.761 123.097 107.188C123.385 107.604 123.567 108.073 123.641 108.596L121.897 108.692C121.844 108.393 121.737 108.137 121.577 107.924C121.428 107.7 121.225 107.529 120.969 107.412C120.713 107.284 120.409 107.22 120.057 107.22C119.513 107.22 119.108 107.327 118.841 107.54C118.575 107.753 118.441 108.031 118.441 108.372C118.441 108.628 118.5 108.836 118.617 108.996C118.745 109.156 118.948 109.289 119.225 109.396C119.503 109.492 119.871 109.577 120.329 109.652C121.215 109.801 121.908 109.988 122.409 110.212C122.911 110.425 123.263 110.692 123.465 111.012C123.668 111.332 123.769 111.721 123.769 112.18C123.769 112.713 123.62 113.167 123.321 113.54C123.023 113.913 122.612 114.201 122.089 114.404C121.567 114.596 120.964 114.692 120.281 114.692ZM128.83 114.692C128.019 114.692 127.31 114.511 126.702 114.148C126.094 113.785 125.624 113.268 125.294 112.596C124.963 111.924 124.798 111.14 124.798 110.244C124.798 109.337 124.963 108.553 125.294 107.892C125.624 107.231 126.094 106.719 126.702 106.356C127.31 105.983 128.019 105.796 128.83 105.796C129.64 105.796 130.35 105.983 130.958 106.356C131.566 106.719 132.035 107.231 132.366 107.892C132.696 108.553 132.862 109.337 132.862 110.244C132.862 111.14 132.696 111.924 132.366 112.596C132.035 113.268 131.566 113.785 130.958 114.148C130.35 114.511 129.64 114.692 128.83 114.692ZM128.83 113.22C129.555 113.22 130.115 112.959 130.51 112.436C130.904 111.903 131.102 111.172 131.102 110.244C131.102 109.316 130.904 108.591 130.51 108.068C130.115 107.535 129.555 107.268 128.83 107.268C128.115 107.268 127.555 107.535 127.15 108.068C126.755 108.591 126.558 109.316 126.558 110.244C126.558 111.172 126.755 111.903 127.15 112.436C127.555 112.959 128.115 113.22 128.83 113.22ZM134.416 114.5V105.988H135.968L136.032 108.26L135.824 108.148C135.92 107.593 136.101 107.145 136.368 106.804C136.634 106.463 136.96 106.212 137.344 106.052C137.728 105.881 138.144 105.796 138.592 105.796C139.232 105.796 139.76 105.94 140.176 106.228C140.602 106.505 140.922 106.889 141.136 107.38C141.36 107.86 141.472 108.409 141.472 109.028V114.5H139.776V109.54C139.776 109.039 139.722 108.617 139.616 108.276C139.509 107.935 139.333 107.673 139.088 107.492C138.842 107.311 138.522 107.22 138.128 107.22C137.53 107.22 137.045 107.417 136.672 107.812C136.298 108.207 136.112 108.783 136.112 109.54V114.5H134.416ZM145.921 114.692C145.036 114.692 144.326 114.489 143.793 114.084C143.27 113.679 143.009 113.108 143.009 112.372C143.009 111.636 143.228 111.065 143.665 110.66C144.113 110.244 144.801 109.945 145.729 109.764L148.657 109.204C148.657 108.543 148.502 108.052 148.193 107.732C147.884 107.401 147.425 107.236 146.817 107.236C146.273 107.236 145.846 107.359 145.537 107.604C145.228 107.839 145.014 108.191 144.897 108.66L143.153 108.548C143.313 107.695 143.708 107.023 144.337 106.532C144.977 106.041 145.804 105.796 146.817 105.796C147.969 105.796 148.844 106.105 149.441 106.724C150.049 107.332 150.353 108.191 150.353 109.3V112.612C150.353 112.815 150.385 112.959 150.449 113.044C150.524 113.119 150.641 113.156 150.801 113.156H151.105V114.5C151.052 114.511 150.966 114.521 150.849 114.532C150.732 114.543 150.609 114.548 150.481 114.548C150.118 114.548 149.804 114.489 149.537 114.372C149.281 114.255 149.089 114.063 148.961 113.796C148.833 113.519 148.769 113.151 148.769 112.692L148.945 112.772C148.86 113.145 148.673 113.476 148.385 113.764C148.108 114.052 147.75 114.281 147.313 114.452C146.886 114.612 146.422 114.692 145.921 114.692ZM146.193 113.348C146.705 113.348 147.142 113.252 147.505 113.06C147.868 112.857 148.15 112.58 148.353 112.228C148.556 111.876 148.657 111.476 148.657 111.028V110.484L146.161 110.964C145.649 111.06 145.286 111.215 145.073 111.428C144.87 111.631 144.769 111.892 144.769 112.212C144.769 112.575 144.892 112.857 145.137 113.06C145.393 113.252 145.745 113.348 146.193 113.348ZM154.124 114.5C153.569 114.5 153.121 114.356 152.78 114.068C152.438 113.78 152.268 113.321 152.268 112.692V103.14H153.964V112.532C153.964 112.724 154.012 112.868 154.108 112.964C154.214 113.06 154.364 113.108 154.556 113.108H155.228V114.5H154.124ZM156.498 114.5V105.988H158.194V114.5H156.498ZM156.466 104.756V103.06H158.226V104.756H156.466ZM160.144 114.5V112.98L165.28 107.38H160.304V105.988H167.232V107.508L162.048 113.108H167.36V114.5H160.144ZM172.323 114.692C171.491 114.692 170.771 114.511 170.163 114.148C169.565 113.785 169.101 113.268 168.771 112.596C168.451 111.924 168.291 111.14 168.291 110.244C168.291 109.348 168.451 108.569 168.771 107.908C169.101 107.236 169.565 106.719 170.163 106.356C170.76 105.983 171.464 105.796 172.275 105.796C173.043 105.796 173.72 105.977 174.307 106.34C174.893 106.692 175.347 107.204 175.667 107.876C175.997 108.548 176.163 109.359 176.163 110.308V110.74H170.051C170.093 111.572 170.312 112.196 170.707 112.612C171.112 113.028 171.656 113.236 172.339 113.236C172.84 113.236 173.256 113.119 173.587 112.884C173.917 112.649 174.147 112.335 174.275 111.94L176.035 112.052C175.811 112.841 175.368 113.481 174.707 113.972C174.056 114.452 173.261 114.692 172.323 114.692ZM170.051 109.46H174.371C174.317 108.703 174.099 108.143 173.715 107.78C173.341 107.417 172.861 107.236 172.275 107.236C171.667 107.236 171.165 107.428 170.771 107.812C170.387 108.185 170.147 108.735 170.051 109.46ZM180.745 114.692C180.02 114.692 179.385 114.511 178.841 114.148C178.308 113.785 177.897 113.273 177.609 112.612C177.332 111.94 177.193 111.151 177.193 110.244C177.193 109.337 177.337 108.553 177.625 107.892C177.913 107.22 178.324 106.703 178.857 106.34C179.391 105.977 180.02 105.796 180.745 105.796C181.332 105.796 181.855 105.919 182.313 106.164C182.772 106.409 183.119 106.751 183.353 107.188V103.14H185.049V114.5H183.465L183.417 113.22C183.183 113.679 182.825 114.041 182.345 114.308C181.876 114.564 181.343 114.692 180.745 114.692ZM181.193 113.22C181.652 113.22 182.041 113.103 182.361 112.868C182.681 112.633 182.927 112.292 183.097 111.844C183.268 111.396 183.353 110.863 183.353 110.244C183.353 109.604 183.268 109.065 183.097 108.628C182.927 108.18 182.681 107.844 182.361 107.62C182.041 107.385 181.652 107.268 181.193 107.268C180.511 107.268 179.967 107.535 179.561 108.068C179.156 108.591 178.953 109.316 178.953 110.244C178.953 111.161 179.156 111.887 179.561 112.42C179.967 112.953 180.511 113.22 181.193 113.22ZM191.202 114.5V103.14H192.93V113.86L192.018 112.916H198.466V114.5H191.202ZM203.12 114.692C202.288 114.692 201.568 114.511 200.96 114.148C200.363 113.785 199.899 113.268 199.568 112.596C199.248 111.924 199.088 111.14 199.088 110.244C199.088 109.348 199.248 108.569 199.568 107.908C199.899 107.236 200.363 106.719 200.96 106.356C201.558 105.983 202.262 105.796 203.072 105.796C203.84 105.796 204.518 105.977 205.104 106.34C205.691 106.692 206.144 107.204 206.464 107.876C206.795 108.548 206.96 109.359 206.96 110.308V110.74H200.848C200.891 111.572 201.11 112.196 201.504 112.612C201.91 113.028 202.454 113.236 203.136 113.236C203.638 113.236 204.054 113.119 204.384 112.884C204.715 112.649 204.944 112.335 205.072 111.94L206.832 112.052C206.608 112.841 206.166 113.481 205.504 113.972C204.854 114.452 204.059 114.692 203.12 114.692ZM200.848 109.46H205.168C205.115 108.703 204.896 108.143 204.512 107.78C204.139 107.417 203.659 107.236 203.072 107.236C202.464 107.236 201.963 107.428 201.568 107.812C201.184 108.185 200.944 108.735 200.848 109.46ZM211.075 114.692C210.189 114.692 209.48 114.489 208.947 114.084C208.424 113.679 208.163 113.108 208.163 112.372C208.163 111.636 208.381 111.065 208.819 110.66C209.267 110.244 209.955 109.945 210.883 109.764L213.811 109.204C213.811 108.543 213.656 108.052 213.347 107.732C213.037 107.401 212.579 107.236 211.971 107.236C211.427 107.236 211 107.359 210.691 107.604C210.381 107.839 210.168 108.191 210.051 108.66L208.307 108.548C208.467 107.695 208.861 107.023 209.491 106.532C210.131 106.041 210.957 105.796 211.971 105.796C213.123 105.796 213.997 106.105 214.595 106.724C215.203 107.332 215.507 108.191 215.507 109.3V112.612C215.507 112.815 215.539 112.959 215.603 113.044C215.677 113.119 215.795 113.156 215.955 113.156H216.259V114.5C216.205 114.511 216.12 114.521 216.003 114.532C215.885 114.543 215.763 114.548 215.635 114.548C215.272 114.548 214.957 114.489 214.691 114.372C214.435 114.255 214.243 114.063 214.115 113.796C213.987 113.519 213.923 113.151 213.923 112.692L214.099 112.772C214.013 113.145 213.827 113.476 213.539 113.764C213.261 114.052 212.904 114.281 212.467 114.452C212.04 114.612 211.576 114.692 211.075 114.692ZM211.347 113.348C211.859 113.348 212.296 113.252 212.659 113.06C213.021 112.857 213.304 112.58 213.507 112.228C213.709 111.876 213.811 111.476 213.811 111.028V110.484L211.315 110.964C210.803 111.06 210.44 111.215 210.227 111.428C210.024 111.631 209.923 111.892 209.923 112.212C209.923 112.575 210.045 112.857 210.291 113.06C210.547 113.252 210.899 113.348 211.347 113.348ZM217.531 114.5V105.988H219.083L219.147 108.244L219.003 108.196C219.12 107.428 219.355 106.868 219.707 106.516C220.069 106.164 220.555 105.988 221.163 105.988H221.979V107.508H221.163C220.736 107.508 220.379 107.577 220.091 107.716C219.803 107.855 219.584 108.068 219.435 108.356C219.296 108.644 219.227 109.017 219.227 109.476V114.5H217.531ZM223.089 114.5V105.988H224.641L224.705 108.26L224.497 108.148C224.593 107.593 224.775 107.145 225.041 106.804C225.308 106.463 225.633 106.212 226.017 106.052C226.401 105.881 226.817 105.796 227.265 105.796C227.905 105.796 228.433 105.94 228.849 106.228C229.276 106.505 229.596 106.889 229.809 107.38C230.033 107.86 230.145 108.409 230.145 109.028V114.5H228.449V109.54C228.449 109.039 228.396 108.617 228.289 108.276C228.183 107.935 228.007 107.673 227.761 107.492C227.516 107.311 227.196 107.22 226.801 107.22C226.204 107.22 225.719 107.417 225.345 107.812C224.972 108.207 224.785 108.783 224.785 109.54V114.5H223.089ZM232.226 114.5V105.988H233.922V114.5H232.226ZM232.194 104.756V103.06H233.954V104.756H232.194ZM236.301 114.5V105.988H237.853L237.917 108.26L237.709 108.148C237.805 107.593 237.986 107.145 238.253 106.804C238.519 106.463 238.845 106.212 239.229 106.052C239.613 105.881 240.029 105.796 240.477 105.796C241.117 105.796 241.645 105.94 242.061 106.228C242.487 106.505 242.807 106.889 243.021 107.38C243.245 107.86 243.357 108.409 243.357 109.028V114.5H241.661V109.54C241.661 109.039 241.607 108.617 241.501 108.276C241.394 107.935 241.218 107.673 240.973 107.492C240.727 107.311 240.407 107.22 240.013 107.22C239.415 107.22 238.93 107.417 238.557 107.812C238.183 108.207 237.997 108.783 237.997 109.54V114.5H236.301ZM248.83 117.092C248.158 117.092 247.566 116.991 247.054 116.788C246.542 116.585 246.121 116.297 245.79 115.924C245.46 115.561 245.236 115.135 245.118 114.644L246.878 114.532C246.996 114.884 247.198 115.161 247.486 115.364C247.785 115.577 248.233 115.684 248.83 115.684C249.534 115.684 250.073 115.535 250.446 115.236C250.83 114.937 251.022 114.484 251.022 113.876V112.644C250.82 113.081 250.494 113.428 250.046 113.684C249.598 113.94 249.097 114.068 248.542 114.068C247.828 114.068 247.193 113.892 246.638 113.54C246.084 113.188 245.652 112.703 245.342 112.084C245.033 111.465 244.878 110.751 244.878 109.94C244.878 109.119 245.028 108.399 245.326 107.78C245.636 107.161 246.062 106.676 246.606 106.324C247.161 105.972 247.785 105.796 248.478 105.796C249.086 105.796 249.62 105.935 250.078 106.212C250.548 106.489 250.884 106.863 251.086 107.332V105.988H252.718V113.828C252.718 114.532 252.558 115.124 252.238 115.604C251.929 116.095 251.481 116.463 250.894 116.708C250.318 116.964 249.63 117.092 248.83 117.092ZM248.814 112.628C249.476 112.628 250.004 112.388 250.398 111.908C250.804 111.428 251.012 110.767 251.022 109.924C251.033 109.369 250.948 108.895 250.766 108.5C250.585 108.095 250.324 107.785 249.982 107.572C249.652 107.348 249.262 107.236 248.814 107.236C248.121 107.236 247.582 107.481 247.198 107.972C246.825 108.452 246.638 109.103 246.638 109.924C246.638 110.756 246.83 111.417 247.214 111.908C247.609 112.388 248.142 112.628 248.814 112.628ZM258.872 114.5V103.14H260.6V114.5H258.872ZM263.161 114.5V105.988H264.713L264.777 108.26L264.569 108.148C264.665 107.593 264.846 107.145 265.113 106.804C265.379 106.463 265.705 106.212 266.089 106.052C266.473 105.881 266.889 105.796 267.337 105.796C267.977 105.796 268.505 105.94 268.921 106.228C269.347 106.505 269.667 106.889 269.881 107.38C270.105 107.86 270.217 108.409 270.217 109.028V114.5H268.521V109.54C268.521 109.039 268.467 108.617 268.361 108.276C268.254 107.935 268.078 107.673 267.833 107.492C267.587 107.311 267.267 107.22 266.873 107.22C266.275 107.22 265.79 107.417 265.417 107.812C265.043 108.207 264.857 108.783 264.857 109.54V114.5H263.161ZM275.546 114.692C274.746 114.692 274.069 114.569 273.514 114.324C272.97 114.079 272.549 113.743 272.25 113.316C271.952 112.879 271.781 112.377 271.738 111.812L273.482 111.732C273.568 112.201 273.77 112.575 274.09 112.852C274.41 113.129 274.896 113.268 275.546 113.268C276.08 113.268 276.501 113.183 276.81 113.012C277.12 112.841 277.274 112.569 277.274 112.196C277.274 111.993 277.221 111.823 277.114 111.684C277.018 111.535 276.826 111.412 276.538 111.316C276.25 111.209 275.824 111.108 275.258 111.012C274.416 110.852 273.754 110.665 273.274 110.452C272.794 110.239 272.453 109.967 272.25 109.636C272.048 109.305 271.946 108.905 271.946 108.436C271.946 107.657 272.234 107.023 272.81 106.532C273.397 106.041 274.24 105.796 275.338 105.796C276.074 105.796 276.693 105.924 277.194 106.18C277.696 106.425 278.085 106.761 278.362 107.188C278.65 107.604 278.832 108.073 278.906 108.596L277.162 108.692C277.109 108.393 277.002 108.137 276.842 107.924C276.693 107.7 276.49 107.529 276.234 107.412C275.978 107.284 275.674 107.22 275.322 107.22C274.778 107.22 274.373 107.327 274.106 107.54C273.84 107.753 273.706 108.031 273.706 108.372C273.706 108.628 273.765 108.836 273.882 108.996C274.01 109.156 274.213 109.289 274.49 109.396C274.768 109.492 275.136 109.577 275.594 109.652C276.48 109.801 277.173 109.988 277.674 110.212C278.176 110.425 278.528 110.692 278.73 111.012C278.933 111.332 279.034 111.721 279.034 112.18C279.034 112.713 278.885 113.167 278.586 113.54C278.288 113.913 277.877 114.201 277.354 114.404C276.832 114.596 276.229 114.692 275.546 114.692ZM280.591 114.5V105.988H282.287V114.5H280.591ZM280.559 104.756V103.06H282.319V104.756H280.559ZM287.792 117.092C287.12 117.092 286.528 116.991 286.016 116.788C285.504 116.585 285.083 116.297 284.752 115.924C284.421 115.561 284.197 115.135 284.08 114.644L285.84 114.532C285.957 114.884 286.16 115.161 286.448 115.364C286.747 115.577 287.195 115.684 287.792 115.684C288.496 115.684 289.035 115.535 289.408 115.236C289.792 114.937 289.984 114.484 289.984 113.876V112.644C289.781 113.081 289.456 113.428 289.008 113.684C288.56 113.94 288.059 114.068 287.504 114.068C286.789 114.068 286.155 113.892 285.6 113.54C285.045 113.188 284.613 112.703 284.304 112.084C283.995 111.465 283.84 110.751 283.84 109.94C283.84 109.119 283.989 108.399 284.288 107.78C284.597 107.161 285.024 106.676 285.568 106.324C286.123 105.972 286.747 105.796 287.44 105.796C288.048 105.796 288.581 105.935 289.04 106.212C289.509 106.489 289.845 106.863 290.048 107.332V105.988H291.68V113.828C291.68 114.532 291.52 115.124 291.2 115.604C290.891 116.095 290.443 116.463 289.856 116.708C289.28 116.964 288.592 117.092 287.792 117.092ZM287.776 112.628C288.437 112.628 288.965 112.388 289.36 111.908C289.765 111.428 289.973 110.767 289.984 109.924C289.995 109.369 289.909 108.895 289.728 108.5C289.547 108.095 289.285 107.785 288.944 107.572C288.613 107.348 288.224 107.236 287.776 107.236C287.083 107.236 286.544 107.481 286.16 107.972C285.787 108.452 285.6 109.103 285.6 109.924C285.6 110.756 285.792 111.417 286.176 111.908C286.571 112.388 287.104 112.628 287.776 112.628ZM293.724 114.5V103.14H295.42V107.908L295.212 107.876C295.308 107.396 295.484 107.007 295.74 106.708C295.996 106.399 296.31 106.169 296.684 106.02C297.057 105.871 297.468 105.796 297.916 105.796C298.534 105.796 299.057 105.935 299.484 106.212C299.91 106.479 300.23 106.857 300.444 107.348C300.668 107.839 300.78 108.399 300.78 109.028V114.5H299.084V109.476C299.084 108.708 298.95 108.143 298.684 107.78C298.428 107.407 298.022 107.22 297.468 107.22C296.849 107.22 296.353 107.417 295.98 107.812C295.606 108.196 295.42 108.761 295.42 109.508V114.5H293.724ZM305.672 114.5C304.861 114.5 304.264 114.313 303.88 113.94C303.496 113.567 303.304 112.985 303.304 112.196V103.988H305V112.068C305 112.463 305.085 112.735 305.256 112.884C305.426 113.033 305.688 113.108 306.04 113.108H307.256V114.5H305.672ZM302.008 107.38V105.988H307.256V107.38H302.008ZM311.856 114.692C311.056 114.692 310.378 114.569 309.824 114.324C309.28 114.079 308.858 113.743 308.56 113.316C308.261 112.879 308.09 112.377 308.048 111.812L309.792 111.732C309.877 112.201 310.08 112.575 310.4 112.852C310.72 113.129 311.205 113.268 311.856 113.268C312.389 113.268 312.81 113.183 313.12 113.012C313.429 112.841 313.584 112.569 313.584 112.196C313.584 111.993 313.53 111.823 313.424 111.684C313.328 111.535 313.136 111.412 312.848 111.316C312.56 111.209 312.133 111.108 311.568 111.012C310.725 110.852 310.064 110.665 309.584 110.452C309.104 110.239 308.762 109.967 308.56 109.636C308.357 109.305 308.256 108.905 308.256 108.436C308.256 107.657 308.544 107.023 309.12 106.532C309.706 106.041 310.549 105.796 311.648 105.796C312.384 105.796 313.002 105.924 313.504 106.18C314.005 106.425 314.394 106.761 314.672 107.188C314.96 107.604 315.141 108.073 315.216 108.596L313.472 108.692C313.418 108.393 313.312 108.137 313.152 107.924C313.002 107.7 312.8 107.529 312.544 107.412C312.288 107.284 311.984 107.22 311.632 107.22C311.088 107.22 310.682 107.327 310.416 107.54C310.149 107.753 310.016 108.031 310.016 108.372C310.016 108.628 310.074 108.836 310.192 108.996C310.32 109.156 310.522 109.289 310.8 109.396C311.077 109.492 311.445 109.577 311.904 109.652C312.789 109.801 313.482 109.988 313.984 110.212C314.485 110.425 314.837 110.692 315.04 111.012C315.242 111.332 315.344 111.721 315.344 112.18C315.344 112.713 315.194 113.167 314.896 113.54C314.597 113.913 314.186 114.201 313.664 114.404C313.141 114.596 312.538 114.692 311.856 114.692Z" fill="#222222"/>
</g>
<g filter="url(#filter2_ddd_4_665)">
<rect x="52.5" y="145.5" width="263" height="52" rx="26" fill="white"/>
<path d="M97.1975 171.583L90.75 170.094L88.375 166.061C88.2344 165.822 87.9799 165.616 87.646 165.47C87.312 165.325 86.9147 165.247 86.5075 165.247C86.1004 165.247 85.703 165.325 85.3691 165.47C85.0351 165.616 84.7807 165.822 84.64 166.061L82.25 170.094L75.7975 171.578C75.4154 171.666 75.0857 171.825 74.8527 172.034C74.6198 172.242 74.4949 172.491 74.4949 172.745C74.4949 173 74.6198 173.248 74.8527 173.457C75.0857 173.666 75.4154 173.825 75.7975 173.913L82.25 175.406L84.625 179.439C84.7657 179.678 85.0201 179.884 85.3541 180.03C85.688 180.175 86.0854 180.253 86.4925 180.253C86.8997 180.253 87.297 180.175 87.631 180.03C87.9649 179.884 88.2194 179.678 88.36 179.439L90.75 175.406L97.2025 173.922C97.5846 173.834 97.9144 173.675 98.1473 173.466C98.3802 173.258 98.5051 173.009 98.5051 172.755C98.5051 172.5 98.3802 172.252 98.1473 172.043C97.9144 171.834 97.5846 171.675 97.2025 171.587L97.1975 171.583ZM89.625 174.33C89.4893 174.361 89.366 174.41 89.2637 174.474C89.1614 174.538 89.0825 174.615 89.0325 174.7L86.5 178.988L83.9725 174.703C83.9226 174.617 83.8432 174.54 83.74 174.475C83.6368 174.411 83.5122 174.361 83.375 174.33L76.5188 172.75L83.375 171.17C83.5122 171.139 83.6368 171.089 83.74 171.025C83.8432 170.96 83.9226 170.883 83.9725 170.797L86.5 166.512L89.0275 170.797C89.0775 170.882 89.1564 170.959 89.2587 171.023C89.361 171.087 89.4843 171.136 89.62 171.167L96.4813 172.75L89.625 174.33ZM90.5 164.625C90.5 164.459 90.6054 164.3 90.7929 164.183C90.9804 164.066 91.2348 164 91.5 164H93.5V162.75C93.5 162.584 93.6054 162.425 93.7929 162.308C93.9804 162.191 94.2348 162.125 94.5 162.125C94.7652 162.125 95.0196 162.191 95.2071 162.308C95.3947 162.425 95.5 162.584 95.5 162.75V164H97.5C97.7652 164 98.0196 164.066 98.2071 164.183C98.3947 164.3 98.5 164.459 98.5 164.625C98.5 164.791 98.3947 164.95 98.2071 165.067C98.0196 165.184 97.7652 165.25 97.5 165.25H95.5V166.5C95.5 166.666 95.3947 166.825 95.2071 166.942C95.0196 167.059 94.7652 167.125 94.5 167.125C94.2348 167.125 93.9804 167.059 93.7929 166.942C93.6054 166.825 93.5 166.666 93.5 166.5V165.25H91.5C91.2348 165.25 90.9804 165.184 90.7929 165.067C90.6054 164.95 90.5 164.791 90.5 164.625ZM103.5 168.375C103.5 168.541 103.395 168.7 103.207 168.817C103.02 168.934 102.765 169 102.5 169H101.5V169.625C101.5 169.791 101.395 169.95 101.207 170.067C101.02 170.184 100.765 170.25 100.5 170.25C100.235 170.25 99.9804 170.184 99.7929 170.067C99.6054 169.95 99.5 169.791 99.5 169.625V169H98.5C98.2348 169 97.9804 168.934 97.7929 168.817C97.6054 168.7 97.5 168.541 97.5 168.375C97.5 168.209 97.6054 168.05 97.7929 167.933C97.9804 167.816 98.2348 167.75 98.5 167.75H99.5V167.125C99.5 166.959 99.6054 166.8 99.7929 166.683C99.9804 166.566 100.235 166.5 100.5 166.5C100.765 166.5 101.02 166.566 101.207 166.683C101.395 166.8 101.5 166.959 101.5 167.125V167.75H102.5C102.765 167.75 103.02 167.816 103.207 167.933C103.395 168.05 103.5 168.209 103.5 168.375Z" fill="black"/>
<path d="M112.82 176.5L116.916 165.14H119.108L123.204 176.5H121.364L120.324 173.54H115.684L114.66 176.5H112.82ZM116.228 171.972H119.796L118.004 166.788L116.228 171.972ZM124.404 176.5V165.14H126.132V176.5H124.404ZM128.024 172.58V171.092H133.384V172.58H128.024ZM135.255 176.5V165.14H139.495C140.797 165.14 141.81 165.455 142.535 166.084C143.261 166.703 143.623 167.567 143.623 168.676C143.623 169.412 143.458 170.052 143.127 170.596C142.797 171.129 142.322 171.54 141.703 171.828C141.095 172.105 140.359 172.244 139.495 172.244H136.983V176.5H135.255ZM136.983 170.676H139.447C140.226 170.676 140.818 170.511 141.223 170.18C141.629 169.839 141.831 169.337 141.831 168.676C141.831 168.025 141.629 167.54 141.223 167.22C140.818 166.889 140.226 166.724 139.447 166.724H136.983V170.676ZM148.486 176.692C147.675 176.692 146.966 176.511 146.358 176.148C145.75 175.785 145.281 175.268 144.95 174.596C144.619 173.924 144.454 173.14 144.454 172.244C144.454 171.337 144.619 170.553 144.95 169.892C145.281 169.231 145.75 168.719 146.358 168.356C146.966 167.983 147.675 167.796 148.486 167.796C149.297 167.796 150.006 167.983 150.614 168.356C151.222 168.719 151.691 169.231 152.022 169.892C152.353 170.553 152.518 171.337 152.518 172.244C152.518 173.14 152.353 173.924 152.022 174.596C151.691 175.268 151.222 175.785 150.614 176.148C150.006 176.511 149.297 176.692 148.486 176.692ZM148.486 175.22C149.211 175.22 149.771 174.959 150.166 174.436C150.561 173.903 150.758 173.172 150.758 172.244C150.758 171.316 150.561 170.591 150.166 170.068C149.771 169.535 149.211 169.268 148.486 169.268C147.771 169.268 147.211 169.535 146.806 170.068C146.411 170.591 146.214 171.316 146.214 172.244C146.214 173.172 146.411 173.903 146.806 174.436C147.211 174.959 147.771 175.22 148.486 175.22ZM155.55 176.5L152.958 167.988H154.734L156.558 174.644L158.43 167.988H160.03L161.902 174.644L163.742 167.988H165.518L162.926 176.5H161.022L159.23 170.42L157.438 176.5H155.55ZM169.978 176.692C169.146 176.692 168.426 176.511 167.818 176.148C167.221 175.785 166.757 175.268 166.426 174.596C166.106 173.924 165.946 173.14 165.946 172.244C165.946 171.348 166.106 170.569 166.426 169.908C166.757 169.236 167.221 168.719 167.818 168.356C168.416 167.983 169.12 167.796 169.93 167.796C170.698 167.796 171.376 167.977 171.962 168.34C172.549 168.692 173.002 169.204 173.322 169.876C173.653 170.548 173.818 171.359 173.818 172.308V172.74H167.706C167.749 173.572 167.968 174.196 168.362 174.612C168.768 175.028 169.312 175.236 169.994 175.236C170.496 175.236 170.912 175.119 171.242 174.884C171.573 174.649 171.802 174.335 171.93 173.94L173.69 174.052C173.466 174.841 173.024 175.481 172.362 175.972C171.712 176.452 170.917 176.692 169.978 176.692ZM167.706 171.46H172.026C171.973 170.703 171.754 170.143 171.37 169.78C170.997 169.417 170.517 169.236 169.93 169.236C169.322 169.236 168.821 169.428 168.426 169.812C168.042 170.185 167.802 170.735 167.706 171.46ZM175.377 176.5V167.988H176.929L176.993 170.244L176.849 170.196C176.966 169.428 177.201 168.868 177.553 168.516C177.916 168.164 178.401 167.988 179.009 167.988H179.825V169.508H179.009C178.582 169.508 178.225 169.577 177.937 169.716C177.649 169.855 177.43 170.068 177.281 170.356C177.142 170.644 177.073 171.017 177.073 171.476V176.5H175.377ZM184.377 176.692C183.545 176.692 182.825 176.511 182.217 176.148C181.62 175.785 181.156 175.268 180.825 174.596C180.505 173.924 180.345 173.14 180.345 172.244C180.345 171.348 180.505 170.569 180.825 169.908C181.156 169.236 181.62 168.719 182.217 168.356C182.814 167.983 183.518 167.796 184.329 167.796C185.097 167.796 185.774 167.977 186.361 168.34C186.948 168.692 187.401 169.204 187.721 169.876C188.052 170.548 188.217 171.359 188.217 172.308V172.74H182.105C182.148 173.572 182.366 174.196 182.761 174.612C183.166 175.028 183.71 175.236 184.393 175.236C184.894 175.236 185.31 175.119 185.641 174.884C185.972 174.649 186.201 174.335 186.329 173.94L188.089 174.052C187.865 174.841 187.422 175.481 186.761 175.972C186.11 176.452 185.316 176.692 184.377 176.692ZM182.105 171.46H186.425C186.372 170.703 186.153 170.143 185.769 169.78C185.396 169.417 184.916 169.236 184.329 169.236C183.721 169.236 183.22 169.428 182.825 169.812C182.441 170.185 182.201 170.735 182.105 171.46ZM192.8 176.692C192.074 176.692 191.44 176.511 190.896 176.148C190.362 175.785 189.952 175.273 189.664 174.612C189.386 173.94 189.248 173.151 189.248 172.244C189.248 171.337 189.392 170.553 189.68 169.892C189.968 169.22 190.378 168.703 190.912 168.34C191.445 167.977 192.074 167.796 192.8 167.796C193.386 167.796 193.909 167.919 194.368 168.164C194.826 168.409 195.173 168.751 195.408 169.188V165.14H197.104V176.5H195.52L195.472 175.22C195.237 175.679 194.88 176.041 194.4 176.308C193.93 176.564 193.397 176.692 192.8 176.692ZM193.248 175.22C193.706 175.22 194.096 175.103 194.416 174.868C194.736 174.633 194.981 174.292 195.152 173.844C195.322 173.396 195.408 172.863 195.408 172.244C195.408 171.604 195.322 171.065 195.152 170.628C194.981 170.18 194.736 169.844 194.416 169.62C194.096 169.385 193.706 169.268 193.248 169.268C192.565 169.268 192.021 169.535 191.616 170.068C191.21 170.591 191.008 171.316 191.008 172.244C191.008 173.161 191.21 173.887 191.616 174.42C192.021 174.953 192.565 175.22 193.248 175.22ZM203.257 176.5V165.14H210.649V166.724H204.985V170.036H210.457V171.572H204.985V174.916H210.777V176.5H203.257ZM212.671 176.5V167.988H214.223L214.287 170.26L214.079 170.148C214.175 169.593 214.356 169.145 214.623 168.804C214.889 168.463 215.215 168.212 215.599 168.052C215.983 167.881 216.399 167.796 216.847 167.796C217.487 167.796 218.015 167.94 218.431 168.228C218.857 168.505 219.177 168.889 219.391 169.38C219.615 169.86 219.727 170.409 219.727 171.028V176.5H218.031V171.54C218.031 171.039 217.977 170.617 217.871 170.276C217.764 169.935 217.588 169.673 217.343 169.492C217.097 169.311 216.777 169.22 216.383 169.22C215.785 169.22 215.3 169.417 214.927 169.812C214.553 170.207 214.367 170.783 214.367 171.54V176.5H212.671ZM225.2 179.092C224.528 179.092 223.936 178.991 223.424 178.788C222.912 178.585 222.491 178.297 222.16 177.924C221.83 177.561 221.606 177.135 221.488 176.644L223.248 176.532C223.366 176.884 223.568 177.161 223.856 177.364C224.155 177.577 224.603 177.684 225.2 177.684C225.904 177.684 226.443 177.535 226.816 177.236C227.2 176.937 227.392 176.484 227.392 175.876V174.644C227.19 175.081 226.864 175.428 226.416 175.684C225.968 175.94 225.467 176.068 224.912 176.068C224.198 176.068 223.563 175.892 223.008 175.54C222.454 175.188 222.022 174.703 221.712 174.084C221.403 173.465 221.248 172.751 221.248 171.94C221.248 171.119 221.398 170.399 221.696 169.78C222.006 169.161 222.432 168.676 222.976 168.324C223.531 167.972 224.155 167.796 224.848 167.796C225.456 167.796 225.99 167.935 226.448 168.212C226.918 168.489 227.254 168.863 227.456 169.332V167.988H229.088V175.828C229.088 176.532 228.928 177.124 228.608 177.604C228.299 178.095 227.851 178.463 227.264 178.708C226.688 178.964 226 179.092 225.2 179.092ZM225.184 174.628C225.846 174.628 226.374 174.388 226.768 173.908C227.174 173.428 227.382 172.767 227.392 171.924C227.403 171.369 227.318 170.895 227.136 170.5C226.955 170.095 226.694 169.785 226.352 169.572C226.022 169.348 225.632 169.236 225.184 169.236C224.491 169.236 223.952 169.481 223.568 169.972C223.195 170.452 223.008 171.103 223.008 171.924C223.008 172.756 223.2 173.417 223.584 173.908C223.979 174.388 224.512 174.628 225.184 174.628ZM233.719 176.692C232.834 176.692 232.124 176.489 231.591 176.084C231.068 175.679 230.807 175.108 230.807 174.372C230.807 173.636 231.026 173.065 231.463 172.66C231.911 172.244 232.599 171.945 233.527 171.764L236.455 171.204C236.455 170.543 236.3 170.052 235.991 169.732C235.682 169.401 235.223 169.236 234.615 169.236C234.071 169.236 233.644 169.359 233.335 169.604C233.026 169.839 232.812 170.191 232.695 170.66L230.951 170.548C231.111 169.695 231.506 169.023 232.135 168.532C232.775 168.041 233.602 167.796 234.615 167.796C235.767 167.796 236.642 168.105 237.239 168.724C237.847 169.332 238.151 170.191 238.151 171.3V174.612C238.151 174.815 238.183 174.959 238.247 175.044C238.322 175.119 238.439 175.156 238.599 175.156H238.903V176.5C238.85 176.511 238.764 176.521 238.647 176.532C238.53 176.543 238.407 176.548 238.279 176.548C237.916 176.548 237.602 176.489 237.335 176.372C237.079 176.255 236.887 176.063 236.759 175.796C236.631 175.519 236.567 175.151 236.567 174.692L236.743 174.772C236.658 175.145 236.471 175.476 236.183 175.764C235.906 176.052 235.548 176.281 235.111 176.452C234.684 176.612 234.22 176.692 233.719 176.692ZM233.991 175.348C234.503 175.348 234.94 175.252 235.303 175.06C235.666 174.857 235.948 174.58 236.151 174.228C236.354 173.876 236.455 173.476 236.455 173.028V172.484L233.959 172.964C233.447 173.06 233.084 173.215 232.871 173.428C232.668 173.631 232.567 173.892 232.567 174.212C232.567 174.575 232.69 174.857 232.935 175.06C233.191 175.252 233.543 175.348 233.991 175.348ZM243.536 179.092C242.864 179.092 242.272 178.991 241.76 178.788C241.248 178.585 240.827 178.297 240.496 177.924C240.166 177.561 239.942 177.135 239.824 176.644L241.584 176.532C241.702 176.884 241.904 177.161 242.192 177.364C242.491 177.577 242.939 177.684 243.536 177.684C244.24 177.684 244.779 177.535 245.152 177.236C245.536 176.937 245.728 176.484 245.728 175.876V174.644C245.526 175.081 245.2 175.428 244.752 175.684C244.304 175.94 243.803 176.068 243.248 176.068C242.534 176.068 241.899 175.892 241.344 175.54C240.79 175.188 240.358 174.703 240.048 174.084C239.739 173.465 239.584 172.751 239.584 171.94C239.584 171.119 239.734 170.399 240.032 169.78C240.342 169.161 240.768 168.676 241.312 168.324C241.867 167.972 242.491 167.796 243.184 167.796C243.792 167.796 244.326 167.935 244.784 168.212C245.254 168.489 245.59 168.863 245.792 169.332V167.988H247.424V175.828C247.424 176.532 247.264 177.124 246.944 177.604C246.635 178.095 246.187 178.463 245.6 178.708C245.024 178.964 244.336 179.092 243.536 179.092ZM243.52 174.628C244.182 174.628 244.71 174.388 245.104 173.908C245.51 173.428 245.718 172.767 245.728 171.924C245.739 171.369 245.654 170.895 245.472 170.5C245.291 170.095 245.03 169.785 244.688 169.572C244.358 169.348 243.968 169.236 243.52 169.236C242.827 169.236 242.288 169.481 241.904 169.972C241.531 170.452 241.344 171.103 241.344 171.924C241.344 172.756 241.536 173.417 241.92 173.908C242.315 174.388 242.848 174.628 243.52 174.628ZM253.019 176.692C252.187 176.692 251.467 176.511 250.859 176.148C250.262 175.785 249.798 175.268 249.467 174.596C249.147 173.924 248.987 173.14 248.987 172.244C248.987 171.348 249.147 170.569 249.467 169.908C249.798 169.236 250.262 168.719 250.859 168.356C251.456 167.983 252.16 167.796 252.971 167.796C253.739 167.796 254.416 167.977 255.003 168.34C255.59 168.692 256.043 169.204 256.363 169.876C256.694 170.548 256.859 171.359 256.859 172.308V172.74H250.747C250.79 173.572 251.008 174.196 251.403 174.612C251.808 175.028 252.352 175.236 253.035 175.236C253.536 175.236 253.952 175.119 254.283 174.884C254.614 174.649 254.843 174.335 254.971 173.94L256.731 174.052C256.507 174.841 256.064 175.481 255.403 175.972C254.752 176.452 253.958 176.692 253.019 176.692ZM250.747 171.46H255.067C255.014 170.703 254.795 170.143 254.411 169.78C254.038 169.417 253.558 169.236 252.971 169.236C252.363 169.236 251.862 169.428 251.467 169.812C251.083 170.185 250.843 170.735 250.747 171.46ZM258.417 176.5V167.988H259.969L260.017 170.1L259.825 170.036C259.921 169.567 260.087 169.167 260.321 168.836C260.567 168.505 260.865 168.249 261.217 168.068C261.569 167.887 261.953 167.796 262.369 167.796C263.095 167.796 263.687 168.004 264.145 168.42C264.604 168.825 264.892 169.385 265.009 170.1H264.737C264.833 169.599 264.993 169.183 265.217 168.852C265.452 168.511 265.751 168.249 266.113 168.068C266.476 167.887 266.887 167.796 267.345 167.796C267.943 167.796 268.449 167.924 268.865 168.18C269.292 168.425 269.612 168.788 269.825 169.268C270.049 169.748 270.161 170.335 270.161 171.028V176.5H268.465V171.444C268.465 170.708 268.332 170.153 268.065 169.78C267.799 169.407 267.393 169.22 266.849 169.22C266.497 169.22 266.188 169.311 265.921 169.492C265.655 169.673 265.447 169.935 265.297 170.276C265.159 170.617 265.089 171.028 265.089 171.508V176.5H263.473V171.508C263.473 170.783 263.351 170.223 263.105 169.828C262.871 169.423 262.465 169.22 261.889 169.22C261.527 169.22 261.212 169.311 260.945 169.492C260.689 169.673 260.487 169.94 260.337 170.292C260.188 170.633 260.113 171.039 260.113 171.508V176.5H258.417ZM275.73 176.692C274.898 176.692 274.178 176.511 273.57 176.148C272.973 175.785 272.509 175.268 272.178 174.596C271.858 173.924 271.698 173.14 271.698 172.244C271.698 171.348 271.858 170.569 272.178 169.908C272.509 169.236 272.973 168.719 273.57 168.356C274.168 167.983 274.872 167.796 275.682 167.796C276.45 167.796 277.128 167.977 277.714 168.34C278.301 168.692 278.754 169.204 279.074 169.876C279.405 170.548 279.57 171.359 279.57 172.308V172.74H273.458C273.501 173.572 273.72 174.196 274.114 174.612C274.52 175.028 275.064 175.236 275.746 175.236C276.248 175.236 276.664 175.119 276.994 174.884C277.325 174.649 277.554 174.335 277.682 173.94L279.442 174.052C279.218 174.841 278.776 175.481 278.114 175.972C277.464 176.452 276.669 176.692 275.73 176.692ZM273.458 171.46H277.778C277.725 170.703 277.506 170.143 277.122 169.78C276.749 169.417 276.269 169.236 275.682 169.236C275.074 169.236 274.573 169.428 274.178 169.812C273.794 170.185 273.554 170.735 273.458 171.46ZM281.129 176.5V167.988H282.681L282.745 170.26L282.537 170.148C282.633 169.593 282.814 169.145 283.081 168.804C283.347 168.463 283.673 168.212 284.057 168.052C284.441 167.881 284.857 167.796 285.305 167.796C285.945 167.796 286.473 167.94 286.889 168.228C287.315 168.505 287.635 168.889 287.849 169.38C288.073 169.86 288.185 170.409 288.185 171.028V176.5H286.489V171.54C286.489 171.039 286.435 170.617 286.329 170.276C286.222 169.935 286.046 169.673 285.801 169.492C285.555 169.311 285.235 169.22 284.841 169.22C284.243 169.22 283.758 169.417 283.385 169.812C283.011 170.207 282.825 170.783 282.825 171.54V176.5H281.129ZM293.077 176.5C292.266 176.5 291.669 176.313 291.285 175.94C290.901 175.567 290.709 174.985 290.709 174.196V165.988H292.405V174.068C292.405 174.463 292.49 174.735 292.661 174.884C292.831 175.033 293.093 175.108 293.445 175.108H294.661V176.5H293.077ZM289.413 169.38V167.988H294.661V169.38H289.413Z" fill="#222222"/>
</g>
<g filter="url(#filter3_d_4_665)">
<rect x="31.85" y="207.5" width="304.3" height="51.19" rx="25.595" fill="white"/>
</g>
<defs>
<filter id="filter0_ddd_4_665" x="21" y="0" width="326" height="115" filterUnits="userSpaceOnUse" color-interpolation-filters="sRGB">
<feFlood flood-opacity="0" result="BackgroundImageFix"/>
<feColorMatrix in="SourceAlpha" type="matrix" values="0 0 0 0 0 0 0 0 0 0 0 0 0 0 0 0 0 0 127 0" result="hardAlpha"/>
<feMorphology radius="2.5" operator="erode" in="SourceAlpha" result="effect1_dropShadow_4_665"/>
<feOffset dy="10"/>
<feGaussianBlur stdDeviation="17"/>
<feComposite in2="hardAlpha" operator="out"/>
<feColorMatrix type="matrix" values="0 0 0 0 0 0 0 0 0 0 0 0 0 0 0 0 0 0 0.024 0"/>
<feBlend mode="normal" in2="BackgroundImageFix" result="effect1_dropShadow_4_665"/>
<feColorMatrix in="SourceAlpha" type="matrix" values="0 0 0 0 0 0 0 0 0 0 0 0 0 0 0 0 0 0 127 0" result="hardAlpha"/>
<feMorphology radius="1.66667" operator="erode" in="SourceAlpha" result="effect2_dropShadow_4_665"/>
<feOffset dy="2.28853"/>
<feGaussianBlur stdDeviation="3.89051"/>
<feComposite in2="hardAlpha" operator="out"/>
<feColorMatrix type="matrix" values="0 0 0 0 0 0 0 0 0 0 0 0 0 0 0 0 0 0 0.024 0"/>
<feBlend mode="normal" in2="effect1_dropShadow_4_665" result="effect2_dropShadow_4_665"/>
<feColorMatrix in="SourceAlpha" type="matrix" values="0 0 0 0 0 0 0 0 0 0 0 0 0 0 0 0 0 0 127 0" result="hardAlpha"/>
<feMorphology radius="0.833333" operator="erode" in="SourceAlpha" result="effect3_dropShadow_4_665"/>
<feOffset dy="0.602187"/>
<feGaussianBlur stdDeviation="1.02372"/>
<feComposite in2="hardAlpha" operator="out"/>
<feColorMatrix type="matrix" values="0 0 0 0 0 0 0 0 0 0 0 0 0 0 0 0 0 0 0.03 0"/>
<feBlend mode="normal" in2="effect2_dropShadow_4_665" result="effect3_dropShadow_4_665"/>
<feBlend mode="normal" in="SourceGraphic" in2="effect3_dropShadow_4_665" result="shape"/>
</filter>
<filter id="filter1_ddd_4_665" x="0" y="62" width="368" height="115" filterUnits="userSpaceOnUse" color-interpolation-filters="sRGB">
<feFlood flood-opacity="0" result="BackgroundImageFix"/>
<feColorMatrix in="SourceAlpha" type="matrix" values="0 0 0 0 0 0 0 0 0 0 0 0 0 0 0 0 0 0 127 0" result="hardAlpha"/>
<feMorphology radius="2.5" operator="erode" in="SourceAlpha" result="effect1_dropShadow_4_665"/>
<feOffset dy="10"/>
<feGaussianBlur stdDeviation="17"/>
<feComposite in2="hardAlpha" operator="out"/>
<feColorMatrix type="matrix" values="0 0 0 0 0 0 0 0 0 0 0 0 0 0 0 0 0 0 0.024 0"/>
<feBlend mode="normal" in2="BackgroundImageFix" result="effect1_dropShadow_4_665"/>
<feColorMatrix in="SourceAlpha" type="matrix" values="0 0 0 0 0 0 0 0 0 0 0 0 0 0 0 0 0 0 127 0" result="hardAlpha"/>
<feMorphology radius="1.66667" operator="erode" in="SourceAlpha" result="effect2_dropShadow_4_665"/>
<feOffset dy="2.28853"/>
<feGaussianBlur stdDeviation="3.89051"/>
<feComposite in2="hardAlpha" operator="out"/>
<feColorMatrix type="matrix" values="0 0 0 0 0 0 0 0 0 0 0 0 0 0 0 0 0 0 0.024 0"/>
<feBlend mode="normal" in2="effect1_dropShadow_4_665" result="effect2_dropShadow_4_665"/>
<feColorMatrix in="SourceAlpha" type="matrix" values="0 0 0 0 0 0 0 0 0 0 0 0 0 0 0 0 0 0 127 0" result="hardAlpha"/>
<feMorphology radius="0.833333" operator="erode" in="SourceAlpha" result="effect3_dropShadow_4_665"/>
<feOffset dy="0.602187"/>
<feGaussianBlur stdDeviation="1.02372"/>
<feComposite in2="hardAlpha" operator="out"/>
<feColorMatrix type="matrix" values="0 0 0 0 0 0 0 0 0 0 0 0 0 0 0 0 0 0 0.03 0"/>
<feBlend mode="normal" in2="effect2_dropShadow_4_665" result="effect3_dropShadow_4_665"/>
<feBlend mode="normal" in="SourceGraphic" in2="effect3_dropShadow_4_665" result="shape"/>
</filter>
<filter id="filter2_ddd_4_665" x="21" y="124" width="326" height="115" filterUnits="userSpaceOnUse" color-interpolation-filters="sRGB">
<feFlood flood-opacity="0" result="BackgroundImageFix"/>
<feColorMatrix in="SourceAlpha" type="matrix" values="0 0 0 0 0 0 0 0 0 0 0 0 0 0 0 0 0 0 127 0" result="hardAlpha"/>
<feMorphology radius="2.5" operator="erode" in="SourceAlpha" result="effect1_dropShadow_4_665"/>
<feOffset dy="10"/>
<feGaussianBlur stdDeviation="17"/>
<feComposite in2="hardAlpha" operator="out"/>
<feColorMatrix type="matrix" values="0 0 0 0 0 0 0 0 0 0 0 0 0 0 0 0 0 0 0.024 0"/>
<feBlend mode="normal" in2="BackgroundImageFix" result="effect1_dropShadow_4_665"/>
<feColorMatrix in="SourceAlpha" type="matrix" values="0 0 0 0 0 0 0 0 0 0 0 0 0 0 0 0 0 0 127 0" result="hardAlpha"/>
<feMorphology radius="1.66667" operator="erode" in="SourceAlpha" result="effect2_dropShadow_4_665"/>
<feOffset dy="2.28853"/>
<feGaussianBlur stdDeviation="3.89051"/>
<feComposite in2="hardAlpha" operator="out"/>
<feColorMatrix type="matrix" values="0 0 0 0 0 0 0 0 0 0 0 0 0 0 0 0 0 0 0.024 0"/>
<feBlend mode="normal" in2="effect1_dropShadow_4_665" result="effect2_dropShadow_4_665"/>
<feColorMatrix in="SourceAlpha" type="matrix" values="0 0 0 0 0 0 0 0 0 0 0 0 0 0 0 0 0 0 127 0" result="hardAlpha"/>
<feMorphology radius="0.833333" operator="erode" in="SourceAlpha" result="effect3_dropShadow_4_665"/>
<feOffset dy="0.602187"/>
<feGaussianBlur stdDeviation="1.02372"/>
<feComposite in2="hardAlpha" operator="out"/>
<feColorMatrix type="matrix" values="0 0 0 0 0 0 0 0 0 0 0 0 0 0 0 0 0 0 0.03 0"/>
<feBlend mode="normal" in2="effect2_dropShadow_4_665" result="effect3_dropShadow_4_665"/>
<feBlend mode="normal" in="SourceGraphic" in2="effect3_dropShadow_4_665" result="shape"/>
</filter>
<filter id="filter3_d_4_665" x="0.349976" y="186" width="367.3" height="114.19" filterUnits="userSpaceOnUse" color-interpolation-filters="sRGB">
<feFlood flood-opacity="0" result="BackgroundImageFix"/>
<feColorMatrix in="SourceAlpha" type="matrix" values="0 0 0 0 0 0 0 0 0 0 0 0 0 0 0 0 0 0 127 0" result="hardAlpha"/>
<feMorphology radius="2.5" operator="erode" in="SourceAlpha" result="effect1_dropShadow_4_665"/>
<feOffset dy="10"/>
<feGaussianBlur stdDeviation="17"/>
<feComposite in2="hardAlpha" operator="out"/>
<feColorMatrix type="matrix" values="0 0 0 0 0 0 0 0 0 0 0 0 0 0 0 0 0 0 0.024 0"/>
<feBlend mode="normal" in2="BackgroundImageFix" result="effect1_dropShadow_4_665"/>
<feBlend mode="normal" in="SourceGraphic" in2="effect1_dropShadow_4_665" result="shape"/>
</filter>
<clipPath id="clip0_4_665">
<rect width="32" height="20" fill="white" transform="translate(51.5 99.5)"/>
</clipPath>
</defs>
</svg>
